<svg xmlns="http://www.w3.org/2000/svg" width="1258.676" height="728.499" version="1.2">\n<path d="M1.668 728.499c.564-.545 1.268-.974 1.692-1.634.276-.428.324-.985.32-1.495-.003-.515-.083-1.061-.34-1.507-.215-.373-.654-1.075-1-.818-1.082.803-2.175 1.959-2.34 3.297m571.335-3.621c2.577-1.21 5.214-2.301 7.73-3.631 1.097-.58 2.32-1.106 3.083-2.085 1.632-2.098 2.743-4.56 3.937-6.935 1.108-2.204 2.077-4.481 2.959-6.785.99-2.59 2.109-5.164 2.654-7.883.142-.707-.655-1.338-.66-2.059-.002-.389.526-.602.643-.973a1.77 1.77 0 0 0 0-1.054c-.123-.381-.69-.601-.664-1 .039-.626.67-1.082.833-1.688.728-2.719 1.48-5.451 1.826-8.245.05-.403-.676-.606-.681-1.013-.01-.708.664-1.319.642-2.027-.022-.714-.768-1.286-.768-2s.74-1.286.768-2c.015-.39-.575-.591-.652-.974-.197-.99-.146-2.016-.146-3.026 0-.677-.028-1.372.146-2.026.1-.378.642-.583.652-.974.01-.388-.6-.612-.6-1 .002-.389.6-.612.6-1 0-.389-.62-.612-.598-1 .04-.713.774-1.286.768-2-.01-1.045-.815-1.983-.812-3.027.002-.715.769-1.265.828-1.977.22-2.655.208-5.336 0-7.993-.056-.715-.784-1.286-.784-2.003 0-.717.728-1.289.784-2.004.248-3.204-.438-6.476.117-9.641.155-.884 1.105-1.496 1.907-1.898a19.61 19.61 0 0 1 5.452-1.792c.418-.072.658.722 1.079.673 5.344-.63 10.577-2.035 15.919-2.677.404-.049.634.631 1.04.638.389.008.612-.598 1-.599.389 0 .613.621 1 .599.714-.04 1.287-.768 2-.768.715 0 1.288.728 2 .768.389.022.613-.622 1-.598.717.043 1.297.668 2.004.783.667.108 1.366.027 2.023-.132.695-.169 1.266-.762 1.977-.837a29.783 29.783 0 0 1 5.993 0c.714.07 1.288.74 2.004.784.388.024.61-.599 1-.599.389 0 .61.599 1 .599.389 0 .612-.607 1-.598.388.008.602.525.973.642.335.106.719.106 1.054 0 .37-.117.584-.644.973-.642.39.002.596.551.974.651.654.174 1.349.146 2.026.146.677 0 1.373.032 2.026-.146.392-.106.61-.76 1.008-.681 1.395.276 2.536 1.382 3.932 1.658.414.082.655-.705 1.076-.669 3.668.309 7.243 1.433 10.916 1.68.73.049 1.31-.83 2.042-.809 1.05.03 1.96.832 3.003.954 1.333.156 2.7.087 4.023-.133.386-.064.555-.696.947-.695 1.056.004 2.038.813 3.089.708 2.357-.235 4.55-1.387 6.898-1.702.403-.054.636.672 1.04.636.43-.038.769-.456 1.002-.819.282-.437.43-.966.482-1.484.067-.672.205-1.438-.133-2.022-.545-.944-1.263-2.34-2.351-2.274-1.32.081-1.813 2.014-3 2.599-.348.172-.601-.523-.971-.642a1.934 1.934 0 0 0-1.09-.02c-1.665.465-3.198 1.402-4.902 1.696-.4.068-.605-.672-1.01-.676-.71-.008-1.318.632-2.027.642-.39.006-.612-.606-1-.598-.408.008-.636.673-1.042.639-3.992-.329-7.9-1.409-11.895-1.707-.721-.054-1.34.65-2.063.666-.388.009-.612-.607-1-.598-.39.008-.602.525-.973.642-.335.106-.745.167-1.054-.001-.752-.408-1.165-1.358-1.972-1.641-.367-.129-.613.604-1.001.598-.405-.007-.638-.699-1.037-.632-1.661.279-3.106 1.529-4.788 1.611-.7.034-.971-1.126-1.65-1.298-.516-.132-.992.531-1.525.489-.712-.056-1.287-.728-2-.768-.388-.022-.612.609-1 .598-.391-.011-.587-.6-.974-.652-1.661-.221-3.35-.14-5.026-.147-.9-.004-1.836-.15-2.696.113-.546.168-.733 1.129-1.304 1.112-.767-.022-1.22-1.008-1.96-1.207-.667-.178-1.398-.042-2.066.129-.378.097-.584.669-.974.652-.716-.032-1.292-.692-2.004-.784-1-.13-2.033-.062-3.022.132-.384.075-.584.653-.974.652-.606-.001-1.096-.746-1.695-.658-.566.084-.746 1.08-1.318 1.101-.512.02-.655-1.081-1.162-1.006-1.061.155-1.738 1.416-2.796 1.587-.72.116-1.31-.711-2.033-.808-1-.133-2.033-.062-3.022.132-.384.076-.583.648-.974.652-.404.005-.638-.706-1.034-.628-1.73.337-3.256 1.38-4.967 1.799-.404.099-1.276.126-1.216-.286.128-.888 1.825-1.322 1.573-2.183-.224-.768-1.552-.484-2.352-.485a2.63 2.63 0 0 0-1.486.481c-.93.661-1.54 1.717-2.491 2.345-.294.193-.793.227-1.056-.007-.352-.314-.422-.869-.455-1.339-.12-1.66-.191-3.339-.001-4.993.083-.724.924-1.312.808-2.032-.17-1.055-1.512-1.72-1.585-2.787-.047-.697 1.09-.986 1.282-1.658.146-.511-.422-1.025-.363-1.553.042-.386.634-.585.642-.973.009-.388-.6-.612-.6-1 0-.389.6-.612.6-1 0-.389-.598-.612-.6-1 0-.389.609-.612.6-1-.008-.389-.525-.602-.642-.973a1.724 1.724 0 0 1 0-1.054c.126-.369.559-.578.686-.946a1.667 1.667 0 0 0 0-1.054c-.126-.369-.561-.577-.685-.946-.112-.332-.286-.867.012-1.052.46-.287 1.233.401 1.628.029.283-.267-.576-.614-.596-1.002-.016-.311.684-.531.506-.786-.51-.728-1.353-1.186-2.154-1.572-.325-.156-.743-.109-1.081.015a1.486 1.486 0 0 0-.765.665c-.997 1.827-1.433 3.973-2.68 5.641-.783 1.049-2.26 1.36-3.218 2.252-1.078 1.002-1.704 2.446-2.841 3.382-.988.814-2.157 1.508-3.411 1.766-1.66.342-3.51.612-5.084-.014-1.454-.577-3.182-1.763-3.315-3.321-.25-2.899 1.352-5.67 2.306-8.418.328-.943.87-1.821 1.512-2.585 1.225-1.456 2.47-2.962 4.048-4.027.416-.281 1.008.481 1.475.299.797-.31 1.22-1.234 1.972-1.641.309-.168.763-.196 1.055 0 1.103.74 1.717 2.179 2.946 2.684.655.269 1.338-.805 2.027-.641.83.197 1.254 1.185 2 1.596.133.073.393-.186.322-.319-.75-1.399-1.977-2.525-2.62-3.975-.127-.287.737-.579.507-.792-1.198-1.104-2.661-1.924-4.155-2.573-.627-.273-1.378-.263-2.048-.123-1.962.41-4.034.721-5.752 1.753-1.72 1.033-3.067 2.639-4.254 4.257-.252.343.438.901.208 1.259-.46.713-1.511.871-2.017 1.552-.83 1.117-1.366 2.431-1.898 3.716-.657 1.59-1.264 3.213-1.661 4.887-.163.689-.146 1.43-.001 2.122.407 1.935.915 3.862 1.647 5.698.18.452.627.768 1.038 1.03 1.498.95 2.923 2.197 4.655 2.581.75.166 1.26-1.098 2.029-1.099.758-.002 1.237 1.091 1.995 1.091.556-.001.752-.865 1.258-1.093 1.499-.675 3.145-.971 4.673-1.578.663-.263 1.38-.515 1.88-1.025 1.065-1.086 1.667-2.567 2.718-3.666.188-.196.798-.295.814-.024.32 5.664.242 11.347.146 17.02-.008.474-.014 1.176-.456 1.347-1.161.449-2.524-.063-3.723.27-.56.155-.748 1.055-1.324 1.131-.543.072-.913-.691-1.456-.763-.527-.07-1.024.421-1.552.362-.387-.043-.605-.767-.974-.642-.81.274-1.14 1.443-1.972 1.641-.687.164-1.304-.579-2.001-.694-.994-.164-2.02-.264-3.02-.134-3.348.436-6.6 1.54-9.965 1.825-.73.062-1.31-.809-2.041-.808-.711 0-1.262.781-1.973.812-.708.03-1.32-.665-2.027-.642-.714.022-1.286.778-2 .768-.713-.009-1.27-.709-1.974-.821-1.324-.211-2.698-.359-4.02-.134-2.066.352-3.916 1.821-6.012 1.841-3.037.03-5.926-1.45-8.953-1.694-.73-.059-1.31.801-2.041.808-.714.007-1.286-.74-2-.768-.39-.016-.591.575-.974.651-.99.198-2.016.148-3.026.148-1.343 0-2.7.064-4.026-.148-.386-.061-.583-.651-.974-.651s-.587.601-.974.651c-1.661.218-3.355.287-5.022.133-.715-.067-1.288-.74-2.004-.784-.388-.024-.612.609-1 .598-.39-.01-.591-.575-.974-.652-.99-.197-2.016-.142-3.026-.147-7.332-.039-14.67-.243-21.997.015-.713.025-1.262.804-1.976.828-.706.023-1.304-.581-2.001-.695-.995-.164-2.023-.269-3.023-.133-1.04.142-1.953.915-3.003.954-.714.026-1.287-.728-2-.768-.388-.022-.611.598-1 .598-.39 0-.612-.607-1-.598-.39.008-.602.525-.973.642a1.786 1.786 0 0 1-1.054 0c-.371-.117-.585-.659-.973-.642-.714.03-1.286.774-2 .768-.73-.006-1.313-.892-2.037-.802-1.72.213-3.216 1.383-4.926 1.666-.402.066-.61-.619-1.011-.686-1.325-.218-2.683-.146-4.026-.146-.677 0-1.374-.034-2.026.146-.396.109-.607.722-1.016.694-4.277-.298-8.523-.966-12.755-1.65-.206-.034-.57-.35-.405-.478 1.682-1.313 3.74-2.093 5.407-3.426.183-.147-.605-.443-.41-.574 2.507-1.675 5.363-2.779 7.889-4.425 2.37-1.544 4.583-3.324 6.767-5.123 1.695-1.396 3.14-3.082 4.859-4.45.8-.638 1.664-1.303 2.66-1.538.393-.093.61.59 1.004.675.667.144 1.388.16 2.047-.015.198-.053.249-.384.199-.582-.39-1.532-.851-3.056-1.492-4.501-.13-.29-.46-.683-.76-.576-1.652.594-3.214 1.475-4.631 2.512-.685.502-.84 1.558-1.553 2.018-.262.169-.502-.634-.787-.506-1.357.609-2.544 1.561-3.687 2.513-1.303 1.084-2.336 2.464-3.62 3.57-1.25 1.077-2.551 2.113-3.965 2.964-1.074.647-2.407.806-3.45 1.501-1.982 1.322-3.612 3.119-5.552 4.503-1.585 1.131-3.278 2.109-4.997 3.025-1.104.587-2.342.894-3.45 1.472-.687.358-1.362.776-1.91 1.324-.618.619-1.534 1.253-1.537 2.129-.003.91 1.147 1.438 1.52 2.268.233.514-.177 1.312.257 1.672 1.602 1.331 3.552 2.199 5.446 3.064 1.565.715 3.183 1.419 4.887 1.656.725.101 1.369-.825 2.088-.685 2.782.545 5.407 1.712 8.074 2.673 1.569.565 3.129 1.168 4.626 1.902 2.224 1.091 4.274 2.519 6.519 3.565 4.533 2.112 9.156 4.028 13.794 5.9 1.597.646 3.22 1.257 4.899 1.649.678.159 1.407.133 2.087-.015.382-.083.6-.767.974-.651.744.23 1.023 1.662 1.786 1.507.872-.176 1.55-1.292 1.536-2.181-.014-.799-.871-1.464-1.604-1.78-3.354-1.449-6.985-2.153-10.415-3.411-3.388-1.243-6.758-2.557-10.027-4.088-4.257-1.993-8.27-4.48-12.526-6.476-1.503-.704-3.075-1.339-4.713-1.605-.4-.065-.625.55-1.01.676-.334.109-.737.149-1.055-.001-.491-.231-.745-.819-1.225-1.073-1.086-.575-3.085-.202-3.417-1.385-.266-.948 1.696-1.27 2.68-1.24 4.36.131 8.614 1.707 12.978 1.711 1.45.001 2.555-1.698 4.005-1.698 1.157 0 1.87 1.696 3.027 1.696 7.666 0 15.277-1.376 22.937-1.696.41-.017.62.587 1.017.695.65.178 1.37.316 2.02.132 1.419-.4 2.55-1.822 4.024-1.836 4.019-.036 7.932 1.38 11.94 1.692.406.032.627-.555 1.014-.683.334-.11.72-.106 1.055 0 .37.117.585.633.973.642.388.009.612-.598 1-.598s.612.598 1 .598.612-.622 1-.598c.716.044 1.288.741 2.003.784 3.658.22 7.336.231 10.993 0 .735-.047 1.312-.862 2.046-.827 6.34.302 12.605 1.863 18.952 1.827 2.109-.012 3.956-1.5 6.012-1.97.658-.15 1.364-.024 2.02.133.693.165 1.26.812 1.974.821.714.01 1.286-.738 2-.768.388-.017.584.642.972.642.709 0 1.319-.642 2.028-.642.388 0 .6.522.97.641.347.112.732.073 1.093.025 3.966-.523 7.885-1.438 11.874-1.734.734-.055 1.37.812 2.097.696 1.405-.224 2.537-1.38 3.932-1.658.395-.079.603.674 1.007.672.704-.003 1.295-.686 2-.686 1.043 0 2.029.88 3.054.685.84-.16 1.13-1.497 1.973-1.641.537-.092 1.212.551 1.212 1.096 0 .697-.895 1.083-1.211 1.704-.053.103.284.199.203.281-.921.927-2.105 1.573-2.995 2.53-1.45 1.563-2.811 3.222-3.992 4.996-2.811 4.222-5.427 8.573-7.964 12.965-1.111 1.922-2.175 3.889-2.97 5.963a184.809 184.809 0 0 0-4.944 14.673c-2.115 7.285-4.297 14.576-5.708 22.029-.503 2.661-.398 5.445 0 8.123.499 3.353 1.385 6.676 2.666 9.814.717 1.755 1.892 3.344 3.249 4.668.918.898 2.178 1.412 3.395 1.822m4.109-5.027c-1.016.049-2.033.221-3.047.146-.52-.038-1.066-.174-1.485-.482-.863-.634-1.687-1.377-2.268-2.277a11.749 11.749 0 0 1-1.58-3.689c-.073-.322.663-.524.542-.831-.245-.622-1.251-.765-1.424-1.409-.165-.614.587-1.189.555-1.823-.02-.391-.59-.57-.695-.947a4.768 4.768 0 0 1-.132-2.022c.169-1.037.922-1.954.953-3.004.02-.731-.883-1.313-.806-2.04.26-2.445 1.082-4.8 1.783-7.157.188-.632.823-1.118.875-1.776.033-.414-.743-.657-.65-1.061.405-1.764 1.487-3.308 2.05-5.028 1.597-4.871 2.808-9.863 4.425-14.727.896-2.697 1.879-5.377 3.108-7.939 1.798-3.748 3.823-7.389 5.958-10.956.388-.649 1.157-1.003 1.576-1.632.924-1.386 1.52-2.971 2.425-4.369 1.232-1.907 2.183-4.137 3.976-5.53.587-.456.38 1.473.295 2.211-.083.712-.784 1.287-.783 2.004 0 .717.704 1.291.784 2.003.185 1.654.196 3.34 0 4.993-.084.709-.795 1.263-.828 1.977-.033.708.632 1.318.642 2.027.006.388-.6.611-.6 1 0 .388.609.612.6 1-.008.388-.525.602-.642.972a1.79 1.79 0 0 0 0 1.055c.117.37.612.584.64.971.024.314-.637.508-.51.796.277.618 1.513.709 1.485 1.385-.071 1.708-1.501 3.131-1.742 4.824-.101.706.74 1.284.769 1.997.016.39-.57.592-.651.974a4.813 4.813 0 0 0 0 2.052c.09.4.724.607.692 1.016-.305 4-1.36 7.917-1.681 11.916-.032.406.64.634.64 1.042 0 .388-.525.602-.642.973-.106.335-.11.72 0 1.054.126.385.745.611.675 1.01-.587 3.382-1.54 6.698-2.583 9.969a114.943 114.943 0 0 1-4.022 10.744c-.6 1.385-1.248 2.822-2.311 3.894-1.136 1.144-2.802 1.61-4.1 2.567m-218.045-30.99c3.308-.872 6.655-1.605 9.923-2.617 1.56-.483 3.112-1.054 4.534-1.858 2.19-1.238 4.407-2.522 6.249-4.238.55-.513.272-1.505.627-2.168.35-.654 2.067-1.293 1.443-1.694-1.142-.734-2.785-.426-4.073.002-.974.324-1.351 1.607-2.25 2.101-2.763 1.52-5.674 2.775-8.628 3.88-2.947 1.103-5.943 2.153-9.037 2.731-.708.132-1.34-.681-2.06-.659-.716.022-1.291.692-2.003.784-1 .129-2.033.062-3.022-.133-.383-.075-.583-.649-.974-.651-.388-.002-.602.523-.971.641-.344.11-.751.154-1.084.014-.943-.395-1.855-.911-2.635-1.571-1.335-1.13-3.102-2.102-3.662-3.759-.752-2.227-.296-4.721.009-7.052.049-.374.775-.242.988-.554 2.45-3.592 4.396-7.52 6.932-11.053.538-.75 1.66-.93 2.205-1.676.792-1.085.963-2.528 1.69-3.658.46-.714 1.013-1.505 1.814-1.789 7.157-2.541 14.579-4.272 21.81-6.596a32.917 32.917 0 0 0 4.628-1.901c.286-.143.595-.407.626-.724.078-.792.406-2.044-.322-2.366-1.551-.685-3.456-.489-5.087-.023-5.11 1.46-9.835 4.056-14.88 5.728-.454.151-1.156.081-1.396-.333-.257-.446.095-1.051.33-1.508.746-1.45 1.547-2.894 2.582-4.154.593-.722 1.604-1.006 2.23-1.701.699-.775.996-1.854 1.682-2.641.283-.324.869-.268 1.145-.599 3.179-3.81 6.322-7.665 9.153-11.741 1.375-1.979 2.19-4.298 3.425-6.369.293-.492.926-.755 1.137-1.288.208-.523.287-1.18.044-1.687-.322-.67-1.23-.908-1.6-1.553-.11-.194.609-.452.402-.539-2.656-1.11-5.37-2.178-8.198-2.719-.701-.134-1.284.772-1.997.769-.717-.003-1.287-.751-2.004-.784a157.505 157.505 0 0 0-14.993 0c-.715.035-1.282.666-1.977.837-.658.161-1.35.146-2.026.146-.677 0-1.373.033-2.026-.146-.392-.106-.61-.76-1.008-.681-1.396.276-2.537 1.382-3.932 1.658-.398.079-.612-.592-1.008-.681a5.135 5.135 0 0 0-2.088-.018 182.513 182.513 0 0 0-11.981 2.75c-.692.184-1.217.872-1.93.942-.413.04-.661-.76-1.061-.651-3.322.905-6.511 2.254-9.687 3.58-.293.122-.514.423-.62.723-.12.34-.155.748-.015 1.081.394.943.954 1.819 1.57 2.635.44.581.916 1.833 1.572 1.518 1.573-.754 1.895-3.15 3.455-3.929 2.997-1.498 6.394-2.086 9.698-2.642.71-.12 1.36.832 2.06.662.833-.202 1.142-1.442 1.973-1.641.704-.169 1.34.699 2.064.674 1.027-.036 1.948-.696 2.965-.847 5.315-.794 10.644-1.526 15.999-1.984a40.36 40.36 0 0 1 6.996.014c.715.063 1.288.752 2.004.784.39.017.587-.601.974-.652 1.659-.217 3.368-.404 5.02-.133 2.223.364 4.48.923 6.453 2.014.439.243.15 1.066-.098 1.502-1.335 2.337-2.894 4.549-4.564 6.66-1.052 1.329-2.511 2.297-3.57 3.62-1.072 1.339-1.66 3.033-2.79 4.323-1.226 1.403-3.057 2.213-4.21 3.677-3.108 3.945-4.754 9.091-8.492 12.445-1.891 1.697-4.908 1.337-7.403 1.816-3.737.717-7.488 1.433-11.278 1.769-.422.037-.66-.732-1.08-.672-4.294.608-8.534 1.582-12.743 2.629-.285.071-.591.387-.56.679.099.932.347 1.912.915 2.657a4.942 4.942 0 0 0 2.398 1.689c.382.119.627-.617 1.028-.621.389-.005.659.778 1.004.597.307-.16-.525-.91-.197-1.019 3.624-1.203 7.384-2.004 11.153-2.616.4-.065.634.639 1.04.636.39-.003.59-.576.974-.652.989-.194 2.023-.266 3.022-.132.723.097 1.315.934 2.033.808 1.104-.195 1.879-1.251 2.916-1.679.333-.138.762-.142 1.079.027.189.101.26.444.147.625-1.512 2.41-3.413 4.561-4.918 6.976-.725 1.163-1.06 2.536-1.747 3.721-1.188 2.047-3.24 3.671-3.868 5.953-.718 2.607-.416 5.44-.004 8.112.22 1.427.877 2.852 1.857 3.912.347.375 1.06-.514 1.51-.269.737.401.89 1.488 1.587 1.956 1.66 1.116 3.412 2.227 5.353 2.708 1.96.486 4.043.286 6.055.12.715-.059 1.288-.752 2.004-.784.39-.018.588.59.974.651m210.35-.361c-.22.013-.603.252-.656.039-.112-.444-.126-1.305.33-1.332m187.99-7.313c1.99-.574 3.924-1.411 5.973-1.72.413-.063.665.77 1.067.658 1.526-.428 2.77-1.557 4.243-2.147 3.112-1.246 6.398-2.04 9.483-3.352 2.745-1.168 5.395-2.564 7.969-4.071.624-.366.958-1.105 1.558-1.509.906-.609 2.063-.812 2.913-1.498.173-.139-.566-.389-.398-.533 1.26-1.081 3.05-1.493 4.18-2.711.346-.374-.411-1.013-.274-1.505.089-.321.644-.271.84-.54 1.033-1.409 2.247-2.773 2.8-4.429.225-.673-.645-1.319-.641-2.028.003-.721.826-1.358.659-2.059-.646-2.725-2.11-5.192-3.01-7.844-2.175-6.42-4.27-12.87-6.212-19.365-1.952-6.528-3.933-13.057-5.471-19.695-.091-.394.548-.624.675-1.008.115-.345.107-.737.022-1.091-.478-1.99-1.4-3.875-1.7-5.899-.06-.402.552-.626.679-1.012.11-.334.09-.715-.001-1.054-.184-.687-.83-1.262-.811-1.973.026-1.047.902-1.953.938-3 .024-.714-.728-1.287-.768-2-.022-.388.598-.612.598-1s-.607-.612-.598-1c.008-.388.525-.602.642-.973.106-.335.169-.747-.001-1.055-.301-.543-.754-1.051-1.313-1.321-.474-.228-1.202-.44-1.576-.071-1.234 1.22-2.243 2.747-2.795 4.392-.226.673.722 1.326.64 2.031-.042.366-.696.302-.943.576-.525.584-.935 1.266-1.327 1.947-1.666 2.889-3.394 5.75-4.841 8.754-1.961 4.069-3.478 8.34-5.374 12.439-.42.908-1.19 1.634-1.564 2.561-1.007 2.489-1.504 5.17-2.562 7.638-.701 1.637-1.891 3.024-2.692 4.615-1.181 2.35-2.041 4.853-3.246 7.191-.253.493-.868.744-1.1 1.247-.238.517.03 1.195-.253 1.688-.371.646-1.291.877-1.607 1.551-.133.285.675.528.508.795-.788 1.263-2.262 2-3.044 3.267-1.805 2.923-2.85 6.273-4.651 9.197-.9 1.457-2.506 2.391-3.395 3.854-1.403 2.31-2.078 5.005-3.414 7.354-.515.905-2.31 1.304-2.092 2.323.328 1.538 1.815 2.866 3.307 3.363.769.257 1.392-.952 1.769-1.67 1.066-2.03 1.387-4.399 2.474-6.417 1.265-2.348 3.108-4.338 4.536-6.591 1.59-2.509 3.292-4.976 4.512-7.684.16-.356-.68-.623-.598-1.004.076-.356.684-.303.933-.569.779-.836 1.539-1.712 2.113-2.7 2.995-5.156 6.015-10.314 8.576-15.699.172-.363-.678-.634-.621-1.032.047-.332.704-.241.847-.545 1.398-2.987 2.3-6.191 3.702-9.176.862-1.835 2.334-3.36 3.07-5.248.147-.373-.664-.632-.62-1.03.037-.316.64-.247.799-.523 1.71-2.999 3.036-6.207 4.753-9.202.562-.98 1.02-3.12 2.064-2.688 1.484.615 1.618 2.821 2.015 4.378.1.392-.625.632-.632 1.037-.006.388.607.612.599 1-.01.388-.523.601-.642.971-.11.345-.133.744-.018 1.088.45 1.346 1.402 2.518 1.69 3.907.085.409-.773.666-.658 1.068.593 2.085 2.057 3.853 2.65 5.938.115.401-.776.666-.654 1.065 3.6 11.73 8.002 23.203 11.698 34.904.209.663.286 1.458-.014 2.085-1.017 2.126-2.166 4.273-3.828 5.945-2.03 2.044-4.456 3.744-7.048 5.002a173.146 173.146 0 0 1-20.447 8.349c-.687.231-1.312-.916-2.026-.792-1.43.249-2.516 1.599-3.948 1.832-2.65.432-5.372.299-8.05.123-.716-.047-1.287-.782-2.004-.784-.714-.003-1.291.869-1.998.769-1.66-.235-3.205-1.018-4.727-1.721-.5-.23-.77-.832-1.275-1.049-.172-.073-.338.172-.474.3-.318.3-.755.554-.877.974-.191.657-.168 1.389-.001 2.052.152.599.49 1.167.926 1.607.688.696 1.427 1.477 2.372 1.729 1.314.35 2.73.167 4.08-.01.387-.05.584-.669.974-.651.716.032 1.287.743 2.003.784m-395.976-25.196c-.12-.436-.351-.857-.36-1.31-.001-.145.256-.404.333-.281.245.387.325.875.332 1.332m485.122-1.012c.292-.349.944-.597.877-1.048-.197-1.325-.85-2.573-1.582-3.695-.651-.997-1.966-1.486-2.5-2.551-2.202-4.405-3.86-9.065-5.611-13.669-.205-.539.042-1.212-.242-1.715-.367-.647-1.298-.872-1.607-1.55-.13-.286.46-.463.552-.764.106-.344.139-.742.015-1.081-1.107-3.019-2.743-5.841-3.678-8.917-.12-.395.81-.679.645-1.057-1.714-3.89-4.147-7.424-6.054-11.223-.682-1.359-.871-2.959-1.703-4.231-1.058-1.617-2.352-3.126-3.883-4.306-2.347-1.811-4.945-3.314-7.63-4.573-.627-.295-1.47-.309-2.081.019-.417.225-.413.875-.456 1.347-.082.873-.396 1.896.086 2.629.79 1.202 2.095 2.054 3.397 2.666.353.166.619-.658 1.003-.597.33.052.267.651.54.841 1.6 1.11 3.756 1.516 5.007 3.007 1.444 1.72 1.624 4.201 2.7 6.171.353.649 1.135.975 1.538 1.594.735 1.126 1.392 2.322 1.84 3.589 1.013 2.855 1.557 5.86 2.527 8.729.279.824.967 1.477 1.208 2.313.252.872-.118 1.88.243 2.713.296.683 1.29.877 1.606 1.551.133.284-.525.479-.51.792.02.387.603.61.598.998-.005.401-.785.662-.622 1.028 1.248 2.807 3.375 5.165 4.622 7.971.163.367-.733.644-.622 1.029.582 2.002 1.608 3.852 2.576 5.699a18.418 18.418 0 0 0 1.962 2.963c.618.77 1.31 1.495 2.095 2.094.815.623 1.71 1.166 2.666 1.541m92.02-6.017c.937-.548 2.026-.894 2.81-1.643.757-.72.972-1.876 1.683-2.64.929-.997 2.256-1.569 3.175-2.575 1.127-1.234 1.788-2.845 2.909-4.084.936-1.033 2.267-1.65 3.207-2.676.72-.774.98-1.889 1.7-2.662.92-1.003 2.25-1.582 3.15-2.602 1.69-1.905 2.96-4.152 4.58-6.116.52-.627 1.07-1.944 1.82-1.632 3.5 1.456 6.27 4.273 9.47 6.319.79.504 1.56 1.141 2.47 1.326.39.079.64-.701 1.03-.622.36.073.29.72.58.944 1.73 1.326 3.3 3.131 5.42 3.654.87.217 1.46-1.097 2-1.817.31-.416.43-.968.48-1.486.07-.672.15-1.405-.13-2.022-.26-.581-.72-1.381-1.36-1.338-.89.061-1.31 1.335-2.18 1.577-.3.084-.16-.642-.39-.855-.59-.541-1.28-.953-1.98-1.344-3.26-1.837-6.71-3.338-9.88-5.334-1.12-.703-2.99-1.396-2.88-2.71.17-2.218 2.18-3.899 3.53-5.66 1.1-1.42 2.6-2.48 3.79-3.826.28-.314.28-.821.57-1.118.66-.663 1.63-.99 2.24-1.7 1.29-1.504 2.03-3.447 3.41-4.874.21-.225.44.515.75.55.47.051 1.14.09 1.37-.315.34-.592.42-1.51 0-2.051-.28-.362-.95.566-1.34.322-1-.635-1.37-2.018-2.37-2.664-.34-.218-.89.078-1.14.391-1.41 1.762-2.28 3.913-3.71 5.665-.64.794-1.69 1.158-2.41 1.884a30.344 30.344 0 0 0-3.12 3.703c-1.26 1.735-2.19 3.688-3.46 5.411a6.623 6.623 0 0 1-1.76 1.661c-.31.193-.77.317-1.08.122-.9-.581-1.41-1.649-2.28-2.279-2.69-1.943-5.63-3.518-8.362-5.409-1.528-1.059-2.745-2.578-4.396-3.433-1.717-.889-3.612-1.84-5.542-1.714-.905.058-1.507 1.28-1.631 2.179-.1.724.465 1.504 1.07 1.912 1.23.829 2.702 1.289 4.152 1.604.309.068.568-.759.788-.53.786.82.71 2.3 1.594 3.014 1.865 1.507 4.327 2.093 6.347 3.398 2.3 1.495 5.02 2.707 6.57 4.978.54.799-.86 1.752-1.48 2.499-1.07 1.307-2.48 2.318-3.57 3.62-.59.711-.78 1.713-1.43 2.38-2.334 2.434-5.148 4.386-7.445 6.86-2.24 2.414-4.126 5.135-6.12 7.758-.9 1.186-1.97 2.295-2.557 3.664-.203.473.083 1.06.339 1.507m124.293-3.301c.84-.508 1.82-.844 2.53-1.524.46-.447.64-1.125.87-1.729.61-1.606 1.36-3.192 1.64-4.888.07-.416-.76-.664-.66-1.074.92-4.046 2.1-8.05 3.63-11.907 2.65-6.71 5.73-13.254 8.91-19.733.33-.682 1.16-1.008 1.58-1.64.92-1.385 1.45-3.012 2.42-4.367.71-.999 1.88-1.623 2.58-2.632 2.04-2.939 3.47-6.284 5.61-9.153 1.72-2.315 3.76-4.398 5.92-6.32 1.19-1.063 3.01-1.348 4.04-2.568.34-.402-.28-1.073-.67-1.426a7.96 7.96 0 0 0-2.63-1.573c-.41-.144-1.28-.252-1.28.176 0 .663 1.58.946 1.27 1.533-.32.611-1.4.133-2.07-.002-.31-.061-.48-.692-.77-.561-.78.355-1.36 1.077-1.88 1.764-.97 1.293-1.54 2.861-2.54 4.129-.35.442-1.08.458-1.44.898-1 1.26-1.58 2.825-2.56 4.103-.81 1.051-2.13 1.691-2.79 2.841-.25.435.45.998.3 1.478-.11.348-.7.289-.93.569-1.8 2.161-3.57 4.355-5.12 6.703-.75 1.143-1.07 2.525-1.74 3.718-1.02 1.812-2.33 3.453-3.33 5.28-1.79 3.295-3.56 6.612-5.01 10.066-1.19 2.821-2.02 5.783-2.9 8.713-1.28 4.279-2.67 8.541-3.6 12.911-.09.396.63.632.63 1.037 0 .391-.58.59-.65.973-.2.99-.29 2.026-.13 3.023m2.52-.679c-.45-.105-1.33.147-1.35-.314-.01-.456.89-.436 1.33-.333m-611.98-.353c-.448-.105-1.333.146-1.345-.314-.011-.457.884-.436 1.329-.333m10.984-2.346c-.013-.219-.251-.603-.04-.656.445-.112 1.307-.126 1.334.331m-9.294.325c-.013-.219-.251-.603-.038-.656.443-.112 1.305-.126 1.332.331m612.938-34.775c1.58-.569 3.31-.806 4.73-1.706.44-.284.42-1.015.37-1.542-.02-.293-.27-.609-.56-.68-2.88-.716-5.79-1.334-8.74-1.635-.4-.041-.66.781-1.04.638-1.63-.609-3.03-1.719-4.47-2.698-1.44-.982-2.89-1.984-4.16-3.175-1.02-.951-1.65-2.269-2.68-3.211-.77-.711-1.88-.988-2.66-1.692-.67-.6-.97-1.525-1.6-2.157a74.769 74.769 0 0 0-5.74-5.151c-.72-.583-1.68-.826-2.38-1.43-1.72-1.48-2.99-3.471-4.84-4.785-.4-.29-.97.36-1.47.299-.39-.047-.63-.508-1.01-.6-.14-.034-.3.136-.33.277-.14.661-.21 1.348-.14 2.02.05.518.15 1.085.48 1.486 1.29 1.564 2.77 2.979 4.31 4.303.8.685 1.85 1.02 2.66 1.692 1.1.914 2.09 1.957 3.03 3.038.28.32.25.868.58 1.13 1.26.992 2.89 1.474 4.08 2.545.77.691.94 1.887 1.67 2.618.74.733 1.84 1.003 2.64 1.669 1.21 1.002 2.1 2.356 3.34 3.308 1.48 1.135 3.05 2.229 4.79 2.909m-154.132-4.215c.678-.333 1.516-.45 2.035-1 .352-.373.659-1.113.327-1.504-.296-.348-.893.446-1.333.323-.323-.09-.253-.681-.545-.847-1.901-1.087-4.168-1.533-5.92-2.847-2.96-2.219-5.775-4.719-8.055-7.632-2.022-2.584-2.982-5.853-4.69-8.656-.393-.646-1.156-1.003-1.576-1.632-1.59-2.386-2.8-5.013-4.426-7.374-.56-.814-1.31-1.496-2.095-2.095-.827-.63-1.661-1.568-2.701-1.561-1.667.012-3.284.793-4.735 1.614-1.042.59-1.597 1.81-2.564 2.517-1.02.744-2.392.953-3.336 1.791-1.92 1.704-3.578 3.696-5.14 5.734-1.505 1.966-1.797 7.312-4.032 6.242-3.886-1.861-4.14-7.564-6.393-11.236-.325-.528-.7-1.235-1.314-1.316-1.372-.18-2.876-.029-4.108.602-.863.442-1.862 1.415-1.69 2.368.203 1.11 1.906 1.308 2.53 2.246.175.261-.443.484-.506.791-.03.141.133.309.275.33.675.1 1.377.145 2.047.014.31-.06.494-.721.766-.56.592.35.865 1.085 1.167 1.704.997 2.046 2.005 4.103 2.715 6.266.797 2.425 1.04 5.006 1.788 7.447.2.654.52 1.32 1.035 1.77.409.357 1.037.665 1.55.492.703-.237 1.286-.877 1.594-1.551 1.56-3.414 2.25-7.198 3.939-10.551.42-.837 1.64-.98 2.233-1.705 1.016-1.244 1.554-2.824 2.518-4.109.563-.75 1.242-1.439 2.028-1.952.36-.236.94.066 1.276-.205.713-.575.9-1.692 1.676-2.179 1.304-.816 2.889-2.111 4.334-1.584 1.956.713 2.995 2.937 4.14 4.674 3.06 4.636 5.42 9.708 8.43 14.375.304.47 1.059.465 1.42.891.784.919 1.123 2.172 1.944 3.058 1.43 1.543 3.083 2.873 4.747 4.161.58.449 1.284.716 1.95 1.021 1.208.553 2.38 1.231 3.668 1.551m38.056-84.987c1.244-.544 2.575-.92 3.73-1.632 2.418-1.488 4.805-3.066 6.943-4.938.77-.683.93-1.885 1.66-2.616.69-.685 1.85-.792 2.48-1.526 1.56-1.816 2.8-3.896 3.98-5.98 1.79-3.179 3.77-6.318 4.93-9.782 1.72-5.169 3.24-10.5 3.62-15.934.08-1.083-1.38-1.746-2.34-2.268-.27-.151-.62.288-.75.576-.79 1.777-1.41 3.626-1.94 5.496-.66 2.301-.87 4.715-1.6 6.995-.16.506-.92.706-1.01 1.23-.06.383.52.602.64.972.11.344.17.756.02 1.084-1.05 2.279-2.28 4.477-3.57 6.631-1.24 2.063-2.52 4.114-4.01 6.004-1.04 1.333-2.452 2.346-3.571 3.622-1.25 1.426-2.035 3.288-3.518 4.47-1.906 1.518-5.247 5.587-6.44 3.462-3.853-6.873-3.207-15.431-4.62-23.183-.124-.684-.138-1.409.017-2.087.09-.398.755-.611.689-1.014-.614-3.698-2.053-7.226-2.67-10.923-.07-.417.722-.658.669-1.077-.96-7.678-2.698-15.245-3.671-22.922-.051-.402.759-.652.634-1.038-.265-.824-1.63-1.163-1.622-2.028.01-1.14 1.742-1.847 1.67-2.985-.28-4.398-2.061-8.584-2.685-12.947-.06-.421.717-.658.677-1.081-.312-3.333-1.456-6.558-1.706-9.896-.08-1.067.849-2.062.73-3.125-.224-2.029-1.466-3.851-1.728-5.876-.091-.712.696-1.317.707-2.035.012-.709-.638-1.318-.642-2.027-.001-.404.71-.639.629-1.035-.29-1.392-1.381-2.536-1.66-3.931-.08-.412.726-.656.666-1.073-.292-2.03-1.38-3.892-1.671-5.922-.06-.418.702-.655.668-1.076-.104-1.302-.83-2.487-1.054-3.773-.986-5.637-1.471-11.359-2.575-16.974-.101-.515-.913-.699-1-1.216-.048-.284.638-.209.712-.487.83-3.127 1.884-6.275 1.943-9.51.042-2.323-.943-4.558-1.646-6.772-.091-.286-.395-.52-.69-.581-.67-.141-1.551-.46-2.05.007-.58.543-.516 1.547-.456 2.339.054.715.739 1.288.783 2.004.024.388-.604.612-.6 1 .007.403.71.639.63 1.034-.271 1.343-1.567 2.417-1.601 3.786-.017.693 1.479.776 1.472 1.468-.017 1.64-1.557 3.036-1.533 4.675.013.87 1.453 1.185 1.632 2.036.147.702-.736 1.289-.784 2.004-.178 2.681-.261 5.399.115 8.059.569 4.028 2.062 7.883 2.705 11.899.064.401-.628.633-.635 1.039-.006.388.606.611.599 1-.006.405-.69.636-.631 1.037.635 4.352 2.05 8.567 2.67 12.922.06.42-.728.659-.675 1.081.294 2.355 1.367 4.567 1.673 6.92.053.403-.637.634-.636 1.04.002.388.525.602.643.973.106.335.11.72 0 1.054-.128.387-.73.61-.683 1.014.629 5.344 2.046 10.576 2.676 15.919.048.403-.55.625-.68 1.01-.114.346-.086.734-.022 1.093.83 4.645 2.056 9.222 2.702 13.897.056.402-.637.634-.636 1.04.002.388.526.602.643.973.106.335.11.72 0 1.054-.127.386-.736.61-.678 1.012.29 2.03 1.38 3.891 1.67 5.922.06.42-.73.659-.673 1.079.625 4.684 2.048 9.237 2.675 13.92.056.419-.74.66-.67 1.077.284 1.71 1.38 3.216 1.666 4.926.066.398-.548.624-.676 1.007-.115.346-.088.734-.024 1.093.558 3.111 1.129 6.223 1.885 9.292.144.585.768 1.017.803 1.618.023.414-.728.654-.651 1.061.33 1.73 1.432 3.246 1.799 4.968.095.45-.048 1.493-.464 1.298-3.887-1.817-7.008-5.122-11.012-6.664-.842-.324-1.304 1.475-2.201 1.575-.54.06-.938-.688-1.09-1.208-.088-.301.745-.588.507-.792-1.767-1.511-3.99-2.4-5.857-3.785-.67-.496-.915-1.564-1.706-1.824-1.164-.383-2.627-.58-3.674.055-.682.413-.441 1.58-.324 2.369.086.581.43 1.16.898 1.517 1.02.781 2.185 1.422 3.418 1.785.313.092.546-.714.82-.536.936.607 1.255 1.942 2.217 2.506.335.196.6-.526.97-.641.336-.104.887-.296 1.054.013.217.401-.543.929-.325 1.33.518.952 1.333 1.809 2.299 2.299.347.175.602-.524.972-.642.344-.109.772-.196 1.083-.013 2.406 1.411 4.502 3.311 6.917 4.707.485.28 1.24-.12 1.662.249 2.324 2.033 3.84 4.941 6.34 6.751m26.067-31.034c-.45-.105-1.33.146-1.35-.314-.01-.457.89-.436 1.33-.333m-.34-1.625c.1-.783-.47-2.321.32-2.347.78-.026.44 1.549.34 2.325m132.29-.626c.9-1.788 2.08-3.459 2.7-5.363.12-.384-.62-.631-.63-1.034-.01-.388.61-.612.6-1-.02-.723-.74-1.344-.67-2.063.33-3.353 1.84-6.569 1.84-9.937.01-5.353-1.46-10.616-1.81-15.958-.03-.407.55-.627.68-1.015.11-.333.09-.715 0-1.054-.18-.687-.8-1.262-.81-1.973-.01-.714.74-1.286.77-2 .01-.39-.57-.592-.65-.974-.18-.824-.68-1.927-.09-2.526 1.12-1.129 2.83-1.585 4.4-1.833.73-.114 1.32.695 2.04.817.67.112 1.37.039 2.03-.132.37-.098.58-.648.97-.651.41-.004.64.688 1.04.634 2.04-.275 4.01-.963 5.97-1.579 2.94-.92 5.99-1.635 8.74-3.025 1.11-.565 2.09-1.563 2.6-2.705.33-.727.33-1.911-.32-2.369-.84-.59-2.11-.351-3.08-.019-2.24.76-4.07 2.448-6.3 3.217-3.46 1.193-7.04 2.098-10.66 2.631-2.18.322-4.5.537-6.62-.089-.93-.275-1.5-1.419-1.69-2.369-.15-.71.89-1.308.79-2.025-.25-1.744-1.48-3.237-1.8-4.969-.07-.399.58-.617.68-1.008.18-.653.15-1.349.15-2.026 0-.677.03-1.372-.15-2.026-.1-.378-.64-.584-.65-.974-.01-.388.61-.612.6-1-.01-.391-.55-.596-.65-.974a5.111 5.111 0 0 1-.13-2.022c.14-1.038.77-1.985.82-3.031.02-.388-.63-.585-.64-.973-.01-.388.6-.612.6-1-.01-.404-.75-.649-.63-1.035 1.24-3.995 2.49-8.06 4.58-11.686 1.19-2.071 3.28-3.478 5.06-5.07 1.38-1.231 2.56-3.176 4.39-3.382 1.69-.189 3.18 1.325 4.51 2.384.24.196-.48.458-.56.762-.14.512-.36 1.15-.07 1.588.58.855 1.91 1.024 2.45 1.91.27.456-.36 1.023-.36 1.555-.01.157.2.42.33.331.83-.563 1.71-1.172 2.18-2.052.38-.697.35-1.591.19-2.365-.34-1.621-.67-3.348-1.64-4.686-.88-1.216-2.31-1.996-3.68-2.616-.63-.286-1.4-.137-2.08.01-.38.082-.58.651-.97.651s-.59-.589-.97-.652c-1.01-.162-2.25-.623-3.06.002-3.83 2.981-7.07 6.692-10.27 10.348-.21.238.6.495.51.798-.19.667-.97 1.039-1.23 1.682-.11.263.27.561.19.835-1.05 3.583-2.78 6.971-3.53 10.627-.22 1.034.69 2.032.7 3.088.01.389-.63.584-.64.973-.01.388.62.612.6 1-.05.716-.71 1.291-.79 2.003a23.15 23.15 0 0 0 0 4.993c.08.713.75 1.288.79 2.004.02.387-.52.601-.64.97-.11.347-.09.735-.03 1.093.54 2.817 3.23 5.915 1.82 8.408-1.42 2.499-5.5 1.7-8.16 2.776-.3.12-.74.476-.59.756.52.956 1.28 1.909 2.27 2.348.93.411 2.05.165 3.06.001.7-.115 1.26-.748 1.97-.821.51-.053 1.04.188 1.48.466.36.233.81.571.82 1.002.01.718-.71 1.291-.79 2.004-.14 1.334-.07 2.698.14 4.023.06.386.65.583.65.974s-.58.591-.65.974c-.2.989-.27 2.024-.14 3.022.1.708.81 1.263.83 1.977.03.725-.73 1.344-.68 2.069.28 4.001 1.37 7.916 1.68 11.916.03.409-.58.62-.69 1.016-.18.652-.15 1.349-.15 2.026 0 1.01-.05 2.036.15 3.026.08.394.77.611.67 1.002-.61 2.395-1.9 4.566-2.68 6.911-.12.345-.16.772.02 1.09.3.543.75 1.06 1.31 1.32m-78.51-33.326c1.37-1.886 2.58-3.904 4.11-5.657.83-.943 2.04-1.482 2.93-2.368 3.38-3.374 6.2-7.333 9.87-10.394.55-.46 1.58-.089 2.11.393 2.28 2.07 3.84 4.829 6.02 7.001 1.43 1.429 3.06 2.673 4.77 3.751 1.15.72 2.38 1.598 3.73 1.598s2.55-.926 3.72-1.598c.53-.298.98-.749 1.28-1.268.26-.445.57-1.045.34-1.509-.44-.915-1.12-2.068-2.13-2.183-.91-.104-1.36 1.265-2.17 1.693-.3.162-.72.141-1.04.001-1.79-.785-3.63-1.568-5.2-2.735-.24-.179.44-.457.5-.754.02-.155-.2-.25-.3-.364-.77-.82-1.46-1.724-2.33-2.438-.71-.58-1.68-.795-2.36-1.409-1.02-.922-2.26-1.829-2.68-3.139-.25-.782.43-1.636.94-2.278.59-.733 1.67-.96 2.24-1.704 1.01-1.313 1.35-3.067 2.4-4.346 1.23-1.497 3.03-2.437 4.34-3.863.77-.836.78-2.47 1.85-2.864.76-.282 1.14 1.495 1.95 1.459.52-.023-.07-1.083-.35-1.529-.37-.612-.87-1.22-1.52-1.522-.77-.359-1.74-.672-2.53-.359-2.07.816-3.81 2.315-5.64 3.579-.27.189-.65.425-.65.758 0 .71.96 1.394.64 2.031-.3.608-1.47.112-1.94.6-1.12 1.156-1.57 2.824-2.57 4.078-.8.995-1.55 2.341-2.79 2.615-.78.172-1.28-.988-1.79-1.609-.66-.815-.98-1.882-1.69-2.662-2.22-2.463-4.6-4.78-7.04-7.026-.2-.179-.54-.287-.78-.173-.78.372-1.72.759-2.1 1.538-.39.796-.49 1.956.05 2.657.96 1.247 2.88 1.422 3.98 2.552 2.18 2.243 3.92 4.884 5.73 7.433.13.169.15.471 0 .622-.62.673-1.55 1.021-2.17 1.703-1.02 1.123-1.62 2.595-2.69 3.666-1.34 1.333-3.13 2.143-4.47 3.476-1.58 1.574-2.71 3.553-4.22 5.189-.58.623-1.57.833-2.02 1.551-.17.274.63.505.53.814-.33 1.073-1.33 1.851-1.68 2.916-.22.658-.31 1.471.02 2.082.22.414.87.441 1.34.44m-38.55-2.448c.64-.665 1.39-1.231 1.9-1.994.19-.285.19-.688.12-1.023-.82-3.682-2.13-7.253-2.8-10.966-.07-.398.62-.632.63-1.037.01-.389-.6-.611-.6-1s.6-.611.6-1-.61-.612-.6-1c.01-.406.7-.639.63-1.039-.63-3.732-1.57-7.418-2.69-11.032-.44-1.388-1.54-2.507-1.96-3.899-.1-.31.71-.546.53-.814-.5-.735-1.36-1.186-2.16-1.572a1.24 1.24 0 0 0-1.08.014c-.54.301-1.09.737-1.32 1.316-.25.636-.14 1.38 0 2.05.06.317.63.47.57.787-.11.503-.98.676-.98 1.189s1.07.682.98 1.188c-.14.777-1.91 1.13-1.52 1.817.48.853 2.06.047 2.88.59.6.397.75 1.246.92 1.941.76 3.103 1.54 6.222 1.87 9.401.07.735-.79 1.369-.71 2.103.29 2.441 1.08 4.802 1.79 7.156.19.629.87 1.094.91 1.75.04.729-.81 1.364-.68 2.083.18 1.008.94 1.825 1.54 2.66.19.271.46.526.79.612m.02-2.012c-.12-.436-.35-.857-.36-1.309 0-.146.29-.422.33-.282m-916.81-106.44c5.923-.534 11.828-1.326 17.767-1.6.624-.029 1.119.782 1.738.701.569-.076.747-1.102 1.32-1.105 1.072-.005 1.966 1.237 3.025 1.083 5.148-.751 10.22-2.087 15.156-3.733 4.645-1.548 9.357-3.189 13.489-5.816 2.08-1.324 3.523-3.554 4.677-5.734.48-.908.32-2.109-.011-3.08-.278-.817-1.366-1.154-1.703-1.948-.347-.82.185-1.883-.25-2.66-.448-.799-1.701-.893-2.18-1.675-2.43-3.964-4.185-8.306-6.431-12.377-1.928-3.495-4.358-6.715-6.086-10.314-.176-.365.744-.648.632-1.037-1.27-4.402-3.4-8.525-4.662-12.929-.114-.399.74-.656.65-1.061-.588-2.655-1.583-5.211-2.6-7.733-.201-.496-.93-.712-1.02-1.239-.066-.383.523-.602.64-.972.112-.345.152-.75.02-1.088-.567-1.448-1.531-2.721-2.078-4.177-.672-1.791-.901-3.729-1.564-5.523a1.004 1.004 0 0 0-.696-.591c-.668-.144-1.415-.255-2.05-.001-.59.236-1.38.724-1.337 1.358.06.894 1.299 1.327 1.575 2.18.086.264-.614.119-.752.36-3.028 5.302-5.62 10.847-8.671 16.137-.376.653-1.15 1.002-1.573 1.626-2.43 3.583-4.786 7.22-6.962 10.962-1.97 3.389-3.553 6.99-5.465 10.412-.277.497-.97.759-1.087 1.315-.081.381.792.667.598 1.004-.753 1.305-2.263 2.041-3.082 3.305-2.38 3.669-4.176 7.689-6.464 11.415-.373.606-1.145.908-1.487 1.532-1.311 2.4-2.167 5.027-3.425 7.455-1.237 2.387-2.51 4.772-4.053 6.974-1.156 1.649-2.461 3.23-4.005 4.524-.238.2-.493-.612-.786-.506-.579.208-1.13.691-1.34 1.27-.174.485.09 1.058.34 1.508.21.379.542.83.975.862.707.052 1.319-.631 2.028-.641.388-.006.611.607 1 .598.388-.008.584-.645.972-.642.72.005 1.35.804 2.056.666 1.104-.216 1.858-1.359 2.946-1.644.29-.076.223.663.513.736m29.554-1.098c-.45-.105-1.334.146-1.346-.314-.011-.457.885-.436 1.329-.333m-.98-1.34c-.681-.21-1.331-.634-2.044-.629-.391.003-.587.601-.974.651-1.661.218-3.355.287-5.023.133-.714-.066-1.287-.75-2.003-.784-.388-.019-.602.525-.973.642a1.786 1.786 0 0 1-1.054 0c-.371-.117-.585-.661-.973-.642-.716.034-1.288.737-2.004.784-3.323.217-6.684.404-9.99.001-1.505-.184-3.05-.754-4.206-1.734-.355-.302.737-.613.95-1.028 2.934-5.747 5.37-11.746 8.463-17.41 1.775-3.251 4.318-6.041 6.109-9.284.157-.283-.722-.553-.53-.814.763-1.039 2.234-1.424 2.958-2.491 1.837-2.709 3.226-5.704 4.612-8.669.244-.523-.043-1.213.242-1.716.367-.647 1.29-.876 1.607-1.55.133-.284-.656-.515-.51-.793 1.6-3.031 3.477-5.922 5.51-8.681.998-1.353 2.606-2.193 3.539-3.592 1.097-1.646 1.508-3.666 2.458-5.402 1.152-2.106 2.256-7.906 3.832-6.095 3.703 4.252 3.154 10.829 4.945 16.176.639 1.909 1.839 3.618 2.337 5.569.102.399-.76.66-.644 1.056.877 3 2.245 5.836 3.498 8.7.594 1.359 1.23 2.711 2.036 3.956.41.635 1.206.973 1.576 1.632 2.04 3.628 3.524 7.553 5.61 11.153.764 1.318 2.212 2.172 2.9 3.53.178.347-.657.619-.596 1.004.052.329.655.264.84.54.72 1.065 1.423 2.177 1.823 3.399.216.659.407 1.54-.028 2.082-.294.366-.924-.507-1.365-.347-1.661.604-3.175 1.57-4.656 2.534-.61.398-.903 1.226-1.57 1.52-2.821 1.242-5.78 2.158-8.74 3.019-4.616 1.342-9.233 2.76-13.97 3.583-.718.125-1.306-.802-2.036-.802m172.493-21.511c.844.104 1.696.468 2.533.314.334-.062.24-.683.518-.877.986-.689 2.203-1.003 3.179-1.704a9.45 9.45 0 0 0 2.062-2.063c1.263-1.711 2.184-3.656 3.43-5.38 1.164-1.612 1.843-4.19 3.787-4.608 1.474-.317 2.12 2.154 3.308 3.083 2.497 1.953 4.704 4.589 7.726 5.548 1.58.501 3.189-.943 4.71-1.604.28-.123.53-.403.595-.703a2.08 2.08 0 0 0-.16-1.33c-.386-.777-.817-1.626-1.548-2.092-.467-.298-1.126-.096-1.661.045-.377.1-.615.806-.973.65-.952-.416-1.453-1.507-2.315-2.088-1.373-.925-3.022-1.409-4.347-2.402-.68-.509-.84-1.558-1.553-2.017-.263-.17-.485.444-.791.507-.141.029-.31-.134-.33-.275-.1-.676-.348-1.454-.014-2.05 1.9-3.399 4.152-6.608 6.566-9.664.859-1.088 2.48-1.482 3.183-2.677.449-.764.242-1.821-.047-2.659-.202-.59-.756-1.063-1.323-1.323-.503-.232-1.205-.362-1.661-.047-.796.552-1.357 1.456-1.69 2.366-.11.304.723.553.53.814-.774 1.051-2.17 1.513-2.992 2.526-1.341 1.651-2.191 3.652-3.43 5.38-.604.843-1.66 1.363-2.084 2.309-.16.355.706.628.598 1.002-.17.592-.692 1.132-1.272 1.341-.484.175-1.062-.079-1.506-.338-1.35-.786-2.42-2.008-3.794-2.751-3.71-2.005-7.83-3.239-11.411-5.465-1.268-.788-1.815-2.386-2.89-3.422-1.042-1.004-2.037-2.261-3.426-2.665-.594-.174-1.118.7-1.351 1.273-.257.634-.351 1.465 0 2.052 1.267 2.122 2.836 4.103 4.667 5.763 1.426 1.292 3.247 2.075 4.957 2.958 3.085 1.594 6.359 2.812 9.412 4.466.944.511 2.889.991 2.524 2.001-.918 2.533-3.841 3.813-5.42 5.996-.183.255.458.483.509.792.03.184-.17.338-.298.473-1.077 1.129-2.114 2.309-3.31 3.31-.752.629-1.815.847-2.498 1.549a6.488 6.488 0 0 0-1.548 2.611c-.135.448.064.991.354 1.359m-113.706-.282c-.213-.33-.522-.614-.638-.989a1.754 1.754 0 0 1 .003-1.061c.127-.368.56-.576.685-.945.112-.332.267-.84-.012-1.052-.292-.222-.825.49-1.078.224-.83-.87-1.057-2.167-1.725-3.166-1.002-1.499-2.416-2.72-3.274-4.306-2.271-4.199-4.22-8.573-6.072-12.973-1.334-3.169-2.136-6.546-3.48-9.711-1.52-3.586-3.18-7.124-5.1-10.512-1.063-1.876-2.435-3.566-3.816-5.221-1-1.198-1.984-2.481-3.303-3.313-.714-.449-1.69-.557-2.508-.348-.603.154-1.015.779-1.316 1.323-.17.308-.236.795 0 1.055 2.015 2.228 4.583 3.919 6.55 6.189.204.236-.65.51-.506.787 1.963 3.797 4.695 7.168 6.597 10.996.179.359-.725.642-.621 1.029.886 3.309 2.157 6.511 3.486 9.669 1.85 4.399 3.61 8.874 6.043 12.98 1.473 2.485 3.796 4.359 5.578 6.633.65.831.954 1.927 1.707 2.667.377.37.979.483 1.507.491m213.454-11.448c1.114-1.115 2.47-2.03 3.34-3.343 1.094-1.65 1.442-3.707 2.46-5.404.993-1.656 2.466-2.982 3.536-4.589.922-1.386 1.517-2.971 2.422-4.368.908-1.401 1.893-2.76 3.004-4.006 1.16-1.301 2.305-2.687 3.784-3.609.33-.206.585.629.974.642.63.021 1.269-.874 1.812-.551 1.546.921 2.363 2.742 3.764 3.873 2.916 2.356 6.206 4.219 9.14 6.552.439.348.487 1.037.89 1.425a6.97 6.97 0 0 0 2.004 1.355c2.073.913 4.17 1.84 6.38 2.336.395.089.625-.55 1.009-.676a1.698 1.698 0 0 1 1.055 0c.37.129.56.627.947.695 1.013.178 2.079.225 3.086.015 1.62-.337 3.176-.96 4.686-1.635a6.21 6.21 0 0 0 1.887-1.306c1.015-1.037 2.07-2.101 2.718-3.4.305-.612.257-1.418 0-2.052-.233-.573-.737-1.191-1.351-1.273-.612-.082-1.182.452-1.634.873-.687.64-.923 1.724-1.708 2.238-1.715 1.125-3.652 1.909-5.6 2.554-.671.222-1.425.133-2.12.003-2.263-.423-4.592-.743-6.706-1.655-1.5-.646-2.686-1.864-3.922-2.929-1.286-1.108-2.27-2.555-3.626-3.574-1.332-.999-2.995-1.481-4.368-2.422-2.32-1.592-4.685-3.176-6.682-5.158-.277-.276.136-.798.366-1.114.49-.675 1.328-1.072 1.75-1.793.998-1.708 1.483-3.681 2.458-5.402a47.792 47.792 0 0 1 4.009-6.012c.344-.437 1.023-.49 1.417-.884 1.718-1.722 3.16-3.706 4.88-5.427.3-.298.838-.271 1.128-.578.889-.945 1.087-2.785 2.344-3.108.914-.235 1.09 1.821 2.019 1.984.537.095-.451-1.29-.03-1.634.53-.432 1.382-.155 2.05-.015.383.08.598.552.977.649.146.037.406-.196.319-.318-1.314-1.866-2.548-3.864-4.297-5.33-.525-.439-1.5-.396-2.052.008-.531.389-.08 1.436-.55 1.897-1.494 1.467-3.473 2.348-5.11 3.655a13.312 13.312 0 0 0-2.097 2.101c-.655.823-1.008 1.864-1.692 2.662-1.326 1.547-3.001 2.774-4.308 4.338-.657.786-1.291 1.667-1.538 2.661-.097.39.7.638.622 1.032-.073.362-.72.284-.944.576-1.682 2.194-3.036 4.627-4.722 6.817-.12.156-.403.151-.585.075-1.964-.817-3.97-1.595-5.773-2.722-1.451-.905-2.694-2.119-3.91-3.323-.664-.66-1.02-1.594-1.7-2.237-1.961-1.853-4.281-3.309-6.188-5.216-1.4-1.401-2.377-3.174-3.687-4.661-.845-.96-1.644-2.044-2.764-2.663-.6-.331-1.417-.254-2.052 0-.59.237-1.411.727-1.338 1.359.11.972 1.296 1.486 1.762 2.345.206.379-.081.955.204 1.278 1.144 1.297 2.746 2.128 3.92 3.397.715.771 1.047 1.833 1.693 2.662a10.733 10.733 0 0 0 1.813 1.833c.826.651 1.885.984 2.662 1.692 1.082.986 1.71 2.426 2.857 3.336 3.07 2.439 7.92 3.152 9.712 6.64.99 1.929-2.15 3.782-3.474 5.499-1.025 1.329-2.552 2.225-3.535 3.585-.802 1.109-1.04 2.545-1.744 3.718-1.315 2.185-3.025 4.119-4.298 6.329-.987 1.714-1.525 3.658-2.458 5.402-.262.49-.926.723-1.101 1.25-.216.649-.258 1.418 0 2.052.234.575.812.977 1.355 1.276m-283.963.015c-.45-.105-1.334.146-1.346-.314-.011-.457.885-.436 1.329-.333m284.003-.38c-.12-.437-.351-.858-.36-1.311-.001-.145.256-.404.333-.281.245.387.325.875.332 1.332m338.634-6.643c6.094-.626 12.22-.979 18.28-1.878a28.482 28.482 0 0 0 6.663-1.821c1.723-.712 3.297-1.774 4.78-2.903 1.018-.774 1.904-1.731 2.662-2.759.206-.278.134-.683.134-1.03 0-2.008.199-4.042-.134-6.023-.09-.537-.858-.729-1.082-1.227-.897-1.99-1.182-4.245-2.243-6.152-1.45-2.605-3.328-4.957-5.22-7.261-.537-.655-1.555-.837-2.014-1.549-.17-.262.455-.479.506-.787.03-.183-.182-.327-.298-.472-.834-1.041-1.568-2.182-2.551-3.085-.772-.708-1.97-.892-2.65-1.688-.205-.242.594-.479.533-.791a18.576 18.576 0 0 0-1.601-4.707c-.323-.65-1.09-.976-1.516-1.564-.6-.83-1.291-1.667-1.538-2.661-.097-.389.77-.657.622-1.03-.59-1.472-2.041-2.494-2.622-3.97-.151-.384.734-.654.644-1.056-.61-2.722-2.054-5.211-2.656-7.934-.091-.411.745-.66.664-1.073-.38-1.939-1.467-3.68-1.97-5.591-.722-2.742-1.391-5.516-1.697-8.335-.044-.404.554-.626.68-1.013.11-.334.17-.747 0-1.055-.301-.541-.698-1.253-1.315-1.314-.937-.092-2.045.219-2.671.923-1.74 1.954-2.837 4.401-4.103 6.691-.607 1.099-.858 2.377-1.504 3.453-.37.616-1.122.938-1.5 1.55-.71 1.157-1.022 2.527-1.721 3.692-.315.523-.948.798-1.281 1.31-.653 1.004-.96 2.213-1.647 3.193-4.293 6.122-9.03 11.927-13.273 18.084-2.711 3.934-4.867 8.233-7.577 12.169-.307.446-1.004.465-1.384.851-.814.825-1.514 1.765-2.15 2.734-1.35 2.059-2.205 4.459-3.8 6.335-1.015 1.195-2.653 1.687-3.863 2.685-1.378 1.136-3.27 2.019-3.875 3.7-.33.912.892 1.815 1.689 2.368.456.315 1.177.221 1.66-.047.913-.504 1.455-1.501 2.283-2.134.735-.562 1.667-.84 2.38-1.43a22.744 22.744 0 0 0 3.095-3.095 111.032 111.032 0 0 0 6.004-8.006c1.609-2.373 2.782-5.026 4.426-7.374.703-1.004 1.876-1.619 2.573-2.626 2.316-3.345 4.08-7.051 6.427-10.374 1.663-2.356 3.846-4.308 5.57-6.62 2.327-3.123 4.68-6.256 6.566-9.664.432-.779-.186-1.884.25-2.659.457-.809 1.587-1.009 2.206-1.701.697-.777.982-1.867 1.683-2.64.257-.284.953-.764 1.078-.401 1.62 4.7 2.317 9.676 3.76 14.434 1.1 3.617 2.304 7.218 3.86 10.663 1.407 3.112 3.104 6.102 5.003 8.941.472.705 1.557.84 2.017 1.553.17.263-.73.571-.505.79.264.259.87-.515 1.09-.216 1.544 2.1 2.282 4.712 3.78 6.844.532.756 1.733.883 2.209 1.675 1.83 3.05 3.344 6.302 4.58 9.637.354.954.203 2.036.123 3.05a3.26 3.26 0 0 1-.483 1.486 4.14 4.14 0 0 1-1.318 1.306c-1.794 1.078-3.648 2.079-5.595 2.846-1.945.766-3.95 1.504-6.027 1.73-1.064.116-2.057-.795-3.126-.732-4.652.275-9.222 1.436-13.873 1.736-.717.046-1.317-.706-2.036-.711-.705-.004-1.295.686-2 .686-1.044 0-2.011-.712-3.055-.686-.71.018-1.261.83-1.972.812-1.047-.027-1.953-.912-3-.938-.711-.018-1.262.782-1.973.812-.708.03-1.318-.641-2.027-.642-.406-.001-.638.694-1.04.634-2.028-.302-3.891-1.379-5.921-1.67-.402-.058-.625.549-1.01.677a2.002 2.002 0 0 1-1.091.022c-1.983-.487-3.88-1.302-5.877-1.733a4.928 4.928 0 0 0-2.087.017c-.393.088-.623.811-1.002.674a58.653 58.653 0 0 1-9.635-4.513c-.733-.428-.84-1.557-1.553-2.017-.262-.169-.475.522-.786.506-.39-.02-.626-.506-1.004-.598-.138-.034-.343.134-.324.275.093.701.622 1.318.629 2.025.004.388-.64.614-.598 1 .064.614.447 1.187.873 1.633.788.827 1.697 1.563 2.698 2.113a21.397 21.397 0 0 0 4.473 1.831c2.694.763 5.434 1.423 8.214 1.761.404.049.64-.704 1.04-.638.523.086.716.868 1.226 1.01 2.877.801 5.816 1.42 8.782 1.776 1.982.238 4.002.194 5.989-.001.714-.07 1.287-.784 2.004-.784.717 0 1.29.704 2.003.784 1.654.185 3.34.185 4.994 0 .712-.08 1.287-.74 2.003-.784.388-.024.612.607 1 .598.388-.008.584-.651.973-.642m63.485-12.634c.289-.349.948-.601.867-1.047-.183-1.01-.948-1.828-1.54-2.666-1.925-2.722-3.907-5.406-6-8-.77-.954-1.894-1.606-2.573-2.626-1.671-2.509-2.767-5.37-4.426-7.887-.118-.18-.412.583-.513.393-.942-1.777-1.34-3.805-2.248-5.6-.977-1.93-2.417-3.601-3.387-5.534-.255-.509.094-1.229-.24-1.69-.543-.754-1.644-.964-2.208-1.704-1.004-1.316-1.514-2.95-2.403-4.347-1.442-2.269-3.256-4.298-4.58-6.637-2.363-4.18-4.042-8.727-6.458-12.877-.152-.259-.452.514-.752.497-.387-.023-.625-.704-.998-.597-.593.17-1.02.747-1.35 1.271-.19.305-.277.749-.12 1.074.396.823 1.41 1.291 1.682 2.163.145.469-.833.92-.594 1.349.499.896 1.889 1.029 2.409 1.913.27.46-.502 1.04-.368 1.556.139.536.819.77 1.095 1.25 1.58 2.748 2.786 5.707 4.455 8.401 2.68 4.328 5.899 8.308 8.579 12.636 1.66 2.684 2.849 5.636 4.424 8.37.287.497.95.748 1.14 1.29.296.84-.186 1.883.25 2.659.457.81 1.645.965 2.209 1.704 1.003 1.317 1.44 2.999 2.4 4.347.713.997 1.805 1.672 2.575 2.626.66.818 1.013 1.859 1.692 2.662.738.874 1.495 1.824 2.522 2.327.35.172.627-.507 1.007-.599.137-.034.338.134.324.275-.064.626-.81 1.242-.538 1.809.383.802 1.312 1.287 2.153 1.571m195.282-4.102c2.57-.539 5.095-1.374 7.71-1.619.733-.069 1.373.813 2.103.701 3.74-.576 7.38-1.692 11.02-2.721.68-.193 1.21-.86 1.91-.936.4-.042.66.77 1.03.621 1.47-.589 2.5-2.033 3.97-2.622.37-.149.64.695 1.03.622.54-.1.79-.787 1.27-1.049 1.11-.595 2.43-.785 3.46-1.501 1.03-.719 1.87-1.707 2.62-2.723.21-.279.13-.684.13-1.03.01-.686.11-1.406-.12-2.054-.41-1.211-1.06-2.34-1.76-3.412-.95-1.462-1.99-2.881-3.17-4.164-.63-.679-1.67-.929-2.21-1.675-.79-1.084-.95-2.54-1.69-3.658-.61-.915-1.71-1.431-2.32-2.349-1.32-2.013-2.19-4.3-3.42-6.37-1.29-2.153-3.16-3.975-4.13-6.287-.28-.653.9-1.367.64-2.028-.48-1.232-2.02-1.811-2.6-2.999-.18-.359.77-.655.62-1.028-.73-1.88-2.23-3.381-3.05-5.223-1.4-3.141-2.21-6.52-3.58-9.674-.39-.897-.79-1.977-1.665-2.416-.576-.29-1.464.125-1.817.665-1.477 2.263-2.17 4.955-3.416 7.354a47.56 47.56 0 0 1-3.003 5.006c-.413.6-1.193.92-1.521 1.57-.713 1.414-.803 3.093-1.54 4.495-1.105 2.104-2.488 4.062-3.943 5.941-2.043 2.637-4.561 4.891-6.532 7.582-.803 1.097-.996 2.548-1.725 3.695-1.613 2.534-3.637 4.787-5.275 7.305-.976 1.5-1.93 3.047-2.551 4.725-.11.293.682.53.506.787-.641.935-2.322 1.12-2.572 2.226-.198.879 1.272 1.35 1.575 2.2.105.295-.615.497-.51.792.208.58.698 1.116 1.27 1.34.435.169 1.226.132 1.364-.313.21-.679-.95-1.398-.636-2.035.299-.604 1.408-.172 1.934-.594.756-.608 1.494-1.403 1.723-2.345.169-.7-.731-1.343-.655-2.058.039-.362.689-.298.933-.569.968-1.076 2.053-2.116 2.665-3.427.165-.353-.681-.624-.598-1.004.079-.361.723-.281.944-.576.969-1.292 1.609-2.808 2.568-4.107 2.424-3.283 5.272-6.251 7.572-9.624 4.304-6.313 6.05-14.88 12.213-19.397 2.282-1.671 2.582 5.05 4.192 7.37.49.696 1.56.836 2.02 1.552.17.264-.46.46-.55.758-.11.346-.15.746-.02 1.086 1.08 2.938 2.13 5.912 3.61 8.668 2.06 3.811 4.45 7.438 6.96 10.963 1.68 2.348 3.8 4.343 5.57 6.62.57.723.81 1.669 1.41 2.357.56.637 1.56.837 2.02 1.549.17.262-.52.475-.51.786.02.386.6.609.6.996-.01.333-.33.617-.62.788-2.16 1.284-4.3 2.646-6.65 3.537-.38.142-.64-.696-1.03-.623-.54.102-.77.851-1.28 1.053-2.09.82-4.26 1.441-6.43 1.978-2.72.67-5.45 1.291-8.228 1.639-2.236.281-4.535-.135-6.757.243-.572.097-.748 1.055-1.324 1.131-.543.072-.91-.716-1.455-.763-.535-.047-.994.467-1.53.504-1.35.094-2.721.089-4.06-.115-2.661-.406-5.22-1.399-7.896-1.708-.403-.046-.625.553-1.011.681-.343.113-.752.155-1.084.013-1.03-.44-1.795-1.478-2.89-1.713-.703-.15-1.336.653-2.055.656-.39.002-.602-.525-.973-.642-.335-.106-.75-.175-1.055.001-.533.308-1.328.728-1.272 1.342.07.772.869 1.367 1.554 1.732a15.639 15.639 0 0 0 4.709 1.601c.399.067.638-.702 1.037-.633.533.093.76.81 1.254 1.032 1.509.677 3.066 1.298 4.685 1.635 1.008.211 2.072.152 3.087-.015.385-.063.584-.669.974-.651.716.032 1.288.736 2.003.784m-12.977-3.195c-.12-.437-.351-.858-.358-1.31-.003-.146.255-.405.332-.282.245.387.324.875.332 1.332m-92.88-1.01c1.074-1.191 2.245-2.302 3.22-3.574 1.329-1.731 2.62-3.509 3.679-5.417.27-.49-.081-1.21.249-1.663.548-.749 1.635-.969 2.207-1.7 1.737-2.216 1.837-7.154 4.65-7.052 5.474.199 9.526 5.431 14.489 7.748.636.297 1.446.237 2.107-.001.846-.304 2.217-.653 2.206-1.552-.015-1.281-1.24-2.334-2.261-3.107-.32-.241-.642.732-1.026.62-2.002-.582-3.903-1.518-5.7-2.575-2.012-1.184-4.04-2.441-5.668-4.114-.387-.397-.222-1.177.046-1.662 1.298-2.346 2.856-4.553 4.542-6.637.584-.722 1.793-.869 2.205-1.701.394-.794.342-1.862-.046-2.659-.476-.981-1.276-2.09-2.351-2.273-.773-.132-1.321.917-1.75 1.574-1.328 2.035-2.09 4.412-3.465 6.415-1.181 1.718-2.078 4.5-4.156 4.675-2.806.235-4.944-2.754-7.601-3.688-.39-.137-.661.764-1.056.645-3.002-.901-5.868-2.224-8.696-3.573-1.16-.553-2.04-1.611-3.222-2.111-.63-.267-1.37-.188-2.05-.121-.472.046-1.194.007-1.347.455-.271.8-.186 1.85.34 2.51a11.159 11.159 0 0 0 4.253 3.246c3.797 1.632 8.003 2.143 11.843 3.672 1.636.652 3.525 1.336 4.465 2.825.476.753-.596 1.718-1.16 2.407-.581.71-1.611.959-2.182 1.678-1.322 1.664-2.151 3.677-3.426 5.378-.905 1.208-2.343 1.999-3.09 3.312-.198.348.772.656.623 1.029-.59 1.472-2.025 2.501-2.623 3.97-.146.36.599.612.599 1.001 0 .389-.712.629-.598 1.001.179.587.772.992 1.303 1.301m-255.546-.277c2.409-1.412 4.915-2.67 7.226-4.237.807-.547 1.483-1.286 2.069-2.065 1.627-2.161 3.325-4.309 4.546-6.722.177-.349-.6-.588-.652-.975-.2-1.495-.933-3.277-.085-4.526.892-1.315 2.849-1.49 4.4-1.833.396-.087.676.813 1.038.632.97-.484 2.293-1.215 2.299-2.299.006-1.09-1.315-1.83-2.273-2.351-.6-.326-1.38-.134-2.05-.001-.312.063-.476.681-.772.564-.621-.245-.74-1.447-1.407-1.425-.794.028-1.042 1.675-1.825 1.536-1.691-.302-3.007-1.673-4.42-2.651a16.046 16.046 0 0 1-2.527-2.162c-.3-.316-.266-.884-.606-1.155-1.703-1.359-3.451-2.718-5.42-3.654-.35-.168-.644.751-1.003.598-.821-.351-1.107-1.518-1.935-1.855-3.89-1.58-7.922-2.826-12.003-3.81-.785-.189-1.827-.231-2.401.338-.486.482-.151 1.384-.01 2.054.082.382.65.583.652.974.002.388-.526.602-.642.973-.105.336-.288.865.008 1.056.665.429 1.542.515 2.33.455.716-.054 1.289-.739 2.005-.783.388-.024.612.598 1 .598.389 0 .619-.672 1-.598.532.101.759.812 1.253 1.03 2.009.886 4.172 1.384 6.188 2.25a30.143 30.143 0 0 1 4.243 2.231c1.409.894 2.774 1.877 4.006 3.003.695.635 2.395 1.574 1.726 2.237-1.297 1.283-3.512 1.024-5.313 1.315-8.117 1.313-16.295 2.217-24.418 3.493-1.57.247-3.061.964-4.647 1.075-.423.029-.657-.712-1.08-.675-4.017.35-7.94 1.522-11.961 1.81-.71.051-1.26-.79-1.97-.813-.704-.022-1.295.683-2 .686-.723.002-1.348-.79-2.061-.672-1.404.231-2.523 1.459-3.932 1.658-.724.103-1.308-.765-2.038-.814-3.34-.224-6.727-.475-10.04.002-.912.132-1.216 1.73-2.138 1.754-1.37.036-2.44-1.342-3.784-1.6-.398-.077-.612.593-1.008.681a4.845 4.845 0 0 1-2.052 0c-.382-.082-.583-.649-.974-.651-.388-.002-.602.522-.97.641-.347.112-.731.059-1.093.026-6.32-.577-12.62-1.359-18.944-1.854-1.004-.079-2.031-.061-3.02.133-.383.076-.582.652-.973.652s-.592-.569-.974-.651a4.928 4.928 0 0 0-2.052 0c-.382.082-.584.666-.974.651-.714-.028-1.29-.707-2-.768-.516-.045-1.036.204-1.482.467-.574.338-.858 1.204-1.518 1.301-.71.104-1.291-.704-2.004-.784a21.883 21.883 0 0 0-4.993 0c-.71.084-1.264.776-1.976.828-.63.046-1.241-.821-1.812-.551-.803.381-1.292 1.31-1.571 2.154-.164.498.057 1.102.353 1.535.512.749 1.22 1.369 1.977 1.87.287.19.696.216 1.026.117.548-.164.919-.755 1.48-.868 4.127-.831 8.288-1.538 12.478-1.941.406-.039.634.641 1.042.64.388 0 .6-.522.97-.641.347-.113.73-.054 1.093-.027 7.294.544 14.567 1.411 21.874 1.737.722.033 1.34-.651 2.063-.667.388-.009.612.598 1 .598s.612-.609 1-.598c.39.01.592.569.974.651a4.928 4.928 0 0 0 2.052 0c.382-.082.583-.649.974-.651.388-.002.602.525.973.642.335.106.715.091 1.054 0 .687-.185 1.262-.804 1.973-.812.714-.008 1.286.74 2 .768.39.015.592-.569.974-.651a4.813 4.813 0 0 1 2.052 0c.4.09.607.716 1.016.694 5.658-.313 11.258-1.369 16.915-1.684.408-.023.607.679 1.016.685.708.01 1.318-.638 2.027-.642.4-.003.64.722 1.029.622 1.088-.281 1.85-1.378 2.942-1.646.39-.096.603.622 1.003.675 1.66.223 3.355.288 5.022.133.715-.066 1.288-.749 2.004-.784.405-.02.637.694 1.039.634 2.029-.302 3.893-1.368 5.922-1.67.4-.06.633.627 1.039.634.388.007.61-.604 1-.598.403.005.64.713 1.034.628 1.387-.298 2.507-1.458 3.907-1.69.726-.12 1.375.838 2.098.696 2.737-.535 5.21-2.052 7.934-2.657.392-.087.612.571 1 .674a4.988 4.988 0 0 0 2.02.133c3.038-.463 5.969-1.664 9.038-1.819.47-.024.417.868.453 1.338.078 1.016.136 2.068-.12 3.055-.332 1.293-.854 2.569-1.615 3.666a12.375 12.375 0 0 1-3.024 3.024c-1.11.784-2.535 1.012-3.692 1.723-1.894 1.165-3.971 2.2-5.423 3.884-.44.51-.208 1.628.362 1.987.854.537 2.017.213 3.024.142m.044-2.168c-.448-.105-1.334.146-1.345-.314-.011-.457.884-.436 1.329-.333m-384.758-.447c2.152-.824 4.355-1.524 6.454-2.474.29-.131.517-.424.62-.725.114-.33.326-.95-.01-1.049-.762-.224-1.64.7-2.355.355-.412-.199.315-.877.323-1.334.003-.139-.16-.326-.294-.295-.38.089-.615.604-1.004.598-.404-.006-.64-.713-1.034-.628-1.388.299-2.516 1.413-3.907 1.695-1.652.334-3.373.218-5.056.119-.53-.032-1.133-.135-1.511-.508-.752-.742-1.011-1.874-1.71-2.667-.367-.418-1.025-.487-1.416-.884-.816-.83-1.672-1.688-2.157-2.747-1.421-3.104-2.222-6.459-3.505-9.622-.527-1.298-1.123-2.587-1.916-3.742-.561-.815-1.33-1.477-2.098-2.1-1.16-.939-2.214-2.219-3.664-2.567-2.286-.547-4.902-.95-7.052 0-2.464 1.09-4.06 3.581-5.763 5.668-1.052 1.291-1.516 2.973-2.424 4.369-.442.68-.907 2.242-1.605 1.829-1.385-.819-1.32-2.992-2.39-4.193-1.021-1.145-2.31-2.124-3.738-2.683-.955-.375-2.202-.524-3.078.011-1.15.702-1.805 2.059-2.338 3.297-.274.636-.4 1.531.025 2.078.28.362.879-.317 1.338-.323.186-.003.34.167.472.299.306.306.777.57.826.999.044.388-.51.626-.598 1.005-.031.135.19.385.294.293.889-.79 1.38-2.008 2.374-2.663.326-.215.797.138 1.114.366.582.418 1.357.826 1.517 1.525.263 1.152-.494 2.353-.362 3.528.079.698.75 1.203.969 1.87.633 1.937.9 3.984 1.57 5.908.445 1.274.907 2.598 1.756 3.646.23.285.753.01 1.093-.129.286-.116.578-.32.703-.602.669-1.513 1.44-3.042 1.634-4.685.124-1.059-1.03-2.096-.72-3.116 1.039-3.416 2.66-6.677 4.607-9.669.96-1.475 2.854-2.122 3.958-3.492.197-.244-.443-.485-.507-.792-.03-.138.134-.341.274-.322.7.093 1.318.632 2.025.629.389-.002.602-.525.973-.642.335-.106.757-.187 1.054.001 1.698 1.07 3.776 1.929 4.77 3.672 2.169 3.798 2.803 8.288 4.385 12.365.316.814.715 1.625 1.296 2.278.595.668 1.52.97 2.156 1.601.664.661.957 1.67 1.703 2.236 1.399 1.061 2.888 2.204 4.609 2.552m932.054-1.019c.88-.641 1.98-1.062 2.64-1.924 1.45-1.863 2.27-4.14 3.57-6.103.41-.615 1.16-.959 1.54-1.591.64-1.063.7-2.446 1.47-3.416.59-.748 1.74-.852 2.45-1.501 1.36-1.261 1.83-4.08 3.69-4.174 2.73-.138 4.96 2.304 7.36 3.616.49.265.7 1.017 1.25 1.092.7.097 1.32-.696 2.03-.64.33.026.26.673.54.842 2.31 1.355 4.82 2.344 7.14 3.668.5.282.74.975 1.29 1.13.5.14 1.07-.069 1.51-.34a4.758 4.758 0 0 0 1.52-1.527c.17-.27.16-.676 0-.95-.31-.536-.8-.965-1.32-1.314-1.59-1.083-3.22-2.123-4.95-2.958-2.75-1.324-5.69-2.211-8.45-3.504-.5-.233-.74-.942-1.28-1.048-.38-.076-.65.76-1 .598-1.24-.563-3.2-1.157-3.2-2.515-.01-1.299 2.22-1.373 3.17-2.261 3.8-3.556 7.54-7.186 11.03-11.042.35-.382.45-1.004.34-1.509-.09-.424-.46-.816-.86-.975-.79-.308-1.8-.808-2.51-.348-2.34 1.522-4.06 3.83-5.97 5.866-.29.306-.28.822-.57 1.118-.72.716-1.69 1.141-2.41 1.857-.3.304-.29.841-.59 1.144-.82.802-1.71 1.541-2.7 2.113-1.16.67-2.4 1.918-3.7 1.582-2.89-.75-5.27-2.835-7.72-4.544-1.24-.866-1.98-2.369-3.28-3.136-.59-.347-1.4-.189-2.06 0-.42.121-.76.489-.97.871-.25.451-.56 1.042-.34 1.507.58 1.23 1.49 2.331 2.56 3.181.24.195.48-.581.78-.505.33.082.27.648.54.84 2.82 1.992 6.72 2.815 8.67 5.666.8 1.168-1.51 2.401-2.43 3.481-1.09 1.295-2.51 2.29-3.57 3.62-1.66 2.111-3.45 4.209-4.55 6.662-.29.648.72 1.326.64 2.031-.04.362-.69.296-.93.569-.65.733-1.4 1.466-1.69 2.4-.12.382.61.627.62 1.028 0 .39-.78.659-.6 1.005m100.6-5.815c.84-.509 1.89-.769 2.51-1.529 1.11-1.361 1.96-2.966 2.51-4.633.13-.381-.87-.721-.62-1.034.43-.527 1.51-.083 1.94-.6 1.82-2.144 2.9-4.827 4.57-7.084.79-1.064 2.13-1.687 2.79-2.835.25-.435-.46-1.001-.3-1.476.2-.582.71-1.085 1.27-1.341.41-.185.92-.015 1.33.155 1.16.478 2.35.982 3.33 1.764.73.581 1.01 1.605 1.7 2.23.88.785 1.9 1.4 2.94 1.94 2.51 1.302 5.02 2.68 7.7 3.576.4.131.66-.759 1.06-.652 4.73 1.265 9.21 3.389 13.93 4.662.39.105.63-.636 1.04-.632.39.003.59.601.97.652 1.34.173 2.75.356 4.06-.002.82-.226 1.13-1.464 1.97-1.65.7-.155 1.29.763 2 .768.63.004 1.37-.238 1.75-.744.8-1.073 1.18-2.419 1.58-3.698.05-.149-.15-.374-.31-.356-.7.082-1.31.63-2.02.628-.41-.001-.64-.695-1.04-.634-2.04.308-3.9 1.691-5.96 1.69-2.39 0-4.59-1.389-6.96-1.692-.42-.053-.68.8-1.07.666-3.76-1.258-7.14-3.51-10.92-4.685-.68-.213-1.42.994-2.05.655a52.289 52.289 0 0 1-10.35-7.275c-.51-.458-.37-1.478 0-2.05 1.08-1.662 2.88-2.749 4.13-4.284 1.94-2.36 3.39-5.107 5.43-7.378.96-1.066 2.44-1.545 3.48-2.529 1.75-1.648 2.97-3.84 4.86-5.328 1.59-1.257 3.49-2.134 5.42-2.777.38-.127.64.537 1.03.621.18.039.34-.167.47-.299.31-.306.84-.568.83-1-.01-.617-.45-1.189-.87-1.633-.68-.704-1.45-1.407-2.38-1.729-.84-.295-1.88-.433-2.68-.036-.84.412-1.01 1.587-1.7 2.205-.78.694-1.86.979-2.64 1.67-2.23 1.98-4.11 4.328-6.34 6.308-.79.698-1.85 1.028-2.66 1.692-.94.761-1.88 1.562-2.56 2.556-.77 1.121-.92 2.594-1.72 3.692-1.71 2.353-3.1 5.377-5.75 6.571-1.13.509-1.37-2.082-2.22-2.986-.38-.405-1.06-.456-1.41-.884-1.34-1.599-2.3-3.48-3.59-5.116a12.863 12.863 0 0 0-2.09-2.095c-.77-.609-1.81-.857-2.5-1.55-.68-.684-.84-1.791-1.52-2.473-1.17-1.153-2.54-2.099-3.95-2.942-1.14-.686-2.35-1.34-3.66-1.616-.79-.166-1.83-.231-2.4.338-.49.482-.18 1.39-.01 2.054.14.571.42 1.168.9 1.518 1.5 1.118 3.38 1.67 4.89 2.777.85.62 1.33 1.634 2.11 2.343.65.594 1.5.936 2.14 1.545 1.41 1.363 2.78 2.787 3.98 4.344.98 1.274 1.46 2.906 2.52 4.109.86.978 2.4 1.256 3.16 2.314.41.562.23 1.421.01 2.078-.32.972-.95 1.826-1.58 2.636-1.05 1.366-2.46 2.45-3.45 3.864-3.07 4.351-6.21 8.683-8.69 13.392-.48.909-.45 2.167.02 3.082m-201.37-5.006c-.2-.339-.59-.625-.59-1.018 0-.391.79-.666.6-1.008-.17-.311-.81.462-1.05.203-.82-.878-.96-2.234-1.72-3.166-.57-.696-1.53-.97-2.16-1.607a29.098 29.098 0 0 1-3.16-3.742c-1.1-1.567-2.18-3.179-2.94-4.935-1.04-2.395-1.43-5.034-2.43-7.445-1.83-4.406-3.73-8.801-6.04-12.976-1-1.801-2.36-3.408-3.83-4.851-.82-.806-1.8-1.667-2.94-1.8-.63-.073-1.14.713-1.38 1.297-.26.632-.32 1.444 0 2.052.71 1.376 1.84 2.498 2.92 3.608.64.658 1.8.831 2.2 1.659 2.52 5.31 4.11 11.021 6.4 16.433 1.13 2.655 2.36 5.282 3.85 7.748 1.56 2.57 3.16 5.19 5.29 7.308 1.26 1.25 2.97 2.027 4.66 2.569m-853.645-9.359c-.265.004-.57.151-.794.013-.372-.228-.983-.601-.832-1.01.159-.428.94-.568 1.329-.329m632.264-9.493c.702-.613 2.366-.943 2.107-1.838-.398-1.377-2.094-2.04-3.4-2.634-.352-.161-.601.525-.972.642-.335.106-.746.167-1.055-.001-.751-.408-1.165-1.358-1.972-1.641-.366-.129-.695.839-1 .597-1.191-.95-2.09-2.267-2.792-3.62a36.601 36.601 0 0 1-2.811-7.183 57.892 57.892 0 0 1-1.736-9.454c-.041-.405.555-.627.682-1.014.11-.334.179-.753-.001-1.055-1.401-2.351-2.728-4.821-4.658-6.761-1.245-1.25-2.867-2.468-4.628-2.567-2.321-.13-4.683.778-6.701 1.933-1.402.803-2.232 2.356-3.132 3.697-.995 1.483-1.954 3.033-2.522 4.725-.124.369.674.62.598 1.002-.107.539-.787.79-1.05 1.274-.595 1.104-.861 2.374-1.502 3.453a12.583 12.583 0 0 1-2.116 2.635c-.151.145-.604.198-.626-.01-.09-.809.488-1.611.359-2.415-.33-2.063-1.042-4.05-1.711-6.029-.87-2.578-1.662-5.208-2.902-7.63-.443-.866-1.293-1.468-2.061-2.064-.81-.627-1.642-1.332-2.636-1.577-.783-.193-1.911-.309-2.397.334-.61.805-.27 2.023-.142 3.024.09.712.74 1.288.784 2.004.024.388-.706.627-.598 1.001.17.592.674 1.188 1.27 1.341.614.157 1.318-.939 1.817-.551 1.085.842 1.613 2.267 2.065 3.564 1.086 3.118 1.795 6.36 2.516 9.583.202.9-.05 1.883.244 2.757.185.55 1.055.748 1.13 1.323.073.543-.74.909-.762 1.456-.03.748.16 1.568.619 2.159.596.766 1.402 1.668 2.372 1.689.797.018 1.365-.916 1.778-1.598 1.024-1.693 1.498-3.672 2.458-5.402.707-1.275 1.915-2.247 2.52-3.573 1.092-2.391 1.56-5.024 2.522-7.47.539-1.375 1.023-2.835 1.968-3.97.682-.819 1.692-1.419 2.728-1.671 1.32-.323 2.774-.367 4.08.011.782.226 1.397.958 1.772 1.681 1.088 2.102 1.978 4.332 2.535 6.633.099.411-.72.657-.67 1.077.287 2.44.952 4.827 1.642 7.185.84 2.877 1.806 5.723 2.944 8.496.294.718.732 1.412 1.324 1.912 1.445 1.222 3.05 2.257 4.7 3.181 1.162.649 2.383 1.28 3.693 1.515.397.071.603-.653 1.006-.672m-311.724-.42c3.833-1.169 7.867-1.81 11.497-3.506 1.799-.84 3.133-2.471 4.459-3.949.155-.173-.557-.386-.408-.564 1.023-1.221 2.854-1.762 3.555-3.192.599-1.221.407-2.779.01-4.08-.67-2.205-2.207-4.053-3.127-6.165-.371-.852-.595-1.77-.728-2.689-.727-5.002-1.481-10.009-1.847-15.05-.031-.423.742-.66.674-1.079-.334-2.053-1.53-3.909-1.82-5.969-.323-2.308-.206-4.67.002-6.991.065-.726 1.003-1.33.808-2.032-.361-1.294-1.182-2.564-2.298-3.312-.513-.344-1.443.061-1.754.595-1.54 2.644-2.081 5.777-3.524 8.474-1.258 2.35-3.14 4.315-4.534 6.586-1.262 2.055-2.188 4.303-3.426 6.372-.752 1.255-1.851 2.291-2.534 3.586-2.67 5.065-4.668 10.478-7.504 15.453-.707 1.241-1.893 2.165-3.03 3.03-.87.662-2.117.753-2.918 1.497-.22.204.514.451.497.75-.023.387-.705.626-.597.998.17.595.682 1.167 1.273 1.351.97.304 2.127.424 3.052 0 1.162-.532 1.959-1.664 2.759-2.661 1.783-2.223 3.565-4.478 4.962-6.962 2.02-3.592 3.386-7.518 5.248-11.195 1.75-3.456 3.559-6.891 5.587-10.193.39-.638 1.252-.902 1.624-1.552.117-.203-.56-.39-.41-.57.57-.681 1.33-1.261 2.174-1.539.3-.099.64.28.755.575.414 1.056.62 2.19.768 3.315.8 6.121.785 12.365 2.07 18.403.678 3.179 2.662 5.937 3.766 8.994.069.191-.212.348-.332.512-.505.695-.872 1.528-1.543 2.066-.962.772-2.37.908-3.247 1.776-.765.756-.724 2.092-1.458 2.879-.205.22-.435-.452-.723-.54-.345-.107-.748-.151-1.085-.02-2.016.782-3.818 2.097-5.887 2.723-.992.3-2.111.279-3.108 0-1.082-.302-1.831-1.402-2.917-1.685-.388-.101-.62.541-1 .665a1.774 1.774 0 0 1-1.088.018c-2.343-.782-4.526-2.027-6.905-2.688-.317-.088-.526.673-.826.539-.68-.305-.833-1.409-1.551-1.605-1.497-.409-3.107-.191-4.655-.09-.462.03-1.212.025-1.304.478-.124.607.447 1.191.874 1.639.78.822 1.639 1.644 2.679 2.096 2.885 1.256 5.917 2.173 8.96 2.971 2.864.751 5.797 1.218 8.723 1.666m-1.895-2.049c-.45-.105-1.334.147-1.346-.314-.012-.456.884-.436 1.329-.332m676.016-2.354c-.45-.105-1.33.146-1.35-.314-.01-.457.89-.436 1.33-.332m-655.98-6.354c-.448-.105-1.333.146-1.345-.314-.012-.456.884-.436 1.329-.332m-238.027-.358c1.26-.539 2.88-.583 3.78-1.616 1.087-1.246 1.01-3.155 1.69-4.661.185-.405.84-.565.875-1.008.054-.708-.697-1.323-.64-2.031.027-.334.692-.246.846-.544.867-1.687 1.763-3.412 2.144-5.27 1.567-7.644 2.838-15.361 3.675-23.12.113-1.055-.703-2.016-.851-3.067a5.018 5.018 0 0 1 .132-2.022c.105-.377.694-.555.695-.947.002-1.043-.688-2.011-.686-3.054 0-.392.588-.57.695-.947.185-.651.147-1.349.147-2.026 0-1.343.065-2.7-.147-4.026-.061-.386-.641-.584-.651-.974-.011-.388.598-.611.598-1s-.607-.612-.598-1c.008-.388.525-.602.642-.973a1.786 1.786 0 0 0 0-1.054c-.117-.371-.634-.585-.642-.973-.01-.388.605-.612.598-1-.006-.405-.731-.645-.632-1.037.609-2.399 2.042-4.537 2.655-6.935.099-.388-.76-.653-.621-1.029.487-1.319 1.647-2.291 2.305-3.534 3.219-6.087 6.508-12.15 9.317-18.437.163-.365-.82-.68-.622-1.028.745-1.314 2.21-2.086 3.088-3.316 1.024-1.438 1.943-2.981 2.573-4.63.247-.648.137-1.402-.01-2.08-.083-.383-.831-.63-.652-.98.207-.405.872-.382 1.325-.336.312.032.559.789.764.551 1.513-1.76 2.338-4.029 3.785-5.843.584-.731 1.608-1.004 2.233-1.7.697-.773 1.013-1.831 1.67-2.638 1.486-1.826 2.95-3.706 4.739-5.236.237-.203.49.599.789.505.347-.108.295-.69.567-.93.736-.648 1.434-1.568 2.407-1.69.469-.058.46.856.505 1.327.126 1.325.18 2.674 0 3.992-.1.729-.875 1.312-.825 2.046.284 4.15.928 8.281 1.808 12.347.385 1.779 1.008 3.547 1.968 5.094 1.009 1.626 2.285 3.152 3.84 4.267 1.703 1.22 3.643 2.364 5.726 2.588 1.083.116 2.085-.857 2.807-1.672 1.4-1.586 2.108-3.686 3.407-5.356 1.04-1.338 2.55-2.267 3.57-3.62 2.08-2.758 3.54-5.959 5.692-8.662 1.71-2.148 3.774-3.998 5.833-5.813.686-.605 1.709-.761 2.356-1.407.723-.723.81-1.998 1.644-2.59 1.685-1.196 3.676-1.927 5.636-2.58.667-.222 1.449-.244 2.108 0 1.083.4 2.207.952 2.92 1.859.316.401-.494 1.044-.273 1.504.756 1.576 2.122 2.786 3.046 4.271.946 1.52 1.983 3.029 2.552 4.727.128.38-.75.65-.622 1.029.564 1.675 1.604 3.154 2.536 4.655.177.285.43.611.762.658.509.072 1.084-.045 1.506-.339.893-.621 1.654-1.44 2.304-2.312 1.27-1.705 2.1-3.719 3.43-5.38 1.353-1.692 3.21-2.934 4.57-4.62 2.579-3.196 4.549-6.863 7.215-9.986.216-.253.622.324.786.613 1.92 3.395 3.175 7.181 5.426 10.367.978 1.385 2.534 2.324 4.06 3.063 3.113 1.505 6.277 3.389 9.728 3.605 2.683.167 5.189-1.463 7.66-2.52 1.215-.52 2.13-1.586 3.312-2.174.315-.157.768-.203 1.055 0 .89.626 1.785 1.369 2.272 2.341.174.348-.521.62-.598 1.002-.038.183.17.339.299.474 1.077 1.129 2.099 2.326 3.31 3.31.795.646 1.665 1.3 2.66 1.538.39.093.62-.543 1.003-.666.334-.108.72-.109 1.054 0 .384.125.615.769 1.007.672 2.319-.574 4.667-1.303 6.687-2.578 1.819-1.147 2.955-3.137 4.589-4.536.703-.602 1.682-.823 2.38-1.432.419-.366.489-1.024.884-1.417a105.395 105.395 0 0 1 6.736-6.151c.807-.674 1.854-1.019 2.662-1.692 1.203-1.003 2.132-2.308 3.338-3.308.712-.591 1.682-.823 2.379-1.432.42-.366.488-1.026.885-1.417.813-.801 1.735-1.499 2.698-2.113 1.51-.963 2.993-2.065 4.702-2.605 1.166-.368 2.64-.702 3.669-.04 1.285.827 1.676 2.563 2.365 3.927.85 1.683 1.38 3.516 2.245 5.192a17.391 17.391 0 0 0 1.962 2.963c.772.952 1.837 1.647 2.574 2.626 1.192 1.585 1.782 3.624 3.186 5.025.364.364 1.087-.04 1.506-.339.969-.689 1.942-1.487 2.519-2.527.243-.44-.552-1.044-.3-1.478.76-1.304 2.268-2.044 3.087-3.311 1.495-2.316 2.36-4.993 3.795-7.346.389-.64 1.252-.902 1.624-1.552.117-.203-.57-.399-.41-.57 1.565-1.688 3.144-3.491 5.178-4.569 1.052-.558 2.556-.691 3.572-.071 1.088.665 1.418 2.154 1.819 3.364.219.659.145 1.407-.013 2.084-.09.38-.565.576-.694.945-.121.343-.107.737-.022 1.091.487 2.032 1.002 4.067 1.73 6.026a16.346 16.346 0 0 0 1.846 3.597c.555.802 1.19 1.645 2.07 2.068 2.43 1.17 5.036 1.979 7.657 2.615 1.01.245 2.12.281 3.12 0 3.309-.931 6.485-2.287 9.662-3.595.628-.259 1.192-.666 1.72-1.093 1.166-.94 2.435-1.809 3.348-2.996 1.076-1.401 1.97-2.981 2.533-4.656.128-.379-.627-.627-.621-1.028.005-.391.57-.592.65-.974.143-.67.336-1.462-.01-2.054-.235-.404-.9-.32-1.37-.314-.187.003-.32.205-.452.34-.96.98-2.105 1.827-2.817 2.999-.164.27.595.494.51.798-.188.672-.896 1.084-1.211 1.706-.053.103.293.209.203.281-1.767 1.426-3.633 2.727-5.512 4.001-.85.575-1.665 1.304-2.663 1.54-.407.096-.654-.719-1.068-.658-2.043.299-3.894 1.675-5.96 1.688-1.671.011-3.393-.64-4.747-1.621-1.343-.974-2.21-2.516-2.982-3.983-.775-1.467-1.413-3.064-1.605-4.712-.085-.728.695-1.318.817-2.041.112-.666.039-1.369-.132-2.022-.098-.378-.646-.583-.651-.974-.006-.401.718-.64.622-1.029-.247-.994-.918-1.846-1.538-2.661-.583-.766-1.193-1.585-2.04-2.042-1.467-.791-3.075-1.78-4.734-1.613-1.774.177-3.19 1.605-4.696 2.558-.907.573-1.838 1.176-2.52 2.005-.146.179.55.381.409.564-.645.835-1.92 1.111-2.42 2.039-.197.364 1.052.611.807.946-.824 1.123-2.518 1.386-3.341 2.509-1.17 1.595-1.475 3.684-2.457 5.401-.368.644-1.125.99-1.546 1.6-.672.973-1.016 2.149-1.705 3.109-.101.14-.365.067-.52-.012-.298-.153-.604-.357-.77-.649-1.321-2.343-2.346-4.845-3.654-7.196-.331-.595-.958-1.001-1.25-1.616-.747-1.577-1.1-3.321-1.84-4.902-.446-.958-.946-1.936-1.7-2.677a7.51 7.51 0 0 0-2.754-1.696c-.665-.233-1.43-.167-2.115-.005-1.594.376-3.23.777-4.646 1.599-.717.417-.811 1.529-1.51 1.976-.262.168-.515-.66-.786-.506-2.3 1.311-4.361 3.005-6.448 4.633-1.983 1.546-3.983 3.095-5.752 4.883-.155.156.568.389.397.528-.93.759-2.231.968-3.161 1.727-.696.567-.933 1.567-1.607 2.16-.907.798-2.198 1.095-3.058 1.943-.837.827-1.05 2.169-1.916 2.964-.964.885-2.385 1.13-3.42 1.932-1.24.962-2.128 2.32-3.342 3.313-.793.648-1.644 1.325-2.636 1.577-1.31.333-2.703.21-4.051.123-.52-.034-1.066-.174-1.485-.483-.863-.634-1.682-1.38-2.268-2.277-.73-1.118-1.47-2.338-1.611-3.666-.1-.945.379-1.922.935-2.693.549-.761 1.617-1.004 2.238-1.707.488-.552.735-1.283 1.009-1.967.993-2.477 1.996-4.957 2.788-7.506.725-2.335 1.553-4.686 1.756-7.123.079-.949-.37-1.935-.94-2.696-.585-.782-1.495-1.29-2.371-1.723-.323-.16-.777-.177-1.083.014-1.318.824-2.632 1.736-3.628 2.929-1.225 1.469-2.07 3.224-2.928 4.932-.714 1.418-1.517 2.853-1.778 4.42-.121.725.813 1.37.692 2.095-.233 1.4-1.46 2.507-1.69 3.907-.116.708.613 1.322.713 2.033.14 1.007.165 2.047-.001 3.049-.053.315-.344.576-.626.724-2.503 1.311-4.921 2.948-7.667 3.619-2.294.56-4.781.507-7.084-.015-1.001-.226-1.381-1.554-2.25-2.101-1.048-.661-2.6-.536-3.415-1.469-1.616-1.848-2.234-4.377-3.522-6.467-1.634-2.65-3.19-5.387-5.233-7.735-.341-.391-1.041-.133-1.555-.062-.514.071-1.045.2-1.481.481-.518.333-.947.809-1.303 1.312-1.228 1.736-2.154 3.679-3.43 5.38-.734.979-1.806 1.665-2.57 2.62-.578.723-.871 1.642-1.43 2.38-1.043 1.377-2.144 2.717-3.36 3.944-.658.665-1.621.992-2.232 1.7-.664.767-1.276 1.652-1.516 2.637-.095.39.668.633.62 1.031-.034.292-.654.658-.79.397-1.852-3.582-2.668-7.674-4.758-11.123-1.227-2.026-3.135-3.596-5.024-5.025-1.078-.817-2.376-1.604-3.73-1.6-1.671.004-3.207.966-4.745 1.622-1.46.621-2.948 1.249-4.217 2.199-.718.538-.972 1.527-1.607 2.162-.713.713-1.665 1.152-2.4 1.843-2.34 2.205-4.795 4.327-6.811 6.833-2.087 2.593-3.407 5.737-5.43 8.38-.624.815-1.773 1.103-2.43 1.891-1.033 1.24-1.645 2.78-2.568 4.105-.655.94-1.328 1.887-2.158 2.679-.158.151-.468.12-.655.007-1.318-.8-2.87-1.432-3.762-2.688-1.628-2.287-3.106-4.858-3.578-7.625-.787-4.619-.313-9.374-.12-14.056.03-.716.92-1.299.785-2.003-.147-.769-1.502-1.014-1.511-1.797-.008-.674 1.585-.722 1.473-1.388-.213-1.274-1.128-2.502-2.237-3.166-.872-.522-2.111-.39-3.05 0-.748.31-.88 1.399-1.52 1.895-1.035.801-2.353 1.171-3.421 1.928-1.305.927-2.58 1.927-3.667 3.102-3.184 3.438-6.297 6.958-9.116 10.701-.816 1.085-1.007 2.538-1.722 3.692-.48.774-1.486 1.188-1.827 2.032-.147.362.684.624.598 1.004-.083.365-.705.308-.957.583-.454.499-.787 1.1-1.115 1.689-2.46 4.407-4.921 8.814-7.244 13.294-2.16 4.165-2.875 9.327-6.201 12.637-1.467 1.459-.397-4.137-.267-6.203.045-.715.752-1.287.784-2.003.017-.39-.601-.587-.652-.974-.217-1.661-.287-3.355-.132-5.023.066-.714.75-1.287.784-2.003.019-.388-.525-.602-.642-.973a1.724 1.724 0 0 1 0-1.054c.127-.368.559-.578.686-.946a1.667 1.667 0 0 0 0-1.054c-.126-.368-.557-.577-.685-.944-.12-.344-.09-.734-.024-1.092.546-2.995 1.592-5.91 1.852-8.944.33-3.861.606-7.813-.088-11.626-.174-.953-1.45-1.347-2.342-1.723-.421-.176-.938-.008-1.358.169-.851.357-1.684.805-2.388 1.402a36.072 36.072 0 0 0-4.095 4.095c-.601.704-.816 1.688-1.43 2.38a73.183 73.183 0 0 1-6.095 6.095 12.55 12.55 0 0 1-2.966 1.964c-2.113.997-4.247 2.965-6.541 2.521-1.626-.315-2.536-2.621-2.526-4.277.015-2.4 1.493-4.584 2.594-6.717 1.09-2.112 2.359-4.168 3.94-5.942 1.214-1.36 2.622-2.708 4.334-3.334 1.097-.401 2.303.488 3.47.483.474-.002 1.454-.049 1.328-.504-.457-1.647-1.267-3.408-2.68-4.371-1.01-.689-2.557-.468-3.67.041-1.376.629-2.107 2.183-3.283 3.136-.761.617-1.891.78-2.498 1.549-1.944 2.466-3.571 5.186-5.013 7.975-1.087 2.102-2.437 4.266-2.54 6.63-.1 2.323.815 4.671 1.96 6.694.713 1.257 2.044 2.156 3.375 2.718.945.4 2.106.337 3.08.011 2.68-.898 5.2-2.239 7.67-3.613.645-.358.977-1.13 1.592-1.538 1.379-.915 3.142-1.265 4.346-2.401 1.288-1.215 1.775-3.086 2.912-4.444.6-.718 1.639-.981 2.236-1.703.965-1.169 1.3-2.81 2.375-3.879.298-.295.292.802.3 1.221.053 2.686.209 5.391-.116 8.057-.286 2.351-1.39 4.551-1.706 6.898-.054.403.656.634.636 1.04-.035.716-.718 1.289-.784 2.003-.155 1.668-.09 3.363.132 5.023.054.4.774.612.676 1.003-.277 1.107-1.675 1.846-1.674 2.988.005 3.361 1.385 6.594 1.69 9.942.037.407-.608.614-.692 1.015-.205.989-.147 2.016-.147 3.026 0 1.01-.057 2.037.147 3.026.083.399.803.621.686 1.011-2.202 7.337-4.88 14.524-7.507 21.719-1.261 3.451-3.066 6.701-4.155 10.21-.12.385.547.623.672 1.007.109.334.15.737-.001 1.055-.237.499-.831.76-1.092 1.248-.98 1.834-2.097 3.653-2.606 5.669-.176.697.735 1.341.655 2.056-.06.535-.84.742-1.025 1.248-.475 1.291-.693 2.667-.916 4.025-.632 3.84-1.548 7.669-1.647 11.56-.018.699 1.115.968 1.309 1.64.15.52-.557 1.07-.376 1.581.587 1.664 1.629 3.135 2.569 4.628.18.286.454.531.763.667.315.139.683.165 1.024.118.467-.063 1.173-.001 1.343-.44.37-.958.3-2.094.019-3.082-.308-1.079-1.25-1.875-1.724-2.892-.151-.322-.124-.704-.124-1.06-.001-3.351-.357-6.736.12-10.053.5-3.472 1.702-6.813 2.788-10.149.708-2.177 1.822-4.204 2.588-6.362.86-2.425 1.337-4.981 2.286-7.374.828-2.09 2.312-3.896 3.027-6.028.132-.393-.734-.655-.65-1.061.174-.844.465-2.218 1.327-2.218.862 0 1.146 1.376 1.327 2.218.085.394-.621.63-.626 1.033-.006.388.609.612.598 1-.01.39-.551.596-.652.974-.173.654-.145 1.349-.145 2.026 0 .677-.028 1.372.145 2.026.1.378.652.583.652.974s-.576.591-.652.974c-.194.989-.265 2.023-.132 3.022.097.723.935 1.315.808 2.033-.196 1.105-1.383 1.835-1.685 2.917-.277.989-.163 2.068.009 3.08.069.402.745.609.688 1.013-.288 2.031-1.376 3.892-1.67 5.922-.06.414.755.661.657 1.067-.444 1.838-1.581 3.443-2.181 5.236-.933 2.787-1.185 5.808-2.408 8.479-.664 1.448-2.327 2.235-3.13 3.611-.281.482-.19 1.169.047 1.674m292.688.012c3.302-5.414 5.829-11.385 9.907-16.24.614-.731 1.293 1.423 2.065 1.985 1.72 1.251 3.659 2.18 5.38 3.43.843.613 1.288 1.827 2.284 2.136 1.599.497 3.349.218 5.022.133.473-.024 1.122-.039 1.347-.456.328-.611.258-1.431.019-2.082-.4-1.083-1.06-2.09-1.86-2.921-.226-.235-.687-.174-.977-.025-.605.311-.874 1.358-1.553 1.323-1.024-.053-1.83-.941-2.662-1.538-2.285-1.638-4.681-3.173-6.676-5.154-.277-.276.122-.809.366-1.114.827-1.035 1.976-1.786 2.788-2.833.985-1.269 1.509-2.87 2.57-4.075.264-.3.926.118 1.184-.187.823-.973 1.439-2.146 1.818-3.363.143-.458.08-1.157-.332-1.401-.59-.349-1.43-.289-2.054-.009-1.361.609-2.558 1.567-3.664 2.566-1.457 1.316-2.74 2.819-3.982 4.338-.984 1.202-1.15 4.029-2.687 3.807-3.971-.573-6.907-4.126-10.587-5.722-.822-.357-1.887-.438-2.687-.035-.816.41-1.82 1.313-1.625 2.206.226 1.038 1.609 1.408 2.53 1.938 1.089.627 2.387.845 3.456 1.506 1.979 1.224 4.919 1.904 5.637 4.118.607 1.872-1.592 3.61-2.578 5.314-1.257 2.172-3.278 3.931-4.14 6.289-.576 1.582-.352 3.406 0 5.052.132.608.828.957 1.36 1.277m-29.678-1.254c.008-.69.164-1.395.025-2.071-.08-.384-.643-.586-.653-.978-.011-.389.812-.676.598-1.001-1.75-2.65-4.446-4.607-6.092-7.322-1.612-2.659-2.497-5.7-3.572-8.617-.2-.543.006-1.196-.24-1.72-.325-.695-1.095-1.119-1.418-1.816-.118-.255.296-.556.198-.819-.321-.866-.854-1.643-1.39-2.395-.301-.422-.663-.822-1.102-1.099-1.495-.943-2.892-2.527-4.66-2.533-1.131-.004-2.126 1.39-2.283 2.51-.125.897.804 1.802 1.629 2.177.532.242 1.024-.631 1.603-.707.465-.062 1.074-.051 1.37.312.36.442-.023 1.196.262 1.69.372.644 1.298.872 1.606 1.549.13.286-.46.464-.552.764-.106.345-.15.747-.014 1.082.559 1.388 1.468 2.614 2.059 3.989.93 2.169 1.259 4.617 2.499 6.626 1.307 2.119 3.566 3.511 5.008 5.54.182.256-.457.483-.508.793-.031.183.167.339.298.47.305.305.573.745.997.825.295.055.54-.711.75-.497.976.996 1.196 2.603 2.228 3.54m565.325-1.149c1-.732 2.45-1.081 3-2.194.27-.55-.71-1.127-1.3-1.297-.38-.112-.64.722-1.03.622-1.09-.281-1.85-1.365-2.94-1.646-.39-.1-.63.618-1.03.622-.39.005-.61-.598-1-.598s-.61.607-1 .598c-.39-.008-.6-.525-.97-.642-.34-.106-.75-.167-1.06.001-.75.408-1.16 1.925-1.97 1.641-3.16-1.11-6-3.124-8.52-5.328-1.15-1.004-1.58-2.621-2.19-4.023-.65-1.516-.88-3.197-1.56-4.698-.53-1.158-1.66-2.012-2.05-3.221-.13-.381.54-.619.66-1 .11-.344.15-.75.02-1.084-.39-.935-.9-1.843-1.55-2.612-.55-.643-1.56-.838-2.02-1.549-.17-.261.52-.473.51-.784-.01-.304-.28-.605-.55-.728-1.52-.673-3.08-1.328-4.71-1.605-.4-.067-.64.626-1.04.632-.39.007-.62-.674-1-.598-.54.106-.79.787-1.28 1.049-1.1.595-2.51.661-3.45 1.5-2.3 2.075-4.14 4.618-6.06 7.06-1.5 1.927-2.48 4.275-4.19 6.031-.32.335-1.07.053-1.36-.312-.37-.453-.03-1.196-.27-1.725-.24-.521-1.11-.734-1.12-1.306 0-.757 1.06-1.24 1.08-1.996.02-.381-.72-.298-.98-.575-.8-.841-1.52-1.765-2.15-2.735-.68-1.026-.89-2.373-1.77-3.232-.92-.899-2.15-1.501-3.39-1.825-1.31-.342-2.71-.208-4.06-.12-.52.034-1.07.158-1.48.483-1.08.856-2.3 1.717-2.86 2.975-.29.647.66 1.319.64 2.027-.02.714-.7 1.289-.77 2-.04.469.03 1.119.44 1.342.61.325 1.46.343 2.06 0 .4-.234.38-.906.31-1.369-.05-.385-.87-.658-.64-.974.83-1.157 1.93-2.327 3.3-2.723.74-.212 1.24.944 1.96 1.207.53.193 1.32-.307 1.68.125 1.4 1.667 2.37 3.68 3.19 5.694 1.42 3.463 2.61 7.031 3.5 10.664.09.392-.8.668-.63 1.034.6 1.299 1.49 2.559 2.67 3.365.41.281 1.15-.169 1.36-.62 1.11-2.349 1.37-5.035 2.44-7.406a40.47 40.47 0 0 1 4.04-7.023 55.536 55.536 0 0 1 6.1-7.101c.73-.719 1.67-1.291 2.66-1.538.39-.097.63.617 1.03.622.39.005.68-.824 1-.597.87.626 1.42 1.65 1.83 2.638 1.03 2.46 1.54 5.111 2.45 7.616a83.507 83.507 0 0 0 2.7 6.475c.42.894.76 1.909 1.52 2.545.33.279.98-.492 1.29-.185 1.11 1.112 1.29 3.003 2.52 3.99 1.61 1.297 3.59 2.307 5.64 2.581m-465.607-3.318c.329-.693 1.115-1.323.986-2.078-.262-1.542-1.537-2.741-2.056-4.216-1.706-4.848-3.363-9.727-4.606-14.713-.098-.395.595-.614.685-1.011a4.989 4.989 0 0 0 .015-2.086c-.743-3.602-1.428-7.241-2.653-10.709-.256-.725-1.02-1.19-1.687-1.573-.305-.175-.747-.17-1.055 0-.544.301-1.125.726-1.324 1.316-.29.86-.271 1.845-.035 2.721.15.558 1.1.741 1.126 1.318.022.513-1.104.649-1.02 1.155.854 5.093 2.369 10.056 3.733 15.037.174.633.819 1.113.869 1.768.032.414-.763.662-.65 1.061.558 1.986 1.522 3.848 2.537 5.644.87 1.542 2.34 2.717 3.09 4.321.166.352-.52.62-.597 1.002-.038.183.17.337.299.473.299.315.55.765.972.868m-86.931-1.025c-.45-.105-1.334.146-1.346-.314-.012-.456.884-.436 1.329-.332m162.272-7.476c1.462-.802 3.017-1.454 4.386-2.405.814-.565 1.482-1.328 2.103-2.1a20.895 20.895 0 0 0 2.002-3.004c1.435-2.606 2.883-5.217 4.038-7.958 2.03-4.82 3.968-9.694 5.504-14.694.123-.401-.758-.663-.662-1.071 1.267-5.386 3.39-10.545 4.66-15.929.097-.404-.733-.655-.65-1.062.433-2.088 1.657-3.954 2.12-6.036 1.082-4.859 1.346-9.88 2.502-14.722.34-1.426 1.187-2.692 1.954-3.942 1.876-3.058 3.774-6.118 5.962-8.962 2.32-3.018 5.25-5.539 7.535-8.585.743-.991.674-2.464 1.468-3.416.945-1.132 2.535-1.564 3.567-2.619.715-.731 1.176-1.692 1.57-2.635.14-.333.168-.772-.014-1.084-.316-.543-.745-1.367-1.37-1.294-1.141.134-2.124.991-2.942 1.799-2.796 2.763-5.313 5.801-7.814 8.834-.59.714-.823 1.682-1.432 2.38-.366.419-1.061.456-1.417.884-1.332 1.599-2.282 3.489-3.581 5.116-.501.627-.993 1.519-1.791 1.611-.467.053-.4-.895-.362-1.364.415-5.313 1.388-10.576 1.71-15.895.025-.426-.715-.658-.683-1.084.308-4 1.373-7.917 1.68-11.916.033-.407-.554-.627-.682-1.015a1.688 1.688 0 0 1 0-1.054c.129-.37.59-.57.695-.947.18-.651.244-1.356.132-2.022-.123-.724-.93-1.318-.82-2.043.57-3.745 2.626-7.228 2.808-11.012.049-1.01-1.33-1.562-2.175-2.12-.221-.146-.568.007-.774.173-.848.682-1.674 1.424-2.308 2.308-4.074 5.673-7.531 11.787-11.79 17.324-1.27 1.65-2.982 2.938-4.7 4.115-1.102.755-2.39 1.227-3.666 1.617-.658.201-1.371.133-2.06.132-.685-.001-1.408.098-2.054-.136-.952-.345-1.902-.83-2.611-1.554-1.08-1.103-2.165-2.337-2.633-3.807-.218-.684.668-1.297.783-2.005.108-.667.045-1.37-.132-2.022-.107-.395-.733-.608-.691-1.015.309-3.004 1.318-5.902 1.709-8.896.178-1.361.323-2.785-.008-4.117-.26-1.047-.934-1.992-1.697-2.754-.715-.714-1.653-1.218-2.61-1.548-.434-.15-.94.01-1.37.175-1.844.71-3.763 1.337-5.41 2.431-3.386 2.25-6.248 5.222-9.59 7.537-3.43 2.377-6.914 4.738-10.69 6.514-.414.194-.404-.877-.337-1.328.105-.707.77-1.265.827-1.977.183-2.343.492-4.782-.123-7.05-.425-1.567-1.867-2.659-2.86-3.943-.215-.278-.428-.61-.756-.735-1.873-.715-3.791-1.342-5.753-1.753-.67-.14-1.396-.08-2.052.12-1.36.413-2.562 1.256-3.914 1.694-.151.05-.346-.15-.364-.307-.12-1.02-.291-2.089-.031-3.083.6-2.287 1.354-4.583 2.57-6.61 1.865-3.106 4.483-5.696 6.587-8.645 2.093-2.935 4.234-5.854 5.998-8.998 2.053-3.66 3.37-7.702 5.42-11.364 1.815-3.241 4.393-6.02 6.144-9.296.42-.785-.186-1.884.25-2.66.457-.81 1.653-.958 2.209-1.703 1.049-1.41 1.956-2.968 2.512-4.635.127-.38-.617-.627-.622-1.028-.004-.388.599-.611.599-1 0-.388-.598-.611-.598-1s.639-.614.598-1c-.064-.614-.44-1.194-.873-1.633-.698-.705-1.443-1.69-2.434-1.71-1.347-.025-2.584.863-3.717 1.594-1.437.926-2.7 2.114-3.91 3.323-1.14 1.14-2.3 2.309-3.115 3.7-3.232 5.526-6.17 11.224-8.978 16.976-1.054 2.158-2.002 4.395-2.594 6.722-.1.388.75.65.62 1.029-.274.81-1.433 1.142-1.64 1.972-.172.687.865 1.355.64 2.028-.326.983-1.472 1.471-2.083 2.309-.603.828-1.3 1.665-1.538 2.661-.096.402.793.672.646 1.057-.718 1.878-2.248 3.361-3.041 5.209-.754 1.758-.671 3.829-1.561 5.522-.78 1.483-2.343 2.412-3.322 3.771-.763 1.058-1.136 2.36-1.872 3.437-1.808 2.65-3.802 5.168-5.742 7.723-.761 1.002-1.475 2.05-2.36 2.944-.657.665-1.638.978-2.233 1.7-1.633 1.981-2.766 4.339-4.385 6.333-.534.657-1.675.772-2.015 1.548-.205.466.346 1.024.754 1.329 1.03.768 2.209 1.349 3.418 1.784.206.074.44-.17.547-.36.669-1.185 1.024-2.536 1.739-3.693.38-.614 1.103-.957 1.505-1.556.609-.906.812-2.064 1.499-2.913.14-.173.34.508.534.399.746-.42 1.32-1.103 1.875-1.755 1.853-2.173 2.965-5.11 5.334-6.702.717-.482 1.19 1.37 1.329 2.223.056.345-.687.282-.874.577a12.956 12.956 0 0 0-1.432 3.043c-.978 3.097-1.96 6.214-2.505 9.416-.141.828.147 1.703.482 2.474.174.398.565.72.974.868.5.181 1.367.542 1.594.061 1.653-3.513 2.188-7.46 3.592-11.08.525-1.354 1.36-2.572 2.17-3.777.54-.8 1.05-1.698 1.863-2.218 1.787-1.142 3.74-2.07 5.776-2.664.389-.114.615.582 1.008.682.863.219 1.892-.204 2.659.25.835.493 1.265 1.49 1.729 2.343.17.313.122.704.123 1.06 0 .686.056 1.39-.118 2.055-.437 1.673-1.394 3.2-1.7 4.902-.071.398.79.665.632 1.038-.636 1.485-1.676 2.789-2.776 3.971-2.085 2.24-4.855 3.826-6.731 6.243-.331.427.395 1.042.782 1.418.708.69 1.438 1.676 2.426 1.705 1.035.031 1.913-.869 2.69-1.553 1.097-.966 1.735-2.39 2.855-3.329 1.004-.84 2.338-1.193 3.422-1.928.505-.343.799-.946 1.31-1.281 2.993-1.958 6.193-3.591 9.169-5.575 1.032-.688 1.774-1.762 2.826-2.419 1.065-.665 2.378-.855 3.453-1.504.632-.38.977-1.129 1.59-1.538 1.388-.921 2.983-1.499 4.369-2.422.627-.419.997-1.157 1.626-1.574.99-.657 2.133-2.18 3.18-1.615 1.386.747 1.423 2.829 1.872 4.338.13.44.002.941-.175 1.364-.394.943-1.281 1.673-1.51 2.669-.09.391.542.62.666 1.002a1.77 1.77 0 0 1 0 1.054c-.117.371-.634.584-.642.973-.01.388.607.612.598 1-.008.388-.523.601-.642.97a1.907 1.907 0 0 0-.022 1.092c.75 2.567 1.492 5.153 2.564 7.603a10.182 10.182 0 0 0 2.135 3.143c.72.712 1.614 1.381 2.612 1.554 2.315.402 4.723.465 7.048.124 1.343-.198 2.549-.981 3.698-1.703 2.079-1.307 4.2-2.624 5.94-4.357 1.807-1.797 2.974-4.141 4.583-6.116.968-1.188 2.539-4.768 3.139-3.358 1.44 3.388.315 7.367.13 11.045-.035.716-.74 1.287-.783 2.003-.024.388.609.612.598 1-.01.391-.575.591-.652.974-.198.99-.147 2.016-.147 3.026 0 1.343-.073 2.701.147 4.026.067.403.74.609.69 1.014-.301 2.349-1.43 4.545-1.702 6.897-.083.718.649 1.341.664 2.063.008.388-.606.612-.6 1 .008.406.696.637.636 1.039-.302 2.029-1.38 3.892-1.67 5.922-.058.401.549.625.677 1.009.115.346.136.746.02 1.091-1.09 3.263-2.125 6.566-3.615 9.666-1.078 2.242-2.93 4.047-4.045 6.27-.14.279.675.525.506.787-.46.713-1.502.879-2.017 1.553-1.162 1.521-2.098 3.215-2.938 4.935-3.622 7.415-6.798 15.042-10.44 22.447-.9 1.829-2.505 3.3-3.17 5.226-.235.681.737 1.343.656 2.058-.042.371-.706.305-.955.583-.464.517-.906 1.092-1.135 1.748-1.344 3.838-3.162 7.621-3.562 11.669-.204 2.067.864 4.115 1.82 5.959.53 1.025 1.429 1.976 2.507 2.389m4.073-5.014c-.864.028-1.904.607-2.592.084-1.027-.78-1.91-2.137-1.802-3.421.209-2.479 2.068-4.554 2.676-6.966.1-.403-.781-.668-.652-1.063.395-1.21 1.5-2.073 2.05-3.222.729-1.519 1.043-3.215 1.763-4.738 1.377-2.913 3.136-5.635 4.52-8.545 2.539-5.34 4.627-10.891 7.243-16.194.639-1.296 1.777-2.29 2.494-3.544.623-1.09.892-2.358 1.507-3.453.154-.275.482-.735.753-.574.398.236.439.842.477 1.303.083 1.015.139 2.068-.12 3.055-.7 2.69-2 5.198-2.732 7.881-.182.67-.132 1.406.016 2.086.083.382.717.589.65.975-.09.534-.862.741-1.031 1.256-1.702 5.177-2.958 10.492-4.544 15.706-.594 1.951-1.187 3.91-1.992 5.784-.214.496-.93.721-1.031 1.252-.073.383.659.619.598 1.004-.052.329-.667.257-.843.542-1.013 1.64-1.572 3.544-2.663 5.133m-201.082-7.651c.437-.12.858-.351 1.31-.359.146-.002.405.255.282.332-.387.245-.875.325-1.333.332m-317.68-49.149c2.467-1.466 5.065-2.731 7.4-4.398 1.188-.848 2.182-1.958 3.096-3.095.65-.811 1.568-1.661 1.56-2.701-.011-1.667-.756-3.304-1.613-4.735-.74-1.231-1.876-2.214-3.048-3.043-2.19-1.546-4.578-2.794-6.958-4.026-2.428-1.259-5.085-2.064-7.451-3.438-.467-.271-.472-.993-.85-1.381-.841-.866-2.121-1.319-2.766-2.341-.275-.434.095-1.051.337-1.504.658-1.235 1.834-2.183 2.327-3.492.142-.376-.703-.639-.622-1.032.076-.366.705-.308.957-.583.455-.499.782-1.102 1.115-1.689.882-1.553 1.966-3.029 2.526-4.724.126-.381-.726-.643-.622-1.03.29-1.083 1.453-1.817 1.679-2.916.145-.704-.654-1.336-.655-2.055-.001-.391.569-.592.65-.974.145-.669.273-1.425 0-2.052-.322-.739-1.02-1.27-1.661-1.759-.824-.627-1.655-1.553-2.69-1.553s-1.95.828-2.69 1.553c-1.556 1.525-2.814 3.332-4.095 5.095-.602.828-1.254 1.676-1.537 2.66-.091.315.655.521.534.825-.247.621-1.168.793-1.424 1.41-.121.291.533.482.51.797-.03.387-.524.601-.641.971a1.786 1.786 0 0 0 0 1.054c.117.371.642.584.642.973s-.525.602-.642.973a1.786 1.786 0 0 0 0 1.054c.117.371.66.585.642.973-.034.716-.788 1.286-.784 2.003.013 2.027 1.498 4.108.836 6.023-1.031 2.984-3.586 5.205-5.566 7.664a19.78 19.78 0 0 1-3.095 3.095c-2.027 1.61-4.336 2.84-6.38 4.43-.966.751-1.684 1.782-2.62 2.57a42.417 42.417 0 0 1-4.006 3.004c-2.056 1.35-4.312 2.383-6.333 3.785-.678.47-.981 1.398-1.707 1.791-.295.159-.816-.048-.941-.359-.112-.28.733-.57.496-.754-1.12-.867-2.798-.862-3.831-1.829-1.512-1.415-2.284-3.461-3.563-5.091-.418-.534-1.414-.697-1.504-1.37-.098-.735.962-1.221 1.062-1.957.053-.397-.65-.604-.662-1.005-.013-.388.598-.611.598-1s-.61-.612-.598-1c.01-.391.568-.593.65-.974.15-.68.134-1.402.019-2.088-.435-2.594-.901-5.195-1.66-7.713-.158-.523-1.096-.719-1.045-1.263.194-2.086 1.05-4.059 1.726-6.041.226-.664.804-1.186.97-1.868.165-.673.138-1.401-.01-2.079-.082-.382-.652-.583-.65-.974.003-.587.925-1.105.664-1.631-.431-.869-1.49-1.263-2.337-1.738-.208-.117-.626-.198-.716.023-1.088 2.695-2.046 5.463-2.65 8.306-.086.41.762.662.66 1.069-.272 1.101-1.66 1.836-1.66 2.971s1.376 1.873 1.66 2.971c.102.388-.627.628-.621 1.029.005.391.553.596.65.974a5.13 5.13 0 0 1 .133 2.022c-.094.637-.838 1.173-.696 1.8.148.651 1.276.757 1.424 1.408.142.627-.65 1.158-.697 1.799-.148 2.014-.302 4.082.117 6.058.49 2.312 1.412 4.548 2.57 6.609.85 1.512 2.133 2.749 3.372 3.963.698.684 1.464 1.398 2.398 1.689.382.119.628-.643 1.028-.621.716.038 1.29.704 2.003.784 1.654.185 3.334.123 4.993 0a3.337 3.337 0 0 0 1.486-.483c.57-.352.89-1.049 1.489-1.353.5-.254 1.21.081 1.663-.249.75-.549.964-1.646 1.703-2.21 1.317-1.003 3.04-1.385 4.347-2.401 1.712-1.331 2.935-3.216 4.626-4.574 1.756-1.411 4.066-2.102 5.662-3.692 3.279-3.267 5.272-7.752 8.815-10.732.648-.545.918 1.448 1.546 2.016 1.217 1.099 2.499 2.165 3.943 2.942 4.01 2.158 8.42 3.537 12.356 5.828.845.491 1.377 1.457 1.729 2.369.25.647.178 1.413-.01 2.08-.117.415-.553.664-.852.974-.59.611-1.124 1.295-1.815 1.789-1.812 1.295-3.57 2.777-5.657 3.553-.68.253-1.348-.773-2.067-.68-2.533.327-5.052.949-7.42 1.904-.33.133-.164.794.068 1.063.632.735 1.397 1.496 2.338 1.733 1.633.41 3.374.28 5.05.123.715-.067 1.29-.719 2.004-.784m-3.978-20.409c-.34-.272-.782-.451-1.018-.817-.145-.225-.28-.71-.03-.805.435-.164 1.109-.089 1.36.301m-7.501-12.812c-.106-1.719-.36-3.434-.318-5.155.013-.521.21-1.042.482-1.486.35-.57 1.189-.84 1.345-1.491.148-.613-.803-1.233-.55-1.812.34-.779 1.424-.95 2.022-1.554.545-.551.953-2.527 1.375-1.876.774 1.197.49 2.883.177 4.274-.432 1.916-1.48 3.644-2.356 5.403m261.832-2.3c-.07-1.407-.537-2.851-.208-4.221.482-2.002 1.596-3.805 2.575-5.617.16-.297.61-.904.798-.623.44.66.584 1.593.355 2.353m362.935 4.138c1.7-1.176 4.179-1.677 5.1-3.528.458-.923-1.42-1.558-2.342-2.02-.408-.204-.938-.011-1.357.169-.94.403-1.673 1.233-2.644 1.549-.66.215-1.402.135-2.08-.01-.54-.116-1.042-1.089-1.478-.75-1.041.808-1.133 2.41-1.97 3.428-.175.212-.913-.294-.825-.034.199.587.66 1.259 1.273 1.355m-153.933-.034c-.45-.105-1.334.147-1.346-.314-.012-.457.885-.436 1.329-.332M306.796 61.366c.28-.34.822-.58.842-1.02.015-.309-.628-.241-.77-.515-.82-1.583-.71-3.766-2.055-4.937-.88-.767-2.36-.15-3.501.098-.427.092-.795.474-.977.87-.3.656-.646 1.451-.394 2.126.328.876 1.237 1.411 1.947 2.02.744.636 1.453 1.435 2.396 1.697M99.609 57.559c1.068-.718 2.318-1.22 3.204-2.154.252-.266.068-.781-.126-1.091-.428-.682-1.023-1.262-1.66-1.756-.808-.628-1.655-1.28-2.635-1.577-.857-.26-1.893-.45-2.687-.035-.858.449-1.29 1.474-1.723 2.341-.165.332-.173.785 0 1.112.629 1.19 1.159 2.636 2.332 3.295m513.069-1.029c-.45-.104-1.337.148-1.348-.314-.015-.616.707-1.448 1.308-1.308m-511.96 1.622c-.45-.104-1.337.148-1.348-.314-.015-.616.707-1.448 1.308-1.308m658.439.336c.64-1.555 2.022-2.987 1.92-4.665-.058-.96-1.452-1.294-2.31-1.727a1.222 1.222 0 0 0-1.083.014c-.544.301-1.095.737-1.322 1.316-.25.637-.331 1.453 0 2.052M100.379 55.66c-.45-.104-1.334.147-1.346-.314-.011-.456.885-.436 1.329-.332m518.996-17.385c-.127-.447-.502-.892-.382-1.342.618-2.306 1.588-4.506 2.535-6.698 1.846-4.274 3.583-8.615 5.839-12.687 1.44-2.602 3.374-4.903 5.203-7.25 1.234-1.582 2.21-3.564 3.974-4.524.666-.362.46 1.567.173 2.269-.601 1.469-2.184 2.42-2.704 3.919-.233.67.72 1.325.64 2.03-.04.362-.7.29-.932.569-1.81 2.175-3.736 4.296-5.155 6.744-2.05 3.539-3.247 7.52-5.195 11.116"/></svg>