<?xml version="1.0" encoding="UTF-8" standalone="no"?>
<svg
   width="196px"
   height="236px"
   viewBox="0 0 196 236"
   version="1.1"
   id="svg31"
   sodipodi:docname="artagnon.com.svg"
   inkscape:version="1.2.2 (b0a8486, 2022-12-01)"
   xmlns:inkscape="http://www.inkscape.org/namespaces/inkscape"
   xmlns:sodipodi="http://sodipodi.sourceforge.net/DTD/sodipodi-0.dtd"
   xmlns="http://www.w3.org/2000/svg"
   xmlns:svg="http://www.w3.org/2000/svg"
   xmlns:rdf="http://www.w3.org/1999/02/22-rdf-syntax-ns#"
   xmlns:cc="http://creativecommons.org/ns#"
   xmlns:dc="http://purl.org/dc/elements/1.1/">
  <sodipodi:namedview
     id="namedview33"
     pagecolor="#ffffff"
     bordercolor="#666666"
     borderopacity="1.0"
     inkscape:showpageshadow="2"
     inkscape:pageopacity="0"
     inkscape:pagecheckerboard="true"
     inkscape:deskcolor="#d1d1d1"
     showgrid="false"
     inkscape:zoom="1"
     inkscape:cx="203.5"
     inkscape:cy="120"
     inkscape:window-width="1220"
     inkscape:window-height="732"
     inkscape:window-x="0"
     inkscape:window-y="25"
     inkscape:window-maximized="0"
     inkscape:current-layer="svg31" />
  <title
     id="title9">artagnon.com</title>
  <defs
     id="defs24">
    <filter
       x="-0.028235294"
       y="-0.022857143"
       width="1.0564706"
       height="1.0695238"
       filterUnits="objectBoundingBox"
       id="filter-1">
      <feOffset
         dx="0"
         dy="5"
         in="SourceAlpha"
         result="shadowOffsetOuter1"
         id="feOffset11" />
      <feGaussianBlur
         stdDeviation="2"
         in="shadowOffsetOuter1"
         result="shadowBlurOuter1"
         id="feGaussianBlur13" />
      <feColorMatrix
         values="0 0 0 0 0   0 0 0 0 0   0 0 0 0 0  0 0 0 0.5 0"
         type="matrix"
         in="shadowBlurOuter1"
         result="shadowMatrixOuter1"
         id="feColorMatrix15" />
      <feMerge
         id="feMerge21">
        <feMergeNode
           in="shadowMatrixOuter1"
           id="feMergeNode17" />
        <feMergeNode
           in="SourceGraphic"
           id="feMergeNode19" />
      </feMerge>
    </filter>
  </defs>
  <g
     id="Welcome"
     stroke="none"
     stroke-width="1"
     fill="none"
     fill-rule="evenodd">
    <g
       id="Desktop-HD"
       transform="translate(-1197.000000, -177.000000)"
       fill="#000000"
       fill-rule="nonzero">
      <g
         id="Group"
         transform="translate(1210.000000, 113.000000)">
        <g
           id="artagnon.com"
           filter="url(#filter-1)"
           transform="translate(0.000000, 77.000000)">
          <path
             d="M67.7575628,209.900123 L67.7575628,209.900123 C68.2997875,209.205747 68.7326019,208.409098 69.3847733,207.816995 C70.1163208,207.149532 71.1106676,206.826567 71.8540143,206.175252 C72.4997497,205.610062 73.1953635,205.00181 73.5101863,204.199779 C74.6525589,201.293088 75.3385187,198.230296 76.1628505,195.21595 C76.7002483,193.251242 77.2644623,191.286534 77.593766,189.278764 C77.6291634,189.063453 77.2687529,188.950415 77.2247743,188.735105 C77.1169729,188.202212 77.0633404,187.642404 77.153443,187.109511 C77.3679731,185.833797 77.9413047,184.633441 78.1300911,183.357726 C78.1622706,183.142416 77.7793345,183.018612 77.790061,182.797919 C77.8088323,182.41036 78.1703155,182.103543 78.2105399,181.721367 C78.3333583,180.531776 78.0297983,179.309889 78.2732899,178.14183 C78.380555,177.630468 79.0557883,177.382861 79.2188312,176.882264 C79.2864081,176.677719 78.794598,176.54315 78.8627113,176.338605 C79.0069827,175.902601 79.5127373,175.671143 79.7476477,175.278201 C79.8425773,175.116718 79.8195153,174.906791 79.8195153,174.723777 C79.8195153,174.180118 79.8527675,173.625693 79.7481841,173.0928 C79.7079597,172.888255 79.3893825,172.7806 79.3990364,172.570672 C79.4161988,172.183113 79.7701734,171.876296 79.8195153,171.49412 C79.8887013,170.955844 79.858667,170.396036 79.7481841,169.863143 C79.7052781,169.658598 79.3759744,169.567091 79.3754381,169.357163 C79.3743654,168.791973 79.7433571,168.275228 79.7433571,167.710038 C79.7433571,167.500111 79.4430151,167.403221 79.3754381,167.204059 C79.314297,167.021045 79.3260962,166.8165 79.3754381,166.633486 C79.4762672,166.262075 79.7873358,165.955258 79.8195153,165.573082 C79.9396521,164.141267 79.9251714,162.698687 79.8270239,161.266873 C79.7766093,160.529434 79.3974274,159.835058 79.3754381,159.09762 C79.3695385,158.887692 79.7047417,158.796185 79.7481841,158.59164 C79.860276,158.058747 79.8270239,157.504322 79.8270239,156.960663 C79.8270239,156.594636 79.8350687,156.223225 79.7481841,155.867963 C79.6564725,155.496552 79.3239509,155.189735 79.2992799,154.807559 C79.1963055,153.187348 79.0868952,151.540223 79.3706112,149.946925 C79.4751946,149.365587 80.0243915,148.951114 80.4212721,148.509728 C80.5853876,148.326714 80.8015267,148.181379 81.0332191,148.100638 C82.7553592,147.497769 84.4882257,146.911048 86.257026,146.464278 C88.0413798,146.012126 89.9222721,145.963682 91.6749826,145.403874 C93.3477808,144.865598 94.8344741,143.859022 96.4611482,143.191559 C98.2626644,142.454121 100.150529,141.942759 101.950436,141.20532 C102.450291,141.000775 102.821428,140.52171 103.338446,140.36561 C106.496328,139.407478 109.749676,138.793843 112.919358,137.873391 C113.27226,137.771119 113.600491,137.566574 113.871335,137.318967 C114.040814,137.162866 114.031696,136.872197 114.192058,136.705332 C114.642034,136.237031 115.450813,136.054018 115.676069,135.440383 C115.850911,134.972083 115.489964,134.412275 115.185332,134.013951 C114.867291,133.594096 114.421605,133.061202 113.899224,133.104264 C113.346809,133.147326 113.151587,133.954741 112.663531,134.218496 C111.116769,135.052824 109.495995,135.7472 107.849476,136.360835 C106.33114,136.920642 104.725919,137.216694 103.19042,137.733439 C100.129612,138.756164 97.0811401,139.816568 94.0637748,140.963096 C93.0914173,141.334507 92.2252522,141.969673 91.2314417,142.27649 C88.134164,143.229239 84.9253307,143.789046 81.8253714,144.736412 C81.0273195,144.978636 80.3542315,145.538443 79.5738784,145.834495 C79.4945023,145.866792 79.3883099,145.753754 79.378656,145.66763 C79.317515,145.123971 79.2826538,144.569546 79.3706112,144.025887 C79.4322886,143.649094 79.7948444,143.347659 79.8195153,142.965483 C79.946088,140.995393 80.0050838,139.009154 79.8200516,137.049828 C79.6484276,135.225072 78.8552027,133.491823 78.7554462,131.661684 C78.5012281,127.005595 78.6245829,122.333358 78.7629548,117.668657 C78.7801172,117.097546 79.2601282,116.58726 79.2199038,116.017764 C79.078314,114.030987 78.4685123,112.10342 78.2260933,110.12687 C78.1601253,109.588594 78.1890869,109.032555 78.2974246,108.501276 C78.3419395,108.284889 78.6830423,108.175081 78.6707069,107.954387 C78.3247771,101.860025 77.5449604,95.794729 77.2312102,89.6987516 C77.2108298,89.3031186 77.6522254,88.9925332 77.6742147,88.5974385 C77.8013238,86.2699324 77.8023964,83.9316608 77.6742147,81.6036164 C77.6527617,81.2198256 77.2312102,80.9243119 77.2301375,80.5399828 C77.2285285,79.9780225 77.701031,79.4731194 77.6661699,78.9122357 C77.4704112,75.7401743 77.2204837,72.5492732 76.544714,69.4444964 C76.4063421,68.8093305 75.8324742,68.305504 75.2832772,67.9610073 C75.0489032,67.8135196 74.7136999,68.0046076 74.4744989,68.1440212 C74.1999004,68.3033509 73.943537,68.5348097 73.8035562,68.820096 C73.4216927,69.5995199 73.4200837,70.5549601 72.939,71.2773267 C72.658502,71.6987969 71.8534779,71.6051368 71.6432385,72.0659012 C70.7330947,74.0553699 70.2445025,76.2181635 69.70925,78.3405864 C69.5751687,78.8724032 69.601985,79.4381315 69.6454273,79.98502 C69.667953,80.2643854 69.7575193,80.5464421 69.903936,80.7848984 C70.0932588,81.0922541 70.4472334,81.2763445 70.6301203,81.5874682 C70.7245135,81.7484127 70.6976973,81.9556491 70.7019879,82.1418926 C70.7218319,83.0375841 70.8081802,83.9402732 70.7019879,84.8295055 C70.6558639,85.2122198 70.3437227,85.5195755 70.2530837,85.8942157 C70.167808,86.2467866 70.1013037,86.6273478 70.1817525,86.9815335 C70.4338253,88.087691 70.9857039,89.110954 71.238313,90.2176498 C71.3187618,90.5718355 71.261375,90.9545498 71.1669818,91.3049676 C71.1106676,91.5165101 70.7904815,91.6300864 70.8001354,91.8486265 C70.8248063,92.418661 71.1819989,92.9310999 71.2624476,93.4957516 C71.5509906,95.5266675 71.7161787,97.57427 71.9049652,99.617028 C72.5764442,106.87945 73.33159,114.135951 73.8432442,121.412906 C73.8582613,121.628217 73.5450474,121.746637 73.4758615,121.956565 C73.4147204,122.139579 73.3943401,122.360272 73.468353,122.537903 C73.7000454,123.09771 74.2647958,123.517566 74.3693792,124.10967 C74.4369562,124.497229 74.0009238,124.814811 73.9365648,125.20237 C73.8770327,125.563015 73.9156481,125.939809 74.0068234,126.295071 C74.0599196,126.494233 74.3554347,126.607271 74.3565074,126.817199 C74.35758,127.027126 74.075473,127.140164 74.0121866,127.339327 C73.9537272,127.522341 73.9494366,127.737651 74.0057507,127.920665 C74.0958534,128.2221 74.3795694,128.442793 74.4391015,128.74961 C75.0424673,131.850081 75.6104356,134.961317 75.9863995,138.099467 C76.0132158,138.325543 75.584692,138.454729 75.6286706,138.675422 C75.7766964,139.429009 76.369872,140.042644 76.5178977,140.796231 C76.5602674,141.006158 76.2095108,141.124579 76.152124,141.334507 C76.0566581,141.689769 76.0743568,142.061179 76.0743568,142.427207 C76.0743568,142.793235 76.0657756,143.164646 76.1526603,143.519908 C76.2438356,143.891318 76.5479319,144.198136 76.6015644,144.580312 C76.67665,145.118588 76.6332076,145.673012 76.5296969,146.205906 C76.4980537,146.367389 76.3639724,146.523489 76.2121924,146.582699 C74.6734756,147.196334 73.1025792,147.73461 71.5161294,148.208293 C69.1697069,148.913435 66.7637523,149.408649 64.4210841,150.124556 C62.1459928,150.824315 59.9433055,151.739385 57.6698232,152.444527 C56.415895,152.832085 55.149095,153.214261 53.8490428,153.391893 C52.485168,153.574906 51.0494229,153.155051 49.7220182,153.515696 C49.2200178,153.655648 49.0435669,154.317728 48.794712,154.780645 C48.7035367,154.947511 48.7282077,155.157438 48.728744,155.351218 C48.730353,155.711863 48.6139704,156.126335 48.8000752,156.438536 C49.1808661,157.073701 49.7107553,157.649657 50.3393284,158.037216 C50.7244099,158.27944 51.2601987,158.387095 51.6844319,158.225612 C52.2105668,158.02645 52.4315355,157.358988 52.9158371,157.073701 C53.6956538,156.610784 54.5532378,156.282436 55.4199392,156.01868 C57.0798655,155.523466 58.8073688,155.281242 60.473731,154.807559 C64.1792014,153.752538 67.8798449,152.670603 71.5295376,151.432567 C72.2852197,151.179578 72.8821496,150.522881 73.659821,150.339867 C73.9419281,150.275274 74.3286185,150.490584 74.4192574,150.765105 C74.9582642,152.406847 75.3143841,154.123948 75.4656278,155.851815 C75.5149697,156.417005 75.0751831,156.93375 75.0086788,157.49894 C74.9453924,158.037216 74.8981958,158.618554 75.08001,159.129916 C75.235008,159.560537 75.8179934,159.754317 75.9654828,160.19032 C76.0352051,160.394865 75.5884462,160.534817 75.6265253,160.750128 C75.7901045,161.665197 76.3999062,162.467229 76.5361328,163.387681 C76.5929832,163.769857 76.1692864,164.108971 76.1810855,164.49653 C76.1923484,164.884089 76.5640217,165.190906 76.6015644,165.573082 C76.7061478,166.644252 76.7286735,167.731569 76.6021008,168.797356 C76.2175556,172.037779 75.4195038,175.218991 75.0719651,178.459413 C75.0295954,178.852355 75.5299868,179.196851 75.4452474,179.58441 C74.8080932,182.496484 73.6271052,185.263224 72.9470449,188.164532 C72.897703,188.37446 73.2393421,188.498263 73.3069191,188.702808 C73.3685965,188.891205 73.3610879,189.101133 73.3187182,189.289529 C72.8810769,191.254237 72.2063799,193.170501 71.8711767,195.15674 C71.8330976,195.382816 72.2632304,195.512002 72.2305145,195.738078 C72.069617,196.852309 71.7499672,197.950393 71.3176891,198.994649 C70.5142741,200.92706 69.7623462,202.929447 68.5384522,204.625017 C67.9388407,205.453962 66.8913977,205.852287 66.0037796,206.363649 C65.3848604,206.718911 64.7519967,207.214125 64.0381479,207.214125 C63.1349764,207.208743 62.2902643,206.724294 61.4702231,206.347501 C60.8931373,206.078363 60.3063976,205.76078 59.8816281,205.287097 C58.6684606,203.936024 57.6076095,202.450381 56.6111173,200.92706 C55.9004865,199.845125 55.4580183,198.601707 54.77474,197.503624 C54.5693275,197.169892 54.0582096,197.040706 53.9638164,196.65853 C53.1459206,193.391194 53.0386555,189.951609 52.0791672,186.721952 C51.9343594,186.232121 51.1432798,186.275183 50.7769697,185.925303 C50.2765784,185.440855 50.2079287,184.375068 49.5241142,184.251265 C48.9486373,184.148992 48.6145067,185.004851 48.2642864,185.473151 C48.1538034,185.623869 48.1495128,185.849945 48.2004637,186.027576 C48.4600451,186.937263 49.0306951,187.755442 49.1824751,188.68666 C49.2452251,189.074219 48.7389342,189.424098 48.8156287,189.811657 C48.9330839,190.403761 49.6002724,190.785937 49.7161186,191.378041 C49.7901315,191.760217 49.3900329,192.088565 49.3364004,192.470742 C49.2597059,193.019783 49.0827186,193.638801 49.3310371,194.128632 C50.0727748,195.608891 51.351374,196.75542 52.2003767,198.171086 C52.7195421,199.037711 52.9195914,200.071201 53.4135468,200.948591 C53.6076965,201.29847 54.0287118,201.470719 54.2389512,201.809833 C54.8079922,202.71952 55.0214496,203.866048 55.7336894,204.668079 C56.4706001,205.502407 57.6430069,205.836138 58.4630481,206.584342 C58.8513475,206.939605 58.9720206,207.51556 59.294352,207.930033 C59.5769954,208.29606 59.9025447,208.635174 60.2667095,208.915078 C60.7536927,209.297254 61.2417486,209.727875 61.8317063,209.905506 C62.3583776,210.066989 62.9402904,209.99163 63.4835877,209.900123 C63.6906092,209.867827 63.7968016,209.539478 64.0059684,209.550244 C64.3899772,209.566392 64.6972915,209.937803 65.0802277,209.970099 M17.8648409,101.776054 L17.8648409,101.776054 C18.1346125,101.691006 18.4328092,101.668937 18.6746919,101.521987 C18.9825425,101.334667 19.1198417,100.845912 19.4759616,100.795853 C20.0369577,100.716726 20.5738192,101.266844 21.13267,101.175337 C22.7341369,100.911582 24.2696358,100.32217 25.7917265,99.7569798 C29.559947,98.3574618 33.3501568,96.9891638 36.9923409,95.2860581 C37.441245,95.0766686 37.4653796,94.3521489 37.8912218,94.0996974 C40.1502233,92.7615429 42.703131,91.9622028 44.9353163,90.5804479 C45.9838319,89.9318251 46.7829564,88.9419353 47.6475125,88.0613155 C47.8749144,87.8293185 47.92372,87.4293793 48.1988548,87.2560544 C48.9057313,86.8098234 49.8394734,86.7737589 50.5007623,86.26132 C50.9287497,85.9297419 51.1856495,85.376394 51.3073953,84.8472686 C51.3556646,84.6368026 51.0161707,84.5135373 50.9502027,84.3079159 C50.8922796,84.1281316 50.8563458,83.9042087 50.9507391,83.7405728 C51.1159272,83.4531333 51.351374,83.1436245 51.6699511,83.0553472 C51.8775089,82.99829 52.0169535,83.4547482 52.2218297,83.390155 C52.7179331,83.2335167 53.1952625,82.9094744 53.4918503,82.4804683 C53.6607927,82.2355527 53.5433375,81.8749076 53.4671793,81.5869299 C53.4140831,81.3839998 53.0054034,81.2397418 53.1191043,81.0631872 C53.6913632,80.1766464 54.6728383,79.6179157 55.2901485,78.7625949 C55.7175996,78.1704911 55.8098476,77.3829931 56.2142367,76.7752793 C57.0412501,75.5323997 58.1155094,74.4698426 58.9650484,73.2425729 C59.3313585,72.7129092 59.4579312,72.0357578 59.8478396,71.5238571 C60.3954276,70.8047202 61.2744645,70.3606424 61.7469669,69.5898309 C62.7230787,67.9986866 63.2513589,66.1669328 64.1400497,64.5251906 C64.3218639,64.1893062 64.7798856,64.0509693 64.9343473,63.701628 C65.5066062,62.4097653 65.7254268,60.9806421 66.284814,59.6833965 C66.5583398,59.048769 67.26468,58.621916 67.414851,57.9474559 C67.5382058,57.3941081 66.9369853,56.8456046 67.0404961,56.2879505 C67.1246991,55.8357986 67.7731162,55.6624737 67.9206057,55.22647 C67.9897916,55.0224633 67.5317699,54.881435 67.5870114,54.6725838 C67.7822338,53.9389134 68.3689735,53.3586517 68.6097835,52.6384382 C69.0184632,51.4187044 69.1171471,50.1090786 69.5247542,48.8888065 C69.6776068,48.4307335 70.0862866,48.0948492 70.2756094,47.6502331 C70.6226117,46.8358212 70.7625926,45.9417446 71.1240757,45.133792 C71.5102298,44.2698588 72.1902901,43.5480305 72.5088673,42.6566452 C73.1245685,40.9346997 73.2248613,39.0475035 73.9059943,37.3508571 C74.2224261,36.5617443 75.145978,36.1182047 75.4522197,35.3247856 C75.5895189,34.9689851 75.0864459,34.6137228 75.1089716,34.2326233 C75.1191617,34.0630663 75.4570466,34.1039753 75.5332048,33.9516432 C75.9901538,33.0365737 76.3671904,32.0784421 76.673432,31.1020092 C77.0982015,29.7477064 76.4449575,26.3619494 77.7219477,26.9734311 C79.2724637,27.7162522 78.4921106,30.3430398 78.6690979,32.0579877 C78.6916235,32.2759895 78.3725101,32.3949485 78.3027878,32.6027231 C78.2405741,32.7884284 78.2647087,32.9967413 78.289916,33.191059 C78.5602239,35.3005632 78.7806535,37.4202947 79.1877243,39.5071914 C79.4510599,40.8561114 79.863494,42.1732732 80.2968447,43.476978 C81.1243944,45.965967 81.9723244,48.4522645 82.9677439,50.8782752 C83.3050924,51.7002229 83.9256206,52.3816805 84.2849585,53.1944775 C84.6298155,53.9739014 84.6904203,54.8652867 85.0679932,55.6296388 C85.7480535,57.0043961 86.7547358,58.1993692 87.438014,59.5730499 C88.1856512,61.0743021 88.510128,62.7763313 89.3473315,64.2291387 C89.9335349,65.2464806 90.8286616,66.0538949 91.6535296,66.8882229 C92.0075042,67.2461765 92.5577738,67.389358 92.8656245,67.7882206 C93.4089218,68.4928241 93.6261335,69.4111232 94.1533411,70.1281071 C94.6188714,70.7605816 95.2227735,71.2821712 95.8154128,71.7973014 C96.5287252,72.4179338 97.3948903,72.8577055 98.0626151,73.5278593 C98.6627629,74.1301903 98.9362888,75.0258818 99.5825606,75.5770766 C101.317036,77.057336 103.358826,78.1381946 105.136744,79.5646264 C106.033479,80.2837633 106.593939,81.4141432 107.585068,81.9954815 C108.800917,82.7092357 110.294583,82.7926685 111.588735,83.3508609 C112.173866,83.6033124 112.702683,83.9881798 113.181621,84.4101883 C113.405805,84.6077357 113.442811,84.9619214 113.655732,85.1723874 C114.084256,85.5976255 114.51868,86.0686172 115.079139,86.2909252 C116.188796,86.7301586 117.494748,86.5821326 118.562571,87.1161026 C119.020593,87.3454082 119.044191,88.0295572 119.362768,88.4321878 C119.630394,88.7713017 119.887294,89.2148413 120.305092,89.3219583 C120.681592,89.4183097 121.030739,88.8891842 121.412603,88.9586218 C122.261606,89.1141837 122.954538,89.7956413 123.801931,89.9608921 C126.360202,90.4593358 128.961379,90.7392394 131.559875,90.9362484 C131.778159,90.952935 131.904195,90.5529958 132.119262,90.5912134 C132.40995,90.6428879 132.541886,91.0175281 132.803076,91.1558651 C133.437549,91.492826 134.068804,91.9315211 134.782652,92.0063414 C135.07924,92.0370232 135.201522,91.5584957 135.473439,91.4352304 C136.281681,91.0697409 137.107622,90.6789524 137.986123,90.557302 C138.36745,90.504551 138.691926,90.9448609 139.076472,90.937325 C139.810701,90.9222533 140.500415,90.4921706 141.234644,90.4921706 C141.796713,90.4921706 142.299249,90.915794 142.860245,90.937325 C143.076921,90.9453991 143.18794,90.5325413 143.400325,90.5750651 C144.148498,90.7252442 144.750792,91.3840942 145.509155,91.4680653 C145.811643,91.5014384 145.938215,91.0159133 146.21335,90.8861888 C147.732223,90.1708198 149.231252,89.346719 150.861144,88.9462415 C151.416777,88.8095194 151.965437,89.4064676 152.532869,89.3338003 C154.65189,89.0619709 156.769302,88.6329648 158.787493,87.9288996 C159.203682,87.783565 159.213872,87.1074901 159.587154,86.8728017 C159.72928,86.7829096 159.8344,87.1198705 159.994761,87.1688536 C160.17443,87.2237578 160.406659,87.2797385 160.558975,87.1688536 C161.339328,86.6015106 161.866,85.7101252 162.689795,85.2089901 C162.867855,85.1002584 163.012663,85.4915851 163.211103,85.5545634 C163.391308,85.6116207 163.612811,85.6466087 163.776926,85.5540252 C165.729686,84.4564801 167.615941,83.2426673 169.495761,82.0234719 C169.646468,81.9255056 169.819165,81.7925514 169.850272,81.6149202 C169.943593,81.0761058 170.134524,80.4404017 169.850272,79.9742545 C169.473235,79.3563135 168.720771,79.0575702 168.082544,78.7184563 C167.91092,78.6274876 167.664747,78.6226431 167.501168,78.7265304 C167.037247,79.0209675 166.771766,79.5770067 166.296582,79.8520658 C165.0212,80.5905807 163.59243,81.0314289 162.29935,81.7381855 C161.626262,82.1058281 161.115144,82.7458385 160.417922,83.0644979 C159.09159,83.6705969 157.689636,84.1076771 156.282319,84.4877001 C155.923517,84.5851281 155.529854,84.5646736 155.167299,84.4828556 C154.953841,84.4344108 154.838531,84.0699978 154.624001,84.1130599 C152.099519,84.6185012 149.680692,85.5814772 147.15621,86.0874568 C146.942216,86.1299806 146.829052,85.7553404 146.613985,85.7181994 C146.070151,85.6250776 145.491457,85.5669438 144.958349,85.7101252 C143.677605,86.0540837 142.534696,86.8222038 141.251806,87.1580881 C141.043712,87.2119157 140.914994,86.8200507 140.700464,86.8232803 C140.490761,86.82651 140.385105,87.1419398 140.178083,87.1742364 C139.467453,87.2861978 138.735905,87.3233389 138.020447,87.2458271 C137.638048,87.2038416 137.330197,86.8431966 136.946188,86.8238186 C136.729513,86.8125148 136.606694,87.1747747 136.390019,87.1634709 C135.839749,87.1333274 135.344721,86.7936751 134.800351,86.707551 C132.31502,86.3135328 129.82379,85.9168233 127.314861,85.7246587 C127.096577,85.7079721 126.978585,86.0239402 126.770491,86.0928396 C126.591359,86.15205 126.361275,86.1978034 126.204668,86.0923013 C125.613101,85.6918239 125.299888,84.8741824 124.624654,84.6421854 C123.666241,84.3132986 122.550149,84.8289672 121.58959,84.507078 C121.117088,84.3493631 121.052729,83.6485276 120.677301,83.3201791 C120.268085,82.9622255 119.77842,82.6936257 119.277493,82.483698 C118.995922,82.3658155 118.618349,82.5342959 118.371103,82.35505 C117.966714,82.0622277 117.854086,81.4695857 117.457205,81.1659979 C116.751401,80.626107 115.865392,80.3671961 115.126336,79.8735969 C114.788451,79.6475209 114.588402,79.2502731 114.251053,79.0241971 C113.507707,78.5268299 112.651195,78.2162446 111.907849,77.7194157 C110.509649,76.7855066 109.263766,75.6287511 107.837141,74.7389806 C106.612174,73.9751668 105.225774,73.5009455 103.978281,72.7748109 C103.535277,72.5169767 103.140005,72.1740947 102.788712,71.7999928 C101.554628,70.4849842 100.564572,68.9369019 99.2339492,67.7203978 C98.550671,67.0959975 97.4318967,67.0437847 96.8226314,66.3461788 C96.0884023,65.5053914 96.0621223,64.2065311 95.3884979,63.3162223 C95.1562691,63.0088666 94.5121427,63.2989975 94.2831318,62.9894887 C93.4309112,61.8375777 93.0222314,60.4116842 92.3164275,59.1634218 C91.7334421,58.1315464 90.9230548,57.2299338 90.4215908,56.1560729 C89.6546458,54.5132541 89.2223677,52.7304834 88.5305083,51.0542915 C87.6884778,49.0147631 86.563804,47.092579 85.8226027,45.0142947 C85.7475171,44.8038288 86.2425452,44.6547263 86.1717503,44.4426455 C85.4997349,42.4192654 84.3503901,40.5772844 83.6773021,38.5544426 C83.6097251,38.3504359 83.9663813,38.2217879 84.033422,38.0177813 C84.094563,37.8309994 84.0709647,37.6237631 84.0468301,37.4289071 C83.5877358,33.6690482 82.7065536,29.9452537 82.5848078,26.1590193 C82.5263483,24.3504114 83.2584321,22.6020904 83.5121139,20.8101691 C83.5652101,20.4392968 83.5877358,20.0511997 83.5024601,19.6862485 C83.4541908,19.4817035 83.1999727,19.3762014 83.1302504,19.1775775 C83.0653551,18.9929488 83.0868081,18.7835594 83.1168423,18.58978 C83.3935861,16.8123921 83.7936846,15.0549204 84.0484391,13.2743029 C84.1015353,12.9034306 84.1186977,12.5164101 84.0387852,12.1503823 C83.9942702,11.9447608 83.6907102,11.8365673 83.6896376,11.6261013 C83.6880286,11.4070229 84.056484,11.2832194 84.0312767,11.0657558 C83.8644796,9.62317574 83.2922206,8.24680361 83.1323957,6.80314696 C83.1071885,6.57599442 83.5228404,6.44842297 83.4949515,6.22127044 C83.309383,4.71840341 83.050338,3.20046481 82.5129402,1.78533679 C82.2614037,1.1237954 81.7663756,0.530076798 81.1823175,0.133367271 C80.8787575,-0.073330773 80.4185905,-0.0130438435 80.0817783,0.133367271 C79.6907973,0.30292426 79.3791924,0.651727209 79.1539358,1.01398706 C78.8809463,1.45429696 78.7608095,1.97588655 78.6283372,2.47702165 C77.9761658,4.94232629 77.5041997,7.45392283 76.8032227,9.90523245 C75.9778183,12.7936223 75.1148711,15.6771677 74.0518747,18.4864309 C73.9135028,18.852997 73.4527995,19.0042526 73.2377331,19.3309862 C72.8665961,19.8945614 72.4858053,20.478591 72.3093543,21.1304434 C71.6791723,23.4574112 71.5247106,25.9017233 70.8323149,28.210928 C70.4783403,29.3913676 69.5858952,30.3554202 69.1927689,31.5240177 C69.123583,31.7296392 69.5263631,31.8631317 69.5295811,32.0805953 C69.532799,32.2894464 69.206177,32.409482 69.2083223,32.6188714 C69.211004,32.8347201 69.5960854,32.9639064 69.5424529,33.1727576 C69.3917455,33.758402 68.8039332,34.1691067 68.6596617,34.756366 C68.6060292,34.9749061 69.0420615,35.1078604 69.0125637,35.331245 C68.8672195,36.42879 68.4912556,37.4848879 68.158734,38.5404474 C67.983892,39.0948718 67.7763342,39.6433752 67.4947635,40.1515079 C67.1482974,40.7759083 66.6221625,41.289962 66.284814,41.9197451 C66.017724,42.4187271 65.8745252,42.9753047 65.6948563,43.511966 C65.4127493,44.3543682 65.0239135,45.1757776 64.9000224,46.0558591 C64.8683793,46.2792437 65.3194287,46.4159658 65.2550697,46.6323529 C64.7734497,48.2487962 64.0274214,49.7748091 63.333953,51.3115875 C63.1446302,51.7314429 62.7654484,52.0544086 62.611523,52.4882592 C62.0633988,54.0358031 61.8156165,55.6813133 61.2412123,57.21863 C60.6035217,58.9249654 59.668707,60.5058825 58.9848924,62.1939165 C58.8701188,62.4775881 59.0358433,62.8549197 58.857247,63.103065 C58.4807468,63.6246546 57.7449087,63.8286612 57.4102418,64.3777029 C57.2981498,64.5612551 57.8275028,64.7329652 57.7432997,64.9305125 C57.2509532,66.0824235 56.2930765,66.9931867 55.80073,68.1445594 C55.718136,68.336724 56.0828371,68.4686017 56.1450508,68.6683021 C56.2013649,68.8497012 56.2866406,69.1166862 56.1407602,69.23726 C55.8581168,69.4708719 55.3722062,69.3158484 55.0852723,69.5446157 C54.6079429,69.925177 54.251823,70.4510728 53.9514809,70.9834279 C53.4285639,71.9103394 53.1587924,72.9669755 52.6321211,73.8922722 C52.4352898,74.2378455 52.0137355,74.4133236 51.8045687,74.7524375 C51.4184146,75.378991 51.2307008,76.1121231 50.8692177,76.7537483 C50.0776017,78.1581108 49.3417636,79.6114564 48.3506348,80.8817881 C48.007923,81.3210215 47.3380529,81.388306 46.9449266,81.7828624 C46.2294688,82.5009228 45.8518959,83.534413 45.0683249,84.1765765 C43.8771467,85.1530094 42.3738274,85.6762138 41.1134633,86.5611398 C40.8801618,86.7247758 40.8983969,87.1430164 40.6490057,87.2808151 C39.4417378,87.9455861 38.0328116,88.2018056 36.8502147,88.910177 C36.4286631,89.1631668 36.3782486,89.8311675 35.959915,90.0895401 C35.2026239,90.5562255 34.2640548,90.6364286 33.4547402,91.0046095 C33.2375285,91.1036523 33.1522528,91.4637591 32.9135881,91.4750629 C32.3547373,91.5014384 31.8157306,90.9599326 31.2751148,91.106882 C30.7344991,91.2538314 30.5301592,91.9756597 30.0442486,92.2561016 C28.7876388,92.9811596 27.3669135,93.3870198 26.1001135,94.0937764 C25.7439936,94.291862 25.5616431,94.7214064 25.2210766,94.9453293 C24.4278517,95.465304 23.6222913,96.0057333 22.7239467,96.3087828 C22.5206795,96.3776821 22.3876708,95.9718219 22.1726045,95.973975 C21.963974,95.9761281 21.8497367,96.2571082 21.6507601,96.3200866 C21.4710912,96.3771438 21.2672876,96.369608 21.0854734,96.3200866 C20.7159454,96.2183524 20.4070221,95.9104584 20.0256949,95.8743939 C18.7798116,95.7570497 17.5237381,95.8485566 16.2730279,95.866858 C15.9099358,95.8722408 15.5398714,95.8614753 15.1864331,95.9459846 C14.8780462,96.0191902 14.6222191,96.4196676 14.3175864,96.3324669 C13.8107591,96.1876706 13.5935475,95.4647657 13.0802843,95.3431153 C12.6925212,95.2510701 12.3433735,95.8964632 11.9641917,95.7742745 C10.0967075,95.1724818 8.48022352,93.9403677 6.63741033,93.2664459 C6.42824352,93.1900107 6.28450838,93.6685382 6.0672967,93.6179403 C5.53794378,93.4935985 5.0455973,93.1797835 4.65300729,92.8019136 C4.25290873,92.4170462 4.15529756,91.7829568 3.75788079,91.3943215 C3.36904506,91.0137602 2.87348062,90.7284738 2.35753583,90.5578403 C2.00517021,90.4415727 1.60721696,90.4862496 1.24412483,90.5637613 C1.08751789,90.5971345 0.91964812,90.7187849 0.876742109,90.8738084 C0.497560232,92.2399533 0.114624078,93.623323 0.001995798,95.0368362 C-0.0237478089,95.3614167 0.203117727,95.7145259 0.476643551,95.8900039 C1.603999,96.6134471 2.85685454,97.1237329 4.08503912,97.6571645 C5.52024505,98.2804883 7.05735291,98.6637409 8.46037949,99.3570406 C9.20908939,99.7273746 9.71430768,100.5251 10.4941244,100.823305 C11.8118753,101.32767 13.231528,101.536521 14.6308003,101.717382 M28.6304955,94.6912629 L28.6304955,94.6912629 C28.3896855,94.6347439 27.9150378,94.7698512 27.9086019,94.5222442 C27.9027023,94.276252 28.3832496,94.2875558 28.621378,94.3435365 M99.4152271,69.9171028 L99.4152271,69.9171028 C99.2328766,69.7706917 98.9958209,69.6743403 98.8692481,69.4773312 C98.791481,69.3562191 98.7190771,69.0951551 98.8536947,69.0440189 C99.0864598,68.9557416 99.447943,68.9961123 99.5825606,69.20604"
             id="path837" />
        </g>
      </g>
    </g>
  </g>
  <metadata
     id="metadata139">
    <rdf:RDF>
      <cc:Work
         rdf:about="">
        <dc:title>artagnon.com</dc:title>
      </cc:Work>
    </rdf:RDF>
  </metadata>
</svg>
