<?xml version="1.0" encoding="UTF-8" standalone="no"?>
<svg
   xmlns:dc="http://purl.org/dc/elements/1.1/"
   xmlns:cc="http://creativecommons.org/ns#"
   xmlns:rdf="http://www.w3.org/1999/02/22-rdf-syntax-ns#"
   xmlns:svg="http://www.w3.org/2000/svg"
   xmlns="http://www.w3.org/2000/svg"
   xmlns:sodipodi="http://sodipodi.sourceforge.net/DTD/sodipodi-0.dtd"
   xmlns:inkscape="http://www.inkscape.org/namespaces/inkscape"
   width="316.97189"
   height="390.13431"
   viewBox="0 0 316.97189 390.13431"
   version="1.2"
   id="svg841"
   sodipodi:docname="artagnon.com.svg"
   inkscape:version="1.0.1 (c497b03c, 2020-09-10)">
  <metadata
     id="metadata847">
    <rdf:RDF>
      <cc:Work
         rdf:about="">
        <dc:format>image/svg+xml</dc:format>
        <dc:type
           rdf:resource="http://purl.org/dc/dcmitype/StillImage" />
        <dc:title>art-redesign</dc:title>
      </cc:Work>
    </rdf:RDF>
  </metadata>
  <defs
     id="defs845" />
  <sodipodi:namedview
     pagecolor="#ffffff"
     bordercolor="#666666"
     borderopacity="1"
     objecttolerance="10"
     gridtolerance="10"
     guidetolerance="10"
     inkscape:pageopacity="0"
     inkscape:pageshadow="2"
     inkscape:window-width="1434"
     inkscape:window-height="847"
     id="namedview843"
     showgrid="false"
     inkscape:zoom="0.35630342"
     inkscape:cx="603.10821"
     inkscape:cy="837.47088"
     inkscape:window-x="0"
     inkscape:window-y="25"
     inkscape:window-maximized="1"
     inkscape:current-layer="svg841"
     inkscape:document-rotation="0"
     inkscape:pagecheckerboard="false" />
  <title
     id="title833">art-redesign</title>
  <g
     id="g839"
     transform="translate(-2.2677241,-1.2805429)">
    <path
       fill="#000000"
       d="m 128.60445,391.22931 v 0 c 1.011,-1.29 1.818,-2.77 3.034,-3.87 1.364,-1.24 3.218,-1.84 4.604,-3.05 1.204,-1.05 2.501,-2.18 3.088,-3.67 2.13,-5.4 3.409,-11.09 4.946,-16.69 1.002,-3.65 2.054,-7.3 2.668,-11.03 0.066,-0.4 -0.606,-0.61 -0.688,-1.01 -0.201,-0.99 -0.301,-2.03 -0.133,-3.02 0.4,-2.37 1.469,-4.6 1.821,-6.97 0.06,-0.4 -0.654,-0.63 -0.634,-1.04 0.035,-0.72 0.709,-1.29 0.784,-2 0.229,-2.21 -0.337,-4.48 0.117,-6.65 0.2,-0.95 1.459,-1.41 1.763,-2.34 0.126,-0.38 -0.791,-0.63 -0.664,-1.01 0.269,-0.81 1.212,-1.24 1.65,-1.97 0.177,-0.3 0.134,-0.69 0.134,-1.03 0,-1.01 0.062,-2.04 -0.133,-3.03 -0.075,-0.38 -0.669,-0.58 -0.651,-0.97 0.032,-0.72 0.692,-1.29 0.784,-2 0.129,-1 0.073,-2.04 -0.133,-3.03 -0.08,-0.38 -0.694,-0.55 -0.695,-0.94 -0.002,-1.05 0.686,-2.01 0.686,-3.06 0,-0.39 -0.56,-0.57 -0.686,-0.94 -0.114,-0.34 -0.092,-0.72 0,-1.06 0.188,-0.69 0.768,-1.26 0.828,-1.97 0.224,-2.66 0.197,-5.34 0.014,-8 -0.094,-1.37 -0.801,-2.66 -0.842,-4.03 -0.011,-0.39 0.614,-0.56 0.695,-0.94 0.209,-0.99 0.147,-2.02 0.147,-3.03 0,-0.68 0.015,-1.37 -0.147,-2.03 -0.171,-0.69 -0.791,-1.26 -0.837,-1.97 -0.192,-3.01 -0.396,-6.07 0.133,-9.03 0.195,-1.08 1.219,-1.85 1.959,-2.67 0.306,-0.34 0.709,-0.61 1.141,-0.76 3.211,-1.12 6.442,-2.21 9.74,-3.04 3.327,-0.84 6.834,-0.93 10.102,-1.97 3.119,-1 5.891,-2.87 8.924,-4.11 3.359,-1.37 6.879,-2.32 10.235,-3.69 0.932,-0.38 1.624,-1.27 2.588,-1.56 5.888,-1.78 11.954,-2.92 17.864,-4.63 0.658,-0.19 1.27,-0.57 1.775,-1.03 0.316,-0.29 0.299,-0.83 0.598,-1.14 0.839,-0.87 2.347,-1.21 2.767,-2.35 0.326,-0.87 -0.347,-1.91 -0.915,-2.65 -0.593,-0.78 -1.424,-1.77 -2.398,-1.69 -1.03,0.08 -1.394,1.58 -2.304,2.07 -2.884,1.55 -5.906,2.84 -8.976,3.98 -2.831,1.04 -5.824,1.59 -8.687,2.55 -5.707,1.9 -11.391,3.87 -17.017,6 -1.813,0.69 -3.428,1.87 -5.281,2.44 -5.775,1.77 -11.758,2.81 -17.538,4.57 -1.488,0.45 -2.743,1.49 -4.198,2.04 -0.148,0.06 -0.346,-0.15 -0.364,-0.31 -0.114,-1.01 -0.179,-2.04 -0.015,-3.05 0.115,-0.7 0.791,-1.26 0.837,-1.97 0.236,-3.66 0.346,-7.35 0.001,-10.99 -0.32,-3.39 -1.799,-6.61 -1.985,-10.01 -0.474,-8.65 -0.244,-17.33 0.014,-25.996 0.032,-1.061 0.927,-2.009 0.852,-3.067 -0.264,-3.691 -1.401,-7.272 -1.853,-10.944 -0.123,-1 -0.069,-2.033 0.133,-3.02 0.083,-0.402 0.719,-0.606 0.696,-1.016 -0.645,-11.322 -2.099,-22.59 -2.684,-33.915 -0.038,-0.735 0.785,-1.312 0.826,-2.046 0.237,-4.324 0.239,-8.668 0,-12.993 -0.04,-0.713 -0.826,-1.262 -0.828,-1.976 -0.003,-1.044 0.878,-1.982 0.813,-3.024 -0.365,-5.893 -0.831,-11.821 -2.091,-17.589 -0.258,-1.18 -1.328,-2.116 -2.352,-2.756 -0.437,-0.274 -1.062,0.081 -1.508,0.34 -0.512,0.296 -0.99,0.726 -1.251,1.256 -0.712,1.448 -0.715,3.223 -1.612,4.565 -0.523,0.783 -2.024,0.609 -2.416,1.465 -1.697,3.696 -2.608,7.714 -3.606,11.657 -0.25,0.988 -0.2,2.039 -0.119,3.055 0.042,0.519 0.209,1.043 0.482,1.486 0.353,0.571 1.013,0.913 1.354,1.491 0.176,0.299 0.126,0.684 0.134,1.03 0.037,1.664 0.198,3.341 0,4.993 -0.086,0.711 -0.668,1.282 -0.837,1.978 -0.159,0.655 -0.283,1.362 -0.133,2.02 0.47,2.055 1.499,3.956 1.97,6.012 0.15,0.658 0.043,1.369 -0.133,2.02 -0.105,0.393 -0.702,0.604 -0.684,1.01 0.046,1.059 0.712,2.011 0.862,3.06 0.538,3.773 0.846,7.577 1.198,11.372 1.252,13.492 2.66,26.973 3.614,40.492 0.028,0.4 -0.556,0.62 -0.685,1.01 -0.114,0.34 -0.152,0.75 -0.014,1.08 0.432,1.04 1.485,1.82 1.68,2.92 0.126,0.72 -0.687,1.31 -0.807,2.03 -0.111,0.67 -0.039,1.37 0.131,2.03 0.099,0.37 0.65,0.58 0.652,0.97 0.002,0.39 -0.524,0.6 -0.642,0.97 -0.109,0.34 -0.117,0.74 -0.012,1.08 0.168,0.56 0.697,0.97 0.808,1.54 1.125,5.76 2.184,11.54 2.885,17.37 0.05,0.42 -0.749,0.66 -0.667,1.07 0.276,1.4 1.382,2.54 1.658,3.94 0.079,0.39 -0.575,0.61 -0.682,1 -0.178,0.66 -0.145,1.35 -0.145,2.03 0,0.68 -0.016,1.37 0.146,2.03 0.17,0.69 0.737,1.26 0.837,1.97 0.14,1 0.059,2.03 -0.134,3.02 -0.059,0.3 -0.309,0.59 -0.592,0.7 -2.869,1.14 -5.798,2.14 -8.756,3.02 -4.375,1.31 -8.861,2.23 -13.229,3.56 -4.242,1.3 -8.349,3 -12.588,4.31 -2.338,0.72 -4.7,1.43 -7.124,1.76 -2.543,0.34 -5.220005,-0.44 -7.695005,0.23 -0.936,0.26 -1.265,1.49 -1.729,2.35 -0.17,0.31 -0.124,0.7 -0.123,1.06 0.003,0.67 -0.214,1.44 0.133,2.02 0.71,1.18 1.698,2.25 2.87,2.97 0.718,0.45 1.717,0.65 2.508,0.35 0.981,-0.37 1.393005,-1.61 2.296005,-2.14 1.454,-0.86 3.053,-1.47 4.669,-1.96 3.095,-0.92 6.316,-1.37 9.423,-2.25 6.909,-1.96 13.809,-3.97 20.614,-6.27 1.409,-0.47 2.522,-1.69 3.972,-2.03 0.526,-0.12 1.247,0.28 1.416,0.79 1.005,3.05 1.669,6.24 1.951,9.45 0.092,1.05 -0.728,2.01 -0.852,3.06 -0.118,1 -0.206,2.08 0.133,3.03 0.289,0.8 1.376,1.16 1.651,1.97 0.13,0.38 -0.703,0.64 -0.632,1.04 0.305,1.7 1.442,3.19 1.696,4.9 0.106,0.71 -0.684,1.34 -0.662,2.06 0.021,0.72 0.714,1.29 0.784,2 0.195,1.99 0.237,4.01 0.001,5.99 -0.717,6.02 -2.205,11.93 -2.853,17.95 -0.079,0.73 0.854,1.37 0.696,2.09 -1.188,5.41 -3.39,10.55 -4.658,15.94 -0.092,0.39 0.545,0.62 0.671,1 0.115,0.35 0.101,0.74 0.022,1.09 -0.816,3.65 -2.074,7.21 -2.699,10.9 -0.071,0.42 0.731,0.66 0.67,1.08 -0.3,2.07 -0.896,4.11 -1.702,6.05 -1.498,3.59 -2.9,7.31 -5.182,10.46 -1.118,1.54 -3.071,2.28 -4.726,3.23 -1.154,0.66 -2.334,1.58 -3.665,1.58 -1.684,-0.01 -3.259,-0.91 -4.788,-1.61 -1.076,-0.5 -2.17,-1.09 -2.962,-1.97 -2.262,-2.51 -4.24,-5.27 -6.098,-8.1 -1.325,-2.01 -2.15,-4.32 -3.424,-6.36 -0.383,-0.62 -1.336,-0.86 -1.512,-1.57 -1.525,-6.07 -1.725,-12.46 -3.514005,-18.46 -0.27,-0.91 -1.745,-0.83 -2.428,-1.48 -0.933,-0.9 -1.061,-2.88 -2.336,-3.11 -1.073,-0.19 -1.696,1.4 -2.349,2.27 -0.206,0.28 -0.214,0.7 -0.119,1.03 0.484,1.69 1.548,3.21 1.831,4.94 0.117,0.72 -0.827,1.37 -0.684,2.09 0.219,1.1 1.463,1.81 1.679,2.91 0.138,0.71 -0.608,1.32 -0.708,2.03 -0.143,1.02 -0.473,2.17 -0.01,3.08 1.383,2.75 3.767,4.88 5.35,7.51 0.968005,1.61 1.341005,3.53 2.262005,5.16 0.362,0.65 1.147,0.97 1.539,1.6 1.061,1.69 1.459,3.82 2.787,5.31 1.374,1.55 3.56,2.17 5.089,3.56 0.724,0.66 0.949,1.73 1.55,2.5 0.527,0.68 1.134,1.31 1.813,1.83 0.908,0.71 1.818,1.51 2.918,1.84 0.982,0.3 2.067,0.16 3.08,-0.01 0.386,-0.06 0.584,-0.67 0.974,-0.65 0.716,0.03 1.289,0.72 2.003,0.78 m -88.035005,-201.001 v 0 c 0.503,-0.158 1.059,-0.199 1.51,-0.472 0.574,-0.348 0.83,-1.256 1.494,-1.349 1.046,-0.147 2.047,0.875 3.089,0.705 2.986,-0.49 5.849,-1.585 8.687,-2.635 7.026,-2.6 14.093,-5.142 20.884,-8.306 0.837,-0.389 0.882,-1.735 1.676,-2.204 4.212,-2.486 8.972,-3.971 13.134,-6.538 1.955,-1.205 3.445,-3.044 5.057,-4.68 0.424,-0.431 0.515,-1.174 1.028,-1.496 1.318,-0.829 3.059,-0.896 4.292,-1.848 0.798,-0.616 1.277,-1.644 1.504,-2.627 0.09,-0.391 -0.543,-0.62 -0.666,-1.002 -0.108,-0.334 -0.175,-0.75 10e-4,-1.054 0.308,-0.534 0.747,-1.109 1.341,-1.273 0.387,-0.106 0.647,0.742 1.029,0.622 0.925005,-0.291 1.815005,-0.893 2.368005,-1.69 0.315,-0.455 0.096,-1.125 -0.046,-1.66 -0.099,-0.377 -0.861,-0.645 -0.649,-0.973 1.067,-1.647 2.897,-2.685 4.048,-4.274 0.797,-1.1 0.969,-2.563 1.723,-3.692 1.542,-2.309 3.545,-4.283 5.129,-6.563 0.683,-0.984 0.919,-2.242 1.646,-3.193 1.021,-1.336 2.66,-2.161 3.541,-3.593 1.82,-2.956 2.805,-6.359 4.462,-9.409 0.339,-0.624 1.193,-0.881 1.481,-1.53 1.067,-2.4 1.475,-5.055 2.518,-7.465 0.51,-1.179 1.827,-1.972 2.107,-3.225 0.23,-1.028 -0.891,-2.047 -0.698,-3.083 0.157,-0.84 1.366,-1.162 1.641,-1.972 0.129,-0.379 -0.725,-0.641 -0.622,-1.029 0.364,-1.363 1.458,-2.441 1.907,-3.779 0.762,-2.266 0.946,-4.699 1.706,-6.966 0.285,-0.851 1.047,-1.475 1.4,-2.301 0.647,-1.513 0.908,-3.174 1.582,-4.675 0.72,-1.605 1.988,-2.946 2.582,-4.602 1.148,-3.199 1.335,-6.705 2.605,-9.857 0.59,-1.466 2.312,-2.29 2.883,-3.764 0.256,-0.661 -0.682,-1.321 -0.64,-2.029 0.019,-0.315 0.649,-0.239 0.791,-0.522 0.852,-1.7 1.555,-3.48 2.126,-5.294 0.792,-2.516 -0.426,-8.806 1.955,-7.67 2.891,1.38 1.436,6.26 1.766,9.446 0.042,0.405 -0.553,0.626 -0.683,1.012 -0.116,0.345 -0.071,0.732 -0.024,1.093 0.504,3.919 0.915,7.857 1.674,11.734 0.491,2.506 1.26,4.953 2.068,7.375 1.543,4.624 3.124,9.243 4.98,13.75 0.629,1.527 1.786,2.793 2.456,4.303 0.643,1.448 0.756,3.104 1.46,4.524 1.268,2.554 3.145,4.774 4.419,7.326 1.394,2.789 1.999,5.951 3.56,8.65 1.093,1.89 2.762,3.39 4.3,4.94 0.66,0.665 1.686,0.931 2.26,1.672 1.013,1.309 1.418,3.015 2.401,4.347 0.868,1.175 1.994,2.144 3.099,3.101 1.33,1.153 2.945,1.97 4.19,3.215 1.119,1.119 1.629,2.783 2.834,3.807 3.234,2.75 7.041,4.758 10.356,7.408 1.672,1.336 2.717,3.436 4.565,4.516 2.267,1.326 5.052,1.481 7.465,2.518 1.091,0.469 2.077,1.184 2.97,1.968 0.418,0.367 0.487,1.025 0.884,1.416 0.799,0.79 1.609,1.665 2.654,2.078 2.069,0.816 4.504,0.541 6.495,1.533 0.854,0.426 0.898,1.697 1.492,2.445 0.499,0.63 0.978,1.454 1.757,1.653 0.702,0.179 1.353,-0.804 2.065,-0.675 1.583,0.289 2.875,1.555 4.455,1.862 4.77,0.926 9.62,1.446 14.465,1.812 0.407,0.031 0.642,-0.712 1.043,-0.641 0.542,0.096 0.788,0.792 1.275,1.049 1.183,0.626 2.36,1.441 3.691,1.58 0.553,0.057 0.781,-0.832 1.288,-1.061 1.507,-0.679 3.047,-1.405 4.685,-1.631 0.711,-0.098 1.316,0.72 2.033,0.706 1.369,-0.028 2.655,-0.827 4.024,-0.827 1.048,0 1.985,0.787 3.031,0.827 0.404,0.015 0.611,-0.752 1.007,-0.673 1.395,0.279 2.518,1.503 3.932,1.659 0.564,0.062 0.8,-0.84 1.313,-1.081 2.832,-1.329 5.627,-2.86 8.666,-3.604 1.036,-0.254 2.059,0.855 3.117,0.72 3.951,-0.505 7.899,-1.302 11.662,-2.61 0.776,-0.27 0.795,-1.526 1.491,-1.962 0.265,-0.167 0.461,0.459 0.76,0.55 0.335,0.102 0.768,0.206 1.052,0 1.455,-1.054 2.437,-2.71 3.973,-3.641 0.332,-0.202 0.602,0.525 0.972,0.642 0.336,0.106 0.749,0.171 1.055,-0.001 3.641,-2.039 7.158,-4.294 10.663,-6.559 0.281,-0.182 0.603,-0.429 0.661,-0.759 0.174,-1.001 0.53,-2.182 0,-3.048 -0.703,-1.148 -2.106,-1.703 -3.296,-2.333 -0.32,-0.169 -0.779,-0.178 -1.084,0.015 -0.865,0.547 -1.36,1.58 -2.246,2.091 -2.378,1.372 -5.042,2.191 -7.453,3.504 -1.255,0.683 -2.208,1.872 -3.508,2.464 -2.473,1.126 -5.087,1.938 -7.711,2.644 -0.669,0.181 -1.403,0.143 -2.079,-0.009 -0.398,-0.09 -0.613,-0.767 -1.013,-0.687 -4.707,0.939 -9.217,2.728 -13.924,3.668 -0.399,0.079 -0.61,-0.617 -1.011,-0.686 -1.014,-0.173 -2.093,-0.281 -3.087,-0.015 -2.388,0.639 -4.519,2.066 -6.911,2.69 -0.388,0.1 -0.628,-0.628 -1.028,-0.622 -0.391,0.006 -0.588,0.592 -0.974,0.652 -1.325,0.208 -2.689,0.277 -4.023,0.133 -0.713,-0.078 -1.287,-0.748 -2.003,-0.784 -0.404,-0.021 -0.633,0.652 -1.037,0.631 -1.026,-0.056 -1.949,-0.687 -2.964,-0.847 -4.634,-0.732 -9.279,-1.469 -13.957,-1.826 -0.407,-0.031 -0.627,0.556 -1.015,0.684 -0.334,0.11 -0.763,0.195 -1.055,-0.001 -1.103,-0.744 -1.687,-2.263 -2.946,-2.694 -1.787,-0.611 -3.868,0.347 -5.659,-0.251 -0.881,-0.293 -1.001,-1.595 -1.701,-2.205 -0.763,-0.665 -1.676,-1.164 -2.61,-1.554 -0.525,-0.219 -1.229,0.094 -1.69,-0.239 -0.754,-0.544 -0.964,-1.645 -1.704,-2.209 -1.316,-1.003 -2.968,-1.484 -4.346,-2.401 -0.63,-0.42 -1.003,-1.158 -1.632,-1.578 -1.386,-0.924 -2.983,-1.501 -4.369,-2.424 -2.607,-1.735 -4.93,-3.884 -7.59,-5.537 -2.284,-1.419 -4.869,-2.3 -7.195,-3.649 -0.826,-0.479 -1.563,-1.116 -2.218,-1.811 -2.301,-2.443 -4.147,-5.319 -6.628,-7.579 -1.274,-1.16 -3.36,-1.257 -4.496,-2.553 -1.369,-1.562 -1.418,-3.975 -2.674,-5.629 -0.433,-0.571 -1.634,-0.032 -2.061,-0.607 -1.589,-2.14 -2.351,-4.789 -3.667,-7.108 -1.087,-1.917 -2.598,-3.592 -3.533,-5.587 -1.43,-3.052 -2.236,-6.364 -3.526,-9.478 -1.57,-3.789 -3.667,-7.36 -5.049,-11.221 -0.14,-0.391 0.783,-0.668 0.651,-1.062 -1.253,-3.759 -3.396,-7.181 -4.651,-10.939 -0.126,-0.379 0.539,-0.618 0.664,-0.997 0.114,-0.347 0.07,-0.732 0.025,-1.094 -0.856,-6.985 -2.499,-13.903 -2.726,-20.937 -0.109,-3.36 1.256,-6.608 1.729,-9.937 0.099,-0.689 0.141,-1.41 -0.018,-2.088 -0.09,-0.38 -0.564,-0.576 -0.694,-0.945 -0.121,-0.343 -0.081,-0.732 -0.025,-1.092 0.516,-3.302 1.262,-6.567 1.737,-9.875 0.099,-0.689 0.131,-1.408 -0.018,-2.088 -0.083,-0.382 -0.649,-0.583 -0.651,-0.974 -0.003,-0.407 0.684,-0.637 0.637,-1.041 -0.311,-2.68 -1.378,-5.237 -1.676,-7.919 -0.047,-0.422 0.728,-0.659 0.676,-1.081 -0.346,-2.792 -0.829,-5.6119997 -1.831,-8.2409997 -0.469,-1.229 -1.392,-2.332 -2.481,-3.069 -0.566,-0.384 -1.424,-0.272 -2.052,0 -0.729,0.315 -1.31,0.963 -1.73,1.636 -0.509,0.818 -0.733,1.787 -0.98,2.718 -1.216,4.5799997 -2.096,9.2459997 -3.403,13.7999997 -1.539,5.366 -3.148,10.723 -5.13,15.942 -0.258,0.681 -1.117,0.962 -1.518,1.569 -0.692,1.047 -1.402,2.132 -1.731,3.343 -1.175,4.323 -1.463,8.864 -2.754,13.154 -0.66,2.193 -2.324,3.984 -3.057,6.155 -0.129,0.382 0.622,0.63 0.628,1.034 0.006,0.388 -0.603,0.611 -0.599,1 0.005,0.401 0.723,0.641 0.623,1.029 -0.281,1.088 -1.377,1.851 -1.646,2.942 -0.1,0.406 0.713,0.653 0.658,1.068 -0.271,2.039 -0.972,4.001 -1.592,5.962 -0.326,1.03 -0.713,2.049 -1.238,2.993 -0.646,1.16 -1.627,2.115 -2.256,3.285 -0.498,0.927 -0.765,1.961 -1.1,2.958 -0.526,1.565 -1.251,3.091 -1.482,4.726 -0.059,0.415 0.782,0.669 0.662,1.071 -0.898,3.003 -2.289,5.838 -3.582,8.693 -0.353,0.78 -1.06,1.38 -1.347,2.186 -1.022,2.875 -1.484,5.932 -2.555,8.788 -1.189,3.17 -2.932,6.107 -4.207,9.243 -0.214,0.527 0.095,1.228 -0.238,1.689 -0.702,0.969 -2.074,1.348 -2.698,2.368 -0.209,0.341 0.778,0.66 0.621,1.027 -0.918,2.14 -2.704,3.832 -3.622,5.971 -0.154,0.357 0.526,0.602 0.642,0.973 0.105,0.337 0.264,0.833 -0.008,1.057 -0.527,0.434 -1.433,0.146 -1.968,0.571 -0.89,0.707 -1.554,1.684 -2.114,2.673 -0.975,1.722 -1.478,3.685 -2.46,5.404 -0.367,0.642 -1.153005,0.968 -1.543005,1.598 -0.72,1.164 -1.07,2.526 -1.744,3.718 -1.476,2.609 -2.848,5.309 -4.696,7.669 -0.639,0.816 -1.888,0.941 -2.621,1.674 -1.334,1.334 -2.038,3.254 -3.499,4.447 -2.221,1.814 -5.024,2.786 -7.374,4.43 -0.435,0.304 -0.401,1.081 -0.866,1.337 -2.251,1.235 -4.878,1.711 -7.083,3.027 -0.786,0.47 -0.88,1.711 -1.66,2.191 -1.412,0.867 -3.162,1.016 -4.671,1.7 -0.405,0.184 -0.564,0.853 -1.009,0.874 -1.042,0.049 -2.047,-0.957 -3.055,-0.684 -1.008,0.273 -1.389,1.614 -2.295,2.135 -2.343,1.347 -4.992,2.101 -7.354,3.414 -0.664,0.368 -1.004,1.166 -1.639,1.582 -1.479,0.966 -2.981,1.97 -4.656,2.533 -0.379,0.128 -0.627,-0.626 -1.028,-0.622 -0.389,0.004 -0.602,0.526 -0.973,0.643 -0.335,0.106 -0.715,0.092 -1.054,0 -0.689,-0.189 -1.265,-0.761 -1.976,-0.828 -2.323,-0.218 -4.665,-0.048 -6.997,-0.014 -0.677,0.01 -1.367,-0.01 -2.026,0.147 -0.575,0.136 -1.052,0.88 -1.62,0.718 -0.945,-0.269 -1.35,-1.612 -2.307,-1.838 -0.723,-0.171 -1.374,1.028 -2.081,0.801 -3.482,-1.118 -6.496,-3.407 -9.932,-4.659 -0.39,-0.142 -0.658,0.747 -1.063,0.653 -0.987,-0.231 -1.905,-0.814 -2.637,-1.516 -0.746,-0.715 -0.928,-1.893 -1.6689997,-2.615 -0.725,-0.707 -1.649,-1.237 -2.611,-1.554 -0.657,-0.216 -1.399,-0.133 -2.076,0.011 -0.292,0.062 -0.605,0.288 -0.685,0.576 -0.707,2.538 -1.421,5.108 -1.631,7.734 -0.048,0.603 0.375,1.259 0.885,1.585 2.102,1.344 4.438,2.292 6.728,3.283 2.6759997,1.158 5.5419997,1.87 8.1579997,3.158 1.396,0.688 2.338,2.17 3.792,2.724 2.457,0.937 5.104,1.325 7.713,1.661 m 26.103,-13.053 v 0 c -0.449,-0.105 -1.334,0.146 -1.346,-0.314 -0.011,-0.457 0.885,-0.436 1.329,-0.332 m 131.998005,-45.379 v 0 c -0.34,-0.272 -0.782,-0.451 -1.018,-0.817 -0.145,-0.225 -0.28,-0.71 -0.029,-0.805 0.434,-0.164 1.108,-0.089 1.359,0.301"
       id="path837"
       sodipodi:nodetypes="cscccsscccscccccssccccsccccccsccccccccccccscccccccccccccccccsccsccscccccccscccccsccccccccccccscccccccscccccccccccccccccccccscccccccccsccsccccccccccccccccccccccccccccccccscccccccccsccccccccsscccsccccccccccccsccscsscccscccsscccscccssccccccccscccscsccscccccscccccccccccscccccscscccccsscccsscsccccsccscscccscccccccscscccsccccccccccsscccsccccscccccccccccssscccssccccccssccccscccscccssccccscccsccccscccsscc"
       inkscape:export-filename="/Users/artagnon/src/artagnon.com/dist/artagnon.com.png"
       inkscape:export-xdpi="95.400002"
       inkscape:export-ydpi="95.400002" />
  </g>
</svg>
