<svg xmlns="http://www.w3.org/2000/svg" width="16" height="74"><path style="color:#000;text-indent:0;text-transform:none;direction:ltr;baseline-shift:baseline;enable-background:accumulate" d="M16 8c0-4.406-3.594-8-8-8-4.406 0-8 3.594-8 8 0 4.407 3.594 8 8 8 4.406 0 8-3.593 8-8zm0 29c0-4.406-3.594-8-8-8-4.406 0-8 3.594-8 8 0 4.407 3.594 8 8 8 4.406 0 8-3.593 8-8zm0 29c0-4.406-3.594-8-8-8-4.406 0-8 3.594-8 8 0 4.407 3.594 8 8 8 4.406 0 8-3.593 8-8zM14 8c0 3.326-2.674 6-6 6s-6-2.674-6-6c0-3.325 2.674-6 6-6s6 2.675 6 6zm0 29c0 3.326-2.674 6-6 6s-6-2.674-6-6c0-3.325 2.674-6 6-6s6 2.675 6 6zm0 29c0 3.326-2.674 6-6 6s-6-2.674-6-6c0-3.325 2.674-6 6-6s6 2.675 6 6z" overflow="visible"/></svg>