<svg xmlns="http://www.w3.org/2000/svg" width="1291.255" height="402.039" version="1.2">\n<path d="M11.602 402.039c2.225-.861 4.65-1.326 6.677-2.584 1.647-1.022 2.853-2.637 4.115-4.108.685-.798 1.02-1.855 1.692-2.662 1.003-1.204 2.316-2.126 3.308-3.338 2.015-2.463 3.61-5.257 5.692-7.662 2.106-2.434 4.363-4.76 6.84-6.817 1.714-1.424 3.564-2.795 5.657-3.563 1.268-.465 2.72-.218 4.052 0 .61.1 1.165.494 1.608.926.831.81 1.534 1.756 2.152 2.739.724 1.15 1.467 2.329 1.855 3.632 1.191 4.006 1.755 8.177 2.857 12.208.13.472.365 1.029.814 1.22.671.288 1.692.6 2.188.065 1.08-1.166 1.498-2.848 1.833-4.401.087-.408-.806-.677-.656-1.065 1.27-3.282 2.98-6.385 4.722-9.441.54-.945 1.283-1.778 2.091-2.506 1.06-.955 2.155-1.946 3.466-2.507.636-.272 1.486-.23 2.07.139.946.599 1.69 1.548 2.184 2.553.14.28-.46.463-.552.763-.106.345-.143.745-.014 1.082.745 1.94 1.37 3.996 2.606 5.669 1.7 2.3 3.841 4.269 6.066 6.065 1.373 1.108 2.93 2.09 4.63 2.567.687.193 1.312-.69 2.027-.7.71-.01 1.318.643 2.027.643.39 0 .602-.525.973-.642.335-.106.72-.11 1.054 0 .384.125.616.772 1.007.672 1.896-.486 3.661-1.41 5.397-2.313 1.825-.95 3.618-1.991 5.26-3.233.442-.336.47-1.043.883-1.417 1.94-1.758 4.563-2.82 6.114-4.93 1.807-2.457 2.665-5.503 3.674-8.383.23-.654.242-1.434-.01-2.08-.229-.578-.734-1.12-1.325-1.315-.498-.166-1.246-.075-1.534.365-1.563 2.388-2.058 5.398-3.744 7.7-1.965 2.687-4.585 4.835-7.059 7.062-.882.794-1.879 1.496-2.97 1.966-2.477 1.067-5.014 2.08-7.659 2.612-.707.142-1.339-.623-2.059-.661-.313-.017-.5.625-.792.509-.85-.341-1.336-1.303-2.164-1.694-.507-.24-1.22.204-1.679-.12-.82-.578-1.15-1.658-1.856-2.372-.28-.284-.828-.241-1.055-.571-1.31-1.91-2.437-3.95-3.473-6.023-.979-1.963-1.328-4.247-2.56-6.063-.813-1.197-1.96-2.508-3.394-2.71-1.652-.232-3.274.795-4.754 1.566-1.457.76-2.788 1.792-3.939 2.965-1.084 1.103-1.955 2.42-2.687 3.782-.269.502.03 1.195-.253 1.688-.37.646-1.29.877-1.607 1.55-.133.285.598.493.51.794-.155.522-.795 1.66-1.1 1.209-1.6-2.372-2.023-5.374-3.402-7.881-.272-.495-1.062-.478-1.43-.905-.77-.891-.989-2.241-1.916-2.967-1.599-1.253-3.416-2.47-5.424-2.781-.854-.133-1.204 1.353-2.026 1.62-.369.122-.602-.523-.972-.641-.344-.11-.758-.17-1.084-.013-2.989 1.42-6.044 2.787-8.752 4.69-.854.6-.996 1.854-1.683 2.64-.283.325-.864.272-1.144.6-1.652 1.938-2.946 4.163-4.58 6.116-1.089 1.299-2.526 2.286-3.57 3.62-2.085 2.66-3.67 5.69-5.79 8.323-.634.788-1.674 1.152-2.4 1.856-.276.267-.202.858-.556 1.01-2.667 1.143-5.383 3.189-8.254 2.767-1.502-.221-1.017-2.867-1.685-4.23-.196-.401-.758-.58-.882-1.01-.19-.657-.149-1.384 0-2.052.087-.396.756-.61.68-1.008-.328-1.734-1.818-3.208-1.814-4.972.01-3.696 1.378-7.267 1.855-10.932.134-1.021.728-2.39-.027-3.09-.928-.862-3.036-1.47-3.774-.44-1.676 2.337-1.42 5.577-1.939 8.406a5.355 5.355 0 0 0 .018 2.088c.083.38.651.583.651.974 0 .39-.55.596-.652.974-.173.654-.245 1.356-.145 2.026.518 3.453 1.15 6.894 1.991 10.282.158.634.555 1.202.987 1.692 1.256 1.428 2.468 2.96 4.045 4.026.416.28.978-.371 1.475-.3.386.056.593.565.973.65M174.5 386.145c.582-.028 1.272.255 1.745-.084a4.625 4.625 0 0 0 1.686-2.375c.116-.386-.586-.61-.674-1.002-.152-.68-.19-1.413-.015-2.086 1.382-5.343 2.91-10.653 4.664-15.885a13.716 13.716 0 0 1 1.915-3.74c.868-1.182 1.883-2.31 3.111-3.108 1.726-1.124 3.615-2.094 5.618-2.573 1.65-.394 3.463-.477 5.085.014 1.745.529 3.153 1.846 4.62 2.928.756.559 1.39 1.273 2.018 1.974 1.088 1.212 2.162 2.443 3.121 3.76 1.4 1.92 2.918 3.797 3.943 5.94 1.122 2.347 1.391 5.032 2.44 7.41.791 1.794 1.903 3.439 3.047 5.03.47.652 1.037 1.293 1.756 1.65.39.196.895.032 1.302-.125 1.113-.431 2.22-.93 3.197-1.614 1.05-.735 2.153-1.514 2.828-2.603.204-.33-.606-.61-.597-.998.01-.388.596-.587.642-.973.054-.465.098-1.382-.37-1.356-1.339.073-2.519.942-3.698 1.579-.486.263-.713.954-1.248 1.092-.51.132-1.255.073-1.54-.371-1.589-2.47-2.827-5.176-3.81-7.943-.134-.377.781-.66.622-1.03-.88-2.044-2.194-3.886-3.51-5.682-.893-1.218-2.334-2.007-3.088-3.315-.195-.337.521-.62.598-1.002.037-.183-.152-.36-.299-.474-2.719-2.14-5.385-4.364-8.272-6.272-1.116-.737-2.35-1.401-3.669-1.62-2.012-.332-4.144-.513-6.118 0-2.717.709-5.33 1.96-7.625 3.579-1.837 1.296-3.245 3.152-4.527 4.998-.179.258.584.49.508.794-.08.323-.646.27-.84.54-1.038 1.433-1.062 4.23-2.81 4.503-1.333.208-.277-2.703-.132-4.044.077-.713.781-1.286.784-2.003.003-.714-.795-1.286-.768-2 .04-1.05.783-1.967.953-3.004.11-.666.045-1.37-.132-2.022-.107-.396-.726-.608-.692-1.016.304-3.67 1.368-7.248 1.68-10.916.035-.418-.692-.651-.66-1.07.048-.658.71-1.138.871-1.778 1.111-4.37 2.315-8.736 2.935-13.201.323-2.327.333-4.742-.124-7.047-.188-.944-.937-1.768-1.73-2.311-.324-.221-.808.123-1.115.365-.71.558-1.444 1.168-1.859 1.97-.204.398-.017.92.155 1.332.398.955 1.415 1.674 1.53 2.703.101.918-.735 1.706-.942 2.606-1.114 4.846-2.148 9.713-3.019 14.608-.754 4.24-1.55 8.489-1.852 12.784-.05.709.79 1.26.813 1.97.022.704-.678 1.295-.686 2-.007.708.667 1.319.642 2.027-.025.717-.74 1.288-.784 2.004a88.796 88.796 0 0 0 0 10.992c.046.713.795 1.263.828 1.977.032.708-.632 1.318-.642 2.027-.006.388.598.612.598 1s-.607.612-.598 1c.008.388.525.602.642.973.106.335.114.722 0 1.054-.126.368-.558.577-.685.944a1.853 1.853 0 0 0-.022 1.09 49.811 49.811 0 0 0 1.88 5.39m105.45-3.971c2.824-.835 5.763-1.352 8.473-2.506 3.191-1.36 6.035-3.425 9.13-4.991 1.672-.846 3.477-1.41 5.16-2.237 1.29-.635 2.565-1.318 3.741-2.145 1.248-.878 2.207-2.141 3.501-2.951.45-.282 1.21.158 1.576-.227.843-.885 1.862-2.023 1.722-3.238-.104-.905-1.39-1.76-2.27-1.523-2.483.666-4.514 2.478-6.646 3.914-1.613 1.087-2.877 2.666-4.563 3.635-.285.164-.51-.63-.826-.54-1.882.537-3.647 1.433-5.395 2.312-2.337 1.175-4.453 2.776-6.842 3.842-2.49 1.11-5.038 2.254-7.733 2.66-2.973.449-6.259 1.059-9.018-.134-2.36-1.021-3.566-3.75-4.96-5.91-1.067-1.65-1.852-3.505-2.345-5.407-.106-.406.733-.658.662-1.071-.295-1.703-1.228-3.237-1.696-4.901-.1-.36-.116-.768.003-1.123.433-1.295 1.593-2.394 1.632-3.76.02-.676-1.344-.721-1.484-1.383-.1-.47.736-.648.962-1.071.63-1.181 1.323-2.378 1.58-3.691.08-.407-.792-.671-.652-1.062 2.88-8.005 4.003-17.214 9.544-23.67 3.35-3.9 9.915-2.776 14.722-4.598 2.704-1.025 5.301-2.364 7.74-3.916 1.124-.715 1.93-1.841 2.84-2.815.753-.808 1.515-1.621 2.148-2.527.984-1.406 2.003-2.82 2.69-4.392a3.118 3.118 0 0 0 .123-2.048c-.385-1.343-.796-2.811-1.795-3.788-.945-.926-2.357-1.293-3.656-1.547-.396-.078-.63.63-1.034.628-.389-.002-.584-.642-.973-.642-.709 0-1.318.637-2.027.642-.4.003-.66-.78-1.029-.622-2.948 1.258-5.742 2.885-8.418 4.65-1.442.953-2.508 2.385-3.863 3.458-.828.655-2.036.865-2.665 1.712-.305.41.556 1.08.274 1.506-.723 1.087-2.145 1.54-2.97 2.55-1.75 2.145-2.176 5.704-4.696 6.845-3.228 1.46-7.103.446-10.627.088-2.018-.205-3.8-1.888-5.825-1.762-.9.056-1.204 1.385-1.54 2.22-.212.523-.352 1.222-.037 1.689.543.804 1.438 1.377 2.342 1.728.646.252 1.403.142 2.08-.01.396-.088.61-.76 1.008-.68 1.396.276 2.524 1.455 3.932 1.658.721.104 1.306-.804 2.034-.798.928.007 1.744.994 2.658.832.725-.127.82-1.474 1.55-1.574.538-.074 1.212.68 1.091 1.21-.29 1.278-1.565 2.123-2.12 3.31-.969 2.07-1.486 4.33-2.428 6.412-.227.503-.943.737-1.05 1.278-.076.382.671.62.598 1.002-.1.53-.817.755-1.03 1.252-.806 1.878-1.41 3.839-1.995 5.797-.754 2.525-1.464 5.067-2.016 7.643-.663 3.1-1.669 6.2-1.624 9.37.045 3.16.941 6.275 1.89 9.288a18.168 18.168 0 0 0 2.726 5.374c1.416 1.899 3.093 3.655 5.026 5.025 1.7 1.204 3.692 2 5.696 2.572.385.11.6-.662 1.001-.665.708-.006 1.318.644 2.027.642.391-.001.591-.573.974-.652m72.37-13.603c.375-1.015 1.097-1.963 1.125-3.044.02-.744-.382-1.577-.995-2-.413-.284-.978.369-1.474.299-.384-.054-.602-.524-.97-.642-.345-.11-.762-.174-1.085-.013-.867.433-1.797.92-2.34 1.723-.31.458-.109 1.128.046 1.659.094.32.386.563.66.757.835.592 1.641 1.33 2.635 1.579M9.972 347.679c2.018-1.156 4.508-1.732 6.055-3.47.647-.728.354-2.267-.39-2.895-.778-.656-2.049-.171-3.054-.01-.704.115-1.26.813-1.974.822-.714.01-1.287-.728-2-.768-.388-.022-.612.62-1 .598-.713-.04-1.287-.808-2-.768-.743.04-1.493.446-2.003.989-.352.376-.435 1-.34 1.507.116.615.414 1.278.931 1.63 1.658 1.129 3.533 1.915 5.39 2.675m5.063-5.015c-.449-.105-1.334.146-1.346-.314-.01-.457.885-.436 1.33-.333m265.05-23.32c-.689.044-1.38.202-2.066.132-.462-.047-1.52-.063-1.31-.477 1.141-2.247 3.29-3.848 4.6-6.002.154-.257-.718-.547-.498-.751.881-.818 2.195-1.017 3.166-1.725 1.295-.944 2.265-2.294 3.586-3.2 2.031-1.39 4.135-2.731 6.42-3.65.37-.15.6.666 1 .666.72 0 1.354-.83 2.055-.665.937.218 2.376.73 2.337 1.69-.068 1.677-1.503 3.036-2.58 4.322-1.247 1.488-2.77 2.736-4.315 3.91a26.968 26.968 0 0 1-4.44 2.75c-.512.25-1.196-.03-1.69.254-.645.37-.872 1.298-1.55 1.606-.285.13-.463-.46-.763-.552-.345-.106-.75-.156-1.082-.015M18.566 272.157c1.023-.05 2.067.064 3.07-.148.384-.082.576-.57.945-.703.534-.195 1.194.03 1.688-.253.645-.371.876-1.291 1.55-1.607.285-.133.542.695.795.508 1.05-.77 1.608-2.057 2.545-2.961.911-.88 2.113-1.437 2.974-2.366.715-.77 1.031-1.842 1.691-2.66.77-.954 1.861-1.63 2.574-2.626.967-1.355 1.5-2.983 2.422-4.368 1.082-1.623 2.472-3.023 3.576-4.631 1.262-1.836 2.623-3.642 3.512-5.684.156-.357-.52-.621-.598-1.002-.037-.183.167-.342.3-.474.636-.637 1.18-1.442 1.996-1.822.276-.13.62.266.73.55 1.333 3.445 2.157 7.076 3.546 10.498 1.111 2.736 2.351 5.444 3.94 7.933.786 1.234 1.965 2.184 3.103 3.104.663.537 1.468.878 2.248 1.224 1.448.644 2.913 1.259 4.422 1.742 1.974.632 3.955 1.877 6.008 1.597 3.12-.425 5.975-2.085 8.733-3.604 1.944-1.071 3.216-3.204 5.247-4.1 1.236-.543 2.752-.366 4.052 0 .828.235 1.114 1.48 1.947 1.695.697.179 1.35-.81 2.056-.665 1.1.224 1.816 1.46 2.916 1.679.701.139 1.313-.695 2.028-.7.724-.003 1.347.777 2.064.677 1.702-.237 3.313-.954 4.887-1.644 2.65-1.161 5.26-2.432 7.753-3.896 1.442-.846 2.773-1.888 4.013-3.01.416-.376.453-1.078.891-1.428 1.26-1.008 2.821-1.587 4.103-2.566.974-.744 1.671-1.806 2.626-2.574.764-.615 1.841-.825 2.501-1.551 2.851-3.138 5.486-6.48 7.938-9.94.792-1.116 1.065-2.528 1.745-3.717.737-1.29 1.038-3.39 2.492-3.695 1.157-.242 1.815 1.616 2.313 2.687.164.353-.72.633-.598 1.002.27.809 1.337 1.186 1.598 1.998.12.37-.525.603-.642.974-.106.335-.15.737.001 1.055.237.499.81.772 1.092 1.247 1.242 2.089 2.203 4.338 3.465 6.415.268.44.663.813 1.095 1.095 1.053.688 2.34 1.005 3.323 1.792.732.586 1.008 1.612 1.708 2.235.542.482 1.272.702 1.932 1.003 1.208.55 2.361 1.32 3.668 1.55 1.681.298 3.468.43 5.12.003 3.27-.848 6.477-2.088 9.408-3.767 2.233-1.28 3.854-3.418 5.887-4.995.175-.135.534-.264.66-.082 1.292 1.877 2.157 4.02 3.38 5.943.507.798 1.088 1.567 1.793 2.197 1.501 1.342 2.855 3.11 4.785 3.687 2.562.765 5.4.667 8.02.135 3.405-.691 6.61-2.21 9.73-3.737 1.483-.725 2.703-1.902 3.966-2.964.937-.787 1.665-1.806 2.62-2.57 1.7-1.361 3.69-2.35 5.324-3.79 1.117-.983 1.813-2.372 2.866-3.425.625-.625 1.51-.948 2.134-1.574 1.481-1.487 2.928-3.03 4.151-4.736 1.327-1.851 2.06-4.097 3.466-5.89.187-.237.43.477.724.55.545.133 1.181.294 1.683.042.671-.336.802-1.837 1.53-1.652 2.32.589 4.766 1.703 6.202 3.617.75.998-.722 2.423-.733 3.67-.003.392.59.57.695.947.181.65.244 1.356.132 2.022-.12.722-.91 1.313-.813 2.038.177 1.327.898 2.539 1.58 3.69.631 1.069 1.446 2.032 2.323 2.91 1.461 1.462 2.816 3.164 4.667 4.087 2.093 1.045 4.483 1.648 6.823 1.645 2.96-.004 5.93-.678 8.72-1.664 3.474-1.227 6.645-3.19 9.9-4.914.701-.371 1.386-.805 1.95-1.362.99-.98 1.651-2.268 2.676-3.211.721-.664 1.806-.856 2.498-1.55.737-.738.995-1.853 1.681-2.64.283-.324.842-.293 1.145-.6 1.146-1.156 2.16-2.442 3.151-3.735 1.256-1.64 2.122-3.596 3.584-5.055.277-.277.814.115 1.114.365 1.201 1 2.463 2.009 3.31 3.323 1.605 2.49 2.872 5.204 3.96 7.96 1.083 2.743 1.541 5.699 2.53 8.477.101.286.397.526.694.59.668.144 1.413.25 2.05 0a2.438 2.438 0 0 0 1.324-1.324c.25-.637.15-1.384.001-2.052-.088-.396-.799-.62-.68-1.008 2.227-7.33 4.798-14.557 7.581-21.694.451-1.154 1.2-2.21 2.081-3.08.721-.712 1.69-1.133 2.612-1.554.323-.148.704-.124 1.06-.124 2.016 0 4.098-.391 6.048.124a14.206 14.206 0 0 1 5.59 2.945c1.151.996 1.667 2.556 2.352 3.916 1.188 2.359 1.953 4.926 3.254 7.225.878 1.55 1.974 3 3.242 4.253.39.385 1.133.83 1.568.498 1.235-.947 1.933-2.451 2.726-3.79 1.132-1.908 2.088-3.918 3.034-5.926.57-1.212 1.275-2.406 1.51-3.725.07-.397-.55-.622-.673-1.007-.107-.334-.27-.846.013-1.052.307-.223.8.444 1.114.233.704-.471.914-1.455 1.55-2.015.88-.776 1.901-1.39 2.938-1.94 1.183-.628 2.381-1.317 3.694-1.582.395-.08.63.622 1.034.628.388.006.611-.598 1-.598.388 0 .612.609 1 .598.39-.01.592-.57.974-.651.678-.147 1.424-.233 2.08-.01 1.288.438 2.543 1.072 3.591 1.938a45.694 45.694 0 0 1 5.954 5.954c.836 1.002 1.12 2.372 1.873 3.437a7.34 7.34 0 0 0 1.844 1.822c1.461.99 3.034 1.817 4.63 2.573.321.152.704.113 1.06.124.996.03 2 .106 2.99-.001.518-.056 1.085-.151 1.486-.483 1.564-1.295 3.036-2.725 4.303-4.312.785-.983.972-2.367 1.791-3.322 1.562-1.821 2.912-5.375 5.266-4.908 2.263.449 1.455 4.4 2.512 6.452.862 1.673 1.62 3.635 3.206 4.648 2.495 1.595 5.473 2.754 8.433 2.79 2.404.03 4.701-1.306 6.728-2.6 1.897-1.21 3.122-3.245 4.794-4.751.312-.28.842-.258 1.118-.573 1.101-1.257 1.801-2.838 2.941-4.06 1.505-1.613 3.437-2.787 4.95-4.394.72-.766 1.044-1.833 1.691-2.662a10.416 10.416 0 0 1 1.813-1.833 16.526 16.526 0 0 1 2.916-1.838c.334-.162.818-.344 1.106-.111 1.018.824 1.537 2.144 2.503 3.029.772.707 2.325.692 2.647 1.688.238.734-1.168 1.05-1.542 1.726-.176.317-.133.744-.019 1.088.415 1.255.89 2.509 1.582 3.634.348.567 1.413.68 1.476 1.342.07.746-.92 1.213-1.168 1.919-.123.35-.022.759.104 1.108.763 2.1.715 4.924 2.55 6.199 1.054.732 2.343-1.238 3.115-2.263.243-.323-.698-.637-.63-1.035.283-1.701.932-3.332 1.625-4.911 1.16-2.647 2.451-5.246 3.92-7.736.846-1.438 1.931-2.726 3.002-4.006.635-.76 1.288-1.534 2.101-2.1 1.451-1.006 3.034-1.816 4.63-2.572.321-.153.704-.125 1.06-.124 1.007.003 2.038-.091 3.02.134.603.138 1.161.499 1.608.926.665.635.937 1.637 1.665 2.199.946.73 2.377.73 3.222 1.576.291.29-.718.737-.543 1.11.271.577 1.162.6 1.573 1.088 1.44 1.705 2.536 3.679 3.926 5.426.537.674 1.126 1.332 1.84 1.816 1.46.99 2.935 2.075 4.63 2.573 1.304.384 2.79.419 4.08-.011 1.414-.47 2.51-1.622 3.663-2.566.947-.774 1.651-1.823 2.62-2.57 2.126-1.641 4.248-3.34 6.635-4.571.466-.241 1.08.092 1.534.353.374.215.745.576.82 1 .053.307-.69.534-.507.787.63.87 1.618 1.424 2.523 2.003 1.487.952 2.93 2.1 4.631 2.575 1.622.452 3.374.28 5.05.123.715-.067 1.288-.746 2.004-.784.4-.022.643.733 1.028.62 2.001-.58 3.847-1.611 5.696-2.571.49-.254.734-.95 1.275-1.05.395-.073.655.765 1.03.623 2.35-.891 4.568-2.14 6.656-3.536 3.244-2.17 5.978-5.061 9.287-7.13.446-.278 1.126.036 1.535.366.783.63 1.086 1.734 1.862 2.375.328.27.962-.098 1.262.204.845.852 1.133 2.146 1.945 3.03.661.718 1.476 1.357 2.394 1.689.304.11.553-.721.814-.53 1.051.776 1.543 2.135 2.526 2.994.771.673 1.677 1.247 2.66 1.537.3.088.563-.747.78-.521.782.824.885 2.125 1.591 3.016.528.666 1.674.777 2.024 1.55.216.479-.268 1.098-.682 1.42-1.52 1.18-3.256 2.058-4.955 2.96-1.18.626-2.35 1.394-3.669 1.613-.71.119-1.346-.558-2.06-.66-.184-.026-.365.148-.473.3-.358.506-1.133 1.06-.89 1.63.373.887 1.373 1.513 2.31 1.732 1.658.387 3.48.496 5.108 0 2.402-.731 4.655-2.023 6.63-3.574 1.205-.946 2.011-2.355 2.678-3.734.298-.616.191-1.37.122-2.05-.053-.518-.195-1.051-.482-1.486a20.135 20.135 0 0 0-2.576-3.152 30.802 30.802 0 0 0-3.736-3.151c-1.724-1.245-3.706-2.118-5.38-3.43-1.412-1.107-2.48-2.6-3.826-3.786-.314-.277-.827-.271-1.118-.573-1.005-1.043-2.078-2.094-2.708-3.398-.224-.465.011-1.112.34-1.51.714-.864 1.846-1.295 2.635-2.092.805-.812 1.604-1.68 2.116-2.702 1.068-2.138 2.206-4.33 2.58-6.69.1-.626-.689-1.226-1.303-1.385-1.316-.342-2.792-.447-4.08-.011-1.726.584-3.374 1.602-4.6 2.949-1.095 1.2-1.55 2.87-2.097 4.4-.668 1.875-.638 3.992-1.529 5.773-.758 1.516-2.034 2.74-3.294 3.874-2.088 1.878-4.359 3.558-6.698 5.113-1.242.826-2.609 1.469-4.003 2-3.44 1.313-7.039 2.185-10.47 3.52-.519.203-.747 1.189-1.289 1.062-2.344-.55-4.718-1.423-6.61-2.913-1.355-1.067-3.256-2.786-2.694-4.416 1.696-4.921 6.43-8.285 8.69-12.974.731-1.517.342-3.403 0-5.052-.127-.61-.779-1.015-1.323-1.316-.317-.175-.744-.134-1.088-.02-1.266.425-2.614.79-3.666 1.613-1.518 1.185-2.862 2.646-3.879 4.28-1.028 1.656-1.553 3.58-2.159 5.433-.62 1.898-.829 3.92-1.516 5.796-.262.712-.734 1.362-1.295 1.873-3.687 3.365-7.263 6.916-11.399 9.709-.587.397-1.318-.631-2.027-.641-.388-.006-.614.639-1 .598-.614-.064-1.183-.45-1.634-.873-.737-.692-1.148-1.678-1.855-2.401-.28-.285-.825-.243-1.055-.571-1.366-1.943-2.16-4.27-3.648-6.12-.649-.806-1.885-.937-2.616-1.67-.685-.684-.838-1.791-1.526-2.472-.835-.825-1.902-1.388-2.938-1.94-1.197-.634-2.38-1.616-3.735-1.603-2.105.02-4.087 1.028-6.083 1.698-1.583.532-3.196 1.055-4.635 1.904-.822.484-1.5 1.226-2.025 2.024-.744 1.136-1.023 2.527-1.722 3.692-.315.523-.932.809-1.28 1.31-1.402 2.01-1.839 7.435-3.953 6.197-3.458-2.027-2.45-7.707-4.502-11.151-.785-1.318-2.31-2.125-3.739-2.685-.965-.38-2.109-.275-3.108 0-.988.27-1.858.91-2.636 1.577a46.923 46.923 0 0 0-4.833 4.813c-.692.792-1 1.87-1.694 2.662-.367.418-1.044.47-1.417.884-1.43 1.588-2.498 3.48-3.94 5.06-.63.69-1.608 1.005-2.234 1.7-.648.72-.833 1.797-1.526 2.474-1.393 1.359-3.007 2.484-4.64 3.543-.29.189-.683.134-1.03.134-2.008 0-4.033.143-6.022-.133-.613-.085-1.164-.495-1.608-.926-.808-.785-1.62-1.635-2.083-2.662-1.118-2.481-2.332-5.03-2.605-7.737-.086-.861 1.353-1.204 1.621-2.027.125-.381-.723-.641-.622-1.03.285-1.097 1.67-1.835 1.661-2.97-.008-.98-.866-1.89-1.705-2.398-.647-.39-1.74-.542-2.266 0-2.28 2.35-3.538 5.529-5.582 8.088-1.352 1.692-3.217 2.928-4.57 4.62-1.32 1.652-2.005 3.77-3.407 5.356-.724.818-1.723 1.676-2.815 1.677-1.432 0-2.564-1.341-3.957-1.672-.319-.075-.597.774-.825.538-1.063-1.098-1.473-2.696-2.423-3.894-2.214-2.793-4.303-5.766-7.042-8.047-1.286-1.07-3.188-1.04-4.71-1.736-.406-.187-.568-.81-1.01-.884-1.667-.278-3.417-.487-5.069-.131-.896.194-1.31 1.364-2.166 1.693-.296.114-.454-.515-.767-.562-1.015-.151-2.144-.434-3.078-.01-2.076.943-3.914 2.398-5.589 3.945-1.208 1.115-2.076 2.559-2.957 3.947-.687 1.082-1.422 2.19-1.729 3.436-.096.392.79.664.628 1.035-.703 1.627-1.214 4.249-2.98 4.404-1.519.133-1.659-2.57-2.327-3.94-.967-1.982-1.329-4.273-2.569-6.097-.907-1.333-2.318-2.284-3.698-3.117-1.4-.846-2.97-1.401-4.54-1.86-2.687-.785-5.394-2.03-8.188-1.861-2.099.127-4.037 1.415-5.702 2.7-1.349 1.04-2.084 2.697-3.08 4.08-.869 1.207-1.907 2.329-2.513 3.687-.129.289.6.495.51.798-.195.667-.968 1.039-1.235 1.682-.108.262.3.566.193.829-1.24 3.05-.97 8.186-4.173 8.954-2.632.63-2.584-4.78-4.208-6.944-.615-.82-1.699-1.166-2.423-1.89-.662-.662-1.002-1.61-1.7-2.234-1.102-.984-2.237-2.066-3.639-2.534-.672-.225-1.318.637-2.027.64-.4.004-.654-.763-1.029-.621-1.594.609-3.29 1.352-4.363 2.679-.559.692-.266 1.834.04 2.67.3.817 1.7 1.132 1.675 2.002-.032 1.153-1.074 2.06-1.813 2.947-.275.33-.839.295-1.144.599-.663.66-1.005 1.607-1.7 2.234-.712.64-1.813.789-2.452 1.505-.718.805-.73 2.095-1.466 2.886-.204.22-.508-.67-.754-.496-1.617 1.146-2.634 3.044-4.317 4.09-3.015 1.874-6.187 3.66-9.618 4.573-2.595.689-5.389.45-8.053.12-1.653-.205-3.437-.615-4.697-1.704-1.498-1.296-2.195-3.306-3.123-5.057-.623-1.175-1.35-2.371-1.515-3.691-.09-.723.818-1.306.798-2.034-.029-1.047-.903-1.953-.938-3-.024-.714.635-1.3.768-2.001.035-.183-.155-.355-.299-.473-.51-.415-1.17-.636-1.634-1.1-.649-.65-.84-1.783-1.66-2.195-2.558-1.284-5.614-1.384-8.14-2.727-.46-.246-.11-1.075.07-1.565.753-2.04 2.523-3.772 2.702-5.94.112-1.364-1.06-2.562-1.915-3.631-.61-.762-1.419-1.494-2.368-1.724-.699-.17-1.336.642-2.055.655-.389.008-.618-.658-1.003-.597-.329.052-.272.644-.54.84-1.966 1.445-4.343 2.35-6.102 4.039-1.237 1.187-2.078 2.785-2.678 4.39-.14.376.663.6.666 1.002.005.709-.546 1.325-.642 2.027-.026.186.17.34.3.475 1.076 1.129 2.137 2.28 3.31 3.31.94.826 2.65 1.046 3.011 2.245.295.98-.868 1.885-1.537 2.66-1.788 2.072-3.937 3.807-5.786 5.825-.282.309-.277.822-.573 1.119-.715.715-1.686 1.14-2.4 1.856-.306.304-.276.86-.6 1.144-2.48 2.17-4.922 4.446-7.742 6.154a66.027 66.027 0 0 1-11.625 5.578c-1.27.46-2.728.387-4.053.12-1.32-.267-2.576-.9-3.672-1.68-.844-.6-1.478-1.478-2.014-2.364-1.039-1.714-1.917-3.53-2.68-5.382-.143-.345-.12-.767 0-1.121.533-1.566.98-3.221 1.937-4.571.806-1.136 2.26-1.657 3.208-2.678 1.123-1.21 2.073-2.576 2.964-3.965.966-1.505 2.095-2.98 2.593-4.697.198-.682-.723-1.326-.64-2.031.042-.367.72-.284.943-.576 1.143-1.49 2.26-3.021 3.104-4.697 1.073-2.132 2-4.36 2.617-6.665a6.04 6.04 0 0 0-.004-3.113c-.272-.988-.987-1.8-1.579-2.636-.194-.273-.43-.592-.759-.661-.986-.208-2.016-.212-3.02-.134-.52.04-1.078.159-1.486.483-1.222.968-2.32 2.1-3.303 3.312-.645.796-1.292 1.667-1.538 2.66-.097.392.876.722.624 1.036-.426.527-1.408.184-1.943.6-.623.484-1.039 1.22-1.34 1.95a128.426 128.426 0 0 0-3.89 10.71c-1.28 4.092-1.692 8.462-3.342 12.418-.374.896-1.757.88-2.476 1.53-.757.687-1.11 1.752-1.884 2.419-1.799 1.55-3.594 3.227-5.77 4.176-3.047 1.327-6.317 2.545-9.64 2.54-1.784-.002-3.2-1.594-4.7-2.56-1.449-.934-2.975-1.837-4.124-3.123a26.13 26.13 0 0 1-4.024-6.005c-1.16-2.406-2.158-4.957-2.536-7.601-.476-3.337-.859-6.855.006-10.114 1.248-4.703 4.292-8.74 6.188-13.22 1.3-3.072 1.757-6.507 3.391-9.415.602-1.07 1.981-1.463 3.056-2.058 2.62-1.45 5.28-2.833 8.007-4.066 6.74-3.047 13.698-5.601 20.38-8.77.677-.32.87-1.314 1.55-1.627.287-.133.456.499.766.562.68.136 1.428.25 2.078.01 1.083-.4 2.12-1.026 2.923-1.855.366-.377.531-1.035.365-1.534-.196-.591-.737-1.096-1.316-1.324a3.026 3.026 0 0 0-2.085-.015c-7.986 2.954-15.918 6.077-23.694 9.547-3.215 1.434-5.948 3.857-9.225 5.142-.44.173-.472-.855-.506-1.327-.098-1.35-.1-2.722.114-4.058.445-2.775 1.121-5.512 1.857-8.224.165-.605.785-1.062.834-1.687.031-.4-.627-.627-.62-1.027.006-.391.576-.591.651-.974.195-.99.211-2.017.133-3.023-.04-.52-.17-1.068-.483-1.485-.713-.951-1.552-1.833-2.52-2.52-.42-.3-1.03-.53-1.509-.34-.733.29-1.352.923-1.723 1.618-2.214 4.154-4.316 8.392-5.962 12.802-2.11 5.655-3.16 11.67-5.28 17.32-.342.908-1.266 1.48-2.009 2.102-.163.136-.484-.053-.63.102-.664.708-1.975 1.442-1.69 2.37.533 1.745 3.425 2.26 3.661 4.069.476 3.645-1.45 7.229-1.707 10.896-.075 1.064 1.123 2.128.723 3.118-1.484 3.679-4.174 6.75-6.103 10.217-.61 1.098-.909 2.35-1.506 3.456a19.742 19.742 0 0 1-1.962 2.962c-1.957 2.44-3.91 4.9-6.119 7.117-.734.738-1.838 1.004-2.638 1.67-1.206 1.004-2.109 2.345-3.344 3.312-1.273.996-2.854 1.547-4.13 2.538-1.717 1.333-2.852 3.456-4.807 4.404-3.685 1.787-7.649 3.435-11.74 3.62-2.333.105-4.34-1.742-6.423-2.8-.147-.073-.079-.326-.059-.49.058-.461.078-.952.291-1.366.402-.78.977-1.457 1.52-2.146.683-.87 1.35-1.764 2.154-2.524.312-.296.845-.29 1.144-.6 1.005-1.042 2.193-2.044 2.708-3.397.253-.664-.934-1.385-.64-2.031.615-1.357 2.214-2.033 3.045-3.27.745-1.108 1.366-2.355 1.614-3.668.12-.634-.759-1.232-.572-1.85.217-.711 1.348-.852 1.605-1.55.313-.848.227-1.846-.032-2.713a6.29 6.29 0 0 0-1.554-2.612c-.763-.762-1.736-1.34-2.754-1.696-.665-.233-1.429-.17-2.114-.005-1.609.385-3.296.739-4.686 1.635-2.492 1.608-4.693 3.653-6.778 5.76-1.136 1.15-2.265 2.427-2.818 3.944-.243.667.868 1.357.641 2.029-.508 1.502-2.075 2.47-2.66 3.945-.378.945-.204 2.036-.124 3.05.041.519.217 1.038.483 1.486.34.573 1.133.873 1.301 1.517.1.379-.569.593-.65.975-.145.669-.319 1.447 0 2.052.62 1.174 3.252 1.79 2.65 2.972-1.239 2.424-4.337 3.298-6.614 4.789a38.68 38.68 0 0 1-4.63 2.575c-.322.152-.705.123-1.06.124-1.02 0-2.058.089-3.057-.117-2.046-.423-4.04-1.08-6.017-1.76-.892-.306-1.914-.51-2.565-1.193-1.504-1.578-2.642-3.485-3.707-5.387-.278-.497.03-1.195-.253-1.69-.37-.644-1.3-.871-1.607-1.55-.134-.296.616-.504.533-.82-.463-1.74-1.566-3.261-2.075-4.988-1.059-3.59-1.88-7.25-2.616-10.92-.138-.692-.223-1.45.003-2.12 1.364-4.038 3.618-7.766 4.727-11.882.274-1.018-.777-2.035-.695-3.086.03-.373.724-.277.978-.553.532-.576.944-1.26 1.327-1.945.68-1.217 1.318-2.462 1.855-3.75.917-2.197 1.942-4.377 2.503-6.691.095-.392-.7-.638-.628-1.035.098-.541.79-.79 1.05-1.274.604-1.135 1.511-2.26 1.521-3.546.005-.672-1.224-.743-1.484-1.363-.109-.26.63-.118.76-.367 1.077-2.066 2.134-4.176 2.781-6.415.112-.387-.623-.631-.628-1.034-.006-.388.598-.611.598-1 0-.39-.607-.612-.598-1 .008-.39.642-.584.642-.973 0-.71-.632-1.318-.642-2.027-.006-.388.527-.617.597-.998.036-.197-.16-.387-.323-.505-.932-.678-1.846-1.431-2.919-1.853-.425-.167-.937-.006-1.358.169-.843.35-1.874.61-2.364 1.38-2.35 3.694-4.225 7.686-5.963 11.704-1.26 2.917-2.108 5.998-3.01 9.045-.52 1.755-.888 3.553-1.256 5.346-.864 4.214-1.88 8.407-2.442 12.672-.053.403.63.634.636 1.04.008.388-.62.612-.598 1 .04.713.768 1.286.768 2s-.77 1.286-.768 2c.003.717.692 1.292.784 2.003.13 1 .062 2.033-.132 3.023-.076.383-.642.583-.652.974-.01.389.658.618.597 1.003-.052.329-.667.257-.842.542-1.013 1.639-1.616 3.514-2.663 5.132-.569.88-1.689 1.354-2.145 2.297-.387.802.185 1.883-.25 2.66-.448.799-1.678.908-2.18 1.675-1.074 1.643-1.335 3.735-2.425 5.368-1.21 1.815-3.078 3.112-4.394 4.853-.786 1.04-1.114 2.375-1.87 3.437-.556.779-1.326 1.38-2.027 2.03-.993.92-1.953 1.89-3.056 2.675-1.398.997-2.805 2.06-4.418 2.65-.376.138-.619-.542-1-.665a1.71 1.71 0 0 0-1.055 0c-.368.127-.578.56-.946.686-.332.113-.745.167-1.054-.001-.752-.407-1.18-1.315-1.97-1.64-.29-.12-.6.756-.79.507-1.445-1.897-3.339-3.835-3.55-6.21-.143-1.59 2.033-2.52 2.636-3.998.147-.36-.8-.67-.598-1.002 1.673-2.74 3.753-5.222 5.873-7.633.754-.857 1.71-1.541 2.698-2.113 1.171-.676 2.376-1.613 3.728-1.6 1.435.014 2.534 1.576 3.966 1.676.633.044 1.144-.717 1.385-1.303.26-.633.348-1.468-.009-2.052-.624-1.021-1.639-1.81-2.696-2.371-.493-.262-1.134-.096-1.674.046-.377.1-.582.64-.972.65-.388.01-.61-.598-1-.598-.389 0-.612.603-1 .598-.4-.004-.64-.72-1.029-.622-.994.247-1.864.894-2.66 1.538-1.21.976-2.3 2.102-3.309 3.283-.84.986-1.384 2.2-2.217 3.192-1.273 1.515-3.008 2.649-4.084 4.31-.219.336.782.66.622 1.029-.932 2.145-3.544 3.646-3.669 5.98-.16 2.999 1.09 6.13 2.894 8.53 1.494 1.986 4.108 2.859 6.398 3.823m19.081-14.072c-.12-.437-.35-.858-.359-1.31-.002-.146.255-.405.332-.282.245.387.325.875.332 1.332m52.223-4.995c-.675-2.012-2.125-3.915-2.026-6.035.142-3.041 1.343-6.002 2.717-8.718.583-1.152 2.132-1.508 2.958-2.5.148-.178-.555-.385-.408-.564.681-.83 1.612-1.432 2.52-2.005 1.493-.945 2.925-2.18 4.656-2.536.618-.126 1.221.686 1.38 1.297.34 1.316.441 2.79.01 4.08-.828 2.478-2.744 4.48-3.685 6.917-.144.374.87.713.621 1.027-1.007 1.277-2.69 1.863-3.822 3.03-.73.756-1.057 1.824-1.69 2.662a38.587 38.587 0 0 1-2.992 3.53m-5.118-7.212c.218-.013.603-.251.656-.04.112.445.125 1.307-.332 1.334m201.041-12.985c-.449-.105-1.334.146-1.346-.314-.01-.457.885-.436 1.33-.332m851.955-2.331c.17-.444.46-.861.5-1.334.09-1.018.08-2.061-.12-3.065-.17-.901-.74-1.687-.97-2.577-.69-2.744-1.46-5.488-1.76-8.301-.07-.72.66-1.341.67-2.063 0-.407-.7-.638-.64-1.042.93-6.737 2.22-13.42 3.54-20.091.6-3.012 1.34-5.996 2.19-8.946.2-.676.86-1.194.93-1.894.04-.41-.74-.654-.64-1.055.41-1.735 1.53-3.232 2.06-4.933 1.36-4.287 2.68-8.598 3.6-13 .08-.398-.56-.626-.68-1.012a1.653 1.653 0 0 1 0-1.054c.12-.368.55-.577.68-.944.12-.343.14-.745.02-1.088-.53-1.577-1.09-3.168-1.94-4.6-.39-.651-1.66-.766-1.69-1.524-.05-1.138.34-2.977 1.48-3.08 1.98-.18 3.89 1.207 5.45 2.45 1.57 1.256 2.72 3.024 3.64 4.813.18.358-.71.639-.63 1.034.29 1.393 1.37 2.539 1.66 3.932.08.395-.63.63-.63 1.034 0 .388.52.6.64.97.11.345.16.755.02 1.085-.77 1.718-2.47 3.087-2.7 4.952-.17 1.338.78 2.645 1.59 3.718.4.519 1.23 1.046 1.81.75 1.11-.57 1.37-2.17 2.39-2.894.43-.306 1.07-.085 1.58.069.37.115.56.612.94.702.67.155 1.43.278 2.06-.001 1.35-.604 2.58-1.504 3.64-2.543 1.22-1.211 2.18-2.678 3.12-4.124 1.28-1.98 2.17-4.21 3.54-6.131 1.57-2.201 3.37-4.238 5.24-6.186.68-.705 1.46-1.376 2.38-1.73.64-.248 1.52-.397 2.08.012 1.66 1.216 3.19 2.752 4.18 4.56.31.563-.63 1.156-.7 1.794-.13 1.345-.3 2.769.13 4.05.54 1.63 1.67 3.014 2.69 4.393.77 1.048 1.56 2.179 2.67 2.852.34.206.64-.725 1.03-.621 1.08.29 1.8 1.776 2.91 1.679 2.73-.236 5.27-1.537 7.78-2.607 1.09-.464 2.04-1.224 2.97-1.964 2.39-1.91 4.74-3.88 6.97-5.974.68-.63.95-1.653 1.71-2.175.28-.193.92 0 .96.338.1.7-.63 1.318-.63 2.026 0 .389.64.584.64.973 0 .709-.63 1.318-.64 2.027-.01.388.6.612.6 1-.01.4-.74.645-.62 1.029.33 1.104 1.07 2.06 1.81 2.946.28.33.84.294 1.14.599.72.716 1.1 1.74 1.86 2.403.4.348.98.47 1.51.508 1.54.105 3.2.483 4.63-.087 1.11-.442 1.21-2.414 2.37-2.696.84-.205 1.17 1.62 2.03 1.627 1.34.01 2.48-1.018 3.7-1.583 1.35-.628 2.8-1.106 3.99-1.997 2.6-1.933 4.15-5.6 7.28-6.414 1.59-.414 2.48 2.237 3.3 3.664.19.34-.57.593-.65.975-.15.678-.23 1.423-.01 2.08.35 1.065 1.95 1.827 1.68 2.918-.49 2.007-2.69 3.18-3.62 5.027-.17.348.6.612.6 1 0 .39-.71.628-.6 1.002.17.592.69 1.132 1.27 1.34.49.176 1.09-.045 1.51-.34.88-.61 1.71-1.364 2.27-2.277 1.04-1.684 1.32-3.783 2.46-5.401 1.41-2.008 3.67-3.32 5.09-5.322.23-.32-.51-.627-.6-1.007-.03-.138.13-.343.27-.324.7.092 1.39.929 2.03.628 1.08-.51 1.43-1.956 2.37-2.696.35-.278.93-.016 1.33-.217.49-.248.72-1.195 1.26-1.08.71.148 1.05 1.015 1.4 1.643.17.308.16.704.11 1.054-.07.512-.2 1.039-.47 1.48-.35.572-1.16.848-1.35 1.492-.29.975-.17 2.048 0 3.052.06.386.64.583.65.974.01.4-.74.646-.62 1.028.29.926.86 1.87 1.69 2.369.65.389 1.65.442 2.26 0 .98-.7 1.15-2.132 1.95-3.03.67-.755 1.68-1.146 2.39-1.857.84-.825 1.67-1.695 2.24-2.722.11-.205-.56-.385-.41-.57.56-.732 1.7-.922 2.18-1.716.33-.566-.28-1.392.02-1.977.42-.806 1.22-1.374 1.97-1.876.29-.191.69-.168 1.03-.117.45.067 1.05.076 1.3.46.16.254-.7.529-.5.76.67.784 1.91.913 2.58 1.69.2.236-.07.799-.38.856-.38.07-.63-.507-1.01-.598-.14-.034-.28.14-.33.276-.11.324-.17.683-.13 1.024.07.513.18 1.05.47 1.482.39.598.91 1.146 1.52 1.52.45.275 1.03.503 1.53.354 1.01-.296 1.82-2.152 2.72-1.605 1.28.779 1.3 2.738 1.56 4.212.07.399-.74.648-.63 1.037.17.589.76 1.585 1.3 1.298 1.18-.628 1.93-1.977 2.36-3.244.44-1.278.28-2.71.12-4.051-.08-.71-.8-1.262-.82-1.976-.03-.706.6-1.301.69-2.001.14-1.01.56-2.208-.01-3.054-.44-.66-1.55-.556-2.34-.456-.74.095-1.58.393-2 1.01-.28.413.36.976.3 1.474-.05.386-.72.63-.6 1 .24.74 1.66 1.023 1.51 1.786-.18.872-1.32 1.749-2.19 1.535-1.16-.29-1.93-1.574-2.42-2.675-.44-1.007.2-2.27-.2-3.294-.3-.761-1.51-.93-1.77-1.707-.18-.563.92-1.112.67-1.65-.19-.401-.86.372-1.3.304-.39-.06-.59-.57-.97-.651-.67-.144-1.52-.431-2.05 0-1.41 1.149-2.42 2.75-3.28 4.349-.15.278.6.495.51.798-.19.668-.94 1.053-1.23 1.683-.12.258.33.82.04.852-.7.079-1.32-.537-2.02-.63-.19-.024-.35.159-.48.3-1.21 1.399-2.06 3.169-3.53 4.299-.36.278-.4-.875-.33-1.326.1-.704.8-1.262.81-1.973.01-.713-.7-1.288-.77-1.998-.03-.314.6-.493.51-.797-.19-.671-.9-1.083-1.21-1.705-.05-.106.28-.194.21-.29-.44-.591-1.37-.843-1.57-1.552-.17-.575.83-1.091.66-1.663-.13-.443-.84-.416-1.3-.477-.54-.073-1.18-.224-1.63.085-.77.525-1.01 1.586-1.7 2.205-.78.693-1.87.976-2.64 1.669-2.3 2.05-4.28 4.436-6.55 6.522-.26.238-.78.697-.97.402-1.21-1.858-1.61-4.15-2.71-6.072-.53-.92-2.03-1.307-2.13-2.363-.12-1.333.94-2.515 1.58-3.691.27-.488.84-.761 1.1-1.248.17-.305.13-.684.13-1.031 0-1.342.53-2.862-.14-4.024-.4-.69-1.61-.57-2.37-.323-1.04.338-2.1.999-2.65 1.95-1.27 2.2-1.39 4.93-2.6 7.16-1.03 1.887-2.34 3.704-4.03 5.026-2.59 2.027-5.6 3.505-8.6 4.849-1.91.855-3.98 1.389-6.05 1.7-.4.062-.63-.626-1.04-.633-.39-.007-.65.772-1 .598-.98-.487-2.07-1.22-2.35-2.273-.61-2.262-.3-4.687-.14-7.023.06-.715.74-1.287.79-2.003.02-.388-.8-.668-.6-1.001 1.93-3.182 4.85-5.714 6.65-8.973.49-.891.56-2.208-.01-3.054-.44-.66-1.54-.46-2.34-.455-.46.003-1.05.084-1.3.476-.17.265.68.527.51.79-.45.706-1.48.87-1.99 1.529-.67.849-.74 2.095-1.47 2.887-.21.219-.45-.454-.75-.495-.2-.027-.38.162-.5.32-.66.88-.98 2.04-1.81 2.76-1.71 1.476-3.88 2.324-5.67 3.706-.34.263-.29.839-.59 1.144-.99.986-2.27 1.65-3.22 2.676-.66.722-.8 1.87-1.55 2.5-1.37 1.148-3.36 1.44-4.64 2.688-.43.426.58 1.615 0 1.832-.97.37-2.01-.678-3.05-.673-.39.003-.56.642-.94.695-1.34.183-2.83.553-4.06-.01-1.41-.65-2.46-2.008-3.27-3.344-.21-.346.7-.637.63-1.035a28.816 28.816 0 0 0-1.93-6.623c-.3-.682-1.3-.872-1.61-1.55-.13-.285.46-.463.55-.763.11-.345.16-.75.02-1.082-.4-.943-.95-1.827-1.58-2.635-.49-.637-.98-1.422-1.75-1.662-1.29-.397-2.69-.22-4.03-.132-.48.03-.97.216-1.38.485-1.15.762-2.31 1.56-3.25 2.575-2.87 3.093-5.62 6.302-8.12 9.699-.8 1.094-1.02 2.528-1.72 3.692-.59.969-1.29 1.88-2.1 2.666-.71.68-1.46 1.926-2.41 1.69-.78-.194-.58-1.603-.39-2.383.61-2.394 1.92-4.552 2.73-6.885.19-.537-.1-1.231.24-1.688.71-.967 2.18-1.28 2.74-2.342.3-.558-.8-1.232-.55-1.81.34-.777 1.42-.955 2.02-1.55a12.97 12.97 0 0 0 1.79-2.195c1.29-2 2.27-4.193 3.61-6.16.59-.861 1.6-1.39 2.14-2.281.29-.488-.03-1.195.25-1.69.37-.644 1.29-.875 1.61-1.55.13-.282-.46-.48-.51-.79-.03-.196.17-.372.32-.501.71-.608 2.1-.765 2.24-1.69.15-1.055-1.38-1.735-1.58-2.784-.07-.345.66-.534.98-.386.66.312.89 1.242 1.55 1.569.23.114.42-.31.57-.516.88-1.2 1.91-2.33 2.52-3.688.13-.288-.63-.507-.51-.798.25-.617 1.17-.793 1.42-1.41.12-.292-.6-.5-.51-.8.11-.351.73-.277.95-.574 1.01-1.386 2.07-2.786 2.67-4.393.14-.375-.54-.62-.66-1.001-.11-.334-.18-.756.01-1.054.2-.326.73-.29 1-.566.41-.43.74-.948.98-1.496.67-1.58 1.36-3.173 1.72-4.85.21-1.006.29-2.107-.02-3.087-.19-.604-.75-1.338-1.38-1.303-1.34.073-2.56.873-3.7 1.58-.66.415-1.41.959-1.61 1.722-.18.687 1.1 1.49.64 2.033-.63.739-2.14-.084-2.85.573-1.96 1.802-3.45 4.097-4.75 6.42-.19.34.79.666.6 1.004-.74 1.293-2.23 2.026-3.05 3.269-1.19 1.807-2.08 3.804-2.94 5.794-.67 1.573-.91 3.315-1.63 4.868-1.33 2.876-3.16 5.505-4.5 8.375-.97 2.07-1.48 4.335-2.43 6.416-1.29 2.824-1.99 6.17-4.27 8.277-.78.72-1.6-1.422-2.23-2.276-1.27-1.713-2.05-3.776-3.44-5.39-.59-.69-1.52-1.031-2.37-1.35-3.45-1.288-6.82-3.175-10.49-3.458-1.12-.086-2.12 1.362-2.29 2.473-.15 1.013.87 1.884 1.53 2.665.6.702 2.09.788 2.17 1.704.12 1.32-1.85 2.287-1.68 3.602.2 1.6 2.49 2.435 2.67 4.038.19 1.733-1.39 3.234-1.68 4.953-.07.399.54.624.67 1.008.12.345.12.74.02 1.09a95.188 95.188 0 0 1-2.35 7.37c-.69 1.884-1.84 3.599-2.33 5.54-.11.405.74.659.65 1.066-1.27 5.712-3.39 11.212-4.67 16.924-.09.41.74.659.67 1.073-.62 3.37-2.14 6.54-2.67 9.926-.11.723.81 1.309.81 2.04 0 1.045-.81 1.982-.81 3.027 0 .71.81 1.262.81 1.973 0 .73-.87 1.312-.81 2.04.22 2.626.89 5.207 1.63 7.735.15.507.92.703 1.01 1.224.07.395-.74.647-.62 1.029.29.917.83 1.905 1.69 2.337.52.264 1.05-.558 1.63-.664.15-.027.42.164.35.302-.39.804-1.8 1.316-1.57 2.18m-945.27-3.228c-.327.016-.693.203-.98.048-.397-.213-.92-.593-.863-1.04.212-1.644.932-3.192 1.601-4.71.22-.494.938-.72 1.031-1.252.067-.383-.525-.603-.642-.974-.106-.335-.186-.757.001-1.055 1.404-2.245 3.031-4.347 4.677-6.423.808-1.02 1.503-2.275 2.672-2.848.415-.204.428.843.476 1.303.07.672.111 1.392-.132 2.022-.208.54-.903.779-1.149 1.304-.973 2.075-1.519 4.33-2.47 6.416-.225.492-.93.722-1.03 1.253-.075.382.781.659.597 1.002m97.742 1.316c-.449-.105-1.334.146-1.346-.314-.01-.457.884-.436 1.33-.333m47.016-.353c-.449-.105-1.334.146-1.346-.314-.01-.456.884-.436 1.33-.332m-107.564-.261c-.492-.018-1.077.233-1.477-.054-1.273-.911-3.193-1.794-3.283-3.356-.089-1.546 1.716-2.624 2.88-3.645 1.287-1.13 2.828-1.954 4.364-2.711.323-.16.756-.131 1.08.028.184.09.251.398.18.592M51.4 220.793c-.054-1.066-.298-2.14-.16-3.198a63.758 63.758 0 0 1 1.637-8.225c1.122-4.217 2.365-8.41 3.88-12.503 1.218-3.298 2.458-6.637 4.305-9.63.28-.452 1.488-.453 1.596.068.134.654-1.066.918-1.26 1.557-.097.313.627.51.532.824-2.647 8.72-6.056 17.199-8.654 25.934-.115.388.771.657.632 1.037m577.998-1.81c.891-.504 1.677-1.274 2.673-1.514.391-.094.64.7 1.033.623.361-.072.277-.728.576-.943 1.875-1.348 4.05-2.261 5.867-3.685 2.27-1.778 3.458-5.911 6.34-5.88 2.505.027 2.71 4.278 4.53 5.998 1.392 1.314 3.203 2.123 4.934 2.939 1.51.71 3.103 1.95 4.738 1.617 3.5-.713 6.685-2.637 9.696-4.557 1.828-1.166 2.982-3.16 4.626-4.573.797-.685 1.888-.981 2.662-1.692 1.214-1.115 1.957-2.702 3.244-3.731.243-.195.48.455.786.506.184.03.344-.164.473-.298 1.947-2.04 3.618-4.354 5.741-6.208.235-.205.522.672.786.506 1.278-.804 2.123-2.16 3.314-3.086.665-.518 1.441-.885 2.216-1.215 2.778-1.186 5.426-3.65 8.43-3.33 1.991.214 2.903 2.858 3.82 4.639 1.571 3.049 2.654 6.348 3.547 9.66.105.389-.545.622-.672 1.004a1.912 1.912 0 0 0-.02 1.09c.445 1.594.965 3.173 1.634 4.686.125.282.406.52.704.603.533.146 1.203.362 1.658.047.926-.641 1.535-1.673 2.097-2.648.781-1.352 1.166-2.903 1.901-4.28.565-1.058 1.45-1.93 1.988-3.001 1.007-2.002 1.365-4.338 2.63-6.19 1.348-1.97 3.19-3.588 5.067-5.066 1.386-1.091 2.907-2.182 4.63-2.567.924-.207 1.923.369 2.688.93.815.598 1.138 1.688 1.856 2.4.315.315.971.228 1.18.62 1.336 2.499 1.93 5.359 3.33 7.822 1.073 1.885 2.496 3.574 4.03 5.108 1.342 1.345 2.891 2.499 4.53 3.464 1.69.995 3.461 1.98 5.381 2.378 1.998.413 4.097.264 6.121.003a30.411 30.411 0 0 0 6.71-1.658c1.092-.407 2.042-1.158 2.917-1.928.418-.368.471-1.044.884-1.417 1.51-1.362 3.477-2.21 4.823-3.733.367-.416.271-1.215-.056-1.663-.28-.386-.965-.533-1.395-.326-4.102 1.973-7.575 5.268-11.89 6.718-2.563.86-5.499.7-8.109 0-2.469-.661-4.68-2.226-6.58-3.936-1.733-1.561-2.95-3.643-4.095-5.677-.826-1.47-1.046-3.213-1.762-4.74a12.545 12.545 0 0 0-1.724-2.7 26.586 26.586 0 0 0-3.284-3.307c-1.065-.898-2.178-1.79-3.447-2.364-.623-.282-1.39-.307-2.048-.123-1.403.393-2.56 1.472-3.977 1.808-.39.092-.712-.864-1.032-.622-2.417 1.825-4.732 3.882-6.52 6.327-2.523 3.45-2.042 10.633-6.28 11.18-3.474.45-2.092-6.694-3.444-9.925-.454-1.086-1.106-2.123-1.945-2.95-1.102-1.083-2.296-2.257-3.782-2.684-1.93-.555-4.017-.227-6.023-.134-.52.024-1.038.217-1.485.483-.573.34-.876 1.122-1.518 1.3-.374.106-.646-.757-1-.597a42.563 42.563 0 0 0-7.69 4.514c-1.636 1.202-2.952 2.793-4.31 4.3-.28.31-.242.863-.574 1.118-2.6 2.005-5.567 3.513-8.116 5.582-2.048 1.662-3.64 3.826-5.62 5.57-1.466 1.29-2.95 2.623-4.69 3.514-.346.177-.612-.61-1-.598-.39.01-.588.589-.974.65-1.013.167-2.133.407-3.08.01-2.105-.878-4.143-2.086-5.756-3.7-1.242-1.241-2.059-2.922-2.552-4.607-.382-1.305-.167-2.732.01-4.08.05-.387.641-.584.651-.974.011-.388-.599-.611-.598-1 0-.39.897-.753.6-1.006-.609-.516-1.593-.74-2.346-.475-.865.304-1.366 1.24-1.916 1.973-.564.754-1.054 1.577-1.4 2.452-.21.529.098 1.232-.239 1.689-.597.809-1.668 1.143-2.375 1.857-.303.305-.293.84-.599 1.144-1.492 1.48-2.996 2.985-4.742 4.155-3.087 2.068-6.256 4.09-9.689 5.512-.428.177-.444-.843-.479-1.305-.126-1.66-.186-3.34 0-4.993.08-.712.74-1.287.783-2.003.024-.388-.745-.641-.599-1.001.927-2.282 2.284-4.372 3.62-6.441.961-1.49 2.024-2.928 3.254-4.205 1.326-1.377 2.743-2.711 4.371-3.714.487-.3 1.2-.28 1.714-.032.67.323.877 1.289 1.551 1.604.284.132.478-.524.792-.51.388.02.623.509 1.002.597.135.032.363-.174.295-.294-.422-.743-1.337-1.19-1.599-2.004-.122-.381.72-.64.623-1.03-.247-.993-.957-1.817-1.54-2.66-.19-.275-.433-.584-.759-.66-.665-.157-1.464-.353-2.048 0-.962.58-1.268 1.92-2.192 2.558-.257.177-.497-.622-.787-.506-.999.399-1.9 1.08-2.63 1.872-2.54 2.756-5.113 5.538-7.118 8.705-1.277 2.015-2.226 4.308-2.615 6.662-.493 2.988-.44 6.09.014 9.085.12.78.96 1.302 1.627 1.723 1.13.712 2.382 1.243 3.664 1.61m-273.898-2.042c-.449-.105-1.334.146-1.346-.314-.01-.456.884-.436 1.33-.332m-211.255-5.546c-.044-1.727-.49-3.49-.132-5.18.24-1.128 1.025-2.12 1.854-2.922.377-.364 1.014-.437 1.531-.352.213.035.228.427.15.628m625.867 1.018c-.448-.105-1.334.146-1.345-.314-.012-.457.884-.436 1.33-.332m101.32-.627c.215-.45.192-1.143.646-1.347.358-.161.62.64 1.01.602.424-.042.69-.506 1-.801.953-.91 1.96-1.78 2.784-2.808.64-.8 1.254-1.664 1.577-2.636.218-.658.131-1.401-.01-2.08-.147-.701-.739-1.27-.837-1.978-.139-1-.37-2.154.142-3.024.348-.591 1.472-.107 1.976-.572 1.197-1.11 1.717-2.833 2.917-3.944.96-.89 2.37-1.15 3.42-1.928 2.21-1.644 4.1-3.714 6.35-5.317 1.43-1.026 2.92-2.183 4.65-2.534.61-.124 1.23.707 1.33 1.322.12.705-.77 1.287-.77 2 .01.729.91 1.315.8 2.035-.21 1.403-1.24 2.56-1.69 3.905-.12.355-.1.76 0 1.124.89 3.55 1.17 7.377 2.94 10.58.83 1.499 2.79 2.07 4.39 2.68.38.142.63-.623 1.03-.623s.65.766 1.03.623c1.58-.61 3.23-1.386 4.33-2.681.38-.451-.85-1.087-.66-1.648.14-.432.87-.397 1.33-.337.38.05.6.77.97.642.76-.265 1.28-.987 1.78-1.61.94-1.155 1.96-2.311 2.52-3.688.15-.361-.68-.624-.6-1.004.08-.361.73-.28.95-.576 1.01-1.378 2.18-2.735 2.71-4.366.22-.685-.83-1.357-.66-2.056.21-.832 1.41-1.151 1.65-1.973.38-1.286.28-2.69.13-4.023-.07-.713-.74-1.287-.78-2.003-.02-.4.76-.653.62-1.03-.6-1.608-1.68-3-2.65-4.416-.58-.842-1.14-1.757-1.98-2.336a9.872 9.872 0 0 0-3.66-1.547c-.39-.078-.63.622-1.03.628-.39.006-.61-.598-1-.598s-.61.606-1 .598c-.41-.007-.64-.683-1.04-.637-2.62.296-5.25.76-7.74 1.63-.49.175-.38 1.052-.81 1.364-1.42 1.04-3.18 1.562-4.6 2.598-.17.119.56.376.38.472-1.87 1.005-4.01 1.435-5.86 2.477-.71.398-1.46.986-1.67 1.77-.19.685.92 1.378.64 2.03-.54 1.25-1.65 2.25-2.8 2.973-.56.35-1.43-.348-1.98.025-1.16.794-1.62 2.352-2.74 3.207-.24.19-.475-.455-.783-.506-.183-.03-.349.158-.472.298-.74.844-1.29 1.855-2.099 2.633-.705.678-1.484 2.036-2.399 1.689-2.95-1.118-5.309-3.448-7.693-5.514-.74-.642-.89-1.772-1.549-2.498-.927-1.021-2.335-1.568-3.15-2.68-.232-.314.113-.814.365-1.113 1.154-1.374 2.63-2.453 3.785-3.827.595-.71.831-1.675 1.432-2.38.341-.4 1.017-.43 1.326-.856.757-1.04 1.422-2.185 1.785-3.418.092-.314-.71-.543-.537-.82.45-.72 1.47-.902 2.016-1.55.653-.775 1.275-1.652 1.516-2.637.095-.39-.618-.628-.623-1.03-.004-.388.522-.62.6-1 .036-.183-.173-.338-.3-.474-.745-.795-1.449-1.644-2.31-2.31-.822-.634-1.665-1.671-2.697-1.558-2.384.262-4.615 1.43-6.714 2.592-1.503.83-2.74 2.086-3.95 3.305-.562.568-.959 1.289-1.316 2.004-1.208 2.422-3.039 4.7-3.369 7.386-.254 2.064 1.396 3.942 1.723 5.996.135.845.182 1.883-.365 2.542-2.523 3.036-5.54 5.64-8.556 8.19-1.234 1.044-2.814 1.6-4.13 2.539-.6.428-.975 1.133-1.59 1.538-1.497.985-3.084 1.83-4.7 2.602-.312.15-.684.134-1.03.134-1.007 0-2.033.073-3.019-.134-.324-.068-.686-.331-.745-.657-1.048-5.797-1.265-11.737-2.536-17.49-.164-.74-.96-1.277-1.669-1.546-.482-.183-1.087.043-1.508.34-.738.519-1.78 1.1-1.819 2.002-.036.857 1.383 1.159 1.651 1.974.318.966.172 2.049.001 3.052-.068.404-.733.608-.69 1.015.33 3.19 1.054 6.33 1.777 9.454.251 1.084.457 2.257 1.138 3.137.888 1.146 1.993 2.354 3.396 2.719 2.284.596 4.884.874 7.08.01 3.62-1.421 6.593-4.155 9.637-6.576 3.953-3.144 7.327-6.98 11.312-10.083.265-.207.281.639.542.849a74.968 74.968 0 0 0 5.734 4.202c.913.602 2.065.814 2.916 1.5.172.14-.557.379-.398.534 1.058 1.026 2.567 1.517 3.596 2.572.317.324.02.935.222 1.339.25.497 1.353.782 1.082 1.266-1.032 1.84-2.968 3-4.362 4.585-.958 1.089-1.91 2.199-2.686 3.425-.184.29-.126.68-.132 1.026-.009.545-.233 1.19.086 1.633.57.786 1.45 1.352 2.344 1.729.631.265 1.368.185 2.05.12m-725.778-6.231c-.515-1.074-1.336-2.05-1.545-3.222-.06-.342.676-.285.87-.572.722-1.064 1.42-2.178 1.822-3.4.218-.66.135-1.404-.013-2.083-.083-.382-.725-.591-.65-.975.107-.561.817-.82 1.091-1.322 1.226-2.248 1.326-5.378 3.39-6.894 1.147-.844.471 2.877.18 4.27-.23 1.1-1.403 1.832-1.686 2.918-.1.388.541.619.665 1 .114.345.121.74.021 1.09-.475 1.659-1.297 3.208-1.73 4.878-.227.873.205 1.908-.236 2.694m400.644-.316c-.449-.105-1.334.146-1.346-.314-.012-.457.884-.436 1.33-.333m360.025-1.332c-1.03.004-2.14.424-3.08.013-1-.436-1.78-1.376-2.27-2.35-.17-.348.62-.613.6-1.001-.05-.716-.75-1.287-.79-2.004-.18-3.347-.27-6.728.12-10.058.31-2.593.6-5.36 1.98-7.582.89-1.452 2.78-2.026 4.36-2.678.3-.125.52.656.82.534.63-.247.78-1.645 1.41-1.425 1.82.637 3.33 2.058 4.58 3.522.86 1.007 1.29 2.358 1.55 3.657.08.396-.63.63-.63 1.034 0 .406.71.64.63 1.039-.59 2.958-1.54 5.84-2.57 8.675-.19.52-.95.742-1.06 1.285-.08.382.81.68.6 1.004-.72 1.084-2.05 1.62-2.96 2.547m142.92 2.672c2.57-1.233 5.38-2.057 7.71-3.7 2.25-1.585 4.2-3.627 5.82-5.845 1.22-1.662 1.93-3.664 2.58-5.62.21-.658.13-1.404-.02-2.083-.08-.382-.65-.583-.65-.974s.6-.587.65-.974c.18-1.35.32-2.756.01-4.08-.23-.997-.9-1.863-1.58-2.636-1.26-1.453-5.38-2.493-4.17-3.988 2.52-3.113 7.44-2.977 11.11-4.574 1.37-.595 2.72-1.241 4-1.998.48-.283.73-.925 1.25-1.101.66-.221 1.42-.201 2.09-.014 1.28.358 2.5.957 3.66 1.615.44.248.8.64 1.07 1.066.94 1.496 1.97 2.98 2.53 4.656.13.379-.61.627-.62 1.028 0 .388.61.612.6 1-.01.39-.57.592-.65.974-.15.679-.26 1.432-.02 2.084.97 2.636 1.78 5.474 3.58 7.626 1.76 2.095 4.11 3.904 6.74 4.678 2.91.86 6.1.41 9.11.007 2.86-.385 5.65-1.301 8.34-2.353 4.47-1.744 8.75-3.931 13.06-6.01.88-.421 1.74-.893 2.51-1.484.54-.412 1.17-.851 1.38-1.496.23-.714.49-1.882-.17-2.244-.6-.333-.98 1.102-1.65 1.238-.86.172-1.78-.704-2.59-.386-4.27 1.674-8.04 4.44-12.27 6.21-2.76 1.154-5.7 1.842-8.61 2.525-.68.158-1.41.13-2.09-.017-.38-.083-.58-.651-.97-.651s-.59.589-.97.65c-1.02.167-2.15.436-3.08.01-1.87-.848-3.15-2.664-4.95-3.66-.26-.145-.64.776-.76.499-1.14-2.616-2.09-5.35-2.58-8.161-.12-.72.74-1.312.81-2.04.05-.515-.2-1.035-.47-1.481-.34-.574-1.12-.876-1.3-1.517-.1-.375.78-.656.6-1.002-.91-1.76-2.1-3.431-3.58-4.75-1.01-.902-2.53-1.01-3.69-1.721-.51-.316-1.4-.733-1.24-1.315.22-.817 1.47-.9 2.02-1.546.65-.775 1.28-1.65 1.51-2.638.09-.393-.57-.612-.67-1.003-.22-.863.2-1.892-.25-2.66-.5-.835-1.4-1.52-2.35-1.728-1.86-.406-3.84-.376-5.71-.032-.75.138-1.08 1.186-1.81 1.414-.51.159-1.04-.465-1.56-.362-.42.084-.74.493-.97.86-.28.443-.46.966-.49 1.485-.08 1.673-.18 3.38.15 5.023.07.366.72.275.97.547.63.674 1.66 1.317 1.63 2.238-.03.698-1.12.863-1.75 1.148-2.71 1.206-5.56 2.079-8.26 3.31-.49.224-.72.929-1.25 1.03-.38.074-.62-.67-1-.598-.52.097-.73.844-1.23 1.014-2.18.732-4.42 1.406-6.71 1.65-.71.077-1.33-.595-2.03-.717-.68-.115-1.47-.34-2.05.015-.32.192.46.807.22 1.09-.61.722-1.9.694-2.4 1.49-.25.394.27 1.03.7 1.202 2.95 1.17 6.11 1.692 9.11 2.702.74.247 1.48.563 2.07 1.06 1.34 1.13 2.93 2.18 3.67 3.767.58 1.222.18 2.712 0 4.052-.05.387-.64.583-.65.974 0 .403.71.639.63 1.034-.27 1.312-.86 2.56-1.58 3.69a16.03 16.03 0 0 1-2.97 3.48c-.17.152-.38-.557-.56-.408-1 .836-1.55 2.125-2.53 2.989-.77.678-1.71 1.149-2.64 1.577-.32.149-.7.124-1.06.123-.67-.003-1.37.048-2.02-.133-.37-.105-.55-.673-.94-.695-.62-.035-1.38 1.018-1.78.542-2.01-2.415-4.33-5.09-4.6-8.217-.41-4.716 2.04-9.255 2.68-13.945.06-.4-.6-.632-.63-1.035-.02-.311.69-.53.51-.786-.51-.728-1.29-1.376-2.16-1.572-.63-.143-1.42.168-1.84.673-1.12 1.364-1.92 2.996-2.53 4.652-.11.294.74.564.52.783-1.42 1.383-3.41 2.087-4.86 3.437-.76.704-.86 1.983-1.67 2.619-2.25 1.748-5.02 2.719-7.33 4.383-.69.496-.84 1.562-1.56 2.017-.26.168-.46-.46-.76-.55a1.75 1.75 0 0 0-1.05-.001c-.37.126-.57.558-.94.685-.34.118-.75.154-1.09.014-.94-.395-1.92-.832-2.63-1.571-1.84-1.927-3.4-4.12-4.91-6.315-.68-.986-.91-2.251-1.65-3.193-1.16-1.486-2.42-2.987-4-4.01-1.41-.9-3.08-1.803-4.74-1.612-2.4.276-4.58 1.65-6.64 2.922-.8.492-.98 1.642-1.7 2.23-2.08 1.683-4.11 3.652-6.64 4.516-.77.262-1.3-1.003-1.82-1.633-.66-.815-1.04-1.836-1.69-2.662-1.16-1.48-2.28-3.038-3.74-4.236-.24-.198-.51.653-.78.506-2.46-1.318-4.35-3.632-6.95-4.654-.98-.387-2.02.684-3.08.699-.39.005-.58-.634-.97-.642-.39-.01-.61.607-1 .598-.39-.008-.6-.524-.97-.642-.35-.11-.76-.161-1.08-.013-1.62.72-3.38 1.324-4.63 2.567-2.06 2.04-3.52 4.612-5.07 7.06-.73 1.159-1.06 2.536-1.74 3.72-.47.807-.77 2.233-1.7 2.224-.75-.008-.28-1.501-.16-2.241.11-.707.77-1.265.83-1.978.22-2.32.46-4.704.01-6.99-.47-2.356-1.29-4.734-2.7-6.683-1.17-1.628-2.96-2.794-4.76-3.674-.91-.443-2.02-.213-3.03-.133-.46.037-1.1.06-1.3.478-.17.353.6.616.6 1.006 0 .389-.64.614-.6 1 .04.424.44.765.8.998 1.37.895 3.14 1.202 4.32 2.345.99.969 1.36 2.425 1.89 3.709.65 1.605 1.45 3.212 1.63 4.935.08.672-.7 1.17-.89 1.816-.72 2.349-1.51 4.7-1.82 7.134-.08.717.69 1.34.67 2.063-.02.717-.71 1.29-.79 2.003-.18 1.654-.12 3.334 0 4.993.04.519.21 1.043.49 1.485.23.368.55.772.97.86.51.107 1.09-.044 1.51-.34.9-.624 1.79-1.367 2.31-2.324 2.76-4.996 4.69-10.416 7.46-15.402.59-1.055 1.78-1.644 2.53-2.585.62-.764.85-1.821 1.55-2.498.75-.711 1.65-1.564 2.68-1.541 2.47.056 4.84.985 7.18 1.765 1.24.415 2.4 1.083 3.49 1.797 1.04.67 2.08 1.389 2.87 2.334 1.86 2.219 3.15 4.877 5.02 7.086.64.754 1.44 1.67 2.43 1.705 1.02.035 1.93-.82 2.67-1.53 1.07-1.033 1.52-2.614 2.64-3.593 1.6-1.401 3.68-2.154 5.38-3.43 1.21-.905 2-2.34 3.31-3.084.34-.193.59.557.97.652.87.216 2.05-.381 2.67.255 2.3 2.319 3.54 5.496 5.55 8.059.53.665 1.56.837 2.02 1.549.17.262-.46.479-.51.787-.03.183.16.354.3.47.51.415 1.17.637 1.63 1.1.66.654.93 1.672 1.68 2.209a9.347 9.347 0 0 0 3.63 1.584c1.55.298 3.18.355 4.72.028.75-.16 1.12-1.09 1.82-1.416.18-.086.35.423.52.32a58.694 58.694 0 0 0 6.69-4.513c2.01-1.573 3.69-3.538 5.67-5.15.16-.136.51-.166.64.008.27.388.4.913.34 1.384-.05.386-.63.585-.64.973-.01.388.6.612.6 1-.01.403-.71.639-.63 1.034.29 1.393 1.37 2.539 1.66 3.932.08.395-.54.64-.63 1.034-.04.183.19.324.3.473 1.5 2.016 2.65 4.35 4.53 6.022 1.2 1.078 3 1.223 4.43 1.973.4.206.59.735 1.01.874m-646.647-11.297c-.208-.682-.617-1.333-.622-2.045-.003-.39.521-.62.598-1.001.037-.183-.169-.34-.299-.474-.964-.987-1.776-2.193-2.974-2.876-.594-.338-1.472-.351-2.05.014-.326.205.405.785.236 1.13-.298.607-1.475.716-1.473 1.392.001.969.91 1.719 1.48 2.504.193.267.451.586.781.607.312.02.506-.64.79-.507.673.316.85 1.354 1.551 1.604m-252.314-.103c-.17-.43-.505-.825-.508-1.286-.006-.786-.064-1.741.481-2.306.322-.335.48.842.483 1.306m767.547.286c-.12-.437-.35-.858-.36-1.31 0-.146.25-.405.33-.282.24.387.32.875.33 1.332m-21.3-4.74c-.12-.437-.35-.858-.36-1.31 0-.146.25-.405.33-.282.24.387.32.875.33 1.332m-2.3-.74c-.12-.437-.35-.858-.36-1.31 0-.146.25-.405.33-.282.24.387.32.875.33 1.332m364.72-1.708c-.46-.113-1.4.13-1.37-.34.05-.887.73-1.77 1.51-2.197.36-.2.3.8.28 1.216M864.634 167c-.784-1.103-1.993-2.005-2.354-3.31-.15-.545.816-.808 1.08-1.31.915-1.742 1.176-3.867 2.436-5.381 1.14-1.37 3.06-1.838 4.472-2.921.601-.461.771-1.67 1.53-1.681.905-.012 1.55.975 2.175 1.63.151.158.117.467.008.656-1.886 3.26-3.669 6.607-5.946 9.608m415.614 1.683c-.45-.105-1.33.146-1.34-.314-.02-.456.88-.436 1.32-.332m-211.98-.354c-.45-.105-1.33.146-1.35-.314-.01-.457.89-.436 1.33-.332m-113.98-2.354c-.45-.105-1.33.146-1.35-.314-.01-.457.89-.436 1.33-.332m284.01-.381c-.12-.437-.35-.858-.36-1.31 0-.146.25-.405.33-.282.24.387.32.875.33 1.332m39.71-1.713c-.46-.095-1.12.109-1.38-.285-.24-.384-.09-1.17.33-1.333.41-.153.77.463 1.01.827m-20.96.79c-.45-.104-1.33.147-1.35-.313-.01-.457.89-.436 1.33-.333m19.02-1.353c-.45-.105-1.33.146-1.34-.314-.02-.456.88-.436 1.32-.332m-409.98-3.354c-.448-.105-1.334.147-1.345-.314-.01-.457.884-.436 1.33-.332m313.945-1.961c.12.437.35.858.36 1.31 0 .146-.25.405-.33.282-.25-.387-.32-.875-.33-1.333m-98.89-5.795c-.59-.564-1.28-1.041-1.78-1.691-.24-.31-.59-.791-.37-1.114.55-.794 1.42-1.381 2.32-1.73.64-.252 1.48-.33 2.08.019.4.235.52.95.31 1.37m-235.384 1.287c.462-.43 1.311-.662 1.385-1.288.111-.931-.353-1.91-.915-2.66-.587-.783-1.459-1.378-2.373-1.728-.647-.25-1.643-.52-2.08.018-.634.778-.942 2.167-.365 2.987m4.418 1.646c-.119-.437-.35-.858-.358-1.31-.002-.146.255-.405.332-.282.245.387.324.875.332 1.332m-832.874-.005c2.03-1.524 4.38-2.692 6.086-4.571 1.48-1.63 2.272-3.774 3.27-5.736.893-1.754 1.445-3.672 2.394-5.396.718-1.304 1.84-2.354 2.584-3.644 1.098-1.905 2.121-3.866 2.924-5.913 1.464-3.734 1.872-7.913 3.861-11.396.893-1.563 2.768-3.818 4.42-3.102 2.192.95 1.963 4.373 3.211 6.41 1.5 2.45 3.241 4.749 5.007 7.013.496.636.99 1.419 1.76 1.66 1.162.368 2.54.533 3.658.047.89-.386 1.398-1.443 1.69-2.37.12-.381-.626-.626-.622-1.027.004-.388.523-.601.641-.971.111-.345.134-.744.02-1.088-.452-1.346-1.403-2.518-1.69-3.907-.083-.395.667-.603.671-1.007.007-.708-.632-1.318-.642-2.027-.006-.388.598-.611.598-1 0-.39-.62-.612-.598-1 .04-.712.877-1.292.77-1.997-.267-1.737-1.326-3.261-1.832-4.944-.104-.347-.164-.775.02-1.088.406-.693.998-1.287 1.651-1.756 1.008-.723 2.29-1.016 3.27-1.776.682-.528.796-1.761 1.62-2.017.656-.203 1.161 1.102 1.83.947 1.258-.29 2.107-1.502 3.242-2.116 1.104-.597 2.355-.895 3.453-1.503.485-.27.705-.99 1.25-1.101 1.321-.275 2.713-.183 4.051-.001.706.096 1.262.794 1.974.82.636.025 1.285-1.07 1.785-.676 2.545 2.003 4.621 4.58 6.514 7.207.228.316-.598.612-.598 1 0 .39.607.613.598 1-.008.389-.524.602-.642.972-.109.344-.156.752-.013 1.084.441 1.03 1.47 1.798 1.718 2.89.424 1.859-.227 3.867.244 5.714.183.72 1.593.805 1.605 1.549.012.783-1.455.987-1.553 1.765-.17 1.358.854 2.654.826 4.023-.022 1.053-.857 1.96-.969 3.007-.214 2.003-.568 4.11.003 6.042.316 1.07 1.355 2.082 2.454 2.277.76.135 1.526-.792 1.73-1.535.958-3.494 1.342-7.134 1.638-10.745.035-.421-.783-.67-.669-1.076.81-2.9 2.103-5.644 3.314-8.4.395-.898.897-1.758 1.493-2.538.411-.54.847-1.183 1.496-1.38.973-.295 2.148-.466 3.052 0 1.441.744 2.425 2.164 3.497 3.38 1.17 1.327 2.322 2.697 3.211 4.227.762 1.314 1 2.88 1.7 4.228.59 1.134 1.35 2.178 2.148 3.177.467.586 1.305.874 1.628 1.55.136.283-.457.483-.508.792-.03.184.18.33.298.473 1.173 1.402 2.281 2.866 3.574 4.158a13.52 13.52 0 0 0 2.698 2.114c1.153.676 2.35 1.4 3.67 1.619 2.011.332 4.125.436 6.117 0 2.012-.442 3.842-1.532 5.62-2.574 1.07-.628 1.824-1.697 2.851-2.393 1.08-.732 2.418-1.057 3.437-1.871.701-.561.972-1.526 1.607-2.162 2.053-2.055 4.467-3.742 6.428-5.885.348-.38.508-1.021.34-1.508-.202-.586-.772-1.016-1.315-1.315-.307-.17-.777-.207-1.052.012-.21.167-.107.572.026.805.33.582.976.944 1.3 1.53.068.125-.134.325-.276.325-.514-.001-1.054-.084-1.506-.328-.588-.316-.938-1.624-1.522-1.301-2.143 1.187-3.449 3.488-5.307 5.084-1.99 1.709-3.969 3.476-6.223 4.82-2 1.192-4.19 2.095-6.433 2.724-.388.109-.63-.627-1.034-.63-.4 0-.66.782-1.029.624-2.32-1-4.707-2.106-6.515-3.87-1.308-1.276-1.522-3.332-2.468-4.896-.87-1.44-2.067-2.662-2.965-4.085-.839-1.331-1.413-2.816-2.236-4.158-1.045-1.702-2.143-3.377-3.36-4.96-.563-.731-1.2-1.43-1.958-1.953-1.052-.73-2.152-1.534-3.41-1.766-1.995-.368-4.21-.76-6.085.014-1.929.795-2.859 3.06-4.499 4.35-.26.205-.863.272-.99-.033-1.164-2.778-1.593-5.816-2.64-8.64a18.737 18.737 0 0 0-2.057-4.01c-.556-.82-1.324-1.484-2.098-2.101-1.163-.928-2.312-1.952-3.689-2.514-.36-.147-.613.609-1 .598-.392-.01-.589-.591-.975-.652-1.325-.208-2.689-.276-4.023-.132-.713.077-1.287.75-2.003.784-.388.019-.602-.525-.973-.642-.335-.106-.737-.15-1.055 0-.49.232-.735.842-1.226 1.075-1.52.722-3.194 1.079-4.735 1.757-2.604 1.149-5.232 2.278-7.688 3.718-.9.528-1.413 1.575-2.296 2.135-.296.188-1.017.337-1.052-.012-.18-1.774.577-3.544.51-5.327-.027-.716-.749-1.287-.784-2.003-.02-.405.694-.638.634-1.04-.302-2.028-1.368-3.892-1.67-5.921-.06-.401.627-.633.634-1.04.007-.388-.62-.611-.598-1 .04-.712.768-1.285.768-2 0-.713-.728-1.286-.768-2-.022-.387.598-.61.598-1 0-.388-.605-.61-.598-1 .007-.405.707-.639.634-1.038-.604-3.294-1.579-6.515-2.604-9.703-.094-.294-.414-.5-.707-.6-.332-.113-.765-.202-1.05 0-.89.626-1.795 1.364-2.273 2.341-.177.36.722.641.622 1.03-.28 1.088-1.459 1.834-1.646 2.942-.12.719.687 1.313.807 2.032.111.667.04 1.37-.132 2.023-.098.378-.646.583-.65.974-.007.4.725.642.621 1.028-.38 1.405-1.533 2.51-1.959 3.902-1.105 3.618-1.524 7.422-2.607 11.047-.793 2.655-1.749 5.28-3.008 7.748-.356.698-.982 1.409-1.748 1.574-.699.15-1.287-.776-2-.768-.712.008-1.263.79-1.974.812-.706.02-1.305-.575-2-.695-.684-.118-1.467-.332-2.08-.01-2.38 1.247-4.5 2.946-6.637 4.577-.64.489-1.439.983-1.66 1.759-.376 1.307-.32 2.756-.012 4.08.232.997.944 1.83 1.577 2.636.673.856 1.342 1.81 2.31 2.31.46.237 1.007-.436 1.515-.337 2.187.427 4.312 1.145 6.415 1.883.12.042.076.26.027.378-1.504 3.62-3.02 7.238-4.669 10.795a127.727 127.727 0 0 1-4.02 7.958c-.276.5-.98.762-1.092 1.322-.079.394.718.64.622 1.03-.247.994-.77 1.98-1.538 2.66-2.043 1.81-4.383 3.27-6.729 4.667-.32.19-.768.137-1.116.004-1.924-.732-3.856-1.501-5.617-2.567-.85-.515-1.54-1.294-2.112-2.11-.954-1.363-1.46-3.008-2.422-4.367-.63-.89-1.463-1.63-2.312-2.314-.206-.166-.536-.286-.774-.173-.784.372-1.63.808-2.099 1.538-.299.467-.284 1.217.047 1.66.948 1.279 2.533 1.969 3.553 3.19.151.182-.519.366-.412.577.3.595 1.117.816 1.416 1.412.107.213-.557.39-.414.582a21.877 21.877 0 0 0 3.76 3.884c1.337 1.077 2.747 2.2 4.392 2.69 1.614.48 3.368.21 5.05.123m256.464-3.462c.946-1.007 2.167-1.815 2.84-3.022.188-.34-.772-.653-.599-1.002 2.15-4.344 4.997-8.31 7.315-12.567 1.36-2.498 2.617-5.057 3.712-7.682 1.987-4.768 3.578-9.694 5.526-14.478a29.85 29.85 0 0 1 2-4c.733-1.234 1.78-2.268 2.477-3.524.73-1.315.926-2.906 1.775-4.146.167-.244.79.1.791.396.003.718-.735 1.289-.782 2.006-.176 2.677-.37 5.412.123 8.05.441 2.357 1.62 4.523 2.634 6.696.64 1.368 1.24 2.83 2.312 3.894 1.217 1.206 2.762 2.105 4.362 2.718.95.364 2.036.203 3.05.123.52-.041 1.051-.196 1.486-.483 1.132-.747 2.258-1.555 3.152-2.576 1.371-1.566 2.286-3.487 3.581-5.116.763-.96 1.861-1.63 2.574-2.626.967-1.355 1.5-2.983 2.422-4.368.421-.632 1.218-.973 1.582-1.64 1.664-3.042 2.8-6.355 4.457-9.401.33-.606 1.136-2.074 1.461-1.465 1.438 2.699 1.354 5.989 2.47 8.837.252.647 1.377.729 1.537 1.405.113.477-1.16.698-.936 1.134.88 1.707 2.305 3.11 3.764 4.357a8.579 8.579 0 0 0 3.42 1.786c.403.102.66-.753 1.063-.652 1.103.277 1.855 1.85 2.978 1.666 3.101-.511 6.036-1.954 8.717-3.594 2.238-1.368 4.077-3.335 5.82-5.295.83-.933 1.08-2.266 1.807-3.281.376-.525 1.167-.7 1.456-1.277.121-.241-.674-.444-.492-.643.647-.71 1.74-2.15 2.454-1.51 1.373 1.23.981 3.566 1.725 5.25.865 1.96 1.77 3.946 3.08 5.64.981 1.269 2.291 2.298 3.68 3.099 1.45.835 3.182 1.053 4.71 1.736.404.18.595.79 1.035.83.387.038.603-.524.974-.641a1.907 1.907 0 0 1 1.054 0c.69.188 1.273.703 1.977.827a4.494 4.494 0 0 0 2.055-.118c1.28-.39 2.481-1.007 3.67-1.62 4.356-2.248 8.836-4.302 12.956-6.96 2.505-1.613 4.647-3.74 6.814-5.786 1.07-1.01 2.01-2.16 2.867-3.355.124-.173.117-.461-.002-.637-.354-.525-.745-1.124-1.337-1.35-.426-.162-1.11-.066-1.327.336-.187.345.508.63.6 1.012.034.138-.134.343-.275.324-.7-.093-1.435-1.018-2.026-.63-3.437 2.26-5.977 5.695-9.32 8.092-1.61 1.153-3.686 1.482-5.406 2.46-1.52.866-2.682 2.32-4.273 3.047-.364.167-.642-.726-1.029-.622-1.083.29-1.88 1.246-2.915 1.679-.344.144-.757.097-1.119.008-2.029-.498-4.123-.873-6.015-1.758-1.69-.79-3.46-1.717-4.592-3.2-1.395-1.827-2.097-4.127-2.698-6.345-.353-1.306-.265-2.713-.117-4.058.08-.712.752-1.287.784-2.003.017-.39-.569-.592-.65-.974-.148-.678-.21-1.416-.01-2.08.712-2.38 2.494-4.467 2.71-6.942.112-1.276-1.08-2.336-1.807-3.39-.099-.143-.363-.06-.52.011-.528.236-1.21.383-1.488.889-.933 1.695-1.04 3.77-2 5.448-.657 1.146-2.064 1.725-2.752 2.852-.417.683-.109 1.63-.434 2.363-1.139 2.567-2.156 5.273-3.925 7.455-2.497 3.08-5.514 5.754-8.699 8.118-1.684 1.249-3.646 2.372-5.732 2.592-1.34.142-2.606-.83-3.717-1.593-1.19-.818-2.21-1.9-3.064-3.065-1.043-1.425-2.007-2.958-2.573-4.63-.39-1.154.212-2.513-.23-3.648-.273-.697-1.69-.665-1.745-1.411-.049-.666 1.551-.608 1.546-1.277-.016-2.363-.835-4.67-1.6-6.905-.3-.874-.785-1.78-1.55-2.296-.475-.32-1.429-.4-1.715.096-2.539 4.398-3.956 9.37-6.34 13.854-1.849 3.478-4.064 6.758-6.332 9.979-1.274 1.81-2.977 3.29-4.273 5.084-.766 1.06-1.032 2.45-1.885 3.44-.348.406-.987.454-1.518.515-.99.113-2 .11-2.993 0-.527-.06-1.134-.133-1.51-.508-.63-.627-1.002-1.487-1.325-2.316-.967-2.488-2.024-4.978-2.53-7.6-.138-.708.646-1.34.661-2.061.008-.388-.598-.612-.598-1 0-.39.598-.611.598-1 0-.39-.598-.612-.598-1 0-.39.606-.612.598-1-.008-.407-.675-.636-.639-1.042.323-3.676 1.862-7.254 1.691-10.94-.063-1.354-.999-3.373-2.353-3.316-1.725.073-2.727 2.18-3.747 3.573-.792 1.079-1.316 2.379-1.58 3.69-.08.397.708.642.628 1.038-.074.366-.705.308-.957.583-.455.499-.79 1.098-1.116 1.689-1.539 2.79-2.84 5.714-4.476 8.45-.369.617-1.21.892-1.499 1.55-2.774 6.302-4.736 12.946-7.63 19.193-2.383 5.14-2.786 13.148-8.173 14.904-3.698 1.206-2.129-7.5-2.783-11.333-.068-.4.55-.625.677-1.01.116-.345.098-.735.023-1.092-.487-2.317-1.399-4.548-1.702-6.897-.054-.421.725-.66.675-1.08-.639-5.338-1.91-10.582-2.708-15.898-.185-1.23.12-2.53-.236-3.721-.219-.737-1.11-1.114-1.416-1.82-.339-.785-.4-1.671-.462-2.525-.049-.674-.182-1.425.133-2.022.485-.923 1.514-1.447 2.136-2.284.611-.822 1.28-1.67 1.537-2.66.086-.332-.356-.61-.633-.812-.826-.605-1.642-1.327-2.635-1.58-1.308-.334-2.725-.395-4.048-.124a44.585 44.585 0 0 0-8.726 2.735c-1.726.746-3.259 1.903-4.726 3.078-1.9 1.522-3.775 3.118-5.339 4.983-1.314 1.567-2.275 3.409-3.22 5.223-1.214 2.333-2.029 4.86-3.245 7.19-.232.444-.666.755-1.06 1.062-2.629 2.049-5.225 4.153-8 6-2.21 1.47-4.456 2.96-6.926 3.93-3.125 1.23-6.425 2.009-9.727 2.618-.398.073-.632-.626-1.037-.632-.389-.007-.618.658-1.003.597-.329-.052-.264-.655-.54-.841-1.979-1.335-4.154-2.36-6.147-3.672-.43-.284-.784-.683-1.095-1.095-.896-1.188-1.952-2.312-2.514-3.69-.148-.36.658-.618.597-1.003-.052-.33-.655-.264-.84-.54-.72-1.065-1.524-2.148-1.818-3.398-.15-.636.654-1.223.577-1.872-.057-.486-1.075-.664-.934-1.133.21-.695.991-1.18 1.69-1.375.385-.107.627.625 1.027.62.388-.004.584-.63.973-.642.635-.02 1.2.675 1.823.555.681-.132 1.006-1.057 1.678-1.232.526-.137 1.056.505 1.585.38 1.3-.304 2.59-.821 3.666-1.611 1.543-1.132 2.807-2.612 4.06-4.06 1.278-1.476 2.624-2.95 3.514-4.688.178-.347-.728-.635-.598-1.002.286-.808 1.212-1.235 1.65-1.973.177-.297.16-.684.134-1.03-.09-1.167.187-2.518-.483-3.478-.93-1.337-2.382-2.432-3.948-2.88-1.957-.561-4.14-.527-6.108 0-3.043.815-5.839 2.405-8.59 3.938-.823.458-1.443 1.23-2.02 1.974-1.113 1.433-2.213 2.903-3.026 4.526-.768 1.533-1.279 3.195-1.677 4.864a4.593 4.593 0 0 0 .015 2.086c.09.38.692.555.695.947.004.724-.795 1.35-.676 2.064.573 3.42 1.543 6.779 2.701 10.048.7 1.973 1.705 3.843 2.844 5.599.59.91 1.442 1.634 2.286 2.314 1.085.874 2.17 1.832 3.473 2.325.375.142.635-.681 1.032-.621.337.05.27.672.553.86.747.497 1.591.849 2.442 1.13 1.97.65 3.93 1.796 6 1.66 3.038-.197 5.926-1.484 8.75-2.624 1.873-.756 3.368-2.296 5.251-3.027.363-.141.681.819 1.001.598 1.306-.9 1.947-2.555 3.216-3.507.25-.187.515.659.787.506 1.073-.606 1.696-3.164 2.73-2.493 1.78 1.154 1.31 4.09 2.471 5.865.761 1.163 1.836 2.278 3.15 2.728 1.473.505 3.22.515 4.672-.047 2.102-.813 3.987-2.25 5.525-3.898 2.766-2.962 4.924-6.442 7.238-9.77 1.271-1.827 2.621-3.641 3.51-5.682.156-.358-.793-.667-.598-1.005.432-.747 1.24-1.774 2.074-1.551.954.255 1.304 1.566 1.553 2.522.101.39-.622.63-.627 1.033-.006.388.605.612.598 1-.006.405-.7.638-.632 1.037.296 1.708 1.382 3.216 1.666 4.926.07.416-.744.66-.668 1.076.612 3.37 2.056 6.553 2.668 9.924.072.4-.618.609-.686 1.01-.168 1.004-.316 2.087.002 3.053.267.815 1.468 1.136 1.65 1.973.153.7-.707 1.29-.784 2.004-.144 1.334-.088 2.7.133 4.023.064.386.696.555.695.947-.004 1.056-.816 2.038-.708 3.09.25 2.434 1.056 4.782 1.757 7.127.234.782.293 1.883 1.037 2.219m902.601-3.947c-.42-.092-1.5.072-1.25-.276.79-1.105 1.93-2.067 3.22-2.487.44-.141.5.9.34 1.328-.22.585-.79.997-1.32 1.326m-1.01-2.698c-.42-.488-1.43-.843-1.26-1.465.22-.826 1.55-.841 2.06-1.527a18.243 18.243 0 0 0 2.51-4.633c.11-.304-.71-.55-.53-.814.52-.728 1.34-1.8 2.19-1.538.77.237.71 1.585.5 2.365-.23.886-1.35 1.316-1.69 2.167-.12.29.69.535.51.792m-349.344 3.313c.798-.762 1.732-1.403 2.393-2.287.216-.288.278-.75.122-1.074-.397-.823-1.345-1.315-1.682-2.164-.116-.292.524-.48.51-.792-.02-.387-.606-.61-.599-.998.008-.406.69-.637.636-1.04-.306-2.353-1.366-4.567-1.673-6.92-.053-.403.637-.634.636-1.04 0-.388-.525-.602-.642-.973a1.717 1.717 0 0 1 0-1.054c.13-.37.59-.57.695-.947.181-.651.247-1.357.132-2.022-.123-.704-.794-1.263-.827-1.977-.032-.708.641-1.318.642-2.027.001-.407-.682-.637-.638-1.041.345-3.188 1.075-6.326 1.775-9.455.191-.854.836-1.597.892-2.471.027-.42-.734-.658-.665-1.073.618-3.697 2.054-7.226 2.67-10.923.066-.402-.597-.614-.685-1.011a4.845 4.845 0 0 1 0-2.052c.082-.382.646-.583.651-.974.005-.403-.657-.632-.627-1.033.066-.874.703-1.616.891-2.471.677-3.071 1.087-6.196 1.7-9.28.052-.27.047-.65.295-.768 3.053-1.442 6.13-2.916 9.387-3.804.704-.192 1.37.833 2.083.678 2.345-.51 4.533-1.6 6.718-2.594.293-.133.773-.459.62-.741-.529-.962-1.289-1.947-2.312-2.343-.67-.26-1.335.65-2.054.655-.405.003-.64-.717-1.037-.632-4.314.928-8.356 4.097-12.74 3.597-1.807-.206-1.302-3.428-1.557-5.228-.042-.3.671-.227.743-.52.85-3.443 1.42-6.95 1.961-10.454.107-.688.141-1.41-.018-2.088-.09-.38-.565-.576-.694-.945a1.725 1.725 0 0 1-.019-1.089c.45-1.345 1.402-2.517 1.69-3.906.082-.395-.668-.603-.672-1.007-.007-.709.64-1.318.642-2.027.002-.405-.717-.642-.632-1.037 1.221-5.654 2.865-11.21 4.477-16.766.584-2.011.93-4.186 2.105-5.919.85-1.253 2.386-1.882 3.697-2.64.305-.177.72-.22 1.054-.109 1.284.427 2.528.997 3.692 1.688.921.547 1.898 1.124 2.516 1.999.187.264-.626.505-.53.814.331 1.072 1.402 1.83 1.684 2.916.34 1.306.401 2.727.123 4.048-.299 1.425-1.472 2.56-1.808 3.977-.093.39.617.628.622 1.029.005.39-.96.863-.598 1.004.73.283 1.623-.682 2.324-.334.404.2-.359.851-.368 1.302-.009.466-.092 1.133.314 1.362.448.254 1.062-.076 1.508-.332.375-.214.78-.572.82-1.002.038-.402-.713-.64-.628-1.035.3-1.387 1.48-2.504 1.694-3.907.361-2.345.47-4.791 0-7.117-.407-2.019-1.505-3.856-2.572-5.618-.516-.851-1.293-1.544-2.11-2.112-1.449-1.008-2.936-2.075-4.629-2.573-1.314-.387-2.798-.399-4.108 0-1.743.53-3.359 1.524-4.753 2.696-.89.749-1.466 1.844-1.92 2.916a76.613 76.613 0 0 0-3.304 9.397c-1.075 3.867-1.842 7.816-2.577 11.762-.71 3.821-1.46 7.652-1.759 11.528-.057.737.77 1.367.705 2.104-.265 3.013-1.376 5.908-1.677 8.918-.043.423.718.658.678 1.082a54.576 54.576 0 0 1-1.638 9.147c-.074.276-.42-.504-.704-.485-.387.025-.61.603-.997.596-.406-.007-.638-.697-1.039-.634-3.959.615-7.872 1.539-11.729 2.62-.512.144-.707.926-1.23 1.014-.384.065-.603-.523-.973-.642-.346-.11-.745-.135-1.089-.018-1.339.459-2.488 1.472-3.88 1.721-.71.127-1.384-.907-2.06-.66-1.02.374-1.778 1.342-2.342 2.27-.232.383-.018.92.155 1.332.356.851.833 1.66 1.402 2.388.495.633 1.063 1.246 1.757 1.651.303.177.886.297 1.053-.011.218-.402-.564-.945-.324-1.334.585-.948 1.513-1.709 2.51-2.207.293-.147.511.637.825.54 2.068-.647 3.852-2.058 5.936-2.651.387-.11.61.586 1.002.674.678.151 1.418.212 2.084.013 2.37-.706 4.516-2.072 6.908-2.694.39-.102.63.622 1.034.628.388.006.627-.706 1-.599.593.17 1.266.66 1.342 1.272.128 1.037-.802 1.983-.81 3.028-.008.714.764 1.287.765 2.001.001.306-.639.23-.763.51-.776 1.757-1.52 3.561-1.869 5.45-.077.415.723.657.667 1.076-.626 4.683-2.047 9.238-2.672 13.922-.056.419.745.66.673 1.078-.293 1.705-1.295 3.22-1.7 4.903-.164.676-.139 1.408.014 2.086.091.398.745.609.688 1.013-.338 2.376-1.53 4.584-1.82 6.967-.323 2.644-.209 5.335 0 7.99.056.715.74 1.288.784 2.004.024.388-.607.612-.598 1 .008.388.647.584.642.973-.009.725-.765 1.347-.68 2.067.337 2.915.784 5.884 1.915 8.59m411.752-3.58c.01-1.035.37-2.126.03-3.104-.53-1.553-1.04-3.564-2.54-4.216-1.12-.481-3.05.528-3.21 1.73-.21 1.625 1.22 3.17 2.43 4.276.39.362.88-.821 1.42-.76.44.052.79.585.84 1.023.05.388-.51.627-.6 1.007-.03.137.13.32.27.324m-57.19-4.156c-.36-.392-1.04-.644-1.08-1.175-.04-.615.44-1.193.87-1.632.69-.698 1.44-1.57 2.41-1.69.46-.056.57.932.36 1.35m1.69 2.263c-.12-.437-.35-.858-.36-1.31 0-.146.25-.405.33-.282.24.387.32.875.33 1.332m-.31-2.743c-.12-.437-.6-.926-.36-1.311.25-.396.93-.468 1.36-.306.26.093.12.575-.02.803m-941.002-7.11c-1.736-1.184-3.629-2.167-5.207-3.555-.209-.184.625-.112.756-.36 1.04-1.973 1.133-4.52 2.671-6.137 2.007-2.11 5.083-2.865 7.474-4.528 3.202-2.227 6.068-4.913 9.28-7.125.29-.2.81-.243 1.057.007.335.338.468.935.327 1.39-.302.977-.964 1.812-1.57 2.635-.449.607-1.17.99-1.575 1.626-1.937 3.044-3.262 6.478-5.422 9.368-1.782 2.383-4.048 4.38-6.307 6.318m-190.447.329c-.944-.887-2.18-1.541-2.832-2.66-1.194-2.05-2.767-4.27-2.579-6.635.126-1.575 2.07-2.44 3.372-3.333.245-.168.624.247.715.529.708 2.196 1.334 4.439 1.626 6.728.051.403-.656.634-.636 1.04.034.716.728 1.289.783 2.004m-27.443-1.687c-.449-.105-1.334.146-1.346-.314-.01-.456.885-.436 1.33-.332m4.053-1.317c-1.034-.001-2.213.524-3.102-.003-1.11-.658-2.235-1.87-2.235-3.16 0-.932 1.56-1.035 2.233-1.68.27-.258.204-.818.54-.977 1.734-.825 3.561-1.51 5.447-1.87.4-.075.633.639 1.04.635.39-.003.591-.571.973-.651.668-.141 1.393-.177 2.048.015.208.06.238.432.153.63-.396.942-1.15 1.706-1.537 2.65-.218.535.202 1.355-.25 1.713M431.07 99.68c.441-.444.977-.812 1.324-1.333.703-1.054 1.071-2.311 1.798-3.35.43-.615 1.305-.874 1.628-1.55.136-.284-.629-.503-.508-.793.777-1.863 2.203-3.403 3.025-5.247 1.376-3.087 2.27-6.37 3.548-9.5.087-.212.401-.652.52-.455 1.756 2.948 2.705 6.363 4.677 9.172 1.582 2.252 3.635 4.194 5.851 5.826 1.593 1.173 3.657 1.524 5.401 2.457.49.262.76.839 1.25 1.1.303.164.69.19 1.026.119.698-.15 1.286-.738 2-.768.387-.017.601.523.971.64.346.113.74.119 1.09.022 1.593-.444 3.176-.955 4.685-1.631.493-.222.722-.93 1.253-1.031.382-.074.647.758 1.001.598.95-.425 1.455-1.506 2.316-2.088 1.381-.931 2.968-1.523 4.37-2.424.901-.58 1.83-1.182 2.517-2.005.142-.17-.568-.39-.398-.531 3.595-3.023 7.22-6.06 11.2-8.552.387-.242.401.876.337 1.328-.055.397-.824.634-.665 1.002.881 2.043 2.283 3.823 3.538 5.66.276.406.594.838 1.04 1.043 1.516.698 3.072 1.673 4.741 1.617 1.682-.056 3.203-1.096 4.664-1.931.65-.372.902-1.253 1.552-1.624.203-.117.39.559.57.41.901-.741 1.393-1.882 2.22-2.704.442-.44 1.142-.576 1.55-1.047.744-.858.723-2.677 1.843-2.865.973-.164 1.196 1.59 1.95 2.227.494.417 1.127.642 1.73.876 1.6.619 3.178 1.363 4.864 1.677 1.35.25 2.804.397 4.115-.006 2.703-.83 5.17-2.302 7.673-3.615 1.05-.55 2.091-1.16 2.963-1.962 1.097-1.01 1.817-2.377 2.884-3.419 2.043-1.994 3.697-4.82 6.424-5.664 1.185-.367 1.392 2.062 2.217 2.988 1.275 1.43 2.402 3.115 4.067 4.063 2.344 1.335 5.036 1.98 7.657 2.615 1 .24 2.072.15 3.087-.015.385-.064.583-.648.974-.652.403-.005.64.71 1.034.628 1.393-.29 2.537-1.377 3.932-1.658.407-.082.673.797 1.062.652 2.354-.88 4.49-2.264 6.656-3.535.414-.242.734-1.344 1.05-.984.997 1.138 1.056 2.845 1.757 4.186.553 1.059 1.241 2.048 1.986 2.982.537.674 1.126 1.333 1.84 1.817 1.46.99 3.032 1.819 4.63 2.573.318.15.71.192 1.052.109 3.27-.792 6.725-1.183 9.718-2.718 5.994-3.073 11.435-7.134 16.973-10.968 1.421-.984 2.481-2.42 3.863-3.457a58.53 58.53 0 0 1 5.976-3.928c2.403-1.38 4.822-2.776 7.412-3.76.492-.188 1.135.02 1.54.357 1.077.902 2.057 1.979 2.73 3.213.156.286-.626.508-.533.82.318 1.077 1.365 1.853 1.645 2.941.1.388-.628.628-.622 1.029.005.39.553.596.651.974.171.653.24 1.355.132 2.022-.115.708-.783 1.287-.783 2.004 0 .717.728 1.288.784 2.003.208 2.657.23 5.339 0 7.993-.09 1.047-.84 1.96-.954 3.004-.056.514.195 1.04.466 1.48.228.37.551.773.975.862.505.106 1.065-.078 1.51-.34a3.64 3.64 0 0 0 1.311-1.325c1.006-1.798 1.913-3.667 2.573-5.618.288-.854-.248-1.932.236-2.692.745-1.17 2.298-1.61 3.183-2.677.803-.97 1.005-2.34 1.792-3.323.584-.73 1.605-1.005 2.23-1.7.696-.775.998-1.844 1.67-2.64.737-.873 1.505-1.8 2.521-2.325.296-.153.602.339.788.615a52.164 52.164 0 0 1 2.961 4.956c.912 1.746 1.27 3.799 2.44 5.385.732.99 1.95 1.544 3.064 2.07 1.511.715 3.08 1.77 4.745 1.62 2.068-.184 3.88-1.521 5.681-2.555 1.45-.832 2.826-1.831 4.013-3.008 1.017-1.008 1.565-2.413 2.525-3.475 1.484-1.642 2.993-3.304 4.782-4.608.255-.186.618.29.751.577.968 2.09 1.195 4.544 2.5 6.442.943 1.37 2.468 2.323 3.99 2.997 2.131.944 4.451 1.508 6.768 1.768 2.978.334 6.002.227 8.99-.001.714-.055 1.276-.698 1.978-.837.841-.168 1.954-.663 2.573-.07 1.374 1.322 1.403 3.62 2.635 5.076.735.868 2.184.822 3.017 1.597.22.204-.522.452-.495.75.03.338.318.67.633.799 2.475 1.012 4.972 2.077 7.601 2.569 2.007.375 4.114.36 6.123 0 3.053-.548 5.87-2.065 8.905-2.698.395-.082.672.805 1.034.628 3.957-1.92 7.828-4.08 11.392-6.656.444-.321.166-1.1.09-1.643-.065-.467-.052-1.46-.504-1.323-1.52.458-2.547 1.92-3.95 2.665-.31.164-.886.297-1.053-.012-.218-.402.315-.877.323-1.334.003-.14-.173-.362-.295-.295-3.137 1.72-6.314 3.412-9.212 5.51-.255.186.443.489.508.797.03.137-.133.303-.273.322-.43.057-.885.023-1.297-.113-1.219-.402-2.268-1.44-3.55-1.49-.699-.025-.975 1.122-1.653 1.293-.518.13-.994-.54-1.526-.49-.71.068-1.268.725-1.974.822-1.349.186-2.75.289-4.085.014-1.308-.271-2.574-.848-3.666-1.617a13.438 13.438 0 0 1-3.278-3.267c-.395-.567-.957-1.6-.416-2.03 3.023-2.4 6.813-3.643 10.103-5.664 1.422-.873 2.751-1.903 4.006-3.003 1.453-1.274 2.905-2.581 4.1-4.102 1.375-1.753 2.486-3.705 3.561-5.657.166-.302.197-.691.118-1.026-.149-.632-.317-1.328-.78-1.783-.729-.719-1.704-1.153-2.635-1.58-.32-.146-.715-.206-1.054-.108-2.603.757-5.216 1.54-7.69 2.65a22.966 22.966 0 0 0-5 3.036c-1.858 1.495-3.71 3.092-5.06 5.06-1.562 2.28-1.579 5.551-3.544 7.495-1.39 1.375-3.703 1.36-5.644 1.594-.717.087-1.34-.648-2.062-.664-.388-.008-.612.6-1 .6-.389 0-.612-.608-1-.6-.389.01-.602.525-.973.643a1.787 1.787 0 0 1-1.055 0c-.37-.118-.584-.634-.972-.643-.388-.008-.612.6-1 .6-.389 0-.612-.606-1-.6-.405.007-.638.7-1.037.633-1.635-.276-3.28-.76-4.709-1.602-1.079-.635-2.31-1.488-2.606-2.705-.63-2.609-.642-5.446 0-8.053.307-1.242 1.638-2.002 2.668-2.762 1.341-.988 2.98-1.505 4.37-2.424 2.511-1.664 5.025-3.352 7.313-5.312.241-.206.144-.668 0-.95-.215-.426-.653-.695-.999-1.024-.313-.297-.586-.664-.974-.852-.31-.15-.689-.19-1.026-.118-.698.15-1.286.738-2 .768-.388.016-.602-.525-.973-.642a1.714 1.714 0 0 0-1.054 0c-.369.128-.578.561-.945.694-.526.19-1.22-.096-1.66.249-.985.769-1.484 2.021-2.37 2.9-.465.462-1.23.572-1.643 1.08-1.01 1.246-1.472 2.89-2.545 4.082-.744.826-2.117.946-2.785 1.835-.307.407.384 1.006.274 1.503-.093.422-.412.874-.826 1-.48.146-1.058-.576-1.477-.299-1.085.72-1.613 2.055-2.546 2.963-1.405 1.369-3.064 2.464-4.45 3.851-.957.957-1.489 2.322-2.554 3.156-2.307 1.805-4.634 3.846-7.446 4.667-1.046.306-2.026-.913-2.808-1.672-.84-.818-1.396-1.899-1.939-2.939-1.262-2.417-2.032-5.092-3.465-7.412-.673-1.088-1.732-1.906-2.762-2.667-.278-.205-.684-.16-1.03-.133-1.167.09-2.457-.09-3.478.482-1.36.762-2.306 2.114-3.303 3.313-.592.711-.823 1.682-1.432 2.38-.366.419-1.07.447-1.417.883-1.463 1.845-2.274 7.533-3.935 5.864-3.067-3.079-1.683-8.537-2.886-12.713-.354-1.229-.9-2.46-1.758-3.41-1.026-1.136-2.355-2.009-3.733-2.676-.615-.299-1.382-.282-2.048-.123-1.886.45-3.72 1.128-5.49 1.92-.68.306-1.133.99-1.79 1.343-1.102.591-2.377.831-3.45 1.472-.632.377-.983 1.113-1.586 1.535-2.728 1.906-5.695 3.463-8.38 5.43-2.313 1.694-4.243 3.88-6.585 5.534-1.118.79-2.53 1.064-3.718 1.745-1.17.67-2.099 1.744-3.328 2.297-3.13 1.41-6.279 3.008-9.669 3.555-1.026.165-1.873-.932-2.7-1.561-.773-.588-1.562-1.227-2.06-2.061-1.068-1.79-3.257-3.729-2.572-5.697 1.12-3.216 4.857-4.78 7.107-7.337.694-.79 1.036-1.84 1.692-2.663.673-.842 1.714-1.38 2.273-2.303 1.08-1.782 1.992-3.695 2.572-5.696.112-.385-.628-.628-.622-1.028.006-.39.57-.592.652-.974.143-.668.415-1.508-.002-2.05-.829-1.078-2-2.41-3.357-2.32-2.108.141-3.918 1.675-5.627 2.918-.939.683-1.58 1.73-2.153 2.74-1.769 3.117-3.459 6.293-4.848 9.596-.784 1.868-.91 3.962-1.644 5.85-.176.451-.628.755-1.03 1.025-1.644 1.1-3.23 2.366-5.08 3.068-3.095 1.173-6.306 2.272-9.607 2.501-1.662.115-3.197-.946-4.768-1.503-1.089-.386-2.245-.679-3.203-1.324-.999-.673-1.855-1.575-2.555-2.555-1.1-1.541-2.856-3.051-2.8-4.945.051-1.76 2.235-2.749 3.07-4.3 1.943-3.62 3.4-7.483 5.235-11.159.494-.988 1.277-1.818 1.745-2.819 1.33-2.844 2.796-5.664 3.632-8.69.193-.695-.822-1.357-.659-2.06.192-.831 1.34-1.186 1.598-1.999.123-.386-.72-.642-.632-1.037.615-2.72 2.045-5.21 2.662-7.93.09-.392-.647-.63-.628-1.033.033-.713.665-1.292.77-1.998.064-.44-.086-.906-.283-1.304-.466-.945-.842-2.037-1.68-2.675-.677-.515-1.666-.669-2.502-.508-1.332.256-2.539.993-3.696 1.7-1.08.66-2.217 1.352-2.967 2.372a51.399 51.399 0 0 0-5.165 8.686c-1.29 2.767-2.058 5.752-2.937 8.676-.6 2-.847 4.097-1.497 6.08-.556 1.694-1.75 3.17-2.106 4.917-.402 1.977-.299 4.04-.123 6.05.062.712.794 1.263.828 1.977.032.708-.632 1.318-.642 2.027-.006.388.598.611.598 1 0 .388-.609.611-.598 1 .01.39.59.588.651.974.163 1.004.54 2.19 0 3.052-1.358 2.165-3.646 3.587-5.353 5.49-.279.311-.275.823-.573 1.117-.813.803-1.713 1.536-2.698 2.114-1.07.627-2.41.748-3.42 1.47-.745.535-.962 1.606-1.676 2.18-.34.274-.923-.025-1.29.209-.628.4-.874 1.297-1.55 1.605-.288.13-.466-.462-.767-.553a1.791 1.791 0 0 0-1.053-.001c-.385.126-.609.734-1.01.678-1.963-.273-4.053-.545-5.72-1.614-1.263-.808-2.006-2.302-2.565-3.693-.15-.373.623-.603.675-1.002.177-1.34.635-2.866-.009-4.054-.38-.7-1.574-.4-2.366-.323-.318.032-.577.344-.724.626-1.26 2.418-1.884 5.188-3.465 7.409-1.726 2.425-3.863 4.62-6.306 6.318-.96.668-2.31.554-3.479.483-.652-.04-1.384-.29-1.79-.802-1.097-1.384-1.929-2.994-2.535-4.653-.112-.308.657-.521.534-.825-.248-.615-1.22-.757-1.426-1.388-.096-.295.628-.171.846-.392 1.96-1.983 3.514-4.374 5.643-6.175 1.045-.884 2.538-1.05 3.718-1.744 1.405-.828 2.514-2.148 4.006-2.806.356-.156.633.722 1.001.6.81-.27 1.187-1.338 2-1.6.381-.123.655.77 1.03.623 1.262-.496 3.045-1.01 3.335-2.335.234-1.073-1.28-1.972-2.312-2.35-1.285-.47-2.776-.32-4.107 0-1.092.261-1.833 1.393-2.917 1.685-.387.104-.636-.701-1.03-.623-.56.112-.817.826-1.322 1.093-1.749.923-3.745 1.377-5.4 2.457-1.21.788-2.14 1.95-3.062 3.06-.626.755-.817 1.85-1.55 2.5-2.276 2.02-5.019 3.457-7.355 5.405-2.692 2.245-5.297 4.61-7.707 7.155-.272.287.118.913-.18 1.172-.982.853-2.316 1.197-3.39 1.93-.503.344-.786.963-1.308 1.277-1.173.706-2.539 1.05-3.718 1.745-1.405.828-2.51 2.158-4.007 2.805-.358.155-.596-.553-.974-.652-.654-.17-1.356-.243-2.022-.131-.722.12-1.312.902-2.038.813-1.32-.162-2.508-.908-3.692-1.515-1.358-.698-2.755-1.387-3.908-2.388-1.232-1.07-2.189-2.426-3.154-3.742-.499-.68-.887-1.44-1.215-2.216-1.27-3.001-1.909-6.298-3.575-9.1-.739-1.243-2.004-2.381-3.422-2.668-.787-.159-1.332.954-1.788 1.616-.896 1.298-1.499 2.775-2.21 4.182-1.299 2.569-2.6 5.137-3.822 7.743-.568 1.21-1.128 2.43-1.545 3.699-.18.55.045 1.216-.239 1.72-.366.648-1.29.876-1.607 1.55-.133.284.654.514.51.793-.66 1.269-1.668 2.34-2.668 3.362-.145.149-.452.118-.622 0-.675-.471-1.383-.98-1.802-1.688-1.05-1.775-1.979-3.658-2.536-5.643-.113-.4.756-.66.652-1.063-.28-1.086-1.46-1.816-1.68-2.916-.142-.72.803-1.366.686-2.09-.227-1.403-1.379-2.536-1.658-3.931-.079-.395.546-.622.671-1.005.113-.343.185-.766.014-1.084-1.466-2.728-2.874-5.54-4.853-7.92-.326-.392-.998.34-1.503.274-.385-.05-.62-.521-1-.599-.184-.037-.339.172-.474.3-.315.299-.697.573-.868.972-.139.324-.177.751 0 1.055.882 1.515 2.212 2.737 3.093 4.252.53.91.761 1.962 1.101 2.958.531 1.558 1.341 3.064 1.511 4.702.108 1.05-.897 2.05-.705 3.088.155.84 1.37 1.162 1.641 1.973.13.384-.72.642-.632 1.037.59 2.636 1.201 5.358 2.58 7.68 1.125 1.898 2.924 3.362 4.727 4.634.551.39 1.35.196 2.022.133m-382.91-4.002c-1.037-.05-2.083.008-3.108-.145-.157-.024-.357-.214-.307-.364 1.77-5.35 4.171-10.49 5.69-15.914.194-.694-.788-1.35-.66-2.06.11-.606.737-1.034 1.271-1.341.306-.175.795-.228 1.057.007.35.313.49.869.44 1.335-.078.726-.914 1.316-.802 2.037.53 3.385 2.058 6.554 2.668 9.924.073.4-.552.626-.687 1.01-.185.529.15 1.268-.248 1.662m412.641 2.684c-.449-.105-1.334.146-1.346-.314-.012-.457.884-.436 1.33-.332m-218.972-2.354c-.132-.446-.383-.874-.397-1.34-.006-.19.208-.323.342-.458 2.407-2.442 4.625-5.096 7.277-7.27 1.003-.82 2.484-.851 3.545-1.594.636-.445.688-1.544 1.395-1.863.482-.218.962.659 1.483.566.54-.096.718-1.127 1.262-1.055.604.08.934.832 1.196 1.38.116.244 0 .574-.158.792-.25.35-.569.776-.997.824-.387.044-.62-.521-1.002-.598-.183-.037-.348.16-.473.299-1.057 1.169-1.882 2.555-3.057 3.604a54.37 54.37 0 0 1-6.744 5.145m-52.017 1.273c.272-.34.451-.782.816-1.018.226-.145.711-.28.806-.03.164.435.09 1.109-.3 1.36m6.011-1.017c-.449-.105-1.334.146-1.346-.314-.01-.456.885-.436 1.33-.332m-7.998.619c-.12-.437-.35-.858-.359-1.31-.002-.146.255-.405.332-.282.245.387.325.875.332 1.332m3.668-.66c-1.242-.54-2.54-.966-3.725-1.624-.287-.16-.706-.47-.603-.782.682-2.08 1.684-4.057 2.806-5.937.432-.723 1.091-1.317 1.797-1.777 1.236-.803 2.58-1.45 3.961-1.967 1.853-.694 3.747-1.347 5.703-1.652.845-.131 1.745.053 2.542.366.403.159.691.575.86.974.142.333.188.767.015 1.084-1.124 2.063-2.269 4.16-3.832 5.916-1.354 1.52-3.08 2.685-4.799 3.778-1.128.719-2.407 1.182-3.672 1.616M79.65 84.974c-.449-.105-1.334.146-1.346-.314-.01-.456.885-.436 1.33-.332m750.015-.354c-.448-.105-1.334.146-1.345-.314-.01-.457.884-.436 1.33-.332m137.435-1.65c.43-.433.96-.788 1.29-1.297 1.59-2.405 2.85-5.017 4.46-7.408 1.15-1.7 2.8-3.049 3.79-4.843.24-.44-.55-1.042-.3-1.477.75-1.289 2.21-2.04 3.05-3.268.76-1.122 1.02-2.53 1.72-3.695.32-.523.94-.8 1.28-1.308.86-1.29.9-3.346 2.28-4.047.91-.464 1.87.891 2.66 1.537 1.31 1.07 2.28 2.53 3.62 3.57 1.68 1.305 3.68 2.145 5.38 3.43 1.21.914 2.03 2.283 3.28 3.135.47.321 1.2-.03 1.69.254.64.37.87 1.3 1.55 1.607.3.134.52-.664.82-.533 1.45.633 2.5 2.023 3.97 2.621.36.147.61-.599 1-.599s.67.798 1 .599c1.02-.608 2.13-1.475 2.39-2.629.15-.644-.89-1.024-1.48-1.317-1.56-.775-3.32-1.106-4.9-1.844-1.06-.493-1.88-1.453-2.98-1.831-.31-.105-.55.722-.81.53-1.05-.775-1.53-2.157-2.53-2.993-1.99-1.658-4.34-2.841-6.38-4.43-.97-.756-1.58-1.957-2.64-2.582-1.82-1.077-4.29-1.028-5.87-2.437-.69-.614 2.02.232 2.75-.345 1.01-.81 1.19-2.312 1.92-3.388 1.01-1.494 2.4-2.73 3.28-4.305 2.06-3.7 3.56-7.688 5.5-11.453.25-.49.95-.734 1.05-1.275.07-.394-.8-.667-.62-1.029 1.21-2.555 2.56-5.15 4.53-7.18.45-.457 1.15.633 1.79.677.46.032 1.1-.047 1.3-.463.17-.352-.6-.615-.6-1.005 0-.401.73-.643.62-1.029-.36-1.309-1.04-2.549-1.9-3.603-.61-.759-1.42-1.68-2.39-1.69-.82-.01-1.42.936-1.82 1.645-1.4 2.433-2.64 4.986-3.53 7.649-.13.38.68.633.62 1.03-.05.333-.69.248-.85.546-1.03 1.977-1.62 4.156-2.63 6.145-1.88 3.73-3.88 7.41-6.03 10.99-.38.634-1.13.984-1.54 1.594-.68.983-.83 2.33-1.7 3.143-.39.364-1.12.156-1.61-.06-2.29-1.013-4.58-2.117-6.62-3.572-2.74-1.947-4.95-4.562-7.64-6.577-1.33-.999-2.98-1.5-4.36-2.423-1.63-1.081-2.99-2.53-4.63-3.575-2.13-1.35-4.17-3.241-6.66-3.585-1.1-.151-2.15 1.256-2.35 2.344-.14.785.9 1.385 1.6 1.779 1.86 1.059 4.08 1.398 5.92 2.498.26.154-.51.452-.5.751.02.313.3.589.58.746 1.17.681 2.56.97 3.69 1.726.91.61 1.46 1.653 2.34 2.313 5.58 4.2 14.61 5.683 17.01 12.244 1.79 4.882-4.87 9.19-7.53 13.654-.39.648-1.15 1.005-1.58 1.627-2.62 3.817-5.26 7.635-7.55 11.66-.22.39-.04.935.16 1.335.38.767.83 1.592 1.55 2.06m.66-1.075c-.12-.437-.35-.858-.36-1.31 0-.146.25-.405.33-.282.24.387.32.875.33 1.332m194.11-6.987c.78-.784 1.65-1.493 2.34-2.353.76-.935 1.43-1.95 2.01-3.005 2.23-4.074 4.12-8.333 6.42-12.37.37-.64 1.16-.958 1.54-1.59 1.63-2.72 2.83-5.69 4.46-8.409.39-.648 1.17-.998 1.58-1.633 2.11-3.242 4.08-6.576 5.96-9.955.61-1.097.85-2.378 1.5-3.453.38-.632 1.14-.97 1.54-1.591 1.43-2.237 2.78-4.54 3.94-6.934 1.32-2.732 2-5.756 3.46-8.414.41-.742 2.26-.742 2.01-1.552-.37-1.213-1.96-1.688-3.15-2.14-.49-.188-1.08.09-1.53.353-.52.302-1.02.731-1.27 1.278-1.68 3.717-2.74 7.692-4.45 11.395-.31.675-1.16.973-1.55 1.605-.72 1.164-1.04 2.541-1.74 3.718-1.48 2.473-2.73 5.166-4.76 7.206-.44.443-1.13-.685-1.75-.668-.71.019-1.29.728-2 .768-.39.022-.61-.609-1-.599-.39.011-.59.57-.97.652-.68.147-1.44.257-2.08.01-1.65-.63-3.12-1.667-4.64-2.575-1.03-.619-2.1-1.205-3-2.002-2.06-1.82-4.13-3.67-5.84-5.819-.87-1.093-.92-2.704-1.81-3.78-.64-.778-1.67-1.158-2.6-1.548-.5-.209-1.23.17-1.61-.215-1.57-1.585-2.28-3.917-3.94-5.4-.64-.569-1.71-.578-2.54-.374-.6.149-1.05.76-1.32 1.322-.23.479-.36 1.149-.07 1.59.58.86 1.68 1.214 2.42 1.939.08.074-.28.186-.2.252.74.584 1.79.774 2.4 1.493.19.231-.55.46-.5.758.08.423.44.793.82 1 .64.35 1.61.068 2.11.597 3.58 3.734 6.01 8.552 9.92 11.944 2.66 2.308 6.15 3.458 9.4 4.818.64.268 1.4.141 2.08-.01.39-.089.61-.78 1-.68 1.23.31 3.3.521 3.35 1.786.07 1.644-2.23 2.433-3.13 3.814-.74 1.141-1 2.542-1.72 3.694-.96 1.53-2.37 2.75-3.28 4.306-3.39 5.784-6.63 11.664-9.61 17.672-.2.411-.05.968.18 1.365M50.636 73.946c-.12-.436-.35-.857-.359-1.31-.002-.145.255-.404.332-.281.245.387.325.875.332 1.332m528.676-.706c-.013-.219-.25-.603-.039-.656.444-.112 1.306-.126 1.333.331m580.738-.682c-.45-.105-1.33.146-1.35-.314-.01-.457.89-.437 1.33-.333m-439.973.64c-.135-.453-.619-.939-.405-1.361 1.033-2.033 2.254-4.057 3.94-5.594 2.153-1.965 4.771-3.385 7.364-4.718.61-.312 1.37-.193 2.05-.12.46.049 1.577.104 1.304.478-1.862 2.55-4.136 4.826-6.61 6.79M906.95 68.7c.32-.682 1.03-1.296.96-2.045-.06-.616-.67-1.199-1.27-1.35a8.506 8.506 0 0 0-4.06 0c-.6.149-1.16.722-1.32 1.325-.21.769-.37 1.97.32 2.369 1.16.67 2.69.216 4.03.141m-322.17-5.327c-.058-.728-.488-1.527-.172-2.186.202-.42.91-.4 1.365-.3.212.047.236.438.142.634m.857-1.018c-.122-.436-.49-.874-.366-1.31.151-.533.826-.767 1.094-1.252.605-1.098.818-2.398 1.5-3.45.428-.66 1.015-1.84 1.755-1.576.738.264.618 1.592.346 2.327-.518 1.398-1.619 2.512-2.566 3.664m-39.999-1.515c-.376-.383-1.046-.619-1.128-1.149-.107-.7.631-1.318.641-2.026.006-.389-.598-.612-.598-1 0-.389.604-.612.598-1-.006-.404-.727-.643-.628-1.034.923-3.652 2.238-7.199 3.597-10.712.196-.504.938-.72 1.031-1.254.067-.382-.523-.601-.642-.97a1.945 1.945 0 0 1-.02-1.091c.46-1.652.932-3.318 1.673-4.864 1.125-2.345 2.352-4.67 3.901-6.759 1.041-1.403 2.125-3.1 3.794-3.617.747-.23.53 1.517.48 2.297-.07 1.045-.788 1.985-.828 3.031-.016.403.748.61.672 1.007-.33 1.733-1.4 3.257-1.814 4.972-.158.656-.038 1.367.132 2.02.1.379.722.592.652.977-.065.358-.688.299-.933.569-.656.726-1.375 1.461-1.728 2.374-.249.646-.126 1.398.01 2.077.062.31.728.495.56.761-.452.718-1.575.829-2.017 1.552-1.416 2.32-2.162 4.995-3.444 7.391m544.523 2.496c2.81-1.137 5.7-2.113 8.45-3.411 1.68-.793 3.25-1.812 4.79-2.846 1.44-.969 2.92-1.93 4.15-3.155 1.06-1.048 1.59-2.555 2.65-3.596.73-.716 1.69-1.18 2.63-1.577.53-.22 1.24.11 1.69-.239.78-.602 1.7-1.418 1.71-2.4 0-.974-.72-2.239-1.68-2.395-.89-.145-1.17 1.482-2.01 1.794-.84.309-2.07.59-2.67-.06-.56-.59.65-1.632.38-2.393-.84-2.366-1.98-4.691-3.57-6.63-1.57-1.904-3.47-3.701-5.74-4.677-1.55-.67-3.53-.665-5.08.019-.73.321-.75 1.693-.32 2.366.72 1.139 2.1 1.72 3.29 2.338.51.262 1.24-.109 1.69.239.99.764 1.49 2.015 2.37 2.901.99.994 2.5 1.506 3.21 2.714.27.466-.4 1.04-.78 1.418-.7.683-1.47 1.407-2.4 1.689-.39.116-.6-.662-1-.665-.71-.006-1.32.664-2.03.642-.71-.022-1.29-.768-2-.768s-1.29.74-2 .768c-.39.015-.59-.577-.97-.652-.99-.194-2.03-.262-3.03-.132-.71.092-1.28.75-2 .784-.41.02-.64-.678-1.04-.639-3.69.36-7.27 1.58-10.96 1.81-1.05.065-1.96-1.03-3-.94-6.36.542-12.6 2.135-18.96 2.81-.42.044-.66-.718-1.08-.682-8.02.687-15.97 1.997-23.97 2.827a5.72 5.72 0 0 1-2.02-.133c-.37-.099-.58-.64-.97-.652-.39-.01-.61.578-1 .598-.31.016-.53-.688-.78-.506-.73.52-1.74 1.311-1.54 2.179.25 1.1 1.9 1.307 2.53 2.245.17.26-.45.48-.51.788-.02.147.18.374.32.318 1.04-.424 1.86-1.377 2.95-1.645.39-.096.61.587 1 .675.68.152 1.41.181 2.09.015 1.68-.412 3.17-1.468 4.88-1.73.71-.11 1.34.66 2.06.662.39.001.59-.57.97-.651a4.801 4.801 0 0 1 2.06 0c.38.088.55.687.94.694.71.013 1.32-.64 2.03-.642.41 0 .64.68 1.04.639 3.01-.314 5.91-1.377 8.92-1.678.42-.042.66.717 1.08.678 6.99-.645 13.9-2.099 20.9-2.707.73-.064 1.36.754 2.1.709 4.67-.284 9.26-1.37 13.92-1.682.4-.028.62.556 1.01.684.34.11.72.115 1.06 0 .37-.129.56-.627.94-.695 1.02-.179 2.08-.217 3.09-.017 1.76.35 3.78.467 5.13 1.646.54.465-.93 1.088-1.5 1.508-1.92 1.404-3.84 2.823-5.94 3.943-1.49.796-3.21 1.066-4.75 1.768-1.84.84-3.89 1.45-5.36 2.849-.42.41.65 1.061.66 1.655.01.39-.51.626-.6 1.005-.03.14.13.32.28.332m-719.613-1.31c1.12-.758 2.31-1.42 3.356-2.275.61-.497 1.708-.978 1.576-1.752-.182-1.073-1.26-1.942-2.272-2.342-.659-.261-1.318.641-2.027.64-.389 0-.584-.641-.973-.641-.709 0-1.318.632-2.027.642-.389.006-.653-.773-1-.599-.973.487-1.716 1.383-2.342 2.272-.202.288-.184.755 0 1.055.752 1.23 1.433 2.7 2.71 3.37m533.852-7.213c-.53-.727-1.6-1.287-1.57-2.182.02-.55 1.86.508 1.65.003-.39-.893-1.48-1.32-2.38-1.695-1.9-.797-3.89-1.42-5.92-1.78-.51-.09-1.04.196-1.48.467-.37.228-.86.542-.86.975-.01.732.32 1.507.84 2.026.98.989 2.17 1.84 3.47 2.325.38.139.6-.682 1-.666 1.05.041 1.99.722 3.03.827m211.03-13.195c-.12-.436-.35-.857-.36-1.31 0-.145.25-.404.33-.281.24.387.32.875.33 1.332"/></svg>