<svg xmlns="http://www.w3.org/2000/svg" width="1313.433" height="285.853" version="1.2">\n<path d="M627.365 285.812c1.023-.05 2.107.203 3.07-.15 1.014-.37 1.838-1.165 2.606-1.924 1.817-1.794 3.613-3.637 5.116-5.701.8-1.098 1.042-2.517 1.723-3.692.678-1.17 1.76-2.092 2.34-3.312 1.23-2.584 2.198-5.292 3.057-8.021.996-3.166 1.864-6.381 2.5-9.638.197-1.011.154-2.073-.017-3.088-.066-.396-.686-.6-.672-1 .02-.566.645-.965.76-1.52.776-3.777 1.511-7.575 1.9-11.412.041-.406-.64-.634-.64-1.042.001-.39.526-.602.643-.973a1.786 1.786 0 0 0 0-1.054c-.117-.371-.644-.584-.642-.973.001-.391.576-.591.651-.974.195-.99.262-2.022.133-3.023-.093-.711-.753-1.287-.784-2.003-.018-.39.576-.591.651-.974.195-.99.266-2.023.133-3.023-.097-.722-.92-1.311-.808-2.032.158-1.012.937-1.831 1.538-2.661.431-.596 1.155-.955 1.534-1.585.648-1.074.805-2.407 1.501-3.45 1.332-1.994 3.126-3.645 4.535-5.585 1.25-1.721 2.154-3.68 3.43-5.38 1.73-2.307 3.84-4.312 5.57-6.62 1.27-1.693 2.03-3.75 3.407-5.356.674-.786 1.988-.85 2.618-1.672 1.798-2.347 3.518-4.851 4.513-7.634.211-.591-.75-1.054-1.294-1.37-.313-.181-.756-.165-1.084-.014-1.048.48-2.163.984-2.92 1.853-.285.327.452.947.183 1.287-1.102 1.392-2.827 2.186-3.993 3.526-1.367 1.57-2.285 3.486-3.55 5.14-3.059 4.004-6.427 7.768-9.415 11.824-.71.965-.973 2.206-1.649 3.196-.75 1.1-1.656 2.094-2.603 3.03-.4.396-1.22 1.465-1.408.934-1.173-3.322-1.549-6.89-1.93-10.392-.046-.425.712-.66.681-1.084-.339-4.693-.979-9.365-1.772-14.003-.313-1.83-.81-3.643-1.54-5.35-.466-1.092-1.06-2.224-2.004-2.946-.38-.292-1.022.044-1.399.34-.813.64-1.483 1.474-2.024 2.356-.226.368.066.942-.204 1.277-.585.723-1.644.966-2.208 1.705-1.003 1.317-1.379 3.045-2.4 4.347-1.409 1.79-3.014 3.46-4.824 4.844-1.142.874-2.495 1.555-3.907 1.833-.707.139-1.338-.656-2.059-.66-.389-.002-.602.525-.973.642-.335.106-.77.207-1.055-.001-1.856-1.358-3.678-2.816-5.18-4.558-.215-.25.626-.506.54-.823-.65-2.387-2.042-4.535-2.654-6.933-.099-.388.617-.628.621-1.028.004-.388-.605-.612-.599-1 .007-.405.7-.638.633-1.037a15.522 15.522 0 0 0-1.602-4.71c-.37-.693-1.032-1.88-1.759-1.576-3.21 1.338-5.896 3.718-8.606 5.897-.978.786-1.52 2-2.368 2.928-1.048 1.146-2.114 2.288-3.308 3.283-.807.673-1.88.987-2.66 1.69-.876.79-1.296 2.035-2.246 2.733-.25.184-.475-.522-.786-.506-.387.02-.613.64-.999.597-.429-.05-.78-.453-.999-.826a.882.882 0 0 1 .012-.851c1.993-3.267 4.662-6.13 6.344-9.567.316-.646-.654-1.336-.655-2.055 0-.391.568-.593.651-.974.148-.68.177-1.41.015-2.086a25.505 25.505 0 0 0-1.639-4.69c-.63-1.37-1.275-2.793-2.305-3.895-1.735-1.86-4.899-2.517-5.877-4.865-2.148-5.16-2.342-10.945-3.016-16.493-.086-.708.73-1.285.77-1.997.021-.388-.62-.612-.599-1 .04-.713.768-1.286.768-2s-.74-1.286-.768-2c-.016-.39.551-.596.651-.974.174-.654.147-1.35.147-2.026 0-1.342.05-2.696-.147-4.024-.047-.315-.648-.464-.564-.772.183-.67 1.078-1.001 1.232-1.678.12-.523-.446-.996-.504-1.53-.074-.683-.004-1.381.114-2.058 1.166-6.64 2.811-13.198 3.735-19.875.101-.73-.836-1.375-.694-2.097.537-2.736 2.06-5.207 2.662-7.93.088-.396-.605-.611-.686-1.01-.2-.988-.262-2.022-.132-3.023.092-.711.75-1.287.784-2.003.02-.406-.688-.637-.636-1.04.307-2.353 1.38-4.565 1.674-6.92.05-.404-.675-.606-.68-1.013-.009-.709.632-1.318.642-2.027.006-.389-.607-.612-.598-1 .008-.389.646-.585.642-.973-.01-1.044-.686-2.011-.686-3.055 0-.389.56-.577.686-.945.114-.333.106-.72 0-1.055-.117-.37-.77-.606-.642-.973.265-.756.981-1.287 1.61-1.784.802-.636 1.663-1.254 2.635-1.577.667-.222 1.445-.233 2.108 0 1.02.357 2.123.83 2.76 1.704 1.205 1.659 1.976 3.63 2.551 5.599.29.987.154 2.07-.013 3.085-.063.385-.646.583-.65.974-.007.4.75.649.62 1.028-.599 1.77-2 3.188-2.644 4.942-.112.304.738.565.53.814-1.44 1.724-3.474 2.87-4.993 4.526-.692.754-1.254 1.664-1.577 2.636-.219.658-.242 1.434.011 2.08.227.58.788 1 1.322 1.323.31.187.755.288 1.076.123.98-.505 1.84-1.241 2.617-2.022.712-.714 1.115-1.695 1.813-2.423 4.096-4.27 8.24-8.498 12.551-12.55 1.205-1.133 2.798-1.808 3.97-2.976.918-.914 1.356-2.224 2.22-3.191.37-.415 1.022-.49 1.416-.884 1.666-1.665 2.576-4.29 4.725-5.253 3.908-1.752 8.355-1.943 12.6-2.513.403-.055.626.555 1.013.683.334.11.716.09 1.055 0 .687-.185 1.262-.805 1.973-.813.714-.007 1.286.738 2 .769.388.016.584-.642.972-.642.71 0 1.32.632 2.028.642.388.005.612-.599 1-.599s.612.61 1 .599c.39-.01.596-.553.973-.652.654-.17 1.356-.24 2.023-.131.708.114 1.288.749 2.004.783.387.018.601-.523.97-.642a1.912 1.912 0 0 1 1.092-.021c1.83.527 4.174.426 5.387 1.892.957 1.155.117 3.013-.097 4.498-.102.708-.742 1.268-.837 1.977-.16 1.204-.548 2.606.087 3.642 1.002 1.636 2.491 3.647 4.41 3.7 3.03.084 5.723-2.031 8.456-3.342 1.844-.884 3.584-1.995 5.222-3.218 1.213-.906 2.076-2.224 3.284-3.136.275-.208.685-.166 1.026-.118.513.07 1.077.143 1.482.466 1.39 1.112 2.276 2.828 3.797 3.754 2.037 1.24 4.358 1.998 6.662 2.614 1.005.269 2.103.222 3.12.002 1.686-.364 3.171-1.474 4.878-1.73.724-.109 1.372.837 2.088.684 2.332-.497 4.594-1.4 6.68-2.554.725-.401.807-1.535 1.508-1.975.265-.167.461.459.76.55.335.102.744.167 1.052 0a19.167 19.167 0 0 0 3.663-2.557c.972-.872 1.475-2.219 2.526-2.994.261-.192.503.621.814.53.984-.285 1.873-.882 2.66-1.538.427-.357.46-1.056.884-1.417.92-.783 2.148-1.148 3.058-1.943.912-.796 1.321-2.127 2.344-2.774.577-.364 1.544-.46 2.048 0 2.12 1.935 3.366 4.67 5.345 6.748.297.312.918-.036 1.276.204.687.46 1.022 1.338 1.71 1.797.361.241.963-.085 1.29.203 1.395 1.237 2.327 2.932 3.69 4.206.837.785 3.243.843 2.855 1.923-.51 1.423-2.856 1.03-4.18 1.76-.89.492-2.009.94-2.408 1.877-.479 1.122-.41 2.528.046 3.659.41 1.01 1.373 1.793 2.351 2.273.35.17.603-.525.974-.642a1.724 1.724 0 0 1 1.054 0c.368.127.556.68.946.686.708.01 1.318-.642 2.027-.642.388 0 .601.524.971.642.344.109.751.153 1.084.013a11.357 11.357 0 0 0 2.635-1.571c.628-.497 1.344-1.03 1.61-1.785.128-.367-.643-.584-.643-.973 0-.709.632-1.319.642-2.027.006-.388-.586-.61-.596-.998-.008-.305.268-.616.55-.73 4.1-1.653 8.43-2.722 12.468-4.521.933-.416 1.344-1.637 2.278-2.05.356-.158.635.728 1.001.598.808-.286 1.21-1.257 1.971-1.65.53-.273 1.214-.047 1.763-.276.356-.15.605-1.122.832-.809.927 1.28 1.454 2.85 1.768 4.397.083.41-.787.67-.657 1.067.551 1.679 1.5 3.224 2.534 4.655.75 1.038 1.551 2.254 2.763 2.668 1.604.549 3.414.293 5.086.016a14.675 14.675 0 0 0 4.686-1.636c1.663-.924 2.893-2.502 4.527-3.478 1.7-1.016 3.656-1.533 5.405-2.461a17.245 17.245 0 0 0 3.012-2.007c1.286-1.08 2.235-2.541 3.586-3.538 2.552-1.881 5.181-3.719 8.06-5.049 2.745-1.27 5.704-2.087 8.67-2.684a8.995 8.995 0 0 1 4.048.123c1.041.28 1.997.929 2.753 1.697.712.722 1.276 1.652 1.516 2.637.095.39-.626.628-.623 1.029.004.388.524.601.642.97.111.346.123.741.018 1.089-.505 1.683-1.465 3.224-1.83 4.943-.108.506.196 1.038.467 1.478.228.37.551.773.975.862.505.106 1.137.017 1.51-.34 1.473-1.416 2.304-3.426 3.828-4.787 1.78-1.59 3.893-2.774 5.962-3.962 1.161-.667 2.38-1.328 3.694-1.583.396-.076.623.548 1.006.673.335.109.715.09 1.055 0 .687-.185 1.265-.748 1.973-.812.526-.049 1.133.119 1.508.492.924.922 1.65 2.052 2.22 3.227.998 2.056 1.207 4.489 2.456 6.404.68 1.041 1.998 1.494 3.088 2.092 1.171.643 2.332 1.614 3.667 1.614 1.685 0 3.267-.892 4.79-1.614 2.412-1.145 4.755-2.458 6.961-3.961 1.011-.69 1.664-1.807 2.62-2.57.714-.572 1.708-.761 2.355-1.408.686-.685.842-1.788 1.527-2.473.685-.685 1.788-.841 2.473-1.527.693-.692.932-1.736 1.55-2.497.504-.621 1.041-1.305 1.782-1.608.291-.119.596.299.75.573.602 1.083.668 2.471 1.471 3.416 1.106 1.302 2.653 2.16 4.072 3.111 1.022.686 2.072 1.372 3.231 1.787 3.086 1.103 6.225 2.11 9.44 2.746.398.079.626-.552 1.011-.678.334-.11.721-.11 1.055 0 .386.126.61.73 1.012.678 2.043-.265 4.021-.928 5.975-1.583 1.71-.572 3.184-2.066 4.986-2.09 1.46-.02 2.542 1.466 3.912 1.97 1.965.726 3.978 1.39 6.048 1.703.4.06.63-.653 1.04-.635.71.032 1.29.846 2 .77 2.7-.29 5.24-1.53 7.94-1.836.73-.082 1.37.83 2.1.7 3.07-.548 5.85-2.412 8.95-2.676.97-.083 2.03.8 2.37 1.711.33.857-.91 1.765-.7 2.658.24 1.05 1.15 1.847 1.91 2.606.71.7 1.45 1.795 2.44 1.714 2.86-.236 5.57-1.447 8.19-2.592.28-.122-.44-.466-.5-.763-.03-.138.14-.342.27-.323.72.101 1.37.847 2.06.653 1.7-.477 3.19-1.551 4.65-2.534 1.8-1.202 2.96-3.718 5.11-3.997 1.3-.17 1.56 2.127 2.53 3.002.55.49 1.28.72 1.95 1.02 1.22.546 2.39 1.27 3.7 1.516.39.074.63-.633 1.03-.629.39.005.59.568.97.652.68.148 1.41.152 2.09.018 3.55-.7 7.12-1.394 10.57-2.51 1.31-.424 2.57-1.131 3.58-2.073.23-.214-.44-.487-.51-.795-.03-.138.13-.341.27-.323.71.094 1.34.762 2.03.63.61-.116 1.25-.662 1.34-1.272.11-.727-.34-1.512-.86-2.03-.37-.371-1.03-.5-1.54-.358-4.72 1.329-9.09 3.96-13.94 4.714-2.05.318-4.05-.915-6-1.61-1.18-.421-2.5-.796-3.34-1.719-.36-.387 0-1.148.36-1.532.72-.771 1.88-1.011 2.67-1.71.42-.367.49-1.022.88-1.416 1.99-1.983 4.28-3.644 6.21-5.676 1.14-1.196 2.17-2.52 2.97-3.966 1.23-2.242 2.18-4.637 3.09-7.028.95-2.51 1.93-5.034 2.49-7.66.09-.396-.68-.637-.63-1.039.05-.333.67-.263.85-.545.59-.926.99-1.966 1.41-2.98 1.17-2.796 2.53-5.531 3.36-8.444.11-.385-.54-.62-.66-1.001a1.655 1.655 0 0 1 0-1.055c.13-.37.6-.565.69-.947.16-.676.2-1.415.02-2.084-.36-1.287-.98-2.494-1.62-3.666-.16-.28-.41-.574-.73-.626-1-.167-2.16-.505-3.05 0-2.5 1.43-4.59 3.512-6.63 5.54-1.23 1.212-2.12 2.723-3.13 4.12-.87 1.207-1.9 2.33-2.51 3.688-.13.284.68.525.51.787-.46.711-1.5.879-2.02 1.549-1.18 1.526-2.25 3.17-3 4.945-2.81 6.609-4.64 13.614-7.64 20.138-.22.479-1.07.085-1.58-.067-.37-.112-.55-.685-.94-.692-.71-.012-1.32.64-2.03.642-.41.001-.64-.7-1.04-.632-1.7.285-3.38.833-4.91 1.63-2.05 1.069-3.96 2.427-5.74 3.914-1 .838-1.85 1.876-2.52 3-.12.202.56.389.41.57-.56.692-1.31 1.27-2.15 1.58-.65.241-1.4.142-2.08-.01-.39-.088-.61-.76-1-.68-1.4.275-2.54 1.381-3.94 1.658-.41.082-.65-.717-1.07-.666-2.29.28-4.54.897-6.73 1.622-.5.167-.7.974-1.23 1.014-.71.054-1.29-.769-2-.769s-1.29.739-2 .769c-.39.016-.6-.525-.97-.642a1.744 1.744 0 0 0-1.06 0c-.36.126-.57.557-.94.685-.34.12-.74.104-1.09.023-2.32-.529-4.749-.833-6.906-1.844-.49-.23-.586-1.071-.39-1.576.942-2.435 2.741-4.48 3.676-6.917.15-.374-.63-.628-.62-1.028.01-.391.59-.589.65-.974.16-1.005.41-2.119 0-3.053-.43-1.006-1.356-1.81-2.324-2.324-.604-.321-1.389-.168-2.052-.001a3.572 3.572 0 0 0-1.62.926c-1.689 1.688-3.544 3.313-4.706 5.4-.495.888-.163 2.047 0 3.052.062.385.666.583.651.974-.028.713-.768 1.285-.768 2 0 .713.72 1.286.766 1.997.021.32-.306.606-.587.757-.783.422-1.65.679-2.509.908-2.369.632-4.72 1.448-7.16 1.674-.732.068-1.32-.698-2.045-.82-.666-.113-1.369-.04-2.022.131-.379.099-.589.7-.977.65-.33-.041-.254-.673-.542-.841-2.3-1.348-5.015-2.007-7.117-3.647-1.588-1.238-2.914-2.925-3.69-4.783-.52-1.247-.43-2.773 0-4.053.334-.99 1.6-1.395 2.14-2.29 1.6-2.643 2.991-5.415 4.232-8.244 1.615-3.68 2.132-7.887 4.323-11.256.957-1.47 2.961-1.96 4.63-2.506.391-.128.654.743 1.055.645 1.826-.446 3.421-1.575 5.203-2.174 4.102-1.38 8.388-2.203 12.428-3.752.695-.267.833-1.408 1.55-1.607.611-.17 1.161.805 1.791.68 1.42-.284 2.53-1.517 3.94-1.826.63-.136 1.26.835 1.84.565.81-.376 1.35-1.297 1.58-2.155.21-.775.31-1.909-.33-2.388-.57-.423-1.32.602-2.03.633-.31.013-.49-.599-.8-.51-.66.194-1 1.056-1.67 1.232-.53.137-1.06-.516-1.59-.38-6.356 1.637-12.64 3.563-18.864 5.65-1.43.48-2.552 1.829-4.048 2.032-.623.085-1.236-.681-1.37-1.295-.152-.692.64-1.319.641-2.027.001-.405-.703-.64-.632-1.038.305-1.701 1.442-3.191 1.696-4.901.106-.714-.648-1.34-.662-2.061-.009-.389.772-.653.598-1.001-.487-.975-1.4-1.697-2.273-2.35-.276-.207-.685-.166-1.026-.118-.512.07-1.047.182-1.48.465-1.516.99-3.1 1.962-4.305 3.314-1.588 1.78-2.764 3.898-3.962 5.962-.63 1.085-.857 2.376-1.504 3.453-.84 1.401-1.616 2.96-2.93 3.931-1.298.96-3.144.848-4.565 1.612a3.808 3.808 0 0 0-1.606 1.705c-.285.613-.196 1.35-.13 2.023.044.471.037 1.121.454 1.346.603.325 1.42.267 2.054.009.796-.325 1.13-1.529 1.98-1.652.454-.066.537.844.463 1.298-.716 4.362-2.129 8.594-2.806 12.963-.062.401.637.633.636 1.04 0 .388-.525.602-.642.972-.106.335-.09.715 0 1.055.184.687.848 1.262.812 1.973-.047.943-.474 1.88-1.043 2.634-.565.746-1.65.968-2.234 1.7-.78.977-.923 2.389-1.769 3.31-2.69 2.935-5.646 5.637-8.74 8.144-1.494 1.212-3.252 2.064-4.955 2.958-1.186.623-2.357 1.653-3.694 1.583-1.1-.058-1.893-1.16-2.69-1.917-.492-.465-.813-1.09-1.116-1.694-1.218-2.433-2.163-5-3.44-7.403a2.752 2.752 0 0 0-1.063-1.065c-1.162-.659-2.353-1.374-3.666-1.616-1.679-.31-3.448-.343-5.12-.002-2.209.45-4.305 1.382-6.346 2.341-1.225.577-2.16 2.805-3.389 2.237-1.668-.77-1.274-3.527-2.454-4.935-1.276-1.521-2.9-2.843-4.724-3.627-1.232-.53-2.689-.277-4.023-.133-.713.077-1.287.74-2.003.784-.388.024-.612-.599-1-.599-.389 0-.612.607-1 .599-.388-.009-.602-.523-.97-.642-.347-.11-.762-.173-1.09-.018-3.614 1.714-7.233 3.455-10.626 5.574-4.709 2.94-8.919 6.633-13.629 9.573-3.394 2.12-6.966 3.97-10.63 5.576-.636.277-1.406.15-2.079-.012-.33-.08-.608-.373-.768-.674-.966-1.82-1.992-3.642-2.574-5.618a5.65 5.65 0 0 1 .004-3.113c.301-1.036.83-2.117 1.7-2.755 3.54-2.594 7.686-4.269 11.294-6.767.77-.532 1.006-1.605 1.701-2.231.721-.648 1.792-.838 2.474-1.527 1.236-1.246 2.205-2.736 3.191-4.188.148-.219.272-.526.177-.772-.33-.863-.865-1.638-1.392-2.397-.657-.946-1.343-1.883-2.15-2.705-.137-.14-.393-.125-.583-.075-1.953.51-3.983.863-5.8 1.743-2.139 1.036-4.066 2.483-5.94 3.944a17.03 17.03 0 0 0-3.099 3.1c-1.347 1.774-2.724 3.59-3.553 5.657-.236.588.75 1.216.552 1.818-.268.816-1.04 1.418-1.764 1.88-3.456 2.201-7.02 4.248-10.696 6.057-2.375 1.17-5.043 1.67-7.41 2.854-.67.336-.87 1.313-1.55 1.629-.285.133-.464-.461-.765-.553a1.74 1.74 0 0 0-1.052 0c-.37.128-.562.627-.947.695-1.01.177-2.148.44-3.08.01-1.77-.818-3.155-2.3-4.634-3.572-2.023-1.74-3.818-3.738-5.86-5.456-1.28-1.076-2.856-1.776-4.086-2.908-1.273-1.172-2.386-2.525-3.366-3.951-.179-.261-.17-.684 0-.95.462-.721 1.311-1.132 1.79-1.842.984-1.463 2.387-2.872 2.566-4.627.17-1.673-.737-3.343-1.609-4.781-.33-.544-1.12-.677-1.75-.76-1-.131-2.176-.415-3.02.134-1.248.81-2.174 2.168-2.679 3.566-1.015 2.805-.89 5.922-1.782 8.768-.336 1.074-.988 2.101-1.85 2.824-3.253 2.727-7.054 4.742-10.356 7.408-1.016.82-1.478 2.213-2.526 2.993-.25.186-.459-.459-.758-.55-.344-.106-.747-.15-1.08-.015-1.392.561-2.615 1.484-3.998 2.063-1.587.664-3.184 1.413-4.887 1.657-.714.102-1.34-.684-2.06-.663-.718.022-1.29.726-2.005.784-2.01.166-4.078.3-6.05-.122-1.327-.284-2.525-1.084-3.578-1.939-.758-.616-1.4-1.447-1.724-2.369-.174-.495.106-1.07.352-1.534.954-1.802 1.922-3.627 3.215-5.204.947-1.155 2.377-1.824 3.422-2.89 1.673-1.705 3.561-3.305 4.71-5.399.34-.62-.607-1.318-.64-2.025-.016-.311.683-.53.505-.786-.509-.728-1.328-1.242-2.153-1.572-.423-.169-.937-.008-1.357.169-.852.356-1.644.855-2.388 1.402-1.756 1.29-3.64 2.473-5.095 4.095-1.294 1.443-2.12 3.252-3.03 4.964a23.956 23.956 0 0 0-1.55 3.666c-.18.54.17 1.293-.235 1.693-2.328 2.298-4.893 4.395-7.675 6.116-3.036 1.878-6.336 3.324-9.666 4.611-.448.173-1.042-.014-1.4-.333-.259-.228-.22-.693-.128-1.025.473-1.696 1.472-3.237 1.798-4.968.075-.397-.547-.623-.672-1.007a1.704 1.704 0 0 1 0-1.055c.126-.368.56-.577.686-.945.113-.333.2-.766 0-1.055-.718-1.034-1.578-2.013-2.618-2.722-1.106-.754-2.377-1.326-3.69-1.58-.397-.076-.624.548-1.008.673a1.764 1.764 0 0 1-1.055 0c-.37-.118-.584-.634-.972-.643-.388-.008-.612.608-1 .599-.388-.009-.602-.525-.973-.642a1.784 1.784 0 0 0-1.054 0c-.37.117-.585.644-.973.642-.39-.002-.59-.577-.974-.652-.989-.194-2.022-.262-3.022-.132-.712.092-1.288.75-2.004.784-.388.018-.602-.525-.973-.642a1.904 1.904 0 0 0-1.055 0c-.688.188-1.272.704-1.976.826-.665.116-1.369.04-2.022-.13-.378-.1-.602-.771-.975-.653-.813.26-1.146 1.599-1.999 1.599-.853 0-1.19-1.329-2-1.599-.368-.123-.62.683-1 .599-.53-.117-1.586-.697-1.209-1.086 2.587-2.667 6.05-4.337 8.842-6.787 1.225-1.075 2.188-2.422 3.152-3.736.605-.827 1.703-1.65 1.538-2.662-.179-1.097-1.264-2.56-2.357-2.357-3.514.648-6.548 2.88-9.69 4.58-.634.341-.927 1.143-1.552 1.498-1.719.979-3.69 1.464-5.4 2.457-1.447.84-2.734 1.933-4.014 3.009-.618.518-1.423.988-1.662 1.758-.398 1.282-.262 2.688-.133 4.023.061.636 1.093 1.29.693 1.788-2.503 3.124-5.963 5.352-8.73 8.243-.993 1.036-1.496 2.48-2.508 3.497-.74.744-1.833 1.043-2.66 1.69-.743.582-1.566 2.8-2.026 1.977-2.012-3.605-1.564-8.234-3.5-11.88-.94-1.767-2.883-2.963-4.758-3.663-1.586-.592-3.46-.504-5.08-.01-1.845.562-3.006 2.764-4.912 3.056-.938.144-1.126-1.72-2.036-1.992-.599-.18-1.314.36-1.655.886-1.497 2.302-2.569 4.858-3.705 7.358-.147.323-.16.706-.123 1.06.083.776-.273 2.084.48 2.294.823.23 1.193-1.33 2.004-1.6.371-.123.663.786 1.006.6.402-.218.406-.876.337-1.328-.059-.384-.626-.56-.684-.945-.069-.452-.094-1.48.337-1.328 1.03.362 1.701 1.401 2.356 2.275.206.275.187.688.118 1.026-.209 1.026-.912 1.952-.938 3-.019.732.871 1.312.81 2.042-.569 6.675-2.042 13.249-2.68 19.917-.04.42.738.66.671 1.078-1.293 8.016-3.26 15.91-4.7 23.902-.124.684-.139 1.409.016 2.087.091.399.73.608.691 1.015-.349 3.689-1.404 7.284-1.825 10.966a22.254 22.254 0 0 0 .001 4.989c.08.712.713 1.289.783 2.002.03.314-.63.506-.51.797.256.617 1.451.74 1.424 1.408-.03.8-1.56 1.036-1.55 1.837.035 3.027 1.887 5.905 1.677 8.925-.056.796-1.539.566-2.335.519-1.056-.063-2.016-1.012-3.059-.84-.948.157-1.766.933-2.31 1.725-.22.322.143.79.363 1.112.703 1.027 1.278 2.289 2.371 2.884.514.28 1.028-.615 1.605-.717.876-.155 1.97-.59 2.67-.04 1.521 1.192 1.883 3.465 3.332 4.742.513.452 1.382.145 2.05.002.381-.082.592-.565.972-.65.195-.043.396.155.505.322 1.687 2.597 3.66 5.064 4.853 7.92.276.66-.697 1.314-.699 2.029-.003 1.043.953 2.046.685 3.054-.263.99-1.546 1.382-2.092 2.248-.669 1.06-.805 2.407-1.5 3.45-.66.99-1.826 1.569-2.5 2.55-.837 1.22-1.408 2.609-1.978 3.975a40.395 40.395 0 0 0-1.635 4.689c-.098.35-.155.772.021 1.09.302.544.712 1.175 1.316 1.322 1.312.32 2.731.274 4.052-.01.364-.077.278-.716.547-.975 1.161-1.118 2.353-2.231 3.702-3.116 1.69-1.107 3.718-1.648 5.36-2.824.76-.545 1.01-1.6 1.698-2.234 1.047-.961 2.447-1.497 3.452-2.502.693-.693.848-1.813 1.55-2.498 1.391-1.358 2.997-2.493 4.635-3.541.311-.2.903-.443 1.101-.131 1.052 1.659 1.795 3.534 2.264 5.44.1.41-.744.66-.664 1.074.253 1.315.96 2.508 1.582 3.694.894 1.703 1.838 3.392 2.958 4.956.577.804 1.317 1.493 2.1 2.1.807.629 1.624 1.415 2.635 1.578a22.36 22.36 0 0 0 7.108 0c1.012-.164 1.773-1.03 2.638-1.58 1.014-.643 2.077-1.227 2.998-1.997 1.12-.936 2.18-1.96 3.095-3.095 1.772-2.2 2.338-5.794 4.945-6.88 1.37-.571 1.34 2.693 1.602 4.153.072.398-.547.624-.675 1.007-.115.346-.09.735-.023 1.093.495 2.647 1.385 5.223 1.704 7.896.048.404-.63.634-.638 1.04-.007.389.607.613.6 1-.009.408-.679.637-.64 1.042.327 3.332 1.243 6.582 1.71 9.896.098.69.122 1.407-.018 2.089-.145.698-.82 1.26-.82 1.974 0 .713.676 1.276.82 1.974.14.679.32 1.459.01 2.08-2.11 4.238-4.892 8.11-7.154 12.268-.945 1.738-1.48 3.683-2.458 5.402-.357.626-1.179.91-1.5 1.555-1.698 3.392-2.807 7.057-4.503 10.449-1.31 2.619-3.156 4.944-4.496 7.548a50.587 50.587 0 0 0-2.968 6.96c-1.07 3.178-2.019 6.41-2.65 9.703-.26 1.35-.298 2.78 0 4.12a37.277 37.277 0 0 0 2.613 7.659c.336.718.986 1.353 1.728 1.633m4.1-4.002c-.698 0-1.409.143-2.092.003-.292-.06-.613-.283-.686-.572-.722-2.887-1.645-5.798-1.652-8.774-.003-1.674.947-3.221 1.624-4.752.22-.495.938-.72 1.031-1.253.067-.383-.525-.603-.642-.974-.106-.335-.155-.74.001-1.055.542-1.094 1.515-1.941 2.033-3.047.696-1.49.818-3.214 1.578-4.672.467-.896 1.623-1.327 2.03-2.252.157-.356-.79-.664-.599-1.002 1.25-2.187 3.35-3.811 4.6-5.998.192-.338-.757-.646-.599-1.002 1.25-2.81 3.35-5.188 4.598-7.998.158-.356-.658-.62-.597-1.004.052-.33.663-.26.841-.54 1.677-2.641 3.015-5.486 4.671-8.14.177-.284.498-.775.793-.616.407.22.426.843.477 1.303.11.99.155 2.007.001 2.992-.11.709-.75 1.288-.784 2.004-.019.388.523.602.641.97.11.345.153.75.014 1.085-.43 1.036-1.389 1.833-1.679 2.916-.104.387.618.628.622 1.029.005.388-.609.612-.598 1 .01.39.568.592.651.974.148.68.155 1.406.017 2.088-1.312 6.488-2.704 12.965-4.358 19.375-.556 2.157-1.356 4.253-2.263 6.287-.448 1.006-1.127 1.898-1.782 2.784-1.788 2.419-3.537 4.88-5.54 7.125m-64.47-34.318c.447-.438 1.112-.731 1.341-1.313.116-.293-.63-.506-.509-.797.255-.617 1.256-.763 1.424-1.41.163-.627-.67-1.215-.577-1.857.294-2.025 1.4-3.875 1.7-5.9.062-.415-.752-.661-.664-1.072.937-4.381 2.72-8.552 3.657-12.932.084-.394-.544-.622-.67-1.004-.115-.346-.07-.732-.026-1.093.527-4.298 1.426-8.555 1.735-12.874.052-.721-.687-1.341-.666-2.063.02-.717.722-1.29.784-2.004.202-2.322.202-4.67 0-6.993-.062-.714-.75-1.287-.784-2.003-.019-.387.522-.601.641-.971.112-.346.096-.735.023-1.092-.489-2.396-.925-4.818-1.702-7.138-.453-1.351-1.58-2.425-1.963-3.798-.107-.387.723-.642.623-1.03-.28-1.088-1.366-1.854-1.646-2.942-.1-.39.85-.701.622-1.032-1.254-1.827-2.78-3.541-4.615-4.785-2.325-1.578-4.983-2.657-7.65-3.541-.383-.127-.623.547-1.007.672a1.695 1.695 0 0 1-1.054 0c-.37-.13-.559-.642-.947-.695-1.674-.23-3.397-.386-5.066-.13-.759.116-1.193 1.207-1.96 1.207-.767 0-1.249-.92-1.96-1.207-.32-.13-.703-.091-1.037-.003-2.005.53-3.888 1.555-5.942 1.848-.73.104-1.367-.777-2.1-.7-2.296.24-4.53.929-6.73 1.625-.286.09-.502.398-.58.687-.143.534-.362 1.203-.047 1.658.552.796 1.44 1.406 2.368 1.689.394.12.66-.761 1.056-.644 2.306.679 4.581 1.599 6.603 2.899.975.627 1.521 1.759 2.152 2.73.691 1.064 1.058 2.322 1.8 3.35.443.617 1.691.755 1.702 1.514.036 2.588-.64 5.19-1.575 7.604-.379.979-1.363 1.632-2.229 2.227-.425.292-.997.403-1.508.34-.386-.046-.585-.643-.973-.641-.39.002-.587.6-.974.65-1.34.175-2.755.376-4.052 0-1.038-.3-1.895-1.113-2.608-1.925-1.367-1.556-2.228-3.506-3.559-5.093-.545-.65-1.564-.832-2.015-1.548-.168-.267.497-.453.56-.761.137-.681.202-1.415.013-2.083-.389-1.38-1.709-2.511-1.714-3.945-.007-1.745 1.381-3.24 1.682-4.96.07-.398-.65-.631-.632-1.036.032-.73 1.033-1.368.77-2.048-.4-1.037-1.354-2.505-2.442-2.273-1.319.28-1.85 2.04-2.352 3.292-.149.372.783.662.622 1.029-.418.955-1.537 1.44-2.092 2.323-1.024 1.627-1.4 3.648-2.605 5.146-2.91 3.615-6.17 6.962-9.63 10.054-1.753 1.567-3.722 2.998-5.918 3.839-1.279.49-2.779.329-4.108 0a5.52 5.52 0 0 1-2.754-1.696c-1.764-2.018-3.45-4.188-4.534-6.638-.294-.664.746-1.346.681-2.07-.274-3.011-1.364-5.91-1.678-8.917-.042-.405.658-.634.638-1.041-.034-.716-.668-1.296-.783-2.004a4.783 4.783 0 0 1 .132-2.022c.105-.377.706-.556.695-.947-.03-1.044-.803-1.982-.812-3.027-.007-.713.7-1.288.767-1.998.03-.311-.774-.628-.507-.79 4.427-2.68 9.082-4.973 13.743-7.222 5.307-2.561 10.822-4.671 16.144-7.2 1.314-.623 2.735-1.194 3.742-2.244.364-.38.223-1.145-.079-1.576-.272-.387-.873-.425-1.345-.454-1.348-.083-2.76-.277-4.05.122-1.678.518-3.199 1.506-4.609 2.553-.68.505-.836 1.562-1.552 2.017-.264.167-.46-.458-.758-.55-.346-.106-.748-.147-1.086-.02a50.617 50.617 0 0 0-5.618 2.569c-.506.266-.762.98-1.323 1.092-.393.079-.665-.79-1.029-.622-3.458 1.598-6.528 3.938-9.916 5.679-.32.165-.754.126-1.079-.028-.183-.086-.248-.38-.195-.575.72-2.681 1.388-5.4 2.486-7.948.118-.272.425.45.71.536.335.1.804.242 1.052-.006.33-.33.378-.901.314-1.362-.054-.385-.634-.585-.642-.973-.009-.39.764-.65.598-1.001-.612-1.302-1.528-2.514-2.666-3.395-.437-.34-1.126-.103-1.659.047-.306.086-.569.345-.72.624-.639 1.173-1.43 2.343-1.615 3.666-.128.924.93 1.793.728 2.704-.213.96-1.574 1.36-1.839 2.308-.175.63.824 1.2.683 1.838-.195.88-1.339 1.33-1.576 2.2-.109.404.77.633.694 1.043-.236 1.302-.719 2.624-1.547 3.657-.667.83-1.723 1.315-2.728 1.67-.82.292-1.924-.33-2.6.217-.99.803-1.31 2.195-1.819 3.364-.142.325-.133.705-.106 1.058.035.446.084.914.291 1.31.365.695.688 2.243 1.394 1.898 1.593-.778 1.962-3.002 3.283-4.184.301-.268 1.121-.216 1.195.18 1.208 6.479 1.29 13.136 2.497 19.615.37 1.988 1.291 3.847 2.208 5.649.767 1.506 1.778 2.88 2.814 4.216.597.769 1.242 1.545 2.064 2.065 1.13.716 2.377 1.326 3.691 1.58.396.077.623-.547 1.006-.672a1.743 1.743 0 0 1 1.055 0c.384.125.611.749 1.007.672 1.315-.255 2.552-.881 3.694-1.582 2.428-1.492 4.87-3.027 6.962-4.962 3.358-3.105 5.99-6.934 9.307-10.082.222-.211.602.276.733.553 1.31 2.772 2.053 5.806 3.536 8.488.824 1.49 2.104 2.687 3.308 3.889.808.808 1.71 1.542 2.698 2.114 1.16.67 2.381 1.317 3.694 1.582.395.08.63-.631 1.034-.628.388.002.601.523.971.64.346.113.745.136 1.09.022 2.244-.742 4.602-1.318 6.61-2.565 1.486-.924 2.703-2.311 3.628-3.798.212-.34-.726-.642-.622-1.03.292-1.083 1.382-1.835 1.685-2.916.28-1 .254-2.107.005-3.115-.54-2.19-1.448-4.275-2.34-6.345-.394-.911-.85-1.822-1.505-2.566-.59-.673-1.527-.965-2.156-1.602-.646-.656-1.77-1.326-1.624-2.235.143-.887 1.361-1.285 2.23-1.513.387-.102.6.68 1.001.665 1.046-.042 1.99-.72 3.03-.828a23.41 23.41 0 0 1 4.993 0c.713.08 1.288.75 2.004.784.388.019.584-.648.973-.642.704.01 1.295.66 2 .686.631.022 1.247-.834 1.811-.551 1.004.503 1.283 1.897 2.19 2.558.451.33 1.22-.096 1.66.25.984.777 1.833 1.79 2.367 2.927.214.454-.419.988-.299 1.475.076.307.651.239.792.523.687 1.38 1.2 2.85 1.623 4.333.86 3.003 1.75 6.015 2.22 9.102.061.402-.68.606-.68 1.013.001.704.678 1.295.686 2 .007.709-.665 1.319-.642 2.027.022.714.768 1.286.768 2s-.739 1.286-.769 2c-.017.408.67.635.641 1.042-.334 4.987-1.412 9.906-1.709 14.895-.044.735.838 1.374.697 2.097-.537 2.736-2.059 5.207-2.662 7.929-.09.41.738.659.666 1.074-.295 1.704-1.316 3.216-1.7 4.902-.228.995-.239 2.045-.118 3.058.076.636.852 1.172.695 1.794-.223.888-1.483 1.274-1.693 2.166-.356 1.517-.473 3.22.085 4.676m239.864-10.621c.621-1.326 1.521-2.554 1.863-3.978.097-.404-.752-.66-.652-1.063.27-1.091 1.365-1.854 1.646-2.942.1-.39-.693-.635-.623-1.03.095-.532.83-.75 1.031-1.252 2.97-7.442 5.453-15.072 8.451-22.502a269.258 269.258 0 0 1 7.071-15.972c1.157-2.405 2.54-4.7 3.96-6.96 1.423-2.26 3.187-4.298 4.563-6.587.645-1.072.798-2.398 1.474-3.45.425-.662.974-1.484 1.755-1.577.454-.053.404.877.337 1.328-.105.707-.773 1.264-.827 1.976a61.63 61.63 0 0 0 0 8.993c.051.716.752 1.288.784 2.004.017.39-.589.588-.652.974-.162 1.004-.25 2.067.001 3.052.138.538.833.763 1.101 1.249.608 1.097.867 2.368 1.501 3.45.303.518.706 1.069 1.268 1.277 1.097.407 2.34.758 3.476.484 2.04-.493 3.961-1.507 5.69-2.697a44.632 44.632 0 0 0 7.123-6.123c.857-.907.971-2.34 1.77-3.298.892-1.072 2.34-1.594 3.212-2.684 1.04-1.301 1.506-2.98 2.424-4.37 2.432-3.685 3.711-8.776 7.615-10.84 1.778-.94 1.955 3.556 2.501 5.492.113.4-.793.67-.652 1.062 1.205 3.336 2.585 6.658 4.513 9.634.675 1.04 1.968 1.54 3.082 2.085 1.51.739 3.071 1.49 4.734 1.739 1.994.299 4.084.335 6.048-.124 2.026-.473 3.937-1.461 5.67-2.612.838-.557 1.138-1.673 1.85-2.384.985-.985 2.247-1.67 3.211-2.676.858-.895 1.044-2.585 2.217-2.988.76-.26 1.322.96 1.787 1.614.996 1.404 1.322 3.285 2.55 4.493 1.25 1.232 2.88 2.238 4.607 2.553 3.295.602 6.722.523 10.048.124 1.446-.174 2.558-1.481 3.977-1.81.402-.092.665.776 1.057.647 1.678-.555 3.175-1.57 4.652-2.534.61-.398.93-1.185 1.57-1.521 1.49-.77 3.22-.987 4.71-1.737.55-.274.79-.961 1.31-1.281 2.08-1.272 4.39-2.136 6.42-3.465.83-.54 1.5-1.31 2.09-2.095.63-.814 1.48-1.64 1.54-2.662.04-.627-.68-1.235-1.29-1.37-.69-.152-1.32.606-2.03.64-.31.015-.53-.688-.78-.506-.73.519-1.25 1.339-1.54 2.178-.1.289.78.604.51.76-1.73 1.023-3.79 1.357-5.6 2.245-4.38 2.157-8.43 5.006-12.942 6.88-3.067 1.273-6.33 2.288-9.644 2.499-1.653.105-3.462-.496-4.71-1.585-1.704-1.487-3.077-3.53-3.656-5.715-.693-2.615-.454-5.447-.006-8.115.461-2.745 2.07-5.192 2.696-7.905.091-.393-.622-.631-.628-1.034-.005-.39.768-.653.6-1.006-.198-.418-.843-.43-1.304-.477-.67-.07-1.369-.048-2.019.132a1.188 1.188 0 0 0-.726.63c-.956 2.096-1.537 4.349-2.5 6.442-.23.5-.952.736-1.05 1.278-.073.397.727.644.628 1.035-.586 2.317-1.563 4.527-2.58 6.69a11.844 11.844 0 0 1-1.964 2.966c-1.647 1.793-3.422 3.483-5.339 4.983-1.352 1.058-2.808 2.05-4.418 2.65-.375.139-.646-.743-1.028-.622-.747.235-1.017 1.449-1.798 1.51-.692.057-1.035-.971-1.678-1.234-.253-.103-.526.304-.789.228a15.803 15.803 0 0 1-3.463-1.458c-.914-.526-1.878-1.098-2.48-1.963-.188-.27.617-.504.54-.823-.978-4.032-2.15-8.03-3.628-11.906-.715-1.873-1.746-3.633-2.918-5.26-.137-.191-.358.503-.575.412-.832-.347-1.337-1.314-2.2-1.57-.336-.1-.618.38-.798.68-1.239 2.068-2.186 4.302-3.426 6.369a79.955 79.955 0 0 1-4.002 6.004c-.445.609-1.155.999-1.574 1.626-.923 1.385-1.417 3.04-2.422 4.368-1.085 1.43-2.602 2.484-3.79 3.83-.277.316-.276.824-.573 1.12-2.477 2.465-4.929 4.987-7.7 7.116-1.02.783-2.447 2.187-3.546 1.52-1.654-1.001-1.79-3.432-2.546-5.211-.14-.33-.12-.708-.12-1.065.003-1.341-.075-2.696.133-4.02.061-.386.652-.583.652-.974s-.553-.596-.652-.974c-.17-.654-.239-1.355-.13-2.022.113-.708.738-1.288.782-2.004.024-.388-.622-.612-.598-1 .044-.716.737-1.288.784-2.004.173-2.67.485-5.42-.134-8.022-.253-1.064-1.422-1.698-2.324-2.316-.29-.2-.803-.245-1.055 0-1.754 1.705-3.386 3.568-4.722 5.618-1.08 1.657-1.473 3.685-2.457 5.4-.378.659-1.154 1.013-1.582 1.64-1.76 2.582-3.4 5.247-4.958 7.956-1.12 1.948-2.056 3.996-3.069 6.002-1.012 2.006-2.148 3.957-3.005 6.035-1.957 4.746-3.469 9.667-5.428 14.412-.21.51-.943.737-1.05 1.278-.076.382.646.617.596 1.003-.039.313-.645.24-.79.522-1.082 2.082-2.12 4.209-2.828 6.446-.098.31.663.522.532.82-.297.675-1.373.843-1.575 1.552-.163.573.713 1.067.662 1.66-.027.306-.634.609-.84.38-.846-.936-1.602-2.08-1.818-3.323-.18-1.04.725-2.031.702-3.086-.015-.711-.81-1.262-.81-1.973-.002-.732.861-1.312.81-2.042-.578-8.001-2.029-15.921-2.683-23.916-.033-.406.632-.634.64-1.042.008-.388-.607-.612-.598-1 .008-.388.525-.602.642-.973a1.786 1.786 0 0 0 0-1.054c-.117-.371-.642-.584-.642-.973 0-.388.522-.601.641-.97.112-.347.091-.735.024-1.093-.495-2.647-1.386-5.223-1.704-7.896-.048-.406.534-.651.638-1.047.037-.14-.133-.317-.276-.332-1.012-.102-2.069-.27-3.05-.005-.36.098-.28.715-.547.977-1.738 1.704-3.84 3.039-5.43 4.884-.478.555-.117 1.562-.597 2.115-1.68 1.936-3.677 3.59-5.71 5.152-1.002.768-2.31 1.056-3.337 1.79-.677.486-.917 1.563-1.707 1.823-1.163.384-2.534.404-3.672-.047-1.02-.403-1.868-1.33-2.326-2.325-.42-.916-.21-2.017-.133-3.023.04-.52.2-1.047.482-1.485.336-.52.801-.967 1.32-1.306 1.898-1.246 4.103-2.023 5.892-3.424.247-.194-.444-.488-.508-.795-.029-.14.134-.342.274-.323.702.093 1.325.714 2.028.629.366-.045.28-.726.576-.944 1.94-1.425 4.172-2.432 6.055-3.93.733-.582 1.041-1.571 1.701-2.236.607-.612 1.632-.81 2.062-1.555.352-.608.617-1.69.052-2.106-1.545-1.142-3.527-1.81-5.447-1.881-1.664-.062-3.216.89-4.766 1.502-1.294.51-2.638 1.003-3.738 1.853-1.68 1.299-3.077 2.935-4.499 4.513-.28.312-.278.822-.573 1.119-.648.65-1.72.875-2.195 1.659-.81 1.34-.538 3.217-1.499 4.452-1.212 1.557-2.974 2.66-4.732 3.554-.357.182-.665-.79-1.029-.622-3.363 1.543-6.565 3.448-9.634 5.514-.704.474-.773 1.683-1.552 2.017-.59.253-1.258-.835-1.84-.564-2.526 1.177-4.389 3.545-6.945 4.655-.655.285-1.286-.795-2-.768-1.05.039-1.967.783-3.004.953-.667.109-1.369.039-2.022-.132-.378-.098-.584-.641-.974-.651-.389-.011-.66.782-1.003.598-1.133-.607-1.987-1.653-2.81-2.641-.464-.557-.705-1.27-1-1.931-.545-1.215-1.27-2.385-1.516-3.693-.075-.395.596-.63.626-1.031.023-.294-.736-.57-.492-.733 1.254-.847 2.834-1.08 4.184-1.76a45.09 45.09 0 0 0 4.694-2.721c1.495-.996 3.01-2.002 4.288-3.265 1.398-1.382 2.711-2.9 3.678-4.612.852-1.508 1.718-3.18 1.702-4.912-.014-1.608-.98-3.09-1.787-4.482-.453-.782-1.082-1.575-1.919-1.916-.833-.34-1.839-.228-2.699.036-1.074.329-1.833 1.393-2.917 1.685-.388.104-.706-.86-1.03-.622-2.167 1.586-3.983 3.616-5.784 5.609-.807.893-1.412 1.956-2.002 3.004-1.053 1.87-2.12 3.747-2.92 5.738-.773 1.922-1.44 3.91-1.779 5.954-.22 1.334-.212 2.744.118 4.055.578 2.292 1.485 4.509 2.57 6.609.585 1.133 1.36 2.233 2.386 2.988 1.61 1.184 3.426 2.17 5.353 2.703.694.19 1.338-.656 2.06-.66.387-.003.6.522.97.64.346.113.734.095 1.092.025 2.756-.543 5.663-.695 8.22-1.86 6.752-3.074 12.243-9.15 19.487-10.755 2.076-.46.946 4.368 2.416 5.904 1.475 1.54 3.68 2.83 5.807 2.688 2.835-.19 5.288-2.142 7.731-3.594 1.038-.616 1.654-1.767 2.586-2.534 1-.823 2.274-1.303 3.191-2.217 1.917-1.91 2.776-5.091 5.247-6.193 1.074-.478 1.4 1.98 1.612 3.136.13.709-.645 1.338-.659 2.059-.008.388.598.612.598 1s-.598.612-.598 1 .607.612.598 1c-.008.388-.522.6-.64.97-.114.347-.068.73-.027 1.093.521 4.638 1.39 9.239 1.71 13.895.028.426-.715.658-.683 1.084.308 3.999 1.431 7.912 1.681 11.916.046.73-.802 1.31-.809 2.042-.008.714.728 1.287.768 2 .022.388-.599.61-.599 1 0 .388.61.612.6 1-.01.39-.57.592-.652.974a4.928 4.928 0 0 0 0 2.052c.082.382.65.583.651.974.002.389-.525.602-.642.973-.106.335-.09.715 0 1.054.184.687.813 1.262.812 1.973-.002.713-.677 1.276-.82 1.974-.14.68-.218 1.42-.015 2.084.423 1.38.977 2.766 1.852 3.913.322.422.982.49 1.513.498m-790.73-8.25c1.232-.563 2.58-.925 3.697-1.69 2.698-1.848 5.203-3.97 7.68-6.103 1.428-1.23 2.83-2.514 4.019-3.976 2.272-2.792 3.961-6.04 6.335-8.746.221-.252.63.326.791.62.971 1.773.98 4.235 2.56 5.497 2.111 1.686 5.015 2.09 7.655 2.665 1.321.287 2.73.145 4.055-.118 1.687-.336 3.314-.964 4.887-1.662 2.66-1.18 5.435-2.232 7.777-3.957 4.46-3.283 8.535-7.078 12.485-10.96.224-.22-.462-.463-.552-.764-.1-.335-.324-.953.012-1.05.764-.22 1.622.67 2.357.367 1.063-.44 1.844-1.432 2.501-2.375 1.213-1.745 1.8-3.88 3.046-5.601.55-.76 1.57-1.045 2.238-1.702.608-.597.722-2.197 1.558-2.03 4.255.858 8.125 3.065 12.112 4.78 1.14.492 2.276 1.053 3.241 1.833 1.493 1.207 2.944 2.52 4.07 4.076 1.127 1.557 1.647 3.479 2.605 5.146a25.39 25.39 0 0 0 2.178 3.176c.59.737 1.2 1.494 1.978 2.026 2.032 1.388 4.05 2.939 6.392 3.69 1.623.523 3.433.287 5.115.007 1.633-.273 3.193-.928 4.688-1.64a30.048 30.048 0 0 0 4.935-2.94c1.157-.854 1.855-3.708 3.107-2.998 2.708 1.537 2.987 5.583 5.238 7.734 2.236 2.137 5.048 3.684 7.917 4.838 1.262.508 2.732.167 4.08-.01.387-.05.584-.666.974-.651.714.028 1.286.768 2 .768s1.286-.738 2-.768c.387-.017.601.523.97.64.347.113.738.108 1.092.023 3.308-.79 6.641-1.53 9.858-2.636 3.921-1.348 7.786-2.892 11.511-4.712 2.081-1.016 3.81-2.652 5.841-3.763 2.41-1.317 5.063-2.153 7.453-3.504.623-.351 1.431-.833 1.487-1.546.055-.693-.939-1.052-1.233-1.681-.12-.258.264-.668.047-.852-.276-.234-.748-.162-1.085-.03-2.524.988-5.01 2.089-7.408 3.356-3.34 1.766-6.395 4.056-9.783 5.732-2.51 1.24-5.182 2.14-7.849 2.99-3.236 1.033-6.479 2.155-9.84 2.65-2.677.395-5.438.366-8.12-.002-1.323-.182-2.547-.887-3.666-1.617-1.436-.936-2.8-2.032-3.92-3.33-1.119-1.298-2.024-2.798-2.717-4.365-.277-.626-.19-1.37-.122-2.05.053-.518.167-1.071.482-1.486.8-1.057 2.003-1.768 2.791-2.834 1.154-1.563 2.113-3.268 2.997-4.998 2.297-4.494 4.662-8.972 6.536-13.658.15-.373-.542-.62-.674-1-.183-.528.098-1.221-.249-1.661-.61-.774-1.426-1.703-2.412-1.714-1.99-.022-4.05.584-5.746 1.626-1.194.733-1.55 2.342-2.456 3.41-1.279 1.51-3.007 2.65-4.084 4.31-.218.337.711.639.621 1.029-.347 1.516-1.493 2.772-1.839 4.288-.855 3.755-.31 7.845-1.738 11.422-.62 1.555-2.584 2.15-4.02 3.01-2.806 1.686-5.599 3.477-8.67 4.608-.675.249-1.336-.648-2.055-.655-.4-.005-.663.785-1.029.622-2.083-.93-4.306-1.921-5.78-3.661-2.035-2.4-2.658-5.73-4.403-8.346-.568-.852-1.698-1.166-2.422-1.89-.973-.974-1.514-2.386-2.642-3.176-1.62-1.134-3.658-1.522-5.4-2.457-.507-.271-.728-1.051-1.296-1.135-.702-.104-1.355.862-2.029.64-.97-.317-1.384-1.554-2.277-2.05-1.874-1.038-4.38-1.006-5.922-2.494-.556-.538 1.351-.98 1.551-1.728.351-1.304.463-2.783 0-4.052-.374-1.027-1.42-1.698-2.322-2.316-.298-.204-.75-.153-1.084-.014-1.036.43-1.833 1.388-2.916 1.679-.387.104-.627-.618-1.027-.621-.33-.002-.593.339-.784.609-.6.847-1.566 1.657-1.56 2.696.006 1.348.962 2.526 1.592 3.718.258.486.942.735 1.05 1.274.075.38-.578.612-.598.999-.016.31.675.524.506.786-.46.712-1.455.913-2.015 1.549-.688.782-.993 1.849-1.67 2.639-1.326 1.548-2.985 2.788-4.308 4.338-.594.696-.76 1.709-1.407 2.356-.693.693-1.76.904-2.497 1.55-.419.368-.469 1.047-.885 1.418-2.809 2.502-5.713 4.906-8.734 7.149-1.559 1.158-3.25 2.136-4.974 3.03-1.839.957-3.694 1.949-5.69 2.509-.385.108-.628-.626-1.028-.621-.389.004-.584.642-.973.642-.709 0-1.318-.632-2.027-.642-.389-.006-.637.735-1 .598a13.42 13.42 0 0 1-4.199-2.55c-.224-.201.453-.436.541-.725.102-.335.151-.735 0-1.052-.237-.5-.829-.761-1.092-1.247-.636-1.177-1.315-2.38-1.579-3.691-.08-.395.623-.631.628-1.034.006-.388-.607-.612-.598-1 .013-.606.746-1.096.658-1.695-.084-.566-1.079-.746-1.1-1.318-.02-.512 1.098-.66 1.004-1.163-.167-.894-.979-1.555-1.632-2.19-.148-.144-.43-.08-.622 0-.537.226-1.223.38-1.503.892-2.502 4.582-4.098 9.632-6.713 14.15-.851 1.472-2.478 2.338-3.578 3.634-.838.987-1.34 2.238-2.217 3.192-1.39 1.512-2.933 2.89-4.547 4.163a35.264 35.264 0 0 1-4.725 3.149c-1.164.644-2.382 1.282-3.692 1.515-.398.07-.623-.548-1.005-.681-.529-.184-1.217.092-1.662-.25-.77-.588-1.29-1.475-1.722-2.343-.166-.331-.119-.76 0-1.111.764-2.272 1.521-4.567 2.627-6.694 1.097-2.11 2.466-4.08 3.943-5.94a23.388 23.388 0 0 1 3.818-3.838c1.844-1.453 3.785-2.835 5.913-3.828.475-.222 1.055.135 1.533.35 1.533.696 2.867 1.827 4.462 2.366.455.154 1.438.09 1.388-.387-.171-1.652-.977-3.228-1.906-4.604-.547-.811-1.424-1.478-2.37-1.731-1.322-.353-2.793-.387-4.107 0-1.694.498-3.212 1.52-4.63 2.573-2.575 1.915-5.095 3.947-7.292 6.287-.296.315.42.922.184 1.286-.46.712-1.455.914-2.015 1.549a12.887 12.887 0 0 0-1.94 2.939c-1.35 2.824-3.206 5.564-3.613 8.667-.266 2.023.611 4.157 1.704 5.88.79 1.246 2.196 2.185 3.63 2.532m798.052-3.061c-.119-.437-.35-.858-.358-1.31-.003-.146.255-.405.332-.282.245.387.324.875.332 1.332m-477.988-8.986c.216-.45.19-1.15.647-1.347.36-.155.608.528.981.646.336.106.766.199 1.055-.001 1.025-.706 2.121-1.48 2.694-2.583.912-1.76 1.33-3.76 1.614-5.72.058-.402-.632-.633-.635-1.04-.002-.4.773-.656.622-1.027-1.232-3.034-2.848-5.91-4.569-8.695-.8-1.297-2.139-2.202-2.957-3.488-.116-.183.216-.436.425-.491 2.543-.674 5.088-1.81 7.715-1.664 3.381.188 6.664 1.387 9.811 2.637 1.45.575 2.675 1.656 3.777 2.758 1.25 1.25 2.544 2.585 3.207 4.224 1.625 4.022 1.94 8.492 3.558 12.517.235.584 1.136.817 1.755.7.643-.123 1.214-.707 1.46-1.313.925-2.281 1.163-4.79 1.96-7.118.144-.42.768-.6.835-1.038.071-.455-.679-.884-.475-1.296 1.625-3.274 3.543-6.425 5.752-9.337.877-1.156 2.061-2.156 3.398-2.72.946-.398 2.09-.282 3.08-.01.988.27 1.872.895 2.636 1.577 2.57 2.293 4.956 4.787 7.31 7.3.287.306.278.822.574 1.119.66.663 1.608 1.004 2.233 1.7.775.86 1.457 1.837 1.911 2.903.782 1.839 1.07 3.855 1.762 5.73.072.193.29.35.494.373.446.052.932.033 1.335-.161.708-.341 1.476-.734 1.9-1.395.167-.263-.523-.475-.507-.786.02-.387.602-.61.597-.998-.005-.401-.752-.65-.622-1.03.683-1.992 1.55-3.997 2.9-5.615 2.25-2.7 4.9-5.09 7.746-7.148 1.68-1.214 3.612-2.306 5.67-2.55 1.031-.122 1.871.93 2.697 1.558.773.588 1.557 1.23 2.06 2.06 1.024 1.693 1.456 3.695 2.457 5.402.874 1.49 1.742 3.105 3.131 4.133 2.607 1.93 5.433 3.855 8.601 4.55 1.644.36 3.238-.948 4.786-1.61.342-.147.586-.475.8-.78 2.81-4.02 4.826-8.673 8.26-12.174.621-.634 1.387 1.28 1.571 2.15.15.714-.884 1.38-.678 2.082.79 2.695 2.09 5.237 3.53 7.649.874 1.467 1.894 2.98 3.346 3.879 2.251 1.393 4.79 2.739 7.435 2.789 1.782.034 3.188-1.605 4.694-2.556.441-.278.863-.644 1.105-1.105 1.653-3.148 3.318-6.312 4.541-9.65.14-.378-.6-.63-.627-1.032-.02-.315.598-.494.51-.797-.194-.666-1.096-.998-1.232-1.68-.17-.851.595-1.736.382-2.58-.333-1.318-1.104-2.516-1.939-3.59-1.158-1.493-2.443-2.94-3.982-4.034-1.635-1.164-3.492-2.05-5.407-2.65-.385-.121-.63.633-1.034.628-.39-.004-.588-.591-.974-.652-1.325-.208-2.719-.454-4.02-.133-1.943.48-3.699 1.544-5.469 2.478-1.074.567-2.082 1.26-3.037 2.01-.335.263-.757.573-.799.997-.04.388.658.619.597 1.004-.052.329-.65.267-.842.54-.75 1.074-1.193 2.34-1.928 3.424-.343.505-.96.79-1.28 1.31-1.282 2.08-1.978 4.53-3.495 6.446-.94 1.187-2.388 1.88-3.699 2.639-.306.177-.702.134-1.054.108-.443-.032-.912-.071-1.302-.282-1.51-.816-3.224-1.467-4.343-2.77-2.938-3.42-4.5-7.924-7.63-11.168-1.446-1.497-3.71-1.91-5.67-2.611-.538-.193-1.199-.28-1.714-.032-.67.323-.873 1.298-1.55 1.604-.298.134-.533-.685-.822-.533-3.029 1.599-6.073 3.29-8.659 5.537-2.352 2.043-2.914 7.728-5.98 7.18-4.468-.795-6.299-6.534-9.33-9.91-.28-.312-.276-.824-.574-1.12-.827-.815-1.762-1.527-2.74-2.152-1.443-.922-2.82-2.148-4.5-2.474-.687-.133-.98 1.116-1.66 1.28-.52.128-.996-.446-1.53-.503-.68-.073-1.406-.11-2.05.122-.954.342-1.886.848-2.612 1.554-.702.684-.912 1.754-1.55 2.497-.344.4-1.012.435-1.328.856-.722.96-1.018 2.19-1.703 3.178-.478.688-1.413 1.036-1.753 1.802-.203.459.495 1.013.3 1.476-.518 1.226-1.144 3.92-2.3 3.263-2.37-1.348-2.69-4.75-4.247-6.987-.547-.786-1.265-1.455-2.03-2.03-2.163-1.625-4.307-3.33-6.723-4.547-.362-.182-.637.694-1.039.635-2.373-.347-4.575-1.597-6.964-1.805-1.043-.091-1.95.903-2.997.939-.714.025-1.286-.74-2-.768-.39-.016-.59.577-.974.65-1.209.236-2.507-.103-3.685.255-.735.223-1.118 1.098-1.817 1.417-.249.114-.526-.304-.789-.228-1.282.373-2.387 1.296-3.7 1.534-.4.072-.61-.6-1.009-.682a10.206 10.206 0 0 0-3.026-.146c-1.364.133-2.657.874-4.027.833-.37-.011-.27-.72-.546-.967-.726-.655-1.437-1.863-2.399-1.69-1.264.229-1.979 1.656-2.813 2.633-.769.9-1.387 1.926-1.962 2.962-.665 1.198-1.052 2.54-1.747 3.72-.828 1.406-2.148 2.515-2.805 4.007-.158.357.68.623.598 1.004-.076.356-.707.283-.933.569-.753.956-1.205 2.124-1.948 3.088-.456.593-1.244.906-1.623 1.552-.113.192.576.399.4.534-.945.72-2 1.588-3.189 1.596-1.038.007-1.949-.837-2.696-1.557-1.03-.994-1.575-2.405-2.527-3.475-.35-.393-1.036-.418-1.328-.857-1.068-1.603-1.636-3.5-2.662-5.13-.959-1.523-2.098-2.93-3.27-4.295-.869-1.011-1.758-2.037-2.839-2.817-1.432-1.033-2.98-1.942-4.63-2.573-.659-.252-1.43-.171-2.116-.007-2.909.694-5.909 1.254-8.598 2.563-1.97.959-3.592 2.55-5.125 4.116-1.04 1.063-1.952 2.312-2.514 3.689-.147.36.712.63.598 1.002-.18.586-.69 1.3-1.304 1.299-.463-.001-.444-.842-.479-1.304-.126-1.66-.186-3.34 0-4.993.08-.712.748-1.287.783-2.003.02-.406-.687-.637-.636-1.04.308-2.432.898-4.836 1.674-7.161.572-1.712 1.748-3.177 2.35-4.88 2.08-5.89 4.183-11.793 5.68-17.858.407-1.647.504-3.473-.016-5.087-.333-1.038-1.263-2.344-2.35-2.273-1.27.083-1.96 1.64-2.786 2.609a15.657 15.657 0 0 0-1.968 2.973 11.96 11.96 0 0 0-.998 2.779c-2.013 8.684-3.04 17.62-5.703 26.128-1.192 3.808-3.77 7.036-5.759 10.495-.6 1.044-1.24 2.073-2.002 3.005-.91 1.114-2.495 1.759-2.997 3.107-.233.626 1.384.899 1.261 1.555-.099.528-1.229-.168-1.596.224-1.186 1.268-2.11 2.809-2.752 4.423-.144.362.607.612.598 1-.008.389-.526.603-.642.974-.104.335-.272.847.013 1.052.31.223.766-.377 1.12-.236.837.334 1.31 1.476 2.207 1.563.47.045-.529-.957-.32-1.381 1.111-2.246 2.842-4.133 4.114-6.292.924-1.568 1.462-3.352 2.463-4.872.115-.174.361.549.491.386.75-.938 1.023-2.19 1.728-3.16.397-.548.855-1.332 1.532-1.334.457-.001.397.875.338 1.328-.05.385-.642.585-.642.973 0 .389.525.602.642.973.106.335.091.715 0 1.054-.185.687-.804 1.262-.812 1.973-.008.714.768 1.286.768 2 0 .729-.924 1.334-.77 2.046.193.893 1.356 1.31 1.681 2.163.114.296-.517.453-.562.767-.146 1.007-.633 2.263.01 3.052.598.736 2.303 1.22 2.814.42 1.726-2.698 1.664-6.197 2.797-9.193.392-1.035 1.253-1.833 1.748-2.824.836-1.676 1.22-3.581 2.233-5.155.782-1.213 1.91-2.19 3.06-3.061 1.01-.765 2.312-1.071 3.35-1.797.614-.43.87-1.313 1.55-1.628.285-.133.464.46.765.552.335.102.718.107 1.052 0 .371-.116.584-.633.973-.641.388-.01.612.603 1 .598.401-.004.642-.73 1.03-.622a9.75 9.75 0 0 1 3.602 1.899c1.251 1.043 2.164 2.439 3.153 3.734.72.94 1.4 1.92 1.962 2.962.597 1.104.805 2.41 1.506 3.453.304.452 1.052.43 1.392.856 1.006 1.26 1.597 2.814 2.566 4.103a11.256 11.256 0 0 0 2.1 2.1c.808.629 1.638 1.346 2.635 1.578 1.324.309 2.841.55 4.08-.011 1.842-.834 3.412-2.31 4.62-3.932 2.566-3.45 4.146-7.55 6.567-11.102.301-.441 1.14-1.1 1.455-.67 1.34 1.837 1.618 4.259 2.646 6.287 1.2 2.369 2.245 4.903 4.024 6.875 1.11 1.229 3.008 1.428 4.345 2.404.451.33.49 1.032.891 1.42.704.68 1.432 1.458 2.372 1.729 1.298.374 2.702.202 4.05.122m-.964-4.006c-.503-.157-1.05-.21-1.508-.47-1.132-.645-2.229-1.371-3.214-2.223-1.462-1.264-3.067-2.467-4.098-4.101-1.868-2.961-3.784-6.068-4.482-9.5-.18-.881 1.37-1.282 2.242-1.506.39-.1.613.57 1.002.674.653.174 1.357.249 2.022.132.705-.124 1.282-.668 1.978-.836.656-.16 1.372-.32 2.02-.133 1.353.39 2.742.905 3.814 1.819 1.26 1.075 2.038 2.613 2.977 3.976.581.843 1.15 1.706 1.577 2.636.15.323.124.704.124 1.06-.003 2.007.433 4.095-.135 6.02-.309 1.05-1.37 1.784-2.324 2.325m130.023-4.013c-.68.048-1.362.209-2.04.145-.52-.05-1.09-.148-1.492-.481-1.555-1.286-3.06-2.674-4.274-4.288-.578-.77-.709-1.791-.988-2.712-.593-1.965-1.329-3.91-1.625-5.941-.244-1.677-.169-3.4.018-5.084.035-.317.346-.571.626-.724 1.173-.64 2.38-1.258 3.667-1.62.68-.19 1.452-.236 2.116 0 1.888.677 3.668 1.648 5.384 2.687.876.53 1.737 1.16 2.34 1.989 1.054 1.447 2.387 2.944 2.551 4.727.158 1.727-1.37 3.219-1.666 4.927-.069.399.87.709.632 1.037m-392.258.317c-.449-.105-1.334.146-1.346-.314-.01-.456.885-.436 1.33-.332m187.002-.381c-.12-.437-.352-.858-.359-1.31-.002-.146.255-.405.332-.282.245.387.325.875.332 1.332m-64.29-1.713c-.45-.105-1.335.147-1.347-.314-.01-.456.884-.436 1.33-.332m-116.998-4.381c-.12-.437-.35-.858-.359-1.31-.002-.146.255-.405.332-.282.245.387.325.875.332 1.332m511.343-1.022c.22-.013.604-.251.657-.04.111.445.125 1.307-.332 1.334m-446.223-1.618c-.259.207-.497.798-.776.62-.387-.245-.408-.877-.343-1.331.1-.704.786-1.262.811-1.973.022-.638-.845-1.174-.68-1.791.191-.712 1.373-.842 1.575-1.551.162-.573-.734-1.07-.663-1.661.044-.362.706-.284.933-.57 1.294-1.63 2.257-3.51 3.581-5.117.81-.983 1.522-2.496 2.79-2.611.781-.07.514 1.56.346 2.327-.123.56-.874.78-1.139 1.29-1.257 2.407-2.146 4.995-3.399 7.404m447.228 2.597c-.449-.105-1.334.146-1.346-.314-.012-.457.884-.436 1.33-.332m-490.98.65c-.449-.104-1.337.149-1.348-.313-.015-.616.707-1.448 1.308-1.31m630.035-8.381c-.448-.105-1.334.146-1.345-.314-.01-.457.885-.436 1.33-.332m234.275-.481c.89-.555 1.84-1.02 2.67-1.666.68-.532 1.41-1.09 1.82-1.847 2.03-3.694 3.48-7.686 5.46-11.405.69-1.294 1.79-2.337 2.54-3.593.98-1.635 1.38-3.656 2.67-5.064.33-.368 1.02.302 1.32.695 1.31 1.675 2.2 3.648 3.43 5.38 1.7 2.38 3.41 4.77 5.36 6.944 1.08 1.198 2.35 2.244 3.7 3.115 1.13.722 2.38 1.283 3.67 1.617.99.254 2.08.408 3.05.12 2.02-.594 3.94-1.542 5.69-2.697 1.22-.805 2.17-1.975 3.1-3.1.63-.753.8-1.87 1.55-2.497 3.7-3.076 7.39-6.308 11.67-8.493.71-.361.51 1.578.37 2.36-.32 1.702-1.4 3.2-1.7 4.904-.07.398.63.632.63 1.037 0 .4-.72.64-.62 1.029.24.994.91 1.846 1.54 2.66.48.642.98 1.44 1.75 1.662 1.31.376 2.76.31 4.09.015 1.62-.36 3.19-1.026 4.57-1.943.78-.518 1.01-1.605 1.7-2.231.72-.65 1.79-.851 2.48-1.528 1.55-1.51 2.39-3.761 4.19-4.962.52-.342 1.05.727 1.35 1.269.27.496-.15 1.28.26 1.673 1.42 1.384 3.13 2.5 4.92 3.357.45.216.97-.37 1.47-.3.38.053.6.523.97.64.35.112.75.135 1.09.02 1.27-.425 2.51-.946 3.67-1.614.99-.572 1.87-1.316 2.72-2.082 2.83-2.553 4.55-7.19 8.3-7.865 2.11-.38 1.36 4.106 2.5 5.922 1.16 1.856 2.59 3.6 4.31 4.957 1.57 1.242 3.5 1.979 5.38 2.687.64.242 1.39.29 2.05.119 2.64-.685 5.26-1.52 7.74-2.66 3.11-1.435 6.22-2.977 8.95-5.036 2.41-1.81 3.33-6.073 6.32-6.453 2.34-.298 2.93 3.846 4.97 5.015 1.17.667 2.69.278 4.03.134.71-.077 1.28-.74 2-.784.39-.024.62.674 1 .598.54-.107.78-.823 1.28-1.05 2.08-.942 4.36-1.425 6.41-2.428 4.52-2.21 8.8-4.89 13.28-7.192.2-.103.56-.176.68.016.9 1.43 1.57 2.999 2.2 4.567.82 2.036 1.25 4.219 2.13 6.228 1.24 2.827 2.71 5.558 4.23 8.243.17.3.49.747.82.638.92-.303 1.91-.833 2.37-1.688.41-.782.12-1.79-.05-2.66-.07-.383-.81-.618-.65-.974 1.54-3.381 3.62-6.49 5.52-9.69.4-.68.79-1.384 1.35-1.943 1.16-1.152 2.43-2.18 3.74-3.151.78-.576 1.6-1.82 2.5-1.474 1.45.553 2.1 2.289 2.97 3.569 2.05 2.999 3.41 6.482 5.77 9.24 1.43 1.676 3.39 2.91 5.4 3.812.94.423 2.14.375 3.1 0 2.3-.891 4.38-2.283 6.4-3.69 1.41-.988 2.5-2.392 3.86-3.457.73-.57 1.71-.794 2.38-1.43 2.37-2.242 4.35-4.87 6.68-7.148.15-.146.61-.2.62.01.05.8-.45 1.555-.47 2.356-.09 2.674-.38 5.397.13 8.023.2 1.06 1.17 1.836 1.92 2.607.82.834 1.67 1.733 2.76 2.163 3.78 1.499 7.63 3.103 11.67 3.557 1.73.195 3.24-1.395 4.96-1.686.42-.07.66.733 1.08.666 1.63-.265 3.19-.918 4.71-1.601.49-.225.73-.855 1.22-1.083.51-.235 1.19.04 1.68-.25.7-.418 1.05-1.274 1.7-1.764.18-.128.6-.196.65.012.1.464-.48.936-.33 1.387.66 2.015 1.44 4.046 2.66 5.772.61.85 1.86.997 2.64 1.683.33.283.3.842.6 1.145.81.796 1.65 1.625 2.68 2.094 1.82.83 3.76 1.493 5.75 1.742.71.089 1.29-.741 2-.77.39-.015.59.569.97.652.68.149 1.41.15 2.09.017 2.41-.471 4.81-1.034 7.13-1.821.78-.262 1.34-.965 2.09-1.297 2.09-.928 4.41-1.347 6.41-2.47.73-.408.82-1.538 1.53-1.99.26-.168.51.664.78.507 1.91-1.118 3.41-2.85 5.27-4.048 2.05-1.314 4.4-2.115 6.42-3.467.46-.31.48-1.031.88-1.417 1.05-1.005 2.16-1.957 3.4-2.708.3-.181.89-.297 1.05.012.22.4-.55.936-.32 1.33 2.61 4.492 5.9 8.564 8.65 12.972.19.306.33.779.12 1.076-.63.915-1.44 1.796-2.44 2.274-.36.172-.63-.622-1.03-.622s-.64.72-1.03.623c-1.04-.261-1.72-1.512-2.79-1.584-.69-.048-1.03.974-1.66 1.282-.26.127-.74-.308-.86-.045-.27.627-.36 1.469 0 2.048.21.327.79-.4 1.13-.236.61.283.8 1.168 1.41 1.424.3.12.49-.541.8-.51.71.07 1.29.725 2 .783 2 .162 4.15.575 6.03-.134 1.47-.556 3.19-1.812 3.3-3.385.17-2.384-1.44-4.588-2.58-6.69-.91-1.684-2.44-2.958-3.5-4.553-.67-.997-.97-2.206-1.65-3.193-.86-1.26-2.32-2.111-2.95-3.504-.42-.928-.42-2.125 0-3.052.62-1.393 2.09-2.242 2.95-3.504.72-1.057 1.74-2.131 1.76-3.41.03-1.683-.95-3.24-1.61-4.785-.13-.293-.41-.584-.73-.626a15.61 15.61 0 0 0-4.04 0c-.32.042-.58.345-.73.626-.63 1.18-1.32 2.377-1.58 3.69-.08.409.75.66.65 1.064-.27 1.09-1.37 1.852-1.64 2.942-.1.389.54.62.66 1 .11.344.15.75.02 1.084-.39.934-.85 1.885-1.55 2.61-.69.703-1.76.913-2.5 1.552-.4.345-.46.984-.86 1.335-.9.8-1.95 1.426-2.98 2.064-1.67 1.038-3.55 1.759-5.1 2.958-.81.618-1.04 1.82-1.87 2.402-.36.25-.9-.37-1.3-.188-.6.277-.79 1.169-1.41 1.424-.29.12-.56-.722-.8-.51-.26.239.52.873.21 1.049-2.34 1.332-4.94 2.154-7.47 3.085-2.53.93-5.06 1.934-7.69 2.497-.4.084-.64-.651-1.04-.632-.71.032-1.3.907-2 .769-2.65-.523-5.35-1.281-7.67-2.672-1.6-.956-2.64-2.642-3.73-4.153-.26-.368-.01-.937-.21-1.34-.27-.518-1.06-.748-1.13-1.323-.08-.544.69-.913.76-1.457.07-.526-.66-1.115-.36-1.552.95-1.376 2.65-2.071 3.74-3.342.28-.327-.07-.94.2-1.275 1.11-1.38 2.9-2.184 3.8-3.711.45-.776.29-1.863-.04-2.7-.49-1.25-1.08-2.797-2.34-3.286-1.17-.46-2.51.43-3.67.94-1.1.487-2.19 1.116-2.99 2.009-1.14 1.268-2.19 2.717-2.72 4.338-.49 1.494.87 3.61-.25 4.71-2.82 2.752-6.76 4.072-10.36 5.667-.37.162-.63-.644-1.03-.622-.72.038-1.29.705-2 .784-1.35.148-2.74.175-4.06-.116-2.98-.658-6.04-1.31-8.75-2.71-.9-.462-1.34-1.618-1.55-2.605-.36-1.644-.46-3.398-.13-5.048.34-1.663 1.19-3.2 2.07-4.651.48-.808 1.19-1.494 1.97-2.026 2.03-1.386 4.05-2.951 6.39-3.685 1.02-.318 2.07.907 3.11.712.95-.177 1.77-.932 2.31-1.725.23-.323-.14-.793-.36-1.114-.35-.506-.81-.94-1.31-1.302-.83-.602-1.62-1.487-2.63-1.571-1.6-.133-3.21.413-4.72.962-.72.263-1.12 1.094-1.82 1.417-.25.118-.56-.305-.82-.196-1.53.644-3.07 1.363-4.38 2.384-1.04.803-1.48 2.22-2.54 2.997-.26.192-.5-.62-.81-.53-.98.285-1.9.855-2.66 1.537-1.11.994-1.83 2.368-2.88 3.419-1.49 1.479-3.1 2.84-4.74 4.15-2.83 2.264-5.68 4.507-8.66 6.567-.29.197-.69.134-1.03.134-1.01 0-2.16.386-3.03-.134-1.79-1.078-3.22-2.725-4.5-4.384-.83-1.077-1-2.545-1.72-3.695-1.3-2.064-2.71-4.08-4.32-5.905-.65-.732-1.43-1.653-2.4-1.69-.8-.03-1.03 1.542-1.82 1.534-.9-.01-1.38-1.951-2.2-1.575-2.12.975-3.62 3.017-5.01 4.889-.36.485.49 1.433.02 1.813-.67.54-2.03-.435-2.57.24-2.25 2.862-2.37 7.319-5.2 9.617-1.11.905-1.13-2.648-1.84-3.893-.29-.505-1.1-.737-1.15-1.317-.04-.525.99-.747.94-1.271-.16-1.618-.91-3.128-1.51-4.636a8.082 8.082 0 0 0-1.17-2.051c-.42-.526-.87-1.14-1.52-1.326-.37-.108-.61.609-1 .598-.39-.01-.59-.59-.97-.652-1.02-.165-2.11-.334-3.08-.01-1.22.406-2.09 1.499-3.22 2.11-1.11.598-2.38.86-3.46 1.506-1.5.899-2.72 2.236-4.24 3.098-.5.279-1.2-.031-1.69.253-.64.37-.85 1.364-1.55 1.607-.49.169-.94-.7-1.45-.575-.74.184-1.12 1.07-1.82 1.386-.18.084-.34-.413-.52-.32-.76.385-1.19 1.328-2 1.597-.37.123-.61-.61-1-.598-.39.01-.59.569-.97.65-.67.145-1.43.273-2.06 0-.74-.322-1.26-1.024-1.76-1.661-.62-.81-1.3-1.648-1.57-2.636-.27-.99-.34-2.114.01-3.08.47-1.326 1.71-2.258 2.35-3.507 1.26-2.418 3.09-4.748 3.34-7.46.13-1.355-1.16-2.637-2.32-3.358-.86-.54-2.24-.622-3.04 0-1.62 1.252-2.75 3.144-3.48 5.053-1.34 3.486-1.59 7.304-2.64 10.888-.31 1.077-.71 2.19-1.44 3.042-1.36 1.593-3.02 2.94-4.73 4.153-2.33 1.65-5.05 2.72-7.35 4.405-.75.548-.8 2.017-1.71 2.208-2.83.592-5.86.582-8.68-.036-1.5-.327-2.79-1.473-3.74-2.678-1.55-1.975-2.59-4.32-3.57-6.63-.27-.63-.3-1.388-.13-2.048.43-1.563 1.05-3.092 1.89-4.476 1.25-2.068 3.1-3.733 4.35-5.805 2.07-3.445 4.01-6.993 5.57-10.697.16-.37-.7-.638-.62-1.031.07-.361.7-.301.94-.576.53-.594 1.01-1.253 1.34-1.978 1.25-2.742 2.62-5.468 3.38-8.384.18-.698-.7-1.341-.66-2.061.02-.326.66-.252.82-.538.47-.84.8-1.766.98-2.71.76-3.884 1.81-7.773 1.85-11.732.01-1.097-.91-2.05-1.68-2.826-.72-.718-1.66-1.275-2.64-1.515-.39-.095-.63.618-1.03.622-.39.005-.67-.806-1-.598-1.48.93-2.76 2.207-3.79 3.615-1.58 2.152-2.74 4.582-3.96 6.957-2.31 4.505-4.83 8.934-6.61 13.672-.25.686.81 1.366.69 2.089-.23 1.404-1.37 2.539-1.66 3.932-.08.395.7.637.63 1.035-.1.543-.84.768-1.05 1.28-.75 1.824-1.44 3.697-1.77 5.639-.86 4.92.18 10.283-1.78 14.874-1.49 3.467-5.23 5.443-8.01 7.99-1.3 1.195-2.64 2.41-4.22 3.216-.44.228-.97-.36-1.47-.3-.39.047-.63.728-1 .599-1.03-.361-2.02-1.011-2.66-1.887-1.18-1.614-2.07-3.468-2.67-5.378-.12-.385.55-.623.67-1.007.11-.334.17-.747 0-1.055-.3-.543-.75-1.062-1.31-1.321-.51-.232-1.26-.431-1.66-.047-1.5 1.437-2.3 3.456-3.59 5.086-1.36 1.728-2.78 3.415-4.33 4.974-.71.718-1.7 1.124-2.42 1.825-.29.277-.24.84-.58 1.055-1.23.785-2.57 2.218-3.99 1.84-1.23-.328-1.77-2.106-1.81-3.384-.04-1.351.82-2.62 1.6-3.725.96-1.374 2.46-2.295 3.53-3.585.59-.703.71-1.772 1.41-2.356 1.76-1.458 3.72-2.704 5.81-3.633.35-.16.63.72 1 .598.81-.27 1.19-1.33 2-1.598.37-.123.67.805 1 .598 1.32-.826 2.43-2.007 3.3-3.296.17-.261-.3-.598-.58-.75-1.18-.648-2.38-1.733-3.72-1.602-2.96.286-5.78 1.544-8.48 2.783-3.56 1.629-6.93 3.649-10.21 5.779-3.8 2.47-7.46 5.162-11 8.002-1.58 1.27-2.95 2.792-4.31 4.3-.28.315-.23.887-.58 1.129-2.02 1.404-4.16 2.62-6.36 3.712-.34.165-.79.17-1.12 0-1.61-.83-3.24-1.705-4.57-2.93-.89-.817-1.14-2.16-1.95-3.058-.92-1.025-2.33-1.554-3.17-2.643-.84-1.083-1.03-2.552-1.74-3.718-.58-.936-1.51-1.617-2.11-2.537-.66-1.002-.96-2.212-1.65-3.193a5.55 5.55 0 0 0-1.72-1.62 1.182 1.182 0 0 0-1.09-.013c-1.32.726-2.77 1.43-3.69 2.632-1.2 1.57-1.5 3.672-2.46 5.402-.71 1.282-1.83 2.307-2.54 3.595-.89 1.645-1.37 3.497-2.23 5.158-.66 1.257-1.83 2.238-2.32 3.568-.14.377.72.64.62 1.03-.24.994-.86 1.895-1.54 2.66-.35.392-1.01 1-1.42.672-1.05-.846-1.7-2.184-2.08-3.481-1.51-5.128-2.02-10.52-3.56-15.641-.64-2.107-1.76-4.053-2.93-5.916-.43-.693-1-1.654-1.82-1.645-.97.01-1.81.892-2.37 1.689-.31.456-.15 1.146.05 1.66.2.517.86.747 1.1 1.248 1.33 2.834 2.62 5.707 3.58 8.689.1.305-.69.52-.53.799.37.663 1.6.68 1.79 1.42.17.678-1.02 1.165-.97 1.86.24 2.793 1.02 5.522 1.8 8.212.46 1.583.94 3.235 1.92 4.559.6.81 1.65 1.21 2.6 1.542M732.435 175.6c-.165-.427-.489-.824-.493-1.282-.005-.463.003-1.305.466-1.31.461-.003.463.84.467 1.302m65.573-.682c-.448-.105-1.333.146-1.345-.314-.01-.456.884-.436 1.33-.332m-64.237.506c-.38-.384-1.025-.624-1.139-1.152a9.72 9.72 0 0 1 .008-4.051c.078-.365.742-.257.976-.547 1.345-1.662 2.234-3.685 3.703-5.238 1.332-1.41 2.924-2.59 4.61-3.55.488-.278 1.225-.357 1.686-.035.807.562 1.81 1.425 1.71 2.403-.209 2.053-1.349 3.958-2.529 5.65-.556.798-1.75.893-2.48 1.536-.635.56-.838 1.555-1.549 2.015-.262.169-.519-.665-.787-.506m573.303 1.463c.58-.542 1.63-.841 1.72-1.624.09-.672-1.13-.89-1.32-1.54-.11-.374.72-.631.6-1.002-.19-.595-.7-1.36-1.33-1.321-.89.055-1.66.817-2.18 1.538-.18.253.52.475.51.786-.02.387-.75.639-.6.999.34.834 1.13 1.42 1.82 1.997m-16.48.319c-.45-.105-1.33.146-1.35-.314-.01-.457.89-.436 1.33-.332m-511.5-5.65c.27-.016.641-.26.811-.05.222.274.252.808.003 1.058-.328.328-1.067.662-1.359.3m431.065-5.012c-.45-.105-1.33.146-1.34-.314-.02-.456.88-.436 1.32-.332m-227.99-.381c-.12-.437-.35-.858-.36-1.31 0-.146.25-.405.33-.282.24.387.32.875.33 1.332m245.35-11.99c.11-.448-.14-1.333.32-1.345.45-.011.43.885.33 1.329m-103.3.266c-.12-.437-.35-.858-.36-1.31 0-.146.25-.405.33-.282.24.387.32.875.33 1.332m157.69-4.743c-.12-.436-.36-.856-.36-1.31-.01-.19.2-.322.34-.457.3-.307.57-.694.97-.862.33-.135.78-.207 1.05.012.21.167.14.592-.02.805m-220.16.687c-.07-.742-.33-1.49-.21-2.225.44-2.775 1.12-5.511 1.86-8.223.16-.605.79-1.061.83-1.687.03-.411-.73-.653-.64-1.054.62-2.77 1.66-5.432 2.69-8.075 1.14-2.927 2.41-5.81 3.82-8.618.91-1.822 2.38-3.358 3.13-5.251.15-.372-.82-.683-.62-1.03 1.15-1.966 2.56-3.84 4.31-5.298.35-.297.46.84.47 1.303.11 2.68.42 5.42-.12 8.05-.69 3.35-2.25 6.464-3.52 9.64-1.18 2.953-2.35 5.923-3.82 8.737-1.91 3.634-4.51 6.886-6.32 10.568-.17.349.53.603.64.974.11.335.28.848-.01 1.052-.31.223-.78-.397-1.13-.238m-153.876-3.742c.01-1.357.251-2.733.027-4.071-.072-.43-.47-.803-.87-.977-.772-.335-1.642-.578-2.477-.481a3.36 3.36 0 0 0-2.007 1.004c-.35.376-.592 1.059-.339 1.507a8.372 8.372 0 0 0 2.867 2.972c.427.264.977-.36 1.475-.298.39.047.63.504 1.01.603m-839.74-14.084c1.181-.52 2.781-.52 3.545-1.561 4.457-6.071 7.585-13.025 11.762-19.292.518-.778 1.606-1.004 2.231-1.701.603-.673.745-1.692 1.384-2.331.693-.693 1.761-.904 2.498-1.55 1.983-1.74 3.626-3.844 5.62-5.57.774-.67 1.704-1.152 2.636-1.577.322-.147.706-.157 1.056-.108.512.072 1.032.206 1.478.466 1.162.676 2.568 1.189 3.303 2.315 1.148 1.762 1.495 3.935 2.087 5.953.938 3.196 1.811 6.416 2.5 9.675.142.68.12 1.403-.018 2.085-.063.308-.737.5-.56.76.501.735 1.331 1.236 2.153 1.576.527.219 1.218.31 1.711.025.577-.336.82-1.067 1.114-1.666 1.487-3.023 2.628-6.216 4.224-9.184 1.345-2.5 2.928-4.872 4.58-7.181.538-.752 1.197-1.441 1.962-1.961.812-.552 1.768-.864 2.69-1.202 1.56-.572 3.09-1.355 4.742-1.523.382-.04.306.742.611.977 2.272 1.752 4.833 3.115 7.054 4.932.723.592 1.011 1.598 1.701 2.23 1.201 1.102 2.476 2.167 3.92 2.925a15.94 15.94 0 0 0 4.71 1.6c.398.068.631-.63 1.036-.632.401-.002.65.75 1.028.623a15.641 15.641 0 0 0 4.656-2.534c1.172-.925 1.788-2.414 2.89-3.423 1.232-1.128 2.876-1.761 4.06-2.94 1.712-1.705 2.594-4.228 4.555-5.641.607-.438.281 1.5.163 2.24-.064.4-.768.613-.68 1.009.596 2.707 1.562 5.33 2.64 7.885.566 1.339 1.396 2.56 2.262 3.727a9.973 9.973 0 0 0 1.957 1.958c1.62 1.235 3.224 2.548 5.07 3.406 2.33 1.082 4.853 1.704 7.337 2.359.665.175 1.385.25 2.058.115a7.848 7.848 0 0 0 2.665-1.063c.632-.404.87-1.314 1.55-1.631.283-.133.462.459.762.552.345.106.745.143 1.082.014 1.941-.745 3.892-1.526 5.67-2.606 1.893-1.152 3.332-2.982 5.274-4.05.341-.187.621.522 1.002.599.182.038.323-.186.472-.298 2.74-2.052 5.638-3.915 8.193-6.193.723-.645.841-1.788 1.526-2.473.685-.686 1.787-.844 2.473-1.527 1.195-1.19 1.671-4.922 3.087-4.007 2.783 1.798 2.761 6.038 4.46 8.883.507.85 1.316 1.494 2.098 2.1.808.629 1.625 1.414 2.636 1.578 2.34.38 4.783.445 7.113.004 2.344-.445 4.582-1.446 6.662-2.615 1.492-.838 2.7-2.118 3.912-3.325 1.725-1.716 3.162-3.706 4.882-5.427.297-.296.852-.25 1.118-.573 2.831-3.437 3.672-11.084 8.1-10.621 4.235.442 2.854 8.03 4.536 11.94.194.454.632.779 1.047 1.044 1.49.948 2.994 1.91 4.63 2.573.636.258 1.368.136 2.054.136.686 0 1.418.122 2.054-.136 1.636-.663 3.178-1.57 4.63-2.573 1.421-.984 2.775-2.094 3.95-3.363 2.28-2.462 3.59-5.923 6.378-7.791.83-.556 1.524 1.303 2.174 2.062.22.257.15.697.39.935 1.162 1.15 2.321 2.363 3.747 3.16 2.092 1.173 4.28 2.678 6.677 2.679 3.022 0 5.92-1.41 8.665-2.674 2.864-1.32 5.465-3.17 8.025-5.012 1.227-.883 2.057-2.243 3.282-3.127.286-.206.757-.187 1.055 0 1.311.82 2.506 1.83 3.607 2.916 1.494 1.474 2.863 3.078 4.151 4.736.628.808 1.31 1.648 1.577 2.636.27.99.431 2.158-.024 3.078-.204.412-.898-.444-1.34-.322-.322.089-.266.653-.54.84-.994.68-2.3.887-3.18 1.705-1.11 1.03-2.155 2.264-2.64 3.699-.436 1.288-.21 2.738.01 4.08.1.61.491 1.168.926 1.607.688.696 1.471 1.349 2.372 1.729.632.266 1.368.135 2.054.136.688 0 1.41.095 2.06-.132 1.934-.68 3.945-1.34 5.598-2.553.871-.641 1.38-1.741 1.665-2.784.106-.387-.628-.628-.622-1.03.005-.39.601-.585.651-.973.174-1.34.367-2.752 0-4.052-.234-.828-1.273-1.197-1.694-1.947-.17-.306-.325-.954.012-1.052.763-.221 1.64.71 2.355.366 1.01-.485 1.267-1.915 2.191-2.55.257-.176.48.456.787.507.183.03.354-.154.471-.298.414-.51.624-1.181 1.1-1.633.71-.673 1.464-1.4 2.398-1.69.383-.12.682.82 1.031.622 1.31-.744 2.114-2.16 3.305-3.082.811-.628 1.64-1.484 2.664-1.54.623-.034 1.14.726 1.327 1.322.117.37-.72.633-.598 1.002.27.809 1.34 1.185 1.598 1.999.123.386-.693.637-.634 1.039.285 1.962.856 3.893 1.617 5.724.463 1.113 1.017 2.326 2.012 3.006 1.365.932 3.056 1.735 4.702 1.58 2.068-.194 3.843-1.592 5.682-2.557 1.068-.561 2.04-1.294 3.012-2.007 1.014-.743 2.082-1.443 2.943-2.36 1.66-1.761 2.673-4.143 4.58-5.634.427-.333.97.68 1.086 1.208.084.38-.598.612-.598 1 0 .389.62.613.598 1-.04.713-.873 1.293-.769 1.998.258 1.743 1.445 3.243 1.8 4.969.095.464-.636.873-.506 1.329.29 1.008 1.011 1.848 1.653 2.677.516.666 1.055 1.379 1.798 1.777 1.478.793 3.067 1.486 4.728 1.72.706.1 1.284-.734 1.997-.768.4-.02.636.7 1.028.622.916-.185 1.658-.865 2.471-1.325.835-.474 1.73-.87 2.473-1.476 1.033-.842 2.075-1.73 2.816-2.838 1.193-1.783 2.07-3.766 2.92-5.736.68-1.58 1.348-3.195 1.66-4.887.248-1.351.277-2.775-.002-4.12-.278-1.337-1.792-2.4-1.636-3.756.103-.895 1.371-1.28 2.242-1.507.4-.105.656.745 1.057.645 1.09-.273 1.852-1.374 2.942-1.646.401-.1.66.759 1.057.645 2.084-.598 3.852-2.06 5.938-2.652.404-.114.656.726 1.073.665 2.043-.298 3.896-1.713 5.961-1.69 2.078.023 4.07.965 5.962 1.822.622.281 1.038.92 1.39 1.506.178.297.126.684.133 1.03.077 3.876-.594 7.819.117 11.63.178.953 1.448 1.385 2.368 1.688.328.109.63-.348.816-.638.898-1.391 1.268-3.142 2.404-4.346 1.831-1.94 4.037-3.531 6.326-4.901 1.821-1.09 4.018-1.414 5.892-2.41 1.401-.745 2.496-1.978 3.867-2.776 1.162-.676 2.465-2.176 3.692-1.625 2.665 1.197 3.807 4.564 6.288 6.107 2.303 1.432 5.065 2 7.711 2.597.393.088.631-.63 1.034-.63.406.003.637.696 1.04.636 2.07-.306 4.065-1.016 6.05-1.682 1.584-.532 3.198-1.057 4.638-1.907 2.1-1.24 4.128-2.65 5.905-4.32.88-.828 1.14-2.157 1.944-3.059.613-.687 1.386-1.987 2.235-1.627 1.652.7 2.06 3.033 3.525 4.07 3.061 2.164 6.686 3.415 9.865 5.402.186.116-.22.432-.43.495-2.206.665-4.42 1.399-6.71 1.658-.717.08-1.34-.65-2.062-.664-.389-.01-.612.606-1 .598-.406-.007-.639-.703-1.04-.636-2.198.368-4.538.68-6.416 1.883-.557.357.152 1.344.453 1.934.198.389.587.676.977.87.31.156.683.135 1.03.135 1.674 0 3.361.085 5.022-.133.387-.05.583-.651.974-.651s.588.588.974.65c1.015.168 2.093.283 3.086.017 3.206-.86 6.302-2.101 9.375-3.355.912-.372 1.861-.794 2.542-1.506.363-.38.46-1.017.366-1.534-.112-.621-.508-1.181-.937-1.643-.405-.437-.95-.738-1.495-.977-1.588-.698-3.324-1.045-4.875-1.823-.546-.273-.78-.977-1.31-1.28-1.162-.664-2.387-1.279-3.69-1.579-.32-.074-.566.74-.826.54-1.21-.937-2.168-2.193-2.985-3.486-.72-1.14-1.577-2.378-1.572-3.725.005-1.351.896-2.57 1.597-3.725.53-.872 1.636-1.342 2.05-2.275.157-.355-.749-.642-.599-1.001.61-1.464 1.89-2.559 2.661-3.945.173-.311.124-.705.122-1.06-.002-.675.083-1.381-.133-2.02-.14-.415-.457-.854-.877-.974-.482-.138-.977.363-1.474.299-.398-.051-.64-.719-1.029-.622-.994.247-1.86.898-2.66 1.538-1.107.884-2.537 1.663-3.012 2.997-1.418 3.982-.988 8.48-2.482 12.434-.606 1.602-2.504 2.35-3.602 3.664-.629.751-.853 1.809-1.549 2.497-.836.826-1.88 1.438-2.942 1.941-2.157 1.023-4.332 2.115-6.665 2.617-1.974.425-4.044.286-6.056.12-.714-.06-1.287-.74-2.003-.785-.388-.024-.69.833-1 .599-2.338-1.754-4.09-4.184-6.31-6.084-.778-.666-1.706-1.15-2.636-1.578-.323-.148-.704-.123-1.06-.122-.675.002-1.404-.142-2.02.133-.783.35-1.165 1.364-1.974 1.65-.365.13-.665-.794-.999-.596-.959.569-1.289 1.888-2.217 2.506-.26.172-.509-.648-.787-.506-.927.473-1.415 1.576-2.32 2.09-2.349 1.337-5.01 2.067-7.354 3.415-.906.52-1.36 1.669-2.296 2.135-.417.207-1.23.134-1.362-.313-.204-.693.778-1.35.664-2.063-.21-1.323-.954-2.511-1.582-3.694-.55-1.037-1.042-2.182-1.94-2.938-1.394-1.173-2.996-2.216-4.753-2.697-1.644-.45-3.435-.295-5.115-.005-1.7.294-3.17 1.476-4.878 1.73-.727.109-1.37-.814-2.095-.691-2.015.34-3.795 1.562-5.785 2.026-4.626 1.079-9.274 2.253-14.012 2.588-.692.05-.755-1.499-1.449-1.493-1.97.017-3.736 1.59-5.707 1.555-1.139-.02-1.88-1.345-2.959-1.71-.657-.221-1.408-.16-2.08.01-.604.155-1.236.442-1.619.934-1.89 2.426-3.533 5.045-5.102 7.69-.64 1.08-.838 2.389-1.504 3.454-.446.715-1.113 1.278-1.776 1.798-2.585 2.027-5.057 4.267-7.947 5.828-.905.49-2.236.716-3.084.133-1.519-1.045-2.448-2.818-3.24-4.483-.168-.351.524-.603.641-.974a1.907 1.907 0 0 0 0-1.054c-.189-.69-.754-1.266-.828-1.977a29.93 29.93 0 0 1 0-5.993c.07-.714.888-1.294.784-2.004-.089-.612-.682-1.166-1.273-1.35-.97-.304-2.108-.379-3.052 0-.968.387-1.434 1.533-2.284 2.136-2.3 1.63-4.825 2.927-7.137 4.542-1.016.71-1.779 1.755-2.825 2.42-1.147.729-2.546.999-3.695 1.725-.774.489-1.193 1.454-2.005 1.877-.494.258-1.299.456-1.672.04-2.19-2.43-3.43-5.605-5.57-8.08-1.458-1.683-3.709-2.566-5.128-4.282-.328-.397.052-1.079.338-1.507 2.633-3.937 5.964-7.405 8.355-11.494.51-.87.211-2.017.134-3.023a3.356 3.356 0 0 0-.482-1.484c-.23-.37-.549-.785-.977-.87-1.315-.265-2.684-.219-4.023-.134a3.067 3.067 0 0 0-1.483.48c-1.588 1.054-3.259 2.073-4.518 3.503-1.41 1.602-2.495 3.498-3.364 5.448-.282.632-.126 1.398.01 2.077.063.31.676.471.562.767-.326.853-1.553 1.26-1.68 2.164-.15 1.052.828 1.989.94 3.046.053.515-.1 1.115-.468 1.481-1.944 1.946-4.1 3.682-6.318 5.308-1.54 1.128-3.142 2.237-4.92 2.929-2.18.847-4.483 1.62-6.82 1.638-1.023.007-1.837-.932-2.634-1.571a19.026 19.026 0 0 1-2.833-2.813c-.727-.891-1.652-1.783-1.839-2.918-.526-3.187.482-6.539-.24-9.687-.218-.946-1.406-1.588-2.37-1.69-.625-.066-1.236.682-1.37 1.295-.152.693.696 1.323.64 2.03-.026.333-.667.258-.842.542-1.014 1.64-1.674 3.48-2.664 5.134-1.237 2.067-2.559 4.088-4.007 6.012-1.599 2.125-3.224 4.253-5.119 6.117-.723.712-1.652 1.276-2.637 1.516-.39.095-.648-.747-1.029-.622-.823.269-1.163 1.606-2.028 1.622-1.025.018-1.847-.917-2.662-1.538-.774-.591-1.64-1.19-2.063-2.067-1.17-2.431-1.919-5.052-2.614-7.658-.18-.672-.137-1.407.015-2.086.088-.393.8-.62.675-1.003-.553-1.678-1.606-3.153-2.536-4.654-.178-.287-.438-.572-.76-.666-.536-.156-1.289-.446-1.67-.042-1.966 2.08-3.116 4.814-4.93 7.025-.596.724-1.667.96-2.237 1.703-1.007 1.314-1.502 2.957-2.4 4.347-.908 1.4-1.875 2.778-3.005 4.006-.692.752-1.696 1.16-2.419 1.884-.987.986-1.533 2.423-2.682 3.215-2.68 1.846-5.562 3.477-8.625 4.577-1.282.46-2.737.178-4.085-.014-.389-.055-.577-.57-.946-.703-.526-.192-1.23.108-1.66-.25-1.327-1.1-2.524-2.421-3.368-3.924-.25-.447.475-1.014.322-1.503-.647-2.07-2.569-3.772-2.65-5.938-.045-1.153 1.81-1.53 2.328-2.56.225-.447-.543-1.036-.299-1.475 1.076-1.937 2.86-3.404 4.048-5.274.674-1.058.856-2.375 1.501-3.45.37-.617 1.213-.892 1.5-1.551 3.101-7.126 6.136-14.3 8.606-21.67.23-.681-.678-1.336-.655-2.054.023-.717.706-1.291.784-2.004.147-1.343.331-2.778-.123-4.05-.508-1.426-1.48-2.72-2.637-3.696-.982-.828-2.35-2.006-3.54-1.52-1.873.764-2.8 2.939-3.974 4.586-1.826 2.562-3.564 5.206-5.002 8.005-1.763 3.43-3.268 6.996-4.57 10.625-.235.652-.138 1.402.01 2.08.082.381.717.59.65.974-.093.538-.818.767-1.039 1.267-.413.937-.644 1.95-.825 2.959-.696 3.887-1.489 7.773-1.802 11.71-.057.717.698 1.318.71 2.037.011.708-.644 1.318-.642 2.027.001.39.55.595.65.972.141.539.36 1.212.045 1.673-.949 1.399-2.57 2.229-3.602 3.567-.143.185.577.407.41.57-.8.78-2 1.052-2.837 1.795-.699.62-1.005 1.605-1.7 2.23-.775.696-1.84 1.004-2.639 1.67-1.204 1.002-2.137 2.303-3.338 3.308a17.425 17.425 0 0 1-3.012 2.007c-1.748.927-3.713 1.428-5.402 2.458-1.302.794-2.158 2.212-3.486 2.96-.276.156-.456-.5-.766-.562-.679-.136-1.42-.23-2.078-.01-2.062.693-3.779 2.453-5.939 2.705-1.13.13-1.878-1.38-2.978-1.666-.388-.101-.672.803-1.029.622-1.744-.881-3.202-2.25-4.69-3.514-1.118-.95-2.368-1.848-3.108-3.115-1.192-2.041-2.02-4.31-2.57-6.61-.319-1.333-.394-2.802.006-4.114.615-2.02 1.393-4.18 2.953-5.602 1.952-1.78 4.841-2.157 7.086-3.551 1.382-.858 2.733-1.866 3.72-3.16.335-.441.236-1.186-.048-1.662-.559-.941-1.278-1.994-2.323-2.323-1.606-.506-3.393-.29-5.052 0-.547.096-.763.832-1.249 1.101-1.097.608-2.375.855-3.45 1.501-1.405.845-2.776 1.788-3.94 2.942-.697.69-.948 1.725-1.55 2.498-1.048 1.346-2.407 2.442-3.386 3.84-1.366 1.95-2.33 4.155-3.616 6.16-.18.282-.444.542-.757.66-.523.197-1.239-.12-1.659.25-2.104 1.845-3.622 4.285-5.677 6.185-.762.705-1.666 1.68-2.697 1.558-2.058-.244-3.907-1.461-5.67-2.55-1.045-.645-1.682-1.801-2.633-2.578-1.154-.943-2.343-1.87-3.66-2.566-.5-.263-1.22.086-1.676-.25-1.36-1.002-2.183-2.633-3.564-3.61-.257-.18-.463.46-.763.553-.345.106-.749.153-1.082.014-1.049-.438-1.819-1.695-2.956-1.702-1.728-.01-3.312 1.007-4.914 1.657-.728.295-1.472.633-2.048 1.168-1.208 1.119-2.387 2.32-3.238 3.73-.162.27.458.484.51.794.03.183-.17.337-.299.472-1.307 1.375-2.943 2.474-4 4.05-.279.416.304.972.298 1.473-.003.2-.162.387-.323.505-.879.643-2.106 2.62-2.76 1.75-2.1-2.79-2.133-6.655-3.384-9.915-.317-.826-.63-1.74-1.308-2.31-1.64-1.38-3.426-2.737-5.469-3.39-1.613-.516-3.413-.278-5.08.019-.37.067-.263.747-.554.988-1.206 1.002-2.665 1.674-3.866 2.684-.802.674-1.307 1.654-2.104 2.335-2.327 1.99-5.114 3.449-7.239 5.652-1.155 1.199-1.456 3.012-2.422 4.368-.702.984-1.92 1.55-2.539 2.59-2.134 3.595-3.458 7.637-5.649 11.196a13.148 13.148 0 0 1-3.6 3.829c-.319.224-.612-.603-1-.598-.402.004-.644.729-1.03.622-1.322-.367-2.537-1.105-3.64-1.92-.478-.353-.747-.944-.977-1.492-.663-1.586-1.385-3.181-1.687-4.874-.07-.398.634-.632.632-1.037-.002-.39-.525-.602-.642-.973a1.755 1.755 0 0 1 0-1.054c.128-.388.713-.608.684-1.015-.31-4.331-1.643-8.575-1.682-12.916-.007-.8 1.69-1.042 1.55-1.828-.156-.875-1.354-1.185-2.155-1.57-.325-.156-.767-.161-1.083.014-.542.3-1.199.706-1.313 1.315-.133.713.746 1.345.681 2.068-.274 3.012-1.443 5.902-1.678 8.918-.057.732.745 1.314.824 2.044.24 2.206-.336 4.485.121 6.656.153.728 1.29.877 1.605 1.55.133.285-.525.48-.509.793.02.387.598.61.597.998 0 .389-.745.64-.598 1 .562 1.378 1.587 2.526 2.514 3.69a12.545 12.545 0 0 0 2.095 2.095c.81.628 1.633 1.37 2.636 1.577m271.128-23.013c-.699.002-1.445.256-2.096.004-.582-.225-1.018-.78-1.32-1.326-.17-.307-.23-.79 0-1.054 1.4-1.608 3.042-2.996 4.697-4.338.167-.135.507-.157.643.008.306.372.448.88.486 1.36.097 1.207.411 2.527-.087 3.63m736.643.684c-.45-.105-1.33.146-1.35-.314-.01-.457.89-.436 1.33-.332M400.482 97.66c-.517-.114-1.13-.021-1.552-.343-1.09-.836-2.164-1.8-2.82-3.006-.193-.351.733-.644.62-1.028-.613-2.095-2.654-3.796-2.673-5.978-.026-3.001 1.463-5.837 2.547-8.635.276-.713.712-1.756 1.476-1.754.971 0 1.397 1.457 2.32 1.76.382.126.605-.66 1.008-.664.388-.005.602.525.973.642.335.106.722.115 1.054 0 .37-.13.56-.641.947-.695 1.338-.186 2.752-.366 4.052 0 .76.215 1.302.959 1.723 1.627.712 1.129 1.72 2.335 1.611 3.664-.22 2.71-1.567 5.212-2.539 7.752a9.215 9.215 0 0 1-1.299 2.282c-.526.685-1.1 1.382-1.845 1.82m-113.637-8.476c-.448-.105-1.333.146-1.345-.314-.01-.456.884-.436 1.33-.332m209.002-2.381c-.12-.437-.352-.858-.359-1.31-.002-.146.255-.405.332-.282.245.387.325.875.332 1.332m103.71-2.713c-.45-.105-1.335.147-1.347-.314-.012-.456.884-.436 1.33-.332m146.02-4.342c-.45-.107-1.328.14-1.348-.321-.027-.618.74-1.041 1.276-1.35.304-.175.777-.206 1.052.012.21.166.111.572-.025.803m-340.973.816c-.12-.436-.35-.857-.359-1.31-.002-.145.255-.404.332-.281.245.386.324.874.332 1.332M232.43 74.6c-.168-.428-.45-.827-.503-1.284a6.548 6.548 0 0 1 .111-2.065c.48-2.315 1.424-4.533 1.735-6.876.085-.641-.749-1.23-.576-1.853.246-.883 1.431-1.288 1.693-2.166.293-.981.065-2.064-.13-3.07-.073-.382-.882-.658-.65-.972.76-1.026 2.345-1.242 3.067-2.296.942-1.375 1.002-3.19 1.721-4.694a60.623 60.623 0 0 1 3.722-6.695c.395-.615.858-1.668 1.574-1.525.873.175 1.162 1.368 1.575 2.155a1.5 1.5 0 0 1 .11 1.053c-.824 3.016-2.04 5.917-2.839 8.94-.232.88.074 1.865-.238 2.72-.263.722-1.095 1.12-1.417 1.817-.118.256.307.564.196.824-1.655 3.877-3.509 7.668-5.423 11.424-.25.49-.908.741-1.048 1.273-.079.301.703.545.506.786m97.82-2.494c-.12-.436-.353-.857-.36-1.31-.002-.145.255-.404.332-.281.245.386.325.874.332 1.332m.712-1.716c-.448-.439-1.665-.78-1.343-1.318 1.284-2.143 3.254-3.868 5.304-5.297.383-.267.494.911.351 1.356a10.967 10.967 0 0 1-1.933 3.576m628.647.719c-.68.044-1.37.197-2.06.132-.47-.045-1.18-.011-1.35-.454-.37-.949-.17-2.047-.01-3.051a.945.945 0 0 1 .61-.709c3.2-.999 6.55-1.511 9.75-2.52 1.7-.539 3.21-1.646 4.94-2.11.73-.197 2.75-.411 2.26.173-1.74 2.107-4.29 3.39-6.52 4.972-.84.593-1.67 1.292-2.66 1.54-.39.096-.66-.775-1.03-.623m-894.682 2.34c-.104-.506.01-1.114-.313-1.518-1.152-1.448-2.372-2.954-3.979-3.874-.875-.5-2.017-.207-3.022-.133-.473.035-1.12.04-1.346.457-.325.602-.106 1.375-.008 2.051.03.202.212.36.373.485 1.286.986 2.426 2.283 3.95 2.834.662.24 1.295-.678 2-.685.712-.007 1.333.53 2.036.645m1081.991-1.948c1.4-1.19 3.02-2.168 4.21-3.57.2-.239-.61-.494-.51-.79.12-.357.71-.311.97-.587.41-.436.74-.949.98-1.497.67-1.578 1.36-3.173 1.72-4.85.22-1.016.24-2.107 0-3.119-.32-1.312-2.68-2.87-1.63-3.707 2.56-2.025 6.39-1.391 9.45-2.5.28-.102-.43-.452-.49-.742-.03-.138.14-.345.27-.323.7.11 1.31.587 2 .683 1.33.183 2.69.148 4.03.148 1.01 0 2.04.05 3.03-.148.38-.076.58-.65.97-.652.39-.001.6.525.97.643.34.106.72.109 1.06 0 .38-.126.61-.739 1.01-.676 1.62.254 3.57.343 4.67 1.565 1.9 2.116 2.83 4.986 3.65 7.708.21.704-.87 1.38-.69 2.094.47 1.878.86 4.224 2.51 5.237 1.1.672 2.53-.736 3.54-1.522 2.07-1.591 3.5-3.894 5.55-5.499 1.08-.838 2.57-.973 3.7-1.734.37-.247.3-.862.62-1.174.48-.475 1.07-.843 1.69-1.115 1.53-.676 3.07-1.43 4.73-1.712.82-.142 1.75.058 2.47.482.94.55 1.67 1.433 2.3 2.313.74 1.017.99 2.352 1.8 3.322.74.894 1.75 1.535 2.73 2.154 1.19.746 2.45 1.388 3.74 1.92 1.61.66 3.21 1.662 4.95 1.648 2.47-.02 4.83-1.022 7.18-1.746a27.831 27.831 0 0 0 4.54-1.86c.5-.25.75-.854 1.25-1.09.32-.151.78-.213 1.06 0 .66.505.94 1.393 1.54 1.975a35.654 35.654 0 0 0 3.74 3.154c.71.513 1.47.986 2.3 1.246 4.06 1.271 8.07 3.13 12.33 3.33 5.57.262 11.11-1.149 16.63-1.97.52-.078.88-.698 1.4-.713.42-.012.66.743 1.06.643 1.09-.274 1.85-1.366 2.94-1.646.39-.1.64.695 1.03.622.54-.1.78-.82 1.28-1.05 2.09-.963 4.4-1.431 6.44-2.5 1.34-.699 2.84-1.44 3.58-2.752.3-.538-.68-1.165-1.27-1.349-.98-.303-2.05-.177-3.06 0-.38.068-.57.569-.94.703-.54.194-1.2-.03-1.69.253-.65.37-.87 1.298-1.55 1.606-.29.13-.46-.46-.76-.552-.35-.106-.74-.124-1.08-.014-.67.213-1.2.737-1.86.96-2.99 1.008-5.95 2.185-9.06 2.724-.71.125-1.3-.866-2.03-.799-3.05.285-5.94 1.822-9 1.83-3.22.007-6.38-.971-9.5-1.784-1.46-.382-2.94-.91-4.18-1.784-1.43-1.01-2.66-2.328-3.67-3.762-.3-.43-.47-1.231-.07-1.576 1.79-1.557 4.18-2.287 6.11-3.668 1-.712 1.66-1.806 2.62-2.57.72-.579 1.68-.823 2.38-1.432.42-.366.5-1.018.88-1.417.85-.867 2.24-1.255 2.77-2.341.31-.637-.64-1.317-.64-2.025 0-.391.57-.592.65-.974.14-.67.35-1.471-.01-2.05-.21-.324-.81.443-1.12.232-.7-.462-.84-1.519-1.53-1.99-1.1-.752-2.35-1.571-3.69-1.565-1.35.006-2.54.957-3.73 1.6-1.09.59-2.26 1.149-3.08 2.081-1.58 1.804-2.88 3.858-3.98 5.987-1.39 2.69-2.19 5.65-3.46 8.4-.16.34-.48.579-.78.803-1.04.782-2.05 1.636-3.22 2.204-1.49.724-3.05 1.413-4.69 1.64-2.34.322-4.8.56-7.09-.017-1.77-.446-3.31-1.66-4.61-2.935-1.16-1.129-1.55-2.85-2.57-4.1-1.11-1.357-2.31-2.687-3.76-3.666-.48-.322-1.18-.228-1.73-.035-.53.19-.73 1.127-1.3 1.11-.77-.023-1.22-1.008-1.96-1.207-.68-.181-1.46-.184-2.09.12-2.68 1.29-5.16 2.95-7.64 4.577a18.77 18.77 0 0 0-2.94 2.358c-.72.714-1.09 1.744-1.86 2.404-.4.344-.98.485-1.51.49-.46.005-1.11-.043-1.3-.462-.16-.354.52-.605.64-.976.11-.346.16-.753.02-1.089-1.05-2.591-1.92-5.331-3.55-7.603-.9-1.253-2.39-2.034-3.81-2.637-.36-.151-.63.729-1 .599-.81-.286-1.14-1.465-1.97-1.65-1.85-.41-3.84-.476-5.68-.048-.8.186-.92 1.52-1.7 1.765-.57.178-1.04-.612-1.62-.719-1-.182-2.03-.287-3.02-.133-2.7.414-5.27 1.467-7.97 1.822-.4.053-.63-.639-1.04-.636-.39.003-.6.553-.97.652-.66.171-1.38.318-2.02.132-1.4-.4-2.54-1.529-3.96-1.84-.62-.14-1.22.722-1.84.566-.88-.218-1.3-1.513-2.2-1.574-.64-.043-1.06.778-1.36 1.334-.25.452.22 1.24-.21 1.53-1.51 1.03-3.54 1.087-5.07 2.077-1.01.652-1.3 2.173-2.37 2.72-.53.271-1.08-.782-1.66-.661-.75.155-1.14 1.045-1.82 1.385-.46.23-1.01.343-1.52.278-.39-.05-.64-.746-1-.599-1.38.564-2.55 1.56-3.69 2.516-.39.328-.4 1.01-.84 1.28-2.36 1.472-4.87 2.713-7.42 3.86-.32.149-.82.232-1.08-.022-.33-.328-.5-.937-.31-1.362.61-1.36 1.58-2.541 2.56-3.662.36-.42 1.03-.48 1.41-.884.67-.71 1.4-1.465 1.69-2.398.12-.383-.69-.635-.62-1.029.1-.541.79-.79 1.05-1.274.63-1.176 1.4-2.349 1.62-3.667.32-2.001.42-4.104-.02-6.085-.22-1.01-.99-1.934-1.88-2.469-1.66-1.003-3.53-1.914-5.47-1.975-1.35-.043-2.51 1.027-3.69 1.688-1.1.612-2.28 1.179-3.12 2.117-1.88 2.121-3.44 4.525-4.94 6.938-.66 1.067-.89 2.357-1.5 3.452-.16.276-.45.49-.76.574-.14.039-.31-.132-.33-.274-.15-1.333-.29-2.687-.15-4.02.08-.714.75-1.288.79-2.004.02-.407-.68-.636-.64-1.042.32-3.564 1.03-7.083 1.67-10.602.59-3.209 1.23-6.41 2.01-9.576.24-.94.97-1.754 1.02-2.721.06-1.052-.83-2.04-.69-3.084.05-.364.83.496 1.08.223.79-.874 1.32-2.015 1.58-3.165.09-.393-.75-.65-.63-1.034.26-.812 1.34-1.187 1.6-1.999.12-.37-.64-.584-.64-.973 0-.71.89-1.366.64-2.028-.39-1.012-1.23-2.109-2.3-2.299-.77-.137-1.34.91-1.75 1.578-.61.99-.88 2.159-1.25 3.263-1.15 3.459-2.5 6.87-3.33 10.422-.1.406.78.669.65 1.065-.4 1.219-1.47 2.109-2.07 3.244-.62 1.185-1.31 2.38-1.58 3.693-.08.396.68.637.63 1.037-.05.33-.65.27-.84.54-.84 1.169-1.6 2.398-2.19 3.707-.9 2.003-1.36 4.18-2.25 6.19-.95 2.145-1.95 4.28-3.23 6.245-1.84 2.833-3.77 5.653-6.1 8.1-1.81 1.903-3.97 3.49-6.22 4.835-2 1.192-4.11 2.744-6.44 2.71-1.51-.023-2.61-1.648-3.53-2.856-.97-1.292-1.19-3.02-1.97-4.437-.24-.431-.63-.786-1.05-1.039-.44-.267-.97-.43-1.48-.481-.68-.067-1.46-.243-2.03.132-2.52 1.689-4.93 3.622-6.97 5.876-.4.447.54 1.5.02 1.806-.6.358-1.32-.677-2.02-.63-.63.043-1.17.49-1.66.88-.59.461-.99 2.153-1.52 1.636-.79-.756-.45-2.211-.18-3.27.27-1.089 1.28-1.86 1.72-2.89.23-.523-.11-1.242.24-1.69.86-1.09 2.25-1.653 3.18-2.676.72-.778 1-1.882 1.71-2.665.79-.871 1.66-1.725 2.72-2.236.28-.137.46.461.76.553.34.102.72.107 1.06 0 .37-.117.58-.66.97-.641.72.033 1.29.728 2 .782.79.06 1.77.1 2.33-.454.37-.362-.04-1.085-.33-1.51-.51-.75-1.1-1.637-1.97-1.87-1.64-.438-3.45-.463-5.09-.015-2.03.556-3.95 1.616-5.59 2.94-1.98 1.603-3.67 3.59-5.1 5.701-1.17 1.723-2.08 3.66-2.61 5.67-.35 1.315-.46 2.803.01 4.08.37 1.03 1.27 2.033 2.32 2.326 1.95.54 4.25.897 6.06 0 3.55-1.761 5.26-6.99 9.18-7.557 2.19-.317 1.84 4.116 3.34 5.75 1.19 1.299 2.73 2.72 4.49 2.79 2.57.106 4.98-1.37 7.38-2.308 1.5-.583 2.96-1.308 4.26-2.238 1.8-1.276 3.42-2.786 4.98-4.338.72-.713 1.12-1.704 1.83-2.426.3-.31.89-.262 1.15-.605 1.47-1.878 2.87-3.834 3.96-5.95 1.78-3.445 2.07-7.762 4.63-10.671 1.16-1.316.41 3.529.14 5.262-.27 1.705-1.48 3.172-1.73 4.878-.11.73.82 1.373.69 2.099-.54 3.056-2.04 5.883-2.66 8.926-.08.396.62.632.63 1.037.01.388-.6.611-.6 1 0 .388.61.611.6 1-.01.388-.53.602-.64.972-.11.335-.11.72 0 1.055.11.37.64.584.64.973 0 .39-.57.592-.65.974-.15.677-.26 1.433-.01 2.08.35.903.98 1.727 1.73 2.338.3.248.99.368 1.18.021 1.92-3.634 3.43-7.483 4.82-11.355.23-.654.13-1.405-.02-2.084-.08-.384-.9-.676-.65-.98.43-.525 1.54-.052 1.94-.6 2.53-3.47 4.15-7.531 6.57-11.078.82-1.207 1.96-2.185 3.1-3.101.81-.65 1.66-1.599 2.7-1.558 1.28.05 2.63.774 3.41 1.797.53.69.14 1.76-.05 2.606-.38 1.613-1 3.162-1.64 4.69-.57 1.366-1.2 2.72-1.98 3.975a17.088 17.088 0 0 1-2.32 2.908c-.98.99-2.27 1.65-3.22 2.677-.71.774-1.03 1.84-1.69 2.662-.68.855-1.64 1.47-2.3 2.338-.63.812-1.3 1.666-1.54 2.66-.1.39.61.629.62 1.03 0 .388-.52.62-.6 1-.04.183.17.338.3.474.3.318.54.801.97.877 1.34.235 2.77.364 4.08.01.93-.25 1.89-.866 2.31-1.73.26-.528-.75-1.051-.66-1.632.08-.537.55-1.27 1.09-1.21.9.099 1.34 1.843 2.2 1.574 1.76-.548 2.65-2.612 4.22-3.574.27-.164.64.78.8.508.22-.379-.35-.831-.35-1.27 0-.475-.13-1.417.34-1.383.89.064 1.34 1.275 2.19 1.566.24.084.11-.575.34-.701 2.83-1.575 5.78-2.942 8.71-4.328 1.21-.571 2.43-1.139 3.7-1.542.35-.11.82-.215 1.09.026.35.312.49.87.44 1.335-.08.708-.69 1.273-.82 1.974-.17.88-.35 1.845-.04 2.685.25.697 1.58.805 1.6 1.548.02.781-1.14 1.104-1.51 1.793-.09.164.19.319.3.473.73 1.076 1.39 2.207 2.21 3.217.51.625.97 1.492 1.76 1.661M71.435 64.601c-.12-.436-.35-.857-.359-1.31-.002-.145.255-.404.332-.281.245.386.325.874.332 1.332m735.71-1.713c-.45-.105-1.335.146-1.347-.314-.012-.457.884-.437 1.33-.333m345.345-1.27c-.9-1.124-1.96-2.141-2.71-3.37-.19-.311-.11-.74-.02-1.092 1.11-4.402 2.25-8.8 3.61-13.13.08-.25.08.577.3.73 1.06.763 2.36 1.163 3.42 1.934.54.398 1.14.878 1.33 1.527.11.373-.72.632-.6 1.001.27.81 1.33 1.19 1.6 1.999.12.369-.61.612-.6 1 .01.389.52.602.64.971.11.346.17.757.02 1.089-.84 1.924-1.7 3.875-2.93 5.574-.58.79-1.48 1.336-2.38 1.727m-93.34-3.334c.44-.12.86-.35 1.31-.358.15-.003.4.255.28.332-.39.245-.87.324-1.33.332m25.07-1.015c-.45-.105-1.33.146-1.35-.314-.01-.457.89-.437 1.33-.333m-114.02.642c-1.06-.522-3.49-.416-3.19-1.565.38-1.499 2.69-1.534 4.13-2.108.34-.135.77-.145 1.09.02.48.245 1.44.651 1.18 1.127m-7.17 2.53c-.45-.104-1.33.147-1.34-.313-.02-.457.88-.437 1.32-.333m-340.975.652c-.449-.105-1.337.147-1.348-.314-.015-.617.707-1.449 1.308-1.309m498.035.618c-.45-.105-1.33.146-1.34-.314-.02-.457.88-.437 1.32-.333m-57.98.652c-.45-.113-1.39.13-1.36-.34.05-.887.73-1.77 1.51-2.197.36-.2.3.8.28 1.216m-83.45.286c-.17-.428-.47-.825-.5-1.283-.11-1.685-.24-3.413.11-5.063.37-1.708 1.46-3.185 2.02-4.84.69-2.033 1-4.184 1.72-6.205.81-2.266 1.67-4.543 2.88-6.624 2.21-3.784 4.56-7.511 7.32-10.906 1.51-1.851 3.47-3.303 5.4-4.708.29-.206.74-.136 1.05.013.19.086.24.377.2.574-.35 1.536-.84 3.04-1.36 4.527-1.66 4.755-3.74 9.368-5.19 14.193-.12.387.7.638.63 1.035-.1.543-.81.784-1.05 1.278-1 2.01-1.54 4.237-2.65 6.189-1.06 1.877-2.38 3.614-3.82 5.223-.99 1.112-2.35 1.842-3.41 2.883m-62.325 3.749c-.46-.096-1.045.04-1.38-.29-.259-.253-.175-.759-.02-1.087.375-.801.66-2.184 1.544-2.16.743.02.324 1.468.294 2.21m-139.433-.685c-.138-.324-.527-.637-.414-.97.244-.724.997-1.17 1.363-1.84.056-.102-.285-.201-.203-.283 1.431-1.42 2.832-2.92 4.527-4.01 1.736-1.117 3.714-1.818 5.65-2.537.147-.054.353.15.356.307a3.299 3.299 0 0 1-.325 1.502c-.642 1.3-1.263 2.661-2.255 3.72-.206.219-.436-.454-.725-.541-.335-.1-.745-.164-1.05.008-.296.167-.236.688-.518.877m304.584-.226c-.45-.105-1.33.146-1.34-.314-.02-.457.88-.437 1.32-.333m14.01-1.38c-.12-.437-.35-.858-.36-1.31 0-.146.25-.405.33-.282.24.386.32.874.33 1.332m140.31-.703c-.32-.114-1.09-.026-.97-.343.96-2.463 2.33-4.766 3.81-6.957.64-.953 1.41-1.988 2.49-2.379 1.27-.458 2.72-.19 4.05.014.22.033.24.435.16.632-.44.955-.99 1.865-1.66 2.678-.83 1.018-1.71 2.036-2.8 2.777-1.02.7-2.4.756-3.41 1.47m-864.87.823c.634-.671 1.415-1.23 1.902-2.015.185-.299.175-.75 0-1.055-.307-.533-.76-1.063-1.339-1.27-.296-.106-.498.614-.793.508-.85-.302-1.302-1.514-2.203-1.574-.63-.042-1.038.785-1.349 1.336-.173.306-.239.798 0 1.055m784.382 1.29c-.45-.105-1.33.146-1.34-.314-.02-.457.88-.437 1.32-.333m-275.994.62c-.119-.437-.35-.858-.358-1.31-.002-.146.255-.405.332-.282.245.386.325.874.332 1.332m282.708-.713c-.45-.105-1.33.146-1.35-.314-.01-.457.89-.437 1.33-.333m-58.99.62c-.12-.437-.35-.858-.36-1.31 0-.146.25-.405.33-.282.24.387.32.874.33 1.332m-43.29.287c-.45-.105-1.33.146-1.35-.314-.01-.457.89-.437 1.33-.333m-180.005-.381c-.452-.42-1.045-.728-1.357-1.26-.183-.314-.113-.738-.019-1.089.803-2.994 2.067-5.866 2.696-8.901.083-.4-.799-.672-.636-1.045.187-.424.843-.442 1.305-.478 1.006-.079 2.216-.465 3.024.14.637.479.487 1.59.323 2.37-.113.534-.858.73-1.082 1.227-.897 1.99-1.313 4.178-2.243 6.153m-8.004-8.119c-.12-.437-.598-.926-.359-1.312.245-.395.926-.467 1.362-.305.251.093.116.575-.025.803m11.047-5.137c-.69.003-1.474.354-2.072.007-.414-.24-.472-.94-.33-1.398.3-.978.963-1.813 1.57-2.635.448-.607 1.155-1 1.574-1.627.924-1.385 1.521-2.967 2.425-4.366.181-.281.5-.777.793-.616.404.22.504.841.461 1.299-.066.71-.727 1.287-.767 2-.022.387.598.611.598 1 0 .387-.577.61-.597.998-.016.31.675.524.506.786-.46.711-1.444.923-2.015 1.549"/></svg>